<svg xmlns="http://www.w3.org/2000/svg" xmlns:xlink="http://www.w3.org/1999/xlink" width="747.347" height="1046.286" version="1.0"><g transform="translate(.204 -12.362)"><g id="a" font-size="144" font-weight="400" text-anchor="middle" fill="red" font-family="Arial"><text style="text-align:center" x="58.666" y="158.362" transform="translate(2.768 .682)"><tspan style="text-align:center;-inkscape-font-specification:Arial Narrow" x="58.666" y="158.362" font-family="Arial Narrow">10</tspan></text><text y="298.362" x="66.436" style="text-align:center" transform="translate(2.768 .682)"><tspan y="298.362" x="66.436" style="text-align:center;-inkscape-font-specification:Arial Narrow" font-family="Arial Narrow">♥</tspan></text></g><use xlink:href="#a" transform="rotate(180 373.47 535.505)" width="747.347" height="1046.286"/></g><g transform="translate(66.61 -12.362)"><g transform="translate(-140)" id="d"><text xml:space="preserve" style="text-align:center" x="307.063" y="270.639" id="b" font-size="250" font-style="normal" font-weight="400" text-anchor="middle" fill="red" fill-opacity="1" stroke="none" stroke-width="1" stroke-linecap="butt" stroke-linejoin="miter" stroke-opacity="1" font-family="Arial"><tspan x="307.063" y="270.639">♥</tspan></text><use xlink:href="#b" transform="matrix(1 0 0 -1 0 1071.01)" width="747.347" height="1046.286"/><use transform="translate(0 220)" height="1046.286" width="747.347" id="c" xlink:href="#b" y="0" x="0"/><use height="1046.286" width="747.347" transform="matrix(1 0 0 -1 0 1071.01)" xlink:href="#c"/></g><use height="1046.286" width="747.347" transform="translate(280)" xlink:href="#d"/></g><g transform="translate(68.651 -.648)"><text id="e" y="384.925" x="305.022" style="text-align:center" xml:space="preserve" font-size="250" font-style="normal" font-weight="400" text-anchor="middle" fill="red" fill-opacity="1" stroke="none" stroke-width="1" stroke-linecap="butt" stroke-linejoin="miter" stroke-opacity="1" font-family="Arial"><tspan y="384.925" x="305.022">♥</tspan></text><use height="1046.286" width="747.347" transform="matrix(1 0 0 -1 0 1059.581)" xlink:href="#e"/></g></svg>