<svg xmlns="http://www.w3.org/2000/svg" xmlns:xlink="http://www.w3.org/1999/xlink" width="747.347" height="1046.286" version="1.0"><g transform="translate(2.245 -.648)"><g transform="translate(-2.04 -11.714)"><g id="a" font-size="144" font-weight="400" text-anchor="middle" fill="red" font-family="Arial"><text style="text-align:center" x="53.478" y="158.362" transform="translate(2.768 .682)"><tspan style="text-align:center;-inkscape-font-specification:Arial Narrow" x="53.478" y="158.362" font-family="Arial Narrow">J</tspan></text><text y="298.362" x="54.779" style="text-align:center" transform="translate(2.768 .682)"><tspan y="298.362" x="54.779" style="text-align:center;-inkscape-font-specification:Arial Narrow" font-family="Arial Narrow">♦</tspan></text></g><use xlink:href="#a" transform="rotate(180 373.47 535.505)" width="747.347" height="1046.286"/></g><path opacity=".775" fill="none" stroke="#000" stroke-width="8.5" stroke-linecap="square" d="M117.143 92.362h508.571v862.857h-508.57z"/><path id="i" d="M309.898 316.22l128.929-12.144c10.025 2.078.747 17.081 9.393 20.61 90.426 36.899 128.554 134.686 172.173 185.413l-497.924.12c23.742-106.75 96.677-101.978 187.429-165.428v-28.572z" style="marker:none" fill="red" fill-opacity="1" fill-rule="nonzero" stroke="red" stroke-width="1" stroke-linecap="butt" stroke-linejoin="miter" marker-start="none" marker-mid="none" marker-end="none" stroke-miterlimit="4" stroke-dasharray="none" stroke-dashoffset="0" stroke-opacity="1" visibility="visible" display="inline" overflow="visible"/><text xml:space="preserve" style="text-align:center" x="195.022" y="264.925" id="b" font-size="250" font-style="normal" font-weight="400" text-anchor="middle" fill="red" fill-opacity="1" stroke="none" stroke-width="1" stroke-linecap="butt" stroke-linejoin="miter" stroke-opacity="1" font-family="Arial"><tspan x="195.022" y="264.925">♦</tspan></text><use xlink:href="#b" transform="matrix(1 0 0 -1 352 1039.581)" width="747.347" height="1046.286"/><g id="j"><path transform="translate(-2.245 .648)" d="M327.647 222.358c-3.008 9.275-4.652 18.362-3.423 26.247l-6.86 21.85.058 2.843c-.045.334 2.968 3.57 6.048 3.905l-1.324 14.2c-1.111.767 1.786 1.037 1.786 2.3 0 1.421-2.386 2.035-2.386 2.035 1.776 6.628-7.233 13.382-.788 19.827 4.168 4.169 41.296-.065 41.296-.065 47.992 0 48.571-35 48.571-35 0-40.41-2.582-66.014-2.582-66.014-2.482-.014-18.086-2.82-34.972-1.11-18.548 1.88-29.644 4.2-45.424 8.982z" style="marker:none" fill="#ddbdd0" stroke="#ddbdd0" overflow="visible"/><path transform="translate(-2.245 .648)" d="M295.934 130.982l23.795 68.686c104.195-13.732 94.255-3.931 127.796 0l19.795-68.686c-43.06-15.414-99.137-19.55-171.386 0z" style="marker:none" stroke="#000" overflow="visible"/><path transform="translate(-2.245 .648)" d="M380.228 208.806l9.02 120.456 63.602-9.301-9.3-97.985-63.322-13.17z" style="marker:none" fill="#c6c801" stroke="#000" overflow="visible"/><path d="M328.773 237.556c8.089-1.161 14.275.35 21.486 6.18" style="marker:none" fill="none" fill-opacity=".703" stroke="#000" stroke-width="4" stroke-linecap="round" stroke-linejoin="round" overflow="visible"/><path id="c" d="M384.452 213.54l10.089 115.358" style="marker:none" opacity="1" fill="none" fill-opacity=".703" fill-rule="nonzero" stroke="#000" stroke-width="1" stroke-linecap="butt" stroke-linejoin="miter" marker-start="none" marker-mid="none" marker-end="none" stroke-miterlimit="4" stroke-dasharray="none" stroke-dashoffset="0" stroke-opacity="1" visibility="visible" display="inline" overflow="visible"/><use transform="translate(8 -1.071)" height="1046.286" width="747.347" id="d" xlink:href="#c" y="0" x="0"/><use transform="translate(8 -1.071)" height="1046.286" width="747.347" id="e" xlink:href="#d" y="0" x="0"/><use height="1046.286" width="747.347" transform="translate(8 -1.643)" id="f" xlink:href="#e" y="0" x="0"/><use transform="translate(8 -.714)" height="1046.286" width="747.347" id="g" xlink:href="#f" y="0" x="0"/><use height="1046.286" width="747.347" transform="translate(8 -1.071)" id="h" xlink:href="#g" y="0" x="0"/><use transform="translate(8 -2)" height="1046.286" width="747.347" xlink:href="#h"/><path d="M334.325 243.643c4.212.888 4.64 1.05 8.125 5.126-3.668 1.537-5.011 1.66-8.872 1.36-7.821-1.3-5.569-7.368.747-6.486z" style="marker:none" fill="#fff" stroke="#000" stroke-width=".5" overflow="visible"/><path transform="matrix(4.1172 0 0 4.18751 -1049.104 -783.594)" d="M336.57 246.055a.758.694 0 11-1.515 0 .758.694 0 111.515 0z" fill="#6c5353" stroke="#000" stroke-width=".12" stroke-linecap="round" stroke-linejoin="round"/><path d="M334.073 246.893a.758.694 0 11-1.515 0 .758.694 0 111.515 0z" stroke="#000" stroke-width=".5" stroke-linecap="round" stroke-linejoin="round"/><path d="M334.727 289.435c.115-.11.419.748.48.857.176.311-.36.649-.647.763-.613.24-1.528-.701-1.7-1.272-.307-1.028.521-2 1.488-2.232 1.568-.375 2.997.885 3.291 2.37.443 2.237-1.355 4.248-3.492 4.589-1.11.177-3.767-.68-7.273-1.53-3.449-.835-5.635-1.686-6.774-2.258" fill="none" fill-rule="evenodd" stroke="#000" stroke-width="1.6" stroke-linecap="round"/><path d="M441.28 222.316l4-22c-33.541-3.931-23.601-13.732-127.796 0l8 22c65.304-10.197 69.628-11.002 115.796 0z" style="marker:none" fill="red" stroke="red" overflow="visible"/></g><use xlink:href="#i" transform="rotate(180 371.684 509.203)" width="747.347" height="1046.286"/><use xlink:href="#j" transform="rotate(180 371.684 509.203)" width="747.347" height="1046.286"/><g id="k"><path transform="translate(-2.245 .648)" d="M596.643 202.357l-77.321-26.077V312l77.736-26.188" style="marker:none" fill="#c4c4c4" stroke="#000" overflow="visible"/><path d="M593.24 481.208c-2.02-6.061 0-279.813 0-279.813l16.162-23.233h12.122v334.36l-28.284-31.314z" style="marker:none" fill="olive" stroke="#000" overflow="visible"/><path style="marker:none" d="M623.571 177.714l-14.642 26.429v292.321l14.642 14.822" transform="translate(-2.245 .648)" fill="red" stroke="red" overflow="visible"/></g><use xlink:href="#k" transform="rotate(180 371.3 509.725)" width="747.347" height="1046.286"/></g></svg>