<svg xmlns="http://www.w3.org/2000/svg" xmlns:xlink="http://www.w3.org/1999/xlink" width="747.347" height="1046.286" version="1.0"><g transform="translate(2.245 -.648)"><g id="a" stroke="#000" stroke-width=".449"><path d="M548.837 369.008V192.181l11.672-30 11.672 30v176.827" style="marker:none" fill="#bfbfbf" overflow="visible" stroke-width=".99941563"/><path style="marker:none" d="M549.932 377.173h-27.255s-8.183-5.051-8.139-8.658c.044-3.607 8.543-8.66 8.543-8.66h74.856s8.5 5.053 8.543 8.66c.043 3.607-8.14 8.658-8.14 8.658h-27.254l.106 81.524c0 6.439-21.26 6.082-21.26 0v-81.524z" fill="#bbb700" overflow="visible" stroke-width=".99941563"/></g><use xlink:href="#a" transform="rotate(180 367.89 504.568)" width="747.347" height="1046.286"/><g transform="translate(-2.04 -11.714)"><g id="b" font-size="144" font-weight="400" text-anchor="middle" font-family="Arial"><text style="text-align:center" x="50.455" y="158.362" transform="translate(2.768 .682)"><tspan style="text-align:center;-inkscape-font-specification:Arial Narrow" x="50.455" y="158.362" font-family="Arial Narrow">K</tspan></text><text y="298.362" x="54.779" style="text-align:center" transform="translate(2.768 .682)"><tspan y="298.362" x="54.779" style="text-align:center;-inkscape-font-specification:Arial Narrow" font-family="Arial Narrow">♣</tspan></text></g><use xlink:href="#b" transform="rotate(180 373.47 535.505)" width="747.347" height="1046.286"/></g><path opacity=".775" fill="none" stroke="#000" stroke-width="8.5" stroke-linecap="square" d="M117.143 92.362h508.571v862.857h-508.57z"/><text xml:space="preserve" x="205.022" y="264.925" id="c" font-size="250" font-style="normal" font-weight="400" fill="#000" fill-opacity="1" stroke="none" stroke-width="1" stroke-linecap="butt" stroke-linejoin="miter" stroke-opacity="1" font-family="Arial"><tspan x="205.022" y="264.925" style="text-align:center" text-anchor="middle">♣</tspan></text><use xlink:href="#c" transform="matrix(1 0 0 -1 328 1039.581)" width="747.347" height="1046.286"/><path id="C" d="M309.898 316.22l128.929-12.144c10.025 2.078 4.974 12.383 9.393 20.61 42.926 79.899 170.341 156.818 172.173 185.413l-497.924.12c21.99-32.479 96.677-101.978 187.429-165.428v-28.572z" style="marker:none" fill="#000" fill-opacity="1" fill-rule="nonzero" stroke="#000" stroke-width="1" stroke-linecap="butt" stroke-linejoin="miter" marker-start="none" marker-mid="none" marker-end="none" stroke-miterlimit="4" stroke-dasharray="none" stroke-dashoffset="0" stroke-opacity="1" visibility="visible" display="inline" overflow="visible"/><g id="D"><path transform="translate(-2.245 .648)" d="M327.647 222.358c-3.008 9.275-2.57 18.312-3.423 26.247 0 1.795-6.86 21.85-6.86 21.85l.058 2.843c-.045.334 2.968 3.57 6.048 3.905l-1.324 14.2c-1.111.767 5.786-.963 5.786.3 0 1.421-6.386 4.035-6.386 4.035 0 6.756-4.345 16.27-.788 19.827 4.168 4.169 41.296-.065 41.296-.065 47.992 0 48.571-35 48.571-35 0-40.41-2.582-66.014-2.582-66.014-2.482-.014-18.086-2.82-34.972-1.11-18.548 1.88-29.644 4.2-45.424 8.982z" style="marker:none" fill="#ddbdd0" stroke="#ddbdd0" overflow="visible"/><path transform="translate(-2.245 .648)" d="M380.228 208.806l9.02 140.456 63.602-13.301-9.3-113.985-63.322-13.17z" style="marker:none" fill="#b2b2b2" stroke="#000" overflow="visible"/><path d="M328.773 237.556c8.089-1.161 14.275.35 21.486 6.18" style="marker:none" fill="none" fill-opacity=".703" stroke="#000" stroke-width="4" stroke-linecap="round" stroke-linejoin="round" overflow="visible"/><path id="d" d="M384.452 213.54l10.089 161.358" style="marker:none" opacity="1" fill="none" fill-opacity=".703" fill-rule="nonzero" stroke="#000" stroke-width="1" stroke-linecap="butt" stroke-linejoin="miter" marker-start="none" marker-mid="none" marker-end="none" stroke-miterlimit="4" stroke-dasharray="none" stroke-dashoffset="0" stroke-opacity="1" visibility="visible" display="inline" overflow="visible"/><use transform="translate(8 2.929)" height="1046.286" width="747.347" id="e" xlink:href="#d" y="0" x="0"/><use transform="translate(8 2.929)" height="1046.286" width="747.347" id="f" xlink:href="#e" y="0" x="0"/><use height="1046.286" width="747.347" transform="translate(8 2.357)" id="g" xlink:href="#f" y="0" x="0"/><use transform="translate(8 5.286)" height="1046.286" width="747.347" id="h" xlink:href="#g" y="0" x="0"/><use height="1046.286" width="747.347" transform="translate(8 .929)" id="i" xlink:href="#h" y="0" x="0"/><use transform="translate(8 10)" height="1046.286" width="747.347" xlink:href="#i"/><path d="M334.325 243.643c4.212.888 4.64 1.05 8.125 5.126-3.668 1.537-5.011 1.66-8.872 1.36-7.821-1.3-5.569-7.368.747-6.486z" style="marker:none" fill="#fff" stroke="#000" stroke-width=".5" overflow="visible"/><path transform="matrix(4.1172 0 0 4.18751 -1049.104 -783.594)" d="M336.57 246.055a.758.694 0 11-1.515 0 .758.694 0 111.515 0z" fill="#165044" stroke="#000" stroke-width=".12" stroke-linecap="round" stroke-linejoin="round"/><path d="M334.073 246.893a.758.694 0 11-1.515 0 .758.694 0 111.515 0z" stroke="#000" stroke-width=".5" stroke-linecap="round" stroke-linejoin="round"/><path style="marker:none" d="M317.853 305.782l-2.812 6.652" id="j" opacity="1" fill="none" fill-opacity=".703" fill-rule="nonzero" stroke="#5a5a5a" stroke-width="1" stroke-linecap="butt" stroke-linejoin="miter" marker-start="none" marker-mid="none" marker-end="none" stroke-miterlimit="4" stroke-dasharray="none" stroke-dashoffset="0" stroke-opacity="1" visibility="visible" display="inline" overflow="visible"/><use x="0" y="0" xlink:href="#j" id="k" transform="translate(2)" width="747.347" height="1046.286"/><use x="0" y="0" xlink:href="#k" id="l" transform="translate(2)" width="747.347" height="1046.286"/><use x="0" y="0" xlink:href="#l" id="m" transform="translate(2)" width="747.347" height="1046.286"/><use x="0" y="0" xlink:href="#m" id="n" transform="translate(2)" width="747.347" height="1046.286"/><use x="0" y="0" xlink:href="#n" id="o" transform="translate(2)" width="747.347" height="1046.286"/><use x="0" y="0" xlink:href="#o" id="p" transform="translate(2)" width="747.347" height="1046.286"/><use x="0" y="0" xlink:href="#p" id="q" transform="translate(2)" width="747.347" height="1046.286"/><use x="0" y="0" xlink:href="#q" id="r" transform="translate(2)" width="747.347" height="1046.286"/><use xlink:href="#r" transform="translate(2.179)" width="747.347" height="1046.286"/><use x="0" y="0" xlink:href="#j" id="s" transform="translate(.804 7.286)" width="747.347" height="1046.286"/><use x="0" y="0" xlink:href="#s" id="t" transform="translate(2)" width="747.347" height="1046.286"/><use x="0" y="0" xlink:href="#t" id="u" transform="translate(2)" width="747.347" height="1046.286"/><use x="0" y="0" xlink:href="#u" id="v" transform="translate(2)" width="747.347" height="1046.286"/><use x="0" y="0" xlink:href="#v" id="w" transform="translate(2)" width="747.347" height="1046.286"/><use x="0" y="0" xlink:href="#w" id="x" transform="translate(2)" width="747.347" height="1046.286"/><use x="0" y="0" xlink:href="#x" id="y" transform="translate(2)" width="747.347" height="1046.286"/><use x="0" y="0" xlink:href="#y" id="z" transform="translate(2.045)" width="747.347" height="1046.286"/><use x="0" y="0" xlink:href="#z" id="A" transform="translate(2)" width="747.347" height="1046.286"/><use x="0" y="0" xlink:href="#A" id="B" transform="translate(2)" width="747.347" height="1046.286"/><use xlink:href="#B" transform="translate(2)" width="747.347" height="1046.286"/><path transform="translate(.077 -2.03)" d="M336.263 290.828c.12-.095.278.034.327.144.138.313-.15.626-.436.708-.607.173-1.149-.363-1.259-.924-.197-1.012.685-1.863 1.631-1.993 1.533-.212 2.78 1.126 2.923 2.573.213 2.18-1.695 3.915-3.768 4.057-2.015.138-9.426-2.337-11.752-3.393" fill="none" fill-rule="evenodd" stroke="#484848" stroke-linecap="round"/><path style="marker:none" d="M323 225.286l126 15.5 2-42-10.17-37.955-19.935 34.528-9.739-36.347-18.73 32.442-9.274-34.61-18.153 31.44-8.82-32.912-19.788 34.274v-34.86l-8.379 31.27-5.012 39.23z" transform="translate(-2.245 .648)" fill="#bbb700" stroke="#000" stroke-linejoin="round" overflow="visible"/></g><use xlink:href="#C" transform="rotate(180 371.684 509.203)" width="747.347" height="1046.286"/><use xlink:href="#D" transform="rotate(180 371.684 509.203)" width="747.347" height="1046.286"/><path style="marker:none" d="M560.005 164.8v194.567h1V164.8l-.5-1.242-.5 1.242z" id="E" opacity="1" fill="#727272" fill-opacity="1" fill-rule="nonzero" stroke="none" stroke-width="1" stroke-linecap="butt" stroke-linejoin="miter" stroke-miterlimit="4" stroke-dasharray="none" stroke-dashoffset="0" stroke-opacity="1" visibility="visible" display="inline" overflow="visible"/><use xlink:href="#E" transform="rotate(180 367.888 504.573)" width="747.347" height="1046.286"/></g></svg>