<?xml version="1.0" encoding="UTF-8" standalone="no"?>
<!-- Created with Inkscape (http://www.inkscape.org/) -->

<svg
   xmlns:dc="http://purl.org/dc/elements/1.1/"
   xmlns:cc="http://creativecommons.org/ns#"
   xmlns:rdf="http://www.w3.org/1999/02/22-rdf-syntax-ns#"
   xmlns:svg="http://www.w3.org/2000/svg"
   xmlns="http://www.w3.org/2000/svg"
   xmlns:xlink="http://www.w3.org/1999/xlink"
   xmlns:sodipodi="http://sodipodi.sourceforge.net/DTD/sodipodi-0.dtd"
   xmlns:inkscape="http://www.inkscape.org/namespaces/inkscape"
   width="747.34698"
   height="1046.2856"
   id="svg2"
   sodipodi:version="0.32"
   inkscape:version="0.92.4 (5da689c313, 2019-01-14)"
   version="1.0"
   sodipodi:docname="Cards-Q-Heart.svg"
   inkscape:output_extension="org.inkscape.output.svg.inkscape">
  <defs
     id="defs4">
    <inkscape:perspective
       sodipodi:type="inkscape:persp3d"
       inkscape:vp_x="0 : 526.18109 : 1"
       inkscape:vp_y="0 : 1000 : 0"
       inkscape:vp_z="744.09448 : 526.18109 : 1"
       inkscape:persp3d-origin="372.04724 : 350.78739 : 1"
       id="perspective10" />
    <inkscape:perspective
       id="perspective2390"
       inkscape:persp3d-origin="372.04724 : 350.78739 : 1"
       inkscape:vp_z="744.09448 : 526.18109 : 1"
       inkscape:vp_y="0 : 1000 : 0"
       inkscape:vp_x="0 : 526.18109 : 1"
       sodipodi:type="inkscape:persp3d" />
  </defs>
  <sodipodi:namedview
     id="base"
     pagecolor="#ffffff"
     bordercolor="#666666"
     borderopacity="1.0"
     gridtolerance="10000"
     guidetolerance="10"
     objecttolerance="10"
     inkscape:pageopacity="0.0"
     inkscape:pageshadow="2"
     inkscape:zoom="0.7"
     inkscape:cx="65.700163"
     inkscape:cy="523.7083"
     inkscape:document-units="px"
     inkscape:current-layer="layer1"
     showgrid="false"
     showguides="true"
     inkscape:guide-bbox="true"
     inkscape:window-width="3840"
     inkscape:window-height="2066"
     inkscape:window-x="-11"
     inkscape:window-y="-11"
     inkscape:window-maximized="1" />
  <metadata
     id="metadata7">
    <rdf:RDF>
      <cc:Work
         rdf:about="">
        <dc:format>image/svg+xml</dc:format>
        <dc:type
           rdf:resource="http://purl.org/dc/dcmitype/StillImage" />
      </cc:Work>
    </rdf:RDF>
  </metadata>
  <g
     inkscape:label="Layer 1"
     inkscape:groupmode="layer"
     id="layer1"
     transform="translate(2.2448993,-0.6479052)">
    <path
       inkscape:connector-curvature="0"
       style="display:inline;overflow:visible;visibility:visible;opacity:1;fill:#0b3400;fill-opacity:1;fill-rule:nonzero;stroke:#0b3400;stroke-width:1;stroke-linecap:butt;stroke-linejoin:miter;stroke-miterlimit:4;stroke-dasharray:none;stroke-dashoffset:0;stroke-opacity:1;marker:none;marker-start:none;marker-mid:none;marker-end:none;enable-background:accumulate"
       d="m 529.21826,401.00803 v -74.82719 h 15.34438 v 101.97038"
       id="path3994" />
    <path
       inkscape:connector-curvature="0"
       id="path3996"
       style="fill:#ff0000;fill-opacity:1;stroke:#ff0000;stroke-width:1.5999999;stroke-linecap:round;stroke-linejoin:round;stroke-miterlimit:4;stroke-opacity:1"
       d="m 536.89044,328.68403 c 6.68098,0 14.26713,16.92083 28.83245,2.29741 14.38274,-14.44012 -3.56406,-22.19412 -3.56406,-28.74032 0,-6.54618 17.9468,-14.30018 3.56406,-28.7403 -14.56532,-14.62342 -22.48649,2.29741 -28.83245,2.29743 -6.34594,0 -14.26708,-16.92085 -28.83243,-2.29741 -14.38274,14.4401 3.56409,22.19412 3.56409,28.7403 0,6.54618 -17.94683,14.30018 -3.56409,28.7403 14.56535,14.62342 22.15148,-2.29741 28.83243,-2.29741 z"
       sodipodi:nodetypes="cscscscsc" />
    <path
       style="opacity:1;fill:#f7fa00;fill-opacity:1;stroke:#f7fa00;stroke-width:1.5999999;stroke-linecap:round;stroke-linejoin:round;stroke-miterlimit:4;stroke-dasharray:none;stroke-opacity:1"
       d="m 544.56251,302.24094 a 7.672194,7.7027984 0 0 1 -7.67219,7.70279 7.672194,7.7027984 0 0 1 -7.67219,-7.70279 7.672194,7.7027984 0 0 1 7.67219,-7.7028 7.672194,7.7027984 0 0 1 7.67219,7.7028 z"
       id="path4010" />
    <path
       inkscape:connector-curvature="0"
       id="path860"
       d="m 240.56239,654.12713 v 74.82719 H 225.21801 V 626.98394"
       style="display:inline;overflow:visible;visibility:visible;opacity:1;fill:#0b3400;fill-opacity:1;fill-rule:nonzero;stroke:#0b3400;stroke-width:1;stroke-linecap:butt;stroke-linejoin:miter;stroke-miterlimit:4;stroke-dasharray:none;stroke-dashoffset:0;stroke-opacity:1;marker:none;marker-start:none;marker-mid:none;marker-end:none;enable-background:accumulate" />
    <path
       inkscape:connector-curvature="0"
       sodipodi:nodetypes="cscscscsc"
       d="m 232.89021,726.45113 c -6.68098,0 -14.26713,-16.92083 -28.83245,-2.29741 -14.38274,14.44012 3.56406,22.19412 3.56406,28.74032 0,6.54618 -17.9468,14.30018 -3.56406,28.7403 14.56532,14.62342 22.48649,-2.29741 28.83245,-2.29743 6.34594,0 14.26708,16.92085 28.83243,2.29741 14.38274,-14.4401 -3.56409,-22.19412 -3.56409,-28.7403 0,-6.54618 17.94683,-14.30018 3.56409,-28.7403 -14.56535,-14.62342 -22.15148,2.29741 -28.83243,2.29741 z"
       style="fill:#ff0000;fill-opacity:1;stroke:#ff0000;stroke-width:1.5999999;stroke-linecap:round;stroke-linejoin:round;stroke-miterlimit:4;stroke-opacity:1"
       id="path862" />
    <path
       transform="scale(-1)"
       style="opacity:1;fill:#f7fa00;fill-opacity:1;stroke:#f7fa00;stroke-width:1.5999999;stroke-linecap:round;stroke-linejoin:round;stroke-miterlimit:4;stroke-dasharray:none;stroke-opacity:1"
       d="m -225.21811,-752.89423 a 7.672194,7.7027984 0 0 1 -7.67219,7.7028 7.672194,7.7027984 0 0 1 -7.6722,-7.7028 7.672194,7.7027984 0 0 1 7.6722,-7.70279 7.672194,7.7027984 0 0 1 7.67219,7.70279 z"
       id="path864" />
    <path
       inkscape:connector-curvature="0"
       id="path1005"
       style="font-style:normal;font-variant:normal;font-weight:normal;font-stretch:normal;font-size:144px;line-height:1.25;font-family:'Arial Narrow';-inkscape-font-specification:'Arial Narrow';text-align:center;text-anchor:middle;fill:#ff0000;fill-opacity:1;stroke:none;stroke-width:1px;stroke-linecap:butt;stroke-linejoin:miter;stroke-opacity:1"
       d="m 54.258671,51.986023 q -15.46875,0 -24.609375,11.53125 -9.070313,11.53125 -9.070313,31.429687 0,19.82813 9.070313,31.35938 9.140625,11.53125 24.609375,11.53125 15.46875,0 24.46875,-11.53125 9.070312,-11.53125 9.070312,-31.35938 0,-19.898437 -9.070312,-31.429687 -9,-11.53125 -24.46875,-11.53125 z m 19.898437,93.445317 18.703125,20.46093 H 75.703983 L 60.164921,149.08759 q -2.320313,0.14062 -3.585938,0.21093 -1.195312,0.0703 -2.320312,0.0703 -22.148438,0 -35.4375,-14.76563 Q 5.6024208,119.76727 5.6024208,94.94696 q 0,-24.890625 13.2187502,-39.65625 13.289062,-14.835937 35.4375,-14.835937 22.078125,0 35.296875,14.835937 13.218754,14.765625 13.218754,39.65625 0,18.28125 -7.382817,31.28906 -7.3125,13.00782 -21.234375,19.19532 z" />
    <path
       inkscape:connector-curvature="0"
       id="path1008"
       style="font-style:normal;font-variant:normal;font-weight:normal;font-stretch:normal;font-size:144px;line-height:1.25;font-family:'Arial Narrow';-inkscape-font-specification:'Arial Narrow';text-align:center;text-anchor:middle;fill:#ff0000;fill-opacity:1;stroke:none;stroke-width:1px;stroke-linecap:butt;stroke-linejoin:miter;stroke-opacity:1"
       d="m 33.481327,182.42352 q 14.273438,0 22.429688,16.52344 2.953125,6.53906 3.09375,9.98438 h 0.210937 q 2.460938,-11.39063 8.929688,-18.91407 7.59375,-7.59375 17.085937,-7.59375 14.695313,0 23.554683,15.75 2.25,5.83594 2.25,10.96875 0,17.57813 -14.624995,33.53907 L 59.215702,287.32977 H 58.793827 L 19.278202,238.88446 Q 7.4657021,224.4704 7.4657021,209.14227 q 0,-14.83593 13.9921879,-23.55468 5.90625,-3.16407 12.023437,-3.16407 z" />
    <path
       inkscape:connector-curvature="0"
       id="path1002"
       style="font-style:normal;font-variant:normal;font-weight:normal;font-stretch:normal;font-size:144px;line-height:1.25;font-family:'Arial Narrow';-inkscape-font-specification:'Arial Narrow';text-align:center;text-anchor:middle;fill:#ff0000;fill-opacity:1;stroke:none;stroke-width:1px;stroke-linecap:butt;stroke-linejoin:miter;stroke-opacity:1"
       d="m 688.59851,995.5954 q 15.46875,0 24.60938,-11.53125 9.07031,-11.53125 9.07031,-31.42969 0,-19.82812 -9.07031,-31.35937 -9.14063,-11.53125 -24.60938,-11.53125 -15.46875,0 -24.46875,11.53125 -9.07031,11.53125 -9.07031,31.35937 0,19.89844 9.07031,31.42969 9,11.53125 24.46875,11.53125 z m -19.89844,-93.44531 -18.70312,-20.46094 h 17.15625 l 15.53906,16.80469 q 2.32031,-0.14063 3.58594,-0.21094 1.19531,-0.0703 2.32031,-0.0703 22.14844,0 35.4375,14.76562 13.21875,14.83594 13.21875,39.65625 0,24.89063 -13.21875,39.65625 -13.28906,14.83588 -35.4375,14.83588 -22.07812,0 -35.29687,-14.83588 -13.21875,-14.76562 -13.21875,-39.65625 0,-18.28125 7.38281,-31.28906 7.3125,-13.00781 21.23437,-19.19531 z" />
    <path
       inkscape:connector-curvature="0"
       id="path999"
       style="font-style:normal;font-variant:normal;font-weight:normal;font-stretch:normal;font-size:144px;line-height:1.25;font-family:'Arial Narrow';-inkscape-font-specification:'Arial Narrow';text-align:center;text-anchor:middle;fill:#ff0000;fill-opacity:1;stroke:none;stroke-width:1px;stroke-linecap:butt;stroke-linejoin:miter;stroke-opacity:1"
       d="m 709.37585,865.1579 q -14.27343,0 -22.42968,-16.52344 -2.95313,-6.53906 -3.09375,-9.98437 h -0.21094 q -2.46094,11.39062 -8.92969,18.91406 -7.59375,7.59375 -17.08594,7.59375 -14.69531,0 -23.55468,-15.75 -2.25,-5.83594 -2.25,-10.96875 0,-17.57813 14.625,-33.53906 l 37.19531,-44.64844 h 0.42187 l 39.51563,48.44531 q 11.8125,14.41406 11.8125,29.74219 0,14.83594 -13.99219,23.55469 -5.90625,3.16406 -12.02344,3.16406 z" />
    <path
       style="opacity:0.77520004;fill:none;fill-opacity:1;stroke:#000000;stroke-width:8.5;stroke-linecap:square;stroke-linejoin:miter;stroke-miterlimit:4;stroke-dasharray:none;stroke-opacity:1"
       d="M 117.14288,92.362167 H 625.71432 V 955.21928 H 117.14288 Z"
       id="rect3077" />
    <path
       inkscape:connector-curvature="0"
       id="path996"
       style="font-style:normal;font-weight:normal;font-size:250px;line-height:1.25;font-family:Arial;text-align:center;text-anchor:middle;fill:#ff0000;fill-opacity:1;stroke:none;stroke-width:1px;stroke-linecap:butt;stroke-linejoin:miter;stroke-opacity:1"
       d="m 201.26648,267.85468 q -3.78418,-14.4043 -10.86426,-26.97754 -6.95801,-12.69532 -27.09961,-39.30664 -14.77051,-19.53125 -18.18847,-24.78028 -5.61524,-8.54492 -8.17872,-15.625 -2.4414,-7.20215 -2.4414,-14.52637 0,-13.5498 9.0332,-22.70507 9.0332,-9.15528 22.33887,-9.15528 13.42773,0 23.31543,9.52149 7.44629,7.08008 12.08496,21.11816 4.02832,-13.79394 11.35254,-20.99609 10.13183,-9.76563 23.4375,-9.76563 13.18359,0 22.33887,9.15528 9.15527,9.0332 9.15527,21.60644 0,10.98633 -5.37109,22.94922 -5.3711,11.84082 -20.75196,31.12793 -20.01953,25.26855 -29.1748,41.50391 -7.20215,12.81738 -10.98633,26.85547 z" />
    <path
       inkscape:connector-curvature="0"
       d="m 537.26648,771.72672 q -3.78418,14.4043 -10.86426,26.97754 -6.95801,12.69532 -27.09961,39.30664 -14.77051,19.53125 -18.18847,24.78028 -5.61524,8.54492 -8.17872,15.625 -2.4414,7.20215 -2.4414,14.52637 0,13.5498 9.0332,22.70507 9.0332,9.15528 22.33887,9.15528 13.42773,0 23.31543,-9.52149 7.44629,-7.08008 12.08496,-21.11816 4.02832,13.79394 11.35254,20.99609 10.13183,9.76563 23.4375,9.76563 13.18359,0 22.33887,-9.15528 9.15527,-9.0332 9.15527,-21.60644 0,-10.98633 -5.37109,-22.94922 -5.3711,-11.84082 -20.75196,-31.12793 -20.01953,-25.26855 -29.1748,-41.50391 -7.20215,-12.81738 -10.98633,-26.85547 z"
       style="font-style:normal;font-weight:normal;font-size:250px;line-height:1.25;font-family:Arial;text-align:center;text-anchor:middle;fill:#ff0000;fill-opacity:1;stroke:none;stroke-width:1px;stroke-linecap:butt;stroke-linejoin:miter;stroke-opacity:1"
       id="path1014" />
    <path
       sodipodi:nodetypes="cccscccc"
       id="path3918"
       d="M 329.89796,328.36213 L 340.78759,317.71999 L 438.82653,304.07641 C 448.85157,306.15365 439.57428,321.15705 448.22049,324.68528 C 538.64583,361.58486 555.56123,472.50444 620.39287,510.09943 L 122.46938,510.21927 C 270.45962,480.24043 219.14627,408.24124 309.89796,344.7907 L 329.89796,328.36213 z"
       style="fill:#ff0000;fill-opacity:1;fill-rule:nonzero;stroke:#ff0000;stroke-width:1;stroke-linecap:butt;stroke-linejoin:miter;marker:none;marker-start:none;marker-mid:none;marker-end:none;stroke-miterlimit:4;stroke-dasharray:none;stroke-dashoffset:0;stroke-opacity:1;visibility:visible;display:inline;overflow:visible;enable-background:accumulate" />
    <use
       x="0"
       y="0"
       xlink:href="#use3201"
       id="use3203"
       transform="translate(0.1785715,-13.392858)"
       width="747.34698"
       height="1046.2856" />
    <path
       style="opacity:1;fill:#cccccc;fill-opacity:1;stroke:none;stroke-width:1.60000002;stroke-linecap:round;stroke-linejoin:round;stroke-miterlimit:4;stroke-dasharray:none;stroke-opacity:1"
       d="m 390.25512,319.61212 a 6.9642859,6.9642859 0 0 1 -6.96429,6.96429 6.9642859,6.9642859 0 0 1 -6.96428,-6.96429 6.9642859,6.9642859 0 0 1 6.96428,-6.96428 6.9642859,6.9642859 0 0 1 6.96429,6.96428 z"
       id="path2415" />
    <use
       x="0"
       y="0"
       xlink:href="#path2415"
       id="use3195"
       transform="translate(-10.714286,7.8571429)"
       width="747.34698"
       height="1046.2856" />
    <use
       x="0"
       y="0"
       xlink:href="#use3195"
       id="use3197"
       transform="translate(-9.1964281,9.7321429)"
       width="747.34698"
       height="1046.2856" />
    <use
       x="0"
       y="0"
       xlink:href="#use3197"
       id="use3199"
       transform="translate(-11.875,6.071429)"
       width="747.34698"
       height="1046.2856" />
    <use
       x="0"
       y="0"
       xlink:href="#use3199"
       id="use3201"
       transform="translate(-11.607142,-6.9642854)"
       width="747.34698"
       height="1046.2856" />
    <path
       inkscape:connector-curvature="0"
       style="display:inline;overflow:visible;visibility:visible;opacity:1;fill:#ddbdd0;fill-opacity:1;fill-rule:nonzero;stroke:#ddbdd0;stroke-width:1;stroke-linecap:butt;stroke-linejoin:miter;stroke-miterlimit:4;stroke-dasharray:none;stroke-dashoffset:0;stroke-opacity:1;marker:none;marker-start:none;marker-mid:none;marker-end:none;enable-background:accumulate"
       d="m 325.40167,223.00622 c -3.00753,9.27436 -2.56893,18.31207 -3.42248,26.24693 0,1.79462 -6.86077,21.8498 -6.86077,21.8498 l 0.0584,2.84285 c -0.0445,0.33365 2.96779,3.57095 6.04854,3.90465 l -1.32381,14.20065 c -1.11164,0.76664 5.78559,-0.96276 5.78559,0.29993 0,1.42087 -6.38602,4.03466 -6.38602,4.03466 0,6.75605 -4.34507,16.2705 -0.78843,19.82714 4.1688,4.16879 41.29596,-0.065 41.29596,-0.065 47.99288,0 48.57143,-35 48.57143,-35 0,-40.40926 -2.5823,-66.014 -2.5823,-66.014 -2.48201,-0.0144 -18.08525,-2.82071 -34.9718,-1.10924 -18.54827,1.87988 -29.64383,4.19936 -45.42433,8.98162 z"
       id="path3867"
       sodipodi:nodetypes="ccccccccccccsc" />
    <path
       inkscape:connector-curvature="0"
       style="display:inline;overflow:visible;visibility:visible;opacity:1;fill:#999999;fill-opacity:1;fill-rule:nonzero;stroke:#000000;stroke-width:1;stroke-linecap:butt;stroke-linejoin:miter;stroke-miterlimit:4;stroke-dasharray:none;stroke-dashoffset:0;stroke-opacity:1;marker:none;marker-start:none;marker-mid:none;marker-end:none;enable-background:accumulate"
       d="m 377.98283,209.45395 9.02082,160.45622 63.6011,26.69845 -9.29989,-173.98469 z"
       id="path3871"
       sodipodi:nodetypes="ccccc" />
    <path
       inkscape:connector-curvature="0"
       style="display:inline;overflow:visible;visibility:visible;opacity:1;fill:none;fill-opacity:0.70348834;fill-rule:nonzero;stroke:#000000;stroke-width:4;stroke-linecap:round;stroke-linejoin:round;stroke-miterlimit:4;stroke-dasharray:none;stroke-dashoffset:0;stroke-opacity:1;marker:none;marker-start:none;marker-mid:none;marker-end:none;enable-background:accumulate"
       d="m 328.77304,237.5561 c 8.08859,-1.16138 14.27507,0.3491 21.48614,6.17974"
       id="path3875"
       sodipodi:nodetypes="cc" />
    <path
       inkscape:connector-curvature="0"
       sodipodi:nodetypes="cc"
       style="display:inline;overflow:visible;visibility:visible;opacity:1;fill:none;fill-opacity:0.70348834;fill-rule:nonzero;stroke:#000000;stroke-width:1;stroke-linecap:butt;stroke-linejoin:miter;stroke-miterlimit:4;stroke-dasharray:none;stroke-dashoffset:0;stroke-opacity:1;marker:none;marker-start:none;marker-mid:none;marker-end:none;enable-background:accumulate"
       d="m 384.45153,213.5407 10.08929,161.35714"
       id="path3902" />
    <use
       x="0"
       y="0"
       xlink:href="#path3902"
       id="use3904"
       width="747.34698"
       height="1046.2856"
       transform="translate(8.0000047,2.9285716)" />
    <use
       x="0"
       y="0"
       xlink:href="#use3904"
       id="use3906"
       width="747.34698"
       height="1046.2856"
       transform="translate(8.0000047,2.9285716)" />
    <use
       x="0"
       y="0"
       xlink:href="#use3906"
       id="use3908"
       transform="translate(8.0000047,2.3571428)"
       width="747.34698"
       height="1046.2856" />
    <use
       x="0"
       y="0"
       xlink:href="#use3908"
       id="use3910"
       width="747.34698"
       height="1046.2856"
       transform="translate(8.0000047,5.285714)" />
    <use
       x="0"
       y="0"
       xlink:href="#use3910"
       id="use3912"
       transform="translate(8.0000047,0.928572)"
       width="747.34698"
       height="1046.2856" />
    <use
       x="0"
       y="0"
       xlink:href="#use3912"
       id="use3914"
       width="747.34698"
       height="1046.2856"
       transform="translate(8.0000047,10)" />
    <path
       inkscape:connector-curvature="0"
       style="display:inline;overflow:visible;visibility:visible;opacity:1;fill:#ffffff;fill-opacity:1;fill-rule:nonzero;stroke:#000000;stroke-width:0.5;stroke-linecap:butt;stroke-linejoin:miter;stroke-miterlimit:4;stroke-dasharray:none;stroke-dashoffset:0;stroke-opacity:1;marker:none;marker-start:none;marker-mid:none;marker-end:none;enable-background:accumulate"
       d="m 334.32544,243.64262 c 4.21184,0.8881 4.63962,1.05126 8.1246,5.12634 -3.66828,1.53734 -5.01132,1.66092 -8.87234,1.3605 -7.82105,-1.30025 -5.56827,-7.36846 0.74774,-6.48684 z"
       id="path3877"
       sodipodi:nodetypes="cccc" />
    <path
       style="opacity:1;fill:#502d16;fill-opacity:1;stroke:#000000;stroke-width:0.50000006;stroke-linecap:round;stroke-linejoin:round;stroke-miterlimit:4;stroke-dasharray:none;stroke-opacity:1"
       d="m 336.62386,246.76646 a 3.1192534,2.9081445 0 0 1 -3.11925,2.90815 3.1192534,2.9081445 0 0 1 -3.11926,-2.90815 3.1192534,2.9081445 0 0 1 3.11926,-2.90814 3.1192534,2.9081445 0 0 1 3.11925,2.90814 z"
       id="path3885" />
    <path
       style="opacity:1;fill:#000000;fill-opacity:1;stroke:#000000;stroke-width:0.5;stroke-linecap:round;stroke-linejoin:round;stroke-miterlimit:4;stroke-dasharray:none;stroke-opacity:1"
       d="m 334.07277,246.89273 a 0.75761443,0.69447988 0 0 1 -0.75761,0.69448 0.75761443,0.69447988 0 0 1 -0.75762,-0.69448 0.75761443,0.69447988 0 0 1 0.75762,-0.69448 0.75761443,0.69447988 0 0 1 0.75761,0.69448 z"
       id="path3887" />
    <path
       inkscape:connector-curvature="0"
       sodipodi:nodetypes="cccssc"
       id="path4021"
       d="m 324.91826,223.02788 c 0,0 22.60215,-71.34203 56.94734,-86.49431 31.58226,-21.10303 88.32234,138.10585 78.04789,197.04644 -7.13292,-6.64312 -23.1211,0.35102 -25.72926,-6.64663 -11.55404,-30.99921 -15.13923,-71.57604 -34.19965,-89.38205 -25.67275,-23.98317 -66.70543,-18.85741 -75.06632,-14.52345 z"
       style="display:inline;overflow:visible;visibility:visible;opacity:1;fill:#ff0000;fill-opacity:1;fill-rule:nonzero;stroke:#ff0000;stroke-width:1;stroke-linecap:butt;stroke-linejoin:miter;stroke-miterlimit:4;stroke-dasharray:none;stroke-dashoffset:0;stroke-opacity:1;marker:none;marker-start:none;marker-mid:none;marker-end:none;enable-background:accumulate" />
    <use
       x="0"
       y="0"
       xlink:href="#path3918"
       id="use3954"
       transform="matrix(-1,0,0,-1,743.36733,1018.4066)"
       width="747.34698"
       height="1046.2856" />
    <use
       height="1046.2856"
       width="747.34698"
       transform="rotate(180,371.5051,516.13893)"
       id="use868"
       xlink:href="#use3201"
       y="0"
       x="0" />
    <path
       transform="scale(-1)"
       style="opacity:1;fill:#cccccc;fill-opacity:1;stroke:none;stroke-width:1.60000002;stroke-linecap:round;stroke-linejoin:round;stroke-miterlimit:4;stroke-dasharray:none;stroke-opacity:1"
       d="m -352.93366,-699.27289 a 6.9642859,6.9642859 0 0 1 -6.96429,6.96429 6.9642859,6.9642859 0 0 1 -6.96429,-6.96429 6.9642859,6.9642859 0 0 1 6.96429,-6.96428 6.9642859,6.9642859 0 0 1 6.96429,6.96428 z"
       id="path870" />
    <use
       height="1046.2856"
       width="747.34698"
       transform="rotate(180,376.95153,505.51393)"
       id="use872"
       xlink:href="#path2415"
       y="0"
       x="0" />
    <use
       height="1046.2856"
       width="747.34698"
       transform="rotate(180,376.1926,504.57643)"
       id="use874"
       xlink:href="#use3195"
       y="0"
       x="0" />
    <use
       height="1046.2856"
       width="747.34698"
       transform="rotate(180,377.53189,506.40679)"
       id="use876"
       xlink:href="#use3197"
       y="0"
       x="0" />
    <use
       height="1046.2856"
       width="747.34698"
       transform="rotate(180,377.39796,512.92464)"
       id="use878"
       xlink:href="#use3199"
       y="0"
       x="0" />
    <path
       inkscape:connector-curvature="0"
       sodipodi:nodetypes="ccccccccccccsc"
       id="path882"
       d="m 417.96567,795.40039 c 3.00753,-9.27436 2.56893,-18.31207 3.42248,-26.24693 0,-1.79462 6.86077,-21.8498 6.86077,-21.8498 l -0.0584,-2.84285 c 0.0445,-0.33365 -2.96779,-3.57095 -6.04854,-3.90465 l 1.32381,-14.20065 c 1.11164,-0.76664 -5.78559,0.96276 -5.78559,-0.29993 0,-1.42087 6.38602,-4.03466 6.38602,-4.03466 0,-6.75605 4.34507,-16.2705 0.78843,-19.82714 -4.1688,-4.16879 -41.29596,0.065 -41.29596,0.065 -47.99288,0 -48.57143,35 -48.57143,35 0,40.40926 2.5823,66.014 2.5823,66.014 2.48201,0.0144 18.08525,2.82071 34.9718,1.10924 18.54827,-1.87988 29.64383,-4.19936 45.42433,-8.98162 z"
       style="display:inline;overflow:visible;visibility:visible;opacity:1;fill:#ddbdd0;fill-opacity:1;fill-rule:nonzero;stroke:#ddbdd0;stroke-width:1;stroke-linecap:butt;stroke-linejoin:miter;stroke-miterlimit:4;stroke-dasharray:none;stroke-dashoffset:0;stroke-opacity:1;marker:none;marker-start:none;marker-mid:none;marker-end:none;enable-background:accumulate" />
    <path
       inkscape:connector-curvature="0"
       sodipodi:nodetypes="ccccc"
       id="path884"
       d="m 365.38451,808.95266 -9.02082,-160.45622 -63.6011,-26.69845 9.29989,173.98469 z"
       style="display:inline;overflow:visible;visibility:visible;opacity:1;fill:#999999;fill-opacity:1;fill-rule:nonzero;stroke:#000000;stroke-width:1;stroke-linecap:butt;stroke-linejoin:miter;stroke-miterlimit:4;stroke-dasharray:none;stroke-dashoffset:0;stroke-opacity:1;marker:none;marker-start:none;marker-mid:none;marker-end:none;enable-background:accumulate" />
    <path
       inkscape:connector-curvature="0"
       sodipodi:nodetypes="cc"
       id="path886"
       d="m 414.5943,780.8505 c -8.08859,1.16138 -14.27507,-0.3491 -21.48614,-6.17974"
       style="display:inline;overflow:visible;visibility:visible;opacity:1;fill:none;fill-opacity:0.70348834;fill-rule:nonzero;stroke:#000000;stroke-width:4;stroke-linecap:round;stroke-linejoin:round;stroke-miterlimit:4;stroke-dasharray:none;stroke-dashoffset:0;stroke-opacity:1;marker:none;marker-start:none;marker-mid:none;marker-end:none;enable-background:accumulate" />
    <path
       inkscape:connector-curvature="0"
       id="path888"
       d="M 358.91581,804.86591 348.82652,643.50877"
       style="display:inline;overflow:visible;visibility:visible;opacity:1;fill:none;fill-opacity:0.70348834;fill-rule:nonzero;stroke:#000000;stroke-width:1;stroke-linecap:butt;stroke-linejoin:miter;stroke-miterlimit:4;stroke-dasharray:none;stroke-dashoffset:0;stroke-opacity:1;marker:none;marker-start:none;marker-mid:none;marker-end:none;enable-background:accumulate"
       sodipodi:nodetypes="cc" />
    <use
       transform="rotate(180,367.68367,507.73901)"
       height="1046.2856"
       width="747.34698"
       id="use890"
       xlink:href="#path3902"
       y="0"
       x="0" />
    <use
       transform="rotate(180,367.68367,507.73901)"
       height="1046.2856"
       width="747.34698"
       id="use892"
       xlink:href="#use3904"
       y="0"
       x="0" />
    <use
       height="1046.2856"
       width="747.34698"
       transform="rotate(180,367.68367,508.02473)"
       id="use894"
       xlink:href="#use3906"
       y="0"
       x="0" />
    <use
       transform="rotate(180,367.68367,506.56044)"
       height="1046.2856"
       width="747.34698"
       id="use896"
       xlink:href="#use3908"
       y="0"
       x="0" />
    <use
       height="1046.2856"
       width="747.34698"
       transform="rotate(180,367.68367,508.73901)"
       id="use898"
       xlink:href="#use3910"
       y="0"
       x="0" />
    <use
       transform="rotate(180,367.68367,504.2033)"
       height="1046.2856"
       width="747.34698"
       id="use900"
       xlink:href="#use3912"
       y="0"
       x="0" />
    <path
       inkscape:connector-curvature="0"
       sodipodi:nodetypes="cccc"
       id="path902"
       d="m 409.0419,774.76398 c -4.21184,-0.8881 -4.63962,-1.05126 -8.1246,-5.12634 3.66828,-1.53734 5.01132,-1.66092 8.87234,-1.3605 7.82105,1.30025 5.56827,7.36846 -0.74774,6.48684 z"
       style="display:inline;overflow:visible;visibility:visible;opacity:1;fill:#ffffff;fill-opacity:1;fill-rule:nonzero;stroke:#000000;stroke-width:0.5;stroke-linecap:butt;stroke-linejoin:miter;stroke-miterlimit:4;stroke-dasharray:none;stroke-dashoffset:0;stroke-opacity:1;marker:none;marker-start:none;marker-mid:none;marker-end:none;enable-background:accumulate" />
    <path
       transform="scale(-1)"
       style="opacity:1;fill:#502d16;fill-opacity:1;stroke:#000000;stroke-width:0.50000006;stroke-linecap:round;stroke-linejoin:round;stroke-miterlimit:4;stroke-dasharray:none;stroke-opacity:1"
       d="m -406.74345,-771.64014 a 3.1192534,2.9081445 0 0 1 -3.11925,2.90815 3.1192534,2.9081445 0 0 1 -3.11925,-2.90815 3.1192534,2.9081445 0 0 1 3.11925,-2.90814 3.1192534,2.9081445 0 0 1 3.11925,2.90814 z"
       id="path904" />
    <path
       transform="scale(-1)"
       style="opacity:1;fill:#000000;fill-opacity:1;stroke:#000000;stroke-width:0.5;stroke-linecap:round;stroke-linejoin:round;stroke-miterlimit:4;stroke-dasharray:none;stroke-opacity:1"
       d="m -409.29457,-771.51385 a 0.75761443,0.69447988 0 0 1 -0.75762,0.69447 0.75761443,0.69447988 0 0 1 -0.75761,-0.69447 0.75761443,0.69447988 0 0 1 0.75761,-0.69448 0.75761443,0.69447988 0 0 1 0.75762,0.69448 z"
       id="path906" />
    <path
       inkscape:connector-curvature="0"
       style="display:inline;overflow:visible;visibility:visible;opacity:1;fill:#ff0000;fill-opacity:1;fill-rule:nonzero;stroke:#ff0000;stroke-width:1;stroke-linecap:butt;stroke-linejoin:miter;stroke-miterlimit:4;stroke-dasharray:none;stroke-dashoffset:0;stroke-opacity:1;marker:none;marker-start:none;marker-mid:none;marker-end:none;enable-background:accumulate"
       d="m 418.44908,795.37873 c 0,0 -22.60215,71.34203 -56.94734,86.49431 -31.58226,21.10303 -88.32234,-138.10585 -78.04789,-197.04644 7.13292,6.64312 23.1211,-0.35102 25.72926,6.64663 11.55404,30.99921 15.13923,71.57604 34.19965,89.38205 25.67275,23.98317 66.70543,18.85741 75.06632,14.52345 z"
       id="path908"
       sodipodi:nodetypes="cccssc" />
  </g>
</svg>
