<svg version="1.0" viewBox="0 0 747 1000" xmlns="http://www.w3.org/2000/svg"><path d="M43 135h50v12H26v-12q8.1-8.4 22-22l18-18q6.8-7.7 9.5-13t2.7-10q0-8.4-5.9-14-5.8-5.3-15-5.3-6.7 0-14 2.3-7.4 2.3-16 7V48q8.6-3.4 16-5.2 7.5-1.8 14-1.8 16 0 26 8.2t9.7 22q0 6.5-2.5 12-2.4 5.8-8.8 14-1.8 2-11 12-9.4 9.7-27 27zM64 182l35 46q4.9 6 4.9 6.9l-40 52q-.84-.56-40-52 0-.98 7.8-11zM700 912h-50v-12h67v12q-8.1 8.4-22 22l-18 18q-6.8 7.7-9.5 13t-2.7 10q0 8.4 5.9 14 5.8 5.3 15 5.3 6.7 0 14-2.3 7.4-2.3 16-7v14q-8.6 3.4-16 5.2-7.5 1.8-14 1.8-16 0-26-8.2-9.7-8.2-9.7-22 0-6.5 2.5-12 2.4-5.8 8.8-14 1.8-2 11-12 9.4-9.7 27-27zM679 865l-35-46q-4.9-6-4.9-6.9l40-52q.84.56 40 52 0 .98-7.8 11zM371 149q11 18 27 40 18 24 30 37-9 9.5-30 37-17 22-27 40-3.3-6.3-9-15-9.9-15-25-34-3.2-4.3-22-28 12-14 32-40 14-19 24-36zM371 899q11-18 27-40 18-24 30-37-9-9.5-30-37-17-22-27-40-3.3 6.3-9 15-9.9 15-25 34-3.2 4.3-22 28 12 14 32 40 14 19 24 36z" fill="red"/></svg>