<svg version="1.0" viewBox="0 0 747 1000" xmlns="http://www.w3.org/2000/svg"><path d="M61.2 55.35l-19 52h39zm-8-14h16l40 105h-15l-9.6-27h-47l-9.6 27H13zM66.2 181.35q6.6 12 22 31 17 20 17 24 2.7 6 2.7 12v2.8q0 12-11 18-3.7 1.5-8.2 1.5-11 0-18-16h-3v.84q0 20 5.8 30h-15v-.42q6-11 6-31l-.21-.21h-2.7l-3.3 6.2q-6 9.4-15 9.4-13 0-18-15l-.63-5.1v-3.2q0-13 13-27 22-27 28-39l.21-.21zM685.2 990.35l19-52h-39zm8 14h-16l-40-105h15l9.6 27h47l9.6-27h15zM681.2 864.35q-6.6-12-22-31-17-20-17-24-2.7-6-2.7-12v-2.8q0-12 11-18 3.7-1.5 8.2-1.5 11 0 18 16h3v-.84q0-20-5.8-30h15v.42q-6 11-6 31l.21.21h2.7l3.3-6.2q6-9.4 15-9.4 13 0 18 15l.63 5.1v3.2q0 13-13 27-22 27-28 39l-.21.21zM374.2 372.35q6.3 26 20 47 13 21 47 52t43 47 9 33q0 23-16 39t-38 16q-19 0-35-12-15-12-27-35 .24 36 9.3 57 9.3 21 29 33 20 12 54 14l1.7 9h-194l2-9q45 0 70-26t24-78q-11 23-27 35-16 11-37 11-22 0-38-16t-16-38q0-18 8.1-32 11-20 36-40t36-33q18-20 26-36 8.3-16 13-37z"/></svg>