<?xml version="1.0" encoding="UTF-8" standalone="no"?>
<!-- Created with Inkscape (http://www.inkscape.org/) -->

<svg
   xmlns:dc="http://purl.org/dc/elements/1.1/"
   xmlns:cc="http://creativecommons.org/ns#"
   xmlns:rdf="http://www.w3.org/1999/02/22-rdf-syntax-ns#"
   xmlns:svg="http://www.w3.org/2000/svg"
   xmlns="http://www.w3.org/2000/svg"
   xmlns:sodipodi="http://sodipodi.sourceforge.net/DTD/sodipodi-0.dtd"
   xmlns:inkscape="http://www.inkscape.org/namespaces/inkscape"
   version="1.0"
   width="747.34698"
   height="1046.2856"
   id="svg2"
   sodipodi:docname="Cards-7-Spade.svg"
   inkscape:version="0.92.4 (5da689c313, 2019-01-14)">
  <metadata
     id="metadata25">
    <rdf:RDF>
      <cc:Work
         rdf:about="">
        <dc:format>image/svg+xml</dc:format>
        <dc:type
           rdf:resource="http://purl.org/dc/dcmitype/StillImage" />
      </cc:Work>
    </rdf:RDF>
  </metadata>
  <sodipodi:namedview
     pagecolor="#ffffff"
     bordercolor="#666666"
     borderopacity="1"
     objecttolerance="10"
     gridtolerance="10"
     guidetolerance="10"
     inkscape:pageopacity="0"
     inkscape:pageshadow="2"
     inkscape:window-width="3840"
     inkscape:window-height="2066"
     id="namedview23"
     showgrid="false"
     inkscape:zoom="0.22555982"
     inkscape:cx="373.67349"
     inkscape:cy="523.14282"
     inkscape:window-x="-11"
     inkscape:window-y="-11"
     inkscape:window-maximized="1"
     inkscape:current-layer="svg2" />
  <defs
     id="defs4" />
  <path
     inkscape:connector-curvature="0"
     id="path929"
     style="font-style:normal;font-variant:normal;font-weight:normal;font-stretch:normal;font-size:144px;font-family:'Arial Narrow';-inkscape-font-specification:'Arial Narrow';text-align:center;text-anchor:middle;fill:#000000;fill-opacity:1;stroke:none;stroke-width:1px;stroke-linecap:butt;stroke-linejoin:miter;stroke-opacity:1"
     d="m 27.607086,41.705307 h 67.5 v 6.046875 L 56.997711,146.68187 H 42.161774 L 78.021149,53.658432 H 27.607086 Z" />
  <path
     inkscape:connector-curvature="0"
     id="path932"
     style="font-style:normal;font-variant:normal;font-weight:normal;font-stretch:normal;font-size:144px;font-family:'Arial Narrow';-inkscape-font-specification:'Arial Narrow';text-align:center;text-anchor:middle;fill:#000000;fill-opacity:1;stroke:none;stroke-width:1px;stroke-linecap:butt;stroke-linejoin:miter;stroke-opacity:1"
     d="m 65.892242,181.77563 q 6.609375,11.74219 21.796875,31.14844 16.664063,19.54688 17.085933,23.55469 2.74219,5.97656 2.74219,11.60156 v 2.8125 q 0,11.74219 -11.390623,18.49219 -3.726562,1.54687 -8.226562,1.54687 -10.828125,0 -17.507813,-15.53906 h -2.953125 v 0.84375 q 0,19.89844 5.835938,30.44531 H 58.157867 v -0.42187 q 5.976563,-10.61719 5.976563,-30.65625 l -0.210938,-0.21094 h -2.671875 l -3.304687,6.1875 q -5.976563,9.35156 -14.90625,9.35156 -13.148438,0 -18.492188,-14.69531 l -0.632812,-5.13281 v -3.23438 q 0,-12.86718 13.148437,-27.14062 22.148438,-27.14063 28.40625,-38.74219 l 0.210938,-0.21094 z" />
  <path
     inkscape:connector-curvature="0"
     id="path926"
     style="font-style:normal;font-variant:normal;font-weight:normal;font-stretch:normal;font-size:144px;font-family:'Arial Narrow';-inkscape-font-specification:'Arial Narrow';text-align:center;text-anchor:middle;fill:#000000;fill-opacity:1;stroke:none;stroke-width:1px;stroke-linecap:butt;stroke-linejoin:miter;stroke-opacity:1"
     d="m 719.73987,1004.5803 h -67.5 v -6.04685 l 38.10937,-98.92969 h 14.83594 l -35.85937,93.02344 h 50.41406 z" />
  <path
     inkscape:connector-curvature="0"
     id="path923"
     style="font-style:normal;font-variant:normal;font-weight:normal;font-stretch:normal;font-size:144px;font-family:'Arial Narrow';-inkscape-font-specification:'Arial Narrow';text-align:center;text-anchor:middle;fill:#000000;fill-opacity:1;stroke:none;stroke-width:1px;stroke-linecap:butt;stroke-linejoin:miter;stroke-opacity:1"
     d="m 681.45471,864.51001 q -6.60937,-11.74219 -21.79687,-31.14844 -16.66407,-19.54687 -17.08594,-23.55469 -2.74219,-5.97656 -2.74219,-11.60156 v -2.8125 q 0,-11.74219 11.39063,-18.49219 3.72656,-1.54687 8.22656,-1.54687 10.82812,0 17.50781,15.53906 h 2.95313 v -0.84375 q 0,-19.89844 -5.83594,-30.44531 h 15.11719 v 0.42187 q -5.97657,10.61719 -5.97657,30.65625 l 0.21094,0.21094 h 2.67188 l 3.30468,-6.1875 q 5.97657,-9.35156 14.90625,-9.35156 13.14844,0 18.49219,14.69531 l 0.63281,5.13281 v 3.23438 q 0,12.86719 -13.14843,27.14062 -22.14844,27.14063 -28.40625,38.74219 l -0.21094,0.21094 z" />
  <path
     inkscape:connector-curvature="0"
     id="path917"
     style="font-style:normal;font-weight:normal;font-size:250px;font-family:Arial;text-align:center;text-anchor:middle;fill:#000000;fill-opacity:1;stroke:none;stroke-width:1px;stroke-linecap:butt;stroke-linejoin:miter;stroke-opacity:1"
     d="m 233.79556,148.00854 q 3.17383,13.1836 9.76563,23.55958 6.59179,10.37597 23.4375,25.75683 16.96777,15.25879 21.48437,23.4375 4.5166,8.17871 4.5166,16.60156 0,11.71875 -7.8125,19.53125 -7.8125,7.8125 -19.04296,7.8125 -9.52149,0 -17.33399,-5.85937 -7.69043,-5.98145 -13.67187,-17.33399 0.12207,17.94434 4.63867,28.56446 4.63867,10.49804 14.64844,16.60156 10.13183,5.98145 26.85546,7.08008 l 0.8545,4.5166 h -96.80176 l 0.97656,-4.5166 q 22.46094,0 34.79004,-13.06153 12.45117,-13.18359 11.96289,-39.18457 -5.49316,11.59668 -13.67187,17.45606 -8.05664,5.7373 -18.31055,5.7373 -10.98633,0 -18.9209,-7.93457 -7.8125,-7.93457 -7.8125,-19.04297 0,-8.91113 4.02832,-16.11328 5.49316,-10.00976 17.82227,-20.1416 12.3291,-10.13183 18.18847,-16.72363 8.91114,-10.13184 12.93946,-18.06641 4.15039,-7.93457 6.46972,-18.67676 z" />
  <path
     inkscape:connector-curvature="0"
     d="m 233.79556,898.27706 q 3.17383,-13.1836 9.76563,-23.55958 6.59179,-10.37597 23.4375,-25.75683 16.96777,-15.25879 21.48437,-23.4375 4.5166,-8.17871 4.5166,-16.60156 0,-11.71875 -7.8125,-19.53125 -7.8125,-7.8125 -19.04296,-7.8125 -9.52149,0 -17.33399,5.85937 -7.69043,5.98145 -13.67187,17.33399 0.12207,-17.94434 4.63867,-28.56446 4.63867,-10.49804 14.64844,-16.60156 10.13183,-5.98145 26.85546,-7.08008 l 0.8545,-4.5166 h -96.80176 l 0.97656,4.5166 q 22.46094,0 34.79004,13.06153 12.45117,13.18359 11.96289,39.18457 -5.49316,-11.59668 -13.67187,-17.45606 -8.05664,-5.7373 -18.31055,-5.7373 -10.98633,0 -18.9209,7.93457 -7.8125,7.93457 -7.8125,19.04297 0,8.91113 4.02832,16.11328 5.49316,10.00976 17.82227,20.1416 12.3291,10.13183 18.18847,16.72363 8.91114,10.13184 12.93946,18.06641 4.15039,7.93457 6.46972,18.67676 z"
     style="font-style:normal;font-weight:normal;font-size:250px;font-family:Arial;text-align:center;text-anchor:middle;fill:#000000;fill-opacity:1;stroke:none;stroke-width:1px;stroke-linecap:butt;stroke-linejoin:miter;stroke-opacity:1"
     id="path943" />
  <path
     inkscape:connector-curvature="0"
     d="m 233.79556,448.00854 q 3.17383,13.1836 9.76563,23.55958 6.59179,10.37597 23.4375,25.75683 16.96777,15.25879 21.48437,23.4375 4.5166,8.17871 4.5166,16.60156 0,11.71875 -7.8125,19.53125 -7.8125,7.8125 -19.04296,7.8125 -9.52149,0 -17.33399,-5.85937 -7.69043,-5.98145 -13.67187,-17.33399 0.12207,17.94434 4.63867,28.56446 4.63867,10.49804 14.64844,16.60156 10.13183,5.98145 26.85546,7.08008 l 0.8545,4.5166 h -96.80176 l 0.97656,-4.5166 q 22.46094,0 34.79004,-13.06153 12.45117,-13.18359 11.96289,-39.18457 -5.49316,11.59668 -13.67187,17.45606 -8.05664,5.7373 -18.31055,5.7373 -10.98633,0 -18.9209,-7.93457 -7.8125,-7.93457 -7.8125,-19.04297 0,-8.91113 4.02832,-16.11328 5.49316,-10.00976 17.82227,-20.1416 12.3291,-10.13183 18.18847,-16.72363 8.91114,-10.13184 12.93946,-18.06641 4.15039,-7.93457 6.46972,-18.67676 z"
     style="font-style:normal;font-weight:normal;font-size:250px;font-family:Arial;text-align:center;text-anchor:middle;fill:#000000;fill-opacity:1;stroke:none;stroke-width:1px;stroke-linecap:butt;stroke-linejoin:miter;stroke-opacity:1"
     id="path947" />
  <path
     inkscape:connector-curvature="0"
     id="path914"
     style="font-style:normal;font-weight:normal;font-size:250px;font-family:Arial;text-align:center;text-anchor:middle;fill:#000000;fill-opacity:1;stroke:none;stroke-width:1px;stroke-linecap:butt;stroke-linejoin:miter;stroke-opacity:1"
     d="m 513.79553,148.00854 q 3.17383,13.1836 9.76563,23.55958 6.59179,10.37597 23.4375,25.75683 16.96777,15.25879 21.48437,23.4375 4.5166,8.17871 4.5166,16.60156 0,11.71875 -7.8125,19.53125 -7.8125,7.8125 -19.04296,7.8125 -9.52149,0 -17.33399,-5.85937 -7.69043,-5.98145 -13.67187,-17.33399 0.12207,17.94434 4.63867,28.56446 4.63867,10.49804 14.64844,16.60156 10.13183,5.98145 26.85546,7.08008 l 0.8545,4.5166 h -96.80176 l 0.97656,-4.5166 q 22.46094,0 34.79004,-13.06153 12.45117,-13.18359 11.96289,-39.18457 -5.49316,11.59668 -13.67187,17.45606 -8.05665,5.7373 -18.31055,5.7373 -10.98633,0 -18.9209,-7.93457 -7.8125,-7.93457 -7.8125,-19.04297 0,-8.91113 4.02832,-16.11328 5.49316,-10.00976 17.82227,-20.1416 12.3291,-10.13183 18.18847,-16.72363 8.91114,-10.13184 12.93946,-18.06641 4.15039,-7.93457 6.46972,-18.67676 z" />
  <path
     inkscape:connector-curvature="0"
     d="m 513.79556,898.27706 q 3.17383,-13.1836 9.76563,-23.55958 6.59179,-10.37597 23.4375,-25.75683 16.96777,-15.25879 21.48437,-23.4375 4.5166,-8.17871 4.5166,-16.60156 0,-11.71875 -7.8125,-19.53125 -7.8125,-7.8125 -19.04296,-7.8125 -9.52149,0 -17.33399,5.85937 -7.69043,5.98145 -13.67187,17.33399 0.12207,-17.94434 4.63867,-28.56446 4.63867,-10.49804 14.64844,-16.60156 10.13183,-5.98145 26.85546,-7.08008 l 0.8545,-4.5166 h -96.80176 l 0.97656,4.5166 q 22.46094,0 34.79004,13.06153 12.45117,13.18359 11.96289,39.18457 -5.49316,-11.59668 -13.67187,-17.45606 -8.05664,-5.7373 -18.31055,-5.7373 -10.98633,0 -18.9209,7.93457 -7.8125,7.93457 -7.8125,19.04297 0,8.91113 4.02832,16.11328 5.49316,10.00976 17.82227,20.1416 12.3291,10.13183 18.18847,16.72363 8.91114,10.13184 12.93946,18.06641 4.15039,7.93457 6.46972,18.67676 z"
     style="font-style:normal;font-weight:normal;font-size:250px;font-family:Arial;text-align:center;text-anchor:middle;fill:#000000;fill-opacity:1;stroke:none;stroke-width:1px;stroke-linecap:butt;stroke-linejoin:miter;stroke-opacity:1"
     id="path939" />
  <path
     inkscape:connector-curvature="0"
     d="m 513.79556,448.00854 q 3.17383,13.1836 9.76563,23.55958 6.59179,10.37597 23.4375,25.75683 16.96777,15.25879 21.48437,23.4375 4.5166,8.17871 4.5166,16.60156 0,11.71875 -7.8125,19.53125 -7.8125,7.8125 -19.04296,7.8125 -9.52149,0 -17.33399,-5.85937 -7.69043,-5.98145 -13.67187,-17.33399 0.12207,17.94434 4.63867,28.56446 4.63867,10.49804 14.64844,16.60156 10.13183,5.98145 26.85546,7.08008 l 0.8545,4.5166 h -96.80176 l 0.97656,-4.5166 q 22.46094,0 34.79004,-13.06153 12.45117,-13.18359 11.96289,-39.18457 -5.49316,11.59668 -13.67187,17.45606 -8.05664,5.7373 -18.31055,5.7373 -10.98633,0 -18.9209,-7.93457 -7.8125,-7.93457 -7.8125,-19.04297 0,-8.91113 4.02832,-16.11328 5.49316,-10.00976 17.82227,-20.1416 12.3291,-10.13183 18.18847,-16.72363 8.91114,-10.13184 12.93946,-18.06641 4.15039,-7.93457 6.46972,-18.67676 z"
     style="font-style:normal;font-weight:normal;font-size:250px;font-family:Arial;text-align:center;text-anchor:middle;fill:#000000;fill-opacity:1;stroke:none;stroke-width:1px;stroke-linecap:butt;stroke-linejoin:miter;stroke-opacity:1"
     id="path935" />
  <path
     inkscape:connector-curvature="0"
     id="path920"
     style="font-style:normal;font-weight:normal;font-size:250px;font-family:Arial;text-align:center;text-anchor:middle;fill:#000000;fill-opacity:1;stroke:none;stroke-width:1px;stroke-linecap:butt;stroke-linejoin:miter;stroke-opacity:1"
     d="m 373.79556,308.00851 q 3.17383,13.1836 9.76563,23.55957 6.59179,10.37598 23.4375,25.75684 16.96777,15.25879 21.48437,23.4375 4.5166,8.17871 4.5166,16.60156 0,11.71875 -7.8125,19.53125 -7.8125,7.8125 -19.04296,7.8125 -9.52149,0 -17.33399,-5.85937 -7.69043,-5.98145 -13.67187,-17.33399 0.12207,17.94434 4.63867,28.56446 4.63867,10.49804 14.64844,16.60156 10.13183,5.98144 26.85546,7.08008 l 0.8545,4.5166 h -96.80176 l 0.97656,-4.5166 q 22.46094,0 34.79004,-13.06153 12.45117,-13.18359 11.96289,-39.18457 -5.49316,11.59668 -13.67187,17.45606 -8.05664,5.7373 -18.31055,5.7373 -10.98633,0 -18.9209,-7.93457 -7.8125,-7.93457 -7.8125,-19.04297 0,-8.91113 4.02832,-16.11328 5.49316,-10.00976 17.82227,-20.1416 12.3291,-10.13183 18.18847,-16.72363 8.91114,-10.13184 12.93946,-18.06641 4.15039,-7.93457 6.46972,-18.67676 z" />
</svg>
