<?xml version="1.0" encoding="UTF-8" standalone="no"?>
<!-- Created with Inkscape (http://www.inkscape.org/) -->

<svg
   xmlns:dc="http://purl.org/dc/elements/1.1/"
   xmlns:cc="http://creativecommons.org/ns#"
   xmlns:rdf="http://www.w3.org/1999/02/22-rdf-syntax-ns#"
   xmlns:svg="http://www.w3.org/2000/svg"
   xmlns="http://www.w3.org/2000/svg"
   xmlns:sodipodi="http://sodipodi.sourceforge.net/DTD/sodipodi-0.dtd"
   xmlns:inkscape="http://www.inkscape.org/namespaces/inkscape"
   width="747.34698"
   height="1046.2856"
   id="svg2"
   sodipodi:version="0.32"
   inkscape:version="0.92.4 (5da689c313, 2019-01-14)"
   version="1.0"
   sodipodi:docname="Cards-A-Club.svg"
   inkscape:output_extension="org.inkscape.output.svg.inkscape">
  <defs
     id="defs4">
    <inkscape:perspective
       sodipodi:type="inkscape:persp3d"
       inkscape:vp_x="0 : 526.18109 : 1"
       inkscape:vp_y="0 : 1000 : 0"
       inkscape:vp_z="744.09448 : 526.18109 : 1"
       inkscape:persp3d-origin="372.04724 : 350.78739 : 1"
       id="perspective10" />
    <inkscape:perspective
       id="perspective2390"
       inkscape:persp3d-origin="372.04724 : 350.78739 : 1"
       inkscape:vp_z="744.09448 : 526.18109 : 1"
       inkscape:vp_y="0 : 1000 : 0"
       inkscape:vp_x="0 : 526.18109 : 1"
       sodipodi:type="inkscape:persp3d" />
  </defs>
  <sodipodi:namedview
     id="base"
     pagecolor="#ffffff"
     bordercolor="#666666"
     borderopacity="1.0"
     gridtolerance="10000"
     guidetolerance="10"
     objecttolerance="10"
     inkscape:pageopacity="0.0"
     inkscape:pageshadow="2"
     inkscape:zoom="0.24748737"
     inkscape:cx="-1543.4278"
     inkscape:cy="-237.07159"
     inkscape:document-units="px"
     inkscape:current-layer="g2775"
     showgrid="false"
     showguides="true"
     inkscape:guide-bbox="true"
     inkscape:window-width="3840"
     inkscape:window-height="2066"
     inkscape:window-x="-11"
     inkscape:window-y="-11"
     inkscape:window-maximized="1" />
  <metadata
     id="metadata7">
    <rdf:RDF>
      <cc:Work
         rdf:about="">
        <dc:format>image/svg+xml</dc:format>
        <dc:type
           rdf:resource="http://purl.org/dc/dcmitype/StillImage" />
      </cc:Work>
    </rdf:RDF>
  </metadata>
  <g
     inkscape:label="Layer 1"
     inkscape:groupmode="layer"
     id="layer1"
     transform="translate(2.2448993,-0.6479052)">
    <g
       id="g2775"
       transform="translate(-2.0407968,-11.714273)">
      <path
         inkscape:connector-curvature="0"
         id="path854"
         style="font-style:normal;font-variant:normal;font-weight:normal;font-stretch:normal;font-size:144px;line-height:1.25;font-family:'Arial Narrow';-inkscape-font-specification:'Arial Narrow';text-align:center;text-anchor:middle;fill:#000000;fill-opacity:1;stroke:none;stroke-width:1px;stroke-linecap:butt;stroke-linejoin:miter;stroke-opacity:1"
         d="M 65.354156,68.059677 46.088531,120.30186 H 84.690094 Z M 57.338531,54.06749 H 73.440094 L 113.44791,159.04405 H 98.682281 l -9.5625,-26.92969 H 41.799469 l -9.5625,26.92969 H 17.260406 Z" />
      <path
         inkscape:connector-curvature="0"
         id="path857"
         style="font-style:normal;font-variant:normal;font-weight:normal;font-stretch:normal;font-size:144px;line-height:1.25;font-family:'Arial Narrow';-inkscape-font-specification:'Arial Narrow';text-align:center;text-anchor:middle;fill:#000000;fill-opacity:1;stroke:none;stroke-width:1px;stroke-linecap:butt;stroke-linejoin:miter;stroke-opacity:1"
         d="m 65.494781,194.13779 q 15.046875,0 22.148438,15.96093 0.914062,3.65625 1.125,7.59375 0,8.22657 -8.4375,19.47657 l -4.21875,4.21875 h 0.210937 q 5.203125,-1.96875 11.109375,-1.96875 h 1.335938 q 16.734371,0 23.484371,14.20312 1.61719,4.64063 1.61719,8.85938 0,14.41406 -14.695311,21.72656 -2.8125,0.84375 -7.804688,1.26562 -17.015625,0 -24.117187,-19.26562 h -0.210938 v 0.63281 q 0,24.11719 5.765625,31.78125 v 0.42188 h -14.625 l -0.421875,-0.42188 q 5.976563,-9 5.976563,-32.41406 v -0.21094 h -0.210938 q -7.03125,19.47656 -24.257812,19.47656 -13.429688,0 -20.601563,-14.13281 -1.757812,-4.78125 -1.757812,-8.85937 0,-16.38282 17.296875,-22.21875 4.640625,-0.84375 8.226562,-0.84375 h 0.632813 q 6.046875,0 11.53125,1.96875 h 0.210937 v -0.21094 q -5.90625,-4.99219 -7.945312,-9.84375 -4.21875,-7.73438 -4.21875,-13.42969 v -0.98437 q 0,-14.13282 15.117187,-21.44532 4.992188,-1.33593 7.734375,-1.33593 z" />
      <path
         inkscape:connector-curvature="0"
         id="path851"
         style="font-style:normal;font-variant:normal;font-weight:normal;font-stretch:normal;font-size:144px;line-height:1.25;font-family:'Arial Narrow';-inkscape-font-specification:'Arial Narrow';text-align:center;text-anchor:middle;fill:#000000;fill-opacity:1;stroke:none;stroke-width:1px;stroke-linecap:butt;stroke-linejoin:miter;stroke-opacity:1"
         d="m 681.58466,1002.9503 19.26562,-52.24217 h -38.60156 z m 8.01562,13.9922 H 673.49872 L 633.49091,911.96594 h 14.76562 l 9.5625,26.92969 h 47.32031 l 9.5625,-26.92969 h 14.97657 z" />
      <path
         inkscape:connector-curvature="0"
         id="path848"
         style="font-style:normal;font-variant:normal;font-weight:normal;font-stretch:normal;font-size:144px;line-height:1.25;font-family:'Arial Narrow';-inkscape-font-specification:'Arial Narrow';text-align:center;text-anchor:middle;fill:#000000;fill-opacity:1;stroke:none;stroke-width:1px;stroke-linecap:butt;stroke-linejoin:miter;stroke-opacity:1"
         d="m 681.44403,876.87219 q -15.04687,0 -22.14844,-15.96094 -0.91406,-3.65625 -1.125,-7.59375 0,-8.22656 8.4375,-19.47656 l 4.21875,-4.21875 h -0.21093 q -5.20313,1.96875 -11.10938,1.96875 h -1.33594 q -16.73437,0 -23.48437,-14.20312 -1.61719,-4.64063 -1.61719,-8.85938 0,-14.41406 14.69531,-21.72656 2.8125,-0.84375 7.80469,-1.26563 17.01563,0 24.11719,19.26563 h 0.21094 v -0.63281 q 0,-24.11719 -5.76563,-31.78125 v -0.42188 h 14.625 l 0.42188,0.42188 q -5.97657,9 -5.97657,32.41406 v 0.21094 h 0.21094 q 7.03125,-19.47657 24.25781,-19.47657 13.42969,0 20.60157,14.13282 1.75781,4.78125 1.75781,8.85937 0,16.38281 -17.29688,22.21875 -4.64062,0.84375 -8.22656,0.84375 h -0.63281 q -6.04688,0 -11.53125,-1.96875 h -0.21094 v 0.21094 q 5.90625,4.99219 7.94531,9.84375 4.21875,7.73437 4.21875,13.42969 v 0.98437 q 0,14.13281 -15.11718,21.44531 -4.99219,1.33594 -7.73438,1.33594 z" />
      <path
         inkscape:connector-curvature="0"
         id="path860"
         style="font-style:normal;font-weight:normal;font-size:500px;line-height:1.25;font-family:Arial;text-align:center;text-anchor:middle;fill:#000000;fill-opacity:1;stroke:none;stroke-width:1px;stroke-linecap:butt;stroke-linejoin:miter;stroke-opacity:1"
         d="M 477.59537,685.77356 H 270.56412 l 1.95312,-8.30078 q 40.28321,-8.54492 53.4668,-16.8457 19.77539,-12.45118 32.22656,-36.86524 12.69531,-24.41406 12.69531,-51.51367 0,-3.90625 -0.24414,-11.23047 -14.89257,30.27344 -36.37695,44.18945 -21.24023,13.91602 -43.45703,13.91602 -28.32031,0 -48.0957,-19.77539 -19.77539,-19.77539 -19.77539,-48.58399 0,-28.32031 18.0664,-47.60742 18.06641,-19.53125 41.01563,-19.53125 14.64843,0 39.79492,12.45117 -10.25391,-17.08984 -13.42774,-25.63476 -2.92968,-8.78906 -2.92968,-18.79883 0,-27.83203 19.28711,-47.11914 19.28711,-19.28711 48.0957,-19.28711 28.80859,0 48.33984,19.28711 19.77539,19.28711 19.77539,45.89844 0,21.72851 -16.8457,45.65429 20.50781,-9.76562 24.6582,-10.98632 6.5918,-1.95313 14.89258,-1.95313 24.41406,0 42.23633,19.28711 18.06641,19.04297 18.06641,47.36328 0,29.29688 -19.77539,49.31641 -19.53125,19.77539 -47.11915,19.77539 -15.38085,0 -31.73828,-7.32422 -16.11328,-7.56836 -28.07617,-20.01953 -8.54492,-9.0332 -21.24023,-30.51758 0.97656,38.81836 11.71875,61.52344 10.98633,22.46094 33.44726,37.35351 15.13672,10.00977 54.44336,17.57813 z" />
    </g>
  </g>
</svg>
