<?xml version="1.0" encoding="UTF-8" standalone="no"?>
<!-- Created with Inkscape (http://www.inkscape.org/) -->

<svg
   xmlns:dc="http://purl.org/dc/elements/1.1/"
   xmlns:cc="http://creativecommons.org/ns#"
   xmlns:rdf="http://www.w3.org/1999/02/22-rdf-syntax-ns#"
   xmlns:svg="http://www.w3.org/2000/svg"
   xmlns="http://www.w3.org/2000/svg"
   xmlns:sodipodi="http://sodipodi.sourceforge.net/DTD/sodipodi-0.dtd"
   xmlns:inkscape="http://www.inkscape.org/namespaces/inkscape"
   width="747.34698"
   height="1046.2856"
   id="svg2"
   sodipodi:version="0.32"
   inkscape:version="0.92.4 (5da689c313, 2019-01-14)"
   version="1.0"
   sodipodi:docname="Cards-4-Heart.svg"
   inkscape:output_extension="org.inkscape.output.svg.inkscape">
  <defs
     id="defs4">
    <inkscape:perspective
       sodipodi:type="inkscape:persp3d"
       inkscape:vp_x="0 : 526.18109 : 1"
       inkscape:vp_y="0 : 1000 : 0"
       inkscape:vp_z="744.09448 : 526.18109 : 1"
       inkscape:persp3d-origin="372.04724 : 350.78739 : 1"
       id="perspective10" />
    <inkscape:perspective
       id="perspective2390"
       inkscape:persp3d-origin="372.04724 : 350.78739 : 1"
       inkscape:vp_z="744.09448 : 526.18109 : 1"
       inkscape:vp_y="0 : 1000 : 0"
       inkscape:vp_x="0 : 526.18109 : 1"
       sodipodi:type="inkscape:persp3d" />
  </defs>
  <sodipodi:namedview
     id="base"
     pagecolor="#ffffff"
     bordercolor="#666666"
     borderopacity="1.0"
     gridtolerance="10000"
     guidetolerance="10"
     objecttolerance="10"
     inkscape:pageopacity="0.0"
     inkscape:pageshadow="2"
     inkscape:zoom="0.35"
     inkscape:cx="-1315.8294"
     inkscape:cy="184.61781"
     inkscape:document-units="px"
     inkscape:current-layer="g2393"
     showgrid="false"
     showguides="true"
     inkscape:guide-bbox="true"
     inkscape:window-width="3840"
     inkscape:window-height="2066"
     inkscape:window-x="-11"
     inkscape:window-y="-11"
     inkscape:window-maximized="1" />
  <metadata
     id="metadata7">
    <rdf:RDF>
      <cc:Work
         rdf:about="">
        <dc:format>image/svg+xml</dc:format>
        <dc:type
           rdf:resource="http://purl.org/dc/dcmitype/StillImage" />
      </cc:Work>
    </rdf:RDF>
  </metadata>
  <g
     inkscape:label="Layer 1"
     inkscape:groupmode="layer"
     id="layer1"
     transform="translate(2.2448993,-0.6479052)">
    <g
       id="g2775"
       transform="translate(-2.0407968,-11.714273)">
      <path
         inkscape:connector-curvature="0"
         id="path878"
         style="font-style:normal;font-variant:normal;font-weight:normal;font-stretch:normal;font-size:144px;line-height:1.25;font-family:'Arial Narrow';-inkscape-font-specification:'Arial Narrow';text-align:center;text-anchor:middle;fill:#ff0000;fill-opacity:1;stroke:none;stroke-width:1px;stroke-linecap:butt;stroke-linejoin:miter;stroke-opacity:1"
         d="M 72.70182,66.44249 36.842445,122.48155 H 72.70182 Z m -3.726562,-12.375 h 17.859375 v 68.41406 H 101.8112 v 11.8125 H 86.834633 v 24.75 H 72.70182 v -24.75 H 25.311195 v -13.71094 z" />
      <path
         inkscape:connector-curvature="0"
         id="path881"
         style="font-style:normal;font-variant:normal;font-weight:normal;font-stretch:normal;font-size:144px;line-height:1.25;font-family:'Arial Narrow';-inkscape-font-specification:'Arial Narrow';text-align:center;text-anchor:middle;fill:#ff0000;fill-opacity:1;stroke:none;stroke-width:1px;stroke-linecap:butt;stroke-linejoin:miter;stroke-opacity:1"
         d="m 40.498695,194.13779 q 14.273438,0 22.429688,16.52343 2.953125,6.53907 3.09375,9.98438 h 0.210937 q 2.460938,-11.39063 8.929688,-18.91406 7.59375,-7.59375 17.085937,-7.59375 14.695315,0 23.554685,15.75 2.25,5.83593 2.25,10.96875 0,17.57812 -14.625,33.53906 L 66.23307,299.04404 H 65.811195 L 26.29557,250.59872 q -11.8125,-14.41406 -11.8125,-29.74218 0,-14.83594 13.992188,-23.55469 5.90625,-3.16406 12.023437,-3.16406 z" />
      <path
         inkscape:connector-curvature="0"
         id="path875"
         style="font-style:normal;font-variant:normal;font-weight:normal;font-stretch:normal;font-size:144px;line-height:1.25;font-family:'Arial Narrow';-inkscape-font-specification:'Arial Narrow';text-align:center;text-anchor:middle;fill:#ff0000;fill-opacity:1;stroke:none;stroke-width:1px;stroke-linecap:butt;stroke-linejoin:miter;stroke-opacity:1"
         d="m 674.237,1004.5675 35.85937,-56.03906 H 674.237 Z m 3.72656,12.375 h -17.85937 v -68.41406 h -14.97657 v -11.8125 h 14.97657 v -24.75 H 674.237 v 24.75 h 47.39062 v 13.71094 z" />
      <path
         inkscape:connector-curvature="0"
         id="path872"
         style="font-style:normal;font-variant:normal;font-weight:normal;font-stretch:normal;font-size:144px;line-height:1.25;font-family:'Arial Narrow';-inkscape-font-specification:'Arial Narrow';text-align:center;text-anchor:middle;fill:#ff0000;fill-opacity:1;stroke:none;stroke-width:1px;stroke-linecap:butt;stroke-linejoin:miter;stroke-opacity:1"
         d="m 706.44012,876.87219 q -14.27343,0 -22.42968,-16.52344 -2.95313,-6.53906 -3.09375,-9.98437 h -0.21094 q -2.46094,11.39062 -8.92969,18.91406 -7.59375,7.59375 -17.08594,7.59375 -14.69531,0 -23.55468,-15.75 -2.25,-5.83594 -2.25,-10.96875 0,-17.57812 14.625,-33.53906 l 37.19531,-44.64844 h 0.42187 l 39.51563,48.44531 q 11.8125,14.41407 11.8125,29.74219 0,14.83594 -13.99219,23.55469 -5.90625,3.16406 -12.02344,3.16406 z" />
      <g
         id="g2393"
         transform="translate(-7.8125009,0)">
        <path
           inkscape:connector-curvature="0"
           id="path887"
           style="font-style:normal;font-weight:normal;font-size:250px;line-height:1.25;font-family:Arial;text-align:center;text-anchor:middle;fill:#ff0000;fill-opacity:1;stroke:none;stroke-width:1px;stroke-linecap:butt;stroke-linejoin:miter;stroke-opacity:1"
           d="m 241.52603,313.56897 q -3.78418,-14.4043 -10.86426,-26.97754 -6.958,-12.69531 -27.09961,-39.30664 -14.7705,-19.53125 -18.18847,-24.78027 -5.61524,-8.54493 -8.17871,-15.625 -2.44141,-7.20215 -2.44141,-14.52637 0,-13.54981 9.0332,-22.70508 9.03321,-9.15527 22.33887,-9.15527 13.42774,0 23.31543,9.52148 7.44629,7.08008 12.08496,21.11817 4.02832,-13.79395 11.35254,-20.9961 10.13184,-9.76562 23.4375,-9.76562 13.18359,0 22.33887,9.15527 9.15527,9.0332 9.15527,21.60645 0,10.98632 -5.37109,22.94922 -5.3711,11.84082 -20.75196,31.12792 -20.01953,25.26856 -29.1748,41.50391 -7.20215,12.81738 -10.98633,26.85547 z" />
        <path
           inkscape:connector-curvature="0"
           d="m 241.52603,757.44103 q -3.78418,14.4043 -10.86426,26.97754 -6.958,12.69531 -27.09961,39.30664 -14.7705,19.53125 -18.18847,24.78027 -5.61524,8.54493 -8.17871,15.625 -2.44141,7.20215 -2.44141,14.52637 0,13.54981 9.0332,22.70508 9.03321,9.15527 22.33887,9.15527 13.42774,0 23.31543,-9.52148 7.44629,-7.08008 12.08496,-21.11817 4.02832,13.79395 11.35254,20.9961 10.13184,9.76562 23.4375,9.76562 13.18359,0 22.33887,-9.15527 9.15527,-9.0332 9.15527,-21.60645 0,-10.98632 -5.37109,-22.94922 -5.3711,-11.84082 -20.75196,-31.12792 -20.01953,-25.26856 -29.1748,-41.50391 -7.20215,-12.81738 -10.98633,-26.85547 z"
           style="font-style:normal;font-weight:normal;font-size:250px;line-height:1.25;font-family:Arial;text-align:center;text-anchor:middle;fill:#ff0000;fill-opacity:1;stroke:none;stroke-width:1px;stroke-linecap:butt;stroke-linejoin:miter;stroke-opacity:1"
           id="path894" />
        <path
           inkscape:connector-curvature="0"
           id="path884"
           style="font-style:normal;font-weight:normal;font-size:250px;line-height:1.25;font-family:Arial;text-align:center;text-anchor:middle;fill:#ff0000;fill-opacity:1;stroke:none;stroke-width:1px;stroke-linecap:butt;stroke-linejoin:miter;stroke-opacity:1"
           d="m 521.526,313.56897 q -3.78418,-14.4043 -10.86426,-26.97754 -6.958,-12.69531 -27.09961,-39.30664 -14.7705,-19.53125 -18.18847,-24.78027 -5.61524,-8.54493 -8.17871,-15.625 -2.44141,-7.20215 -2.44141,-14.52637 0,-13.54981 9.0332,-22.70508 9.03321,-9.15527 22.33887,-9.15527 13.42773,0 23.31543,9.52148 7.44629,7.08008 12.08496,21.11817 4.02832,-13.79395 11.35254,-20.9961 10.13184,-9.76562 23.4375,-9.76562 13.18359,0 22.33887,9.15527 9.15527,9.0332 9.15527,21.60645 0,10.98632 -5.37109,22.94922 -5.3711,11.84082 -20.75196,31.12792 -20.01953,25.26856 -29.1748,41.50391 -7.20215,12.81738 -10.98633,26.85547 z" />
        <path
           inkscape:connector-curvature="0"
           d="m 521.52603,757.44103 q -3.78418,14.4043 -10.86426,26.97754 -6.958,12.69531 -27.09961,39.30664 -14.7705,19.53125 -18.18847,24.78027 -5.61524,8.54493 -8.17871,15.625 -2.44141,7.20215 -2.44141,14.52637 0,13.54981 9.0332,22.70508 9.03321,9.15527 22.33887,9.15527 13.42774,0 23.31543,-9.52148 7.44629,-7.08008 12.08496,-21.11817 4.02832,13.79395 11.35254,20.9961 10.13184,9.76562 23.4375,9.76562 13.18359,0 22.33887,-9.15527 9.15527,-9.0332 9.15527,-21.60645 0,-10.98632 -5.37109,-22.94922 -5.3711,-11.84082 -20.75196,-31.12792 -20.01953,-25.26856 -29.1748,-41.50391 -7.20215,-12.81738 -10.98633,-26.85547 z"
           style="font-style:normal;font-weight:normal;font-size:250px;line-height:1.25;font-family:Arial;text-align:center;text-anchor:middle;fill:#ff0000;fill-opacity:1;stroke:none;stroke-width:1px;stroke-linecap:butt;stroke-linejoin:miter;stroke-opacity:1"
           id="path890" />
      </g>
    </g>
  </g>
</svg>
