<svg version="1.0" viewBox="0 0 747 1000" xmlns="http://www.w3.org/2000/svg"><g fill="red"><path d="M31.2 144.35v-13q5.3 2.5 11 3.9t11 1.3q14 0 21-9.4 7.5-9.5 8.5-29-4.1 6-10 9.3-6.3 3.2-14 3.2-16 0-25-9.5-9.1-9.6-9.1-26 0-16 9.6-26 9.6-9.8 25-9.8 18 0 28 14 9.6 14 9.6 41 0 25-12 40t-32 15q-5.3 0-11-1.1-5.5-1.1-11-3.2zm28-45q9.6 0 15-6.5 5.6-6.5 5.6-18 0-11-5.6-18-5.6-6.6-15-6.6t-15 6.6q-5.6 6.5-5.6 18 0 11 5.6 18 5.6 6.5 15 6.5zM66.2 181.35l35 46q4.9 6 4.9 6.9l-40 52q-.84-.56-40-52 0-.98 7.8-11zM715.2 901.35v13q-5.3-2.5-11-3.9-5.5-1.3-11-1.3-14 0-21 9.4-7.5 9.5-8.5 29 4.1-6 10-9.3 6.3-3.2 14-3.2 16 0 25 9.5 9.1 9.6 9.1 26 0 16-9.6 26-9.6 9.8-25 9.8-18 0-28-14-9.6-14-9.6-40 0-25 12-40t32-15q5.3 0 11 1.1 5.5 1.1 11 3.2zm-28 45q-9.6 0-15 6.5-5.6 6.5-5.6 18 0 11 5.6 18 5.6 6.6 15 6.6t15-6.6q5.6-6.5 5.6-18 0-11-5.6-18-5.6-6.5-15-6.5zM681.2 864.35l-35-46q-4.9-6-4.9-6.9l40-52q.84.56 40 52 0 .98-7.8 11zM233.8 108.35q11 18 27 40 18 24 30 37-9 9.5-30 37-17 22-27 40-3.3-6.3-9-15-9.9-15-25-34-3.2-4.3-22-28 12-14 32-40 14-19 24-36zM233.8 938.35q11-18 27-40 18-24 30-37-9-9.5-30-37-17-22-27-40-3.3 6.3-9 15-9.9 15-25 34-3.2 4.3-22 28 12 14 32 40 14 19 24 36zM233.8 328.35q11 18 27 40 18 24 30 37-9 9.5-30 37-17 22-27 40-3.3-6.3-9-15-9.9-15-25-34-3.2-4.3-22-28 12-14 32-40 14-19 24-36zM233.8 718.35q11-18 27-40 18-24 30-37-9-9.5-30-37-17-22-27-40-3.3 6.3-9 15-9.9 15-25 34-3.2 4.3-22 28 12 14 32 40 14 19 24 36zM513.8 108.35q11 18 27 40 18 24 30 37-9 9.5-30 37-17 22-27 40-3.3-6.3-9-15-9.9-15-25-34-3.2-4.3-22-28 12-14 32-40 14-19 24-36zM513.8 938.35q11-18 27-40 18-24 30-37-9-9.5-30-37-17-22-27-40-3.3 6.3-9 15-9.9 15-25 34-3.2 4.3-22 28 12 14 32 40 14 19 24 36zM513.8 328.35q11 18 27 40 18 24 30 37-9 9.5-30 37-17 22-27 40-3.3-6.3-9-15-9.9-15-25-34-3.2-4.3-22-28 12-14 32-40 14-19 24-36zM513.8 718.35q11-18 27-40 18-24 30-37-9-9.5-30-37-17-22-27-40-3.3 6.3-9 15-9.9 15-25 34-3.2 4.3-22 28 12 14 32 40 14 19 24 36zM373.8 234.35q11 18 27 40 18 24 30 37-9 9.5-30 37-17 22-27 40-3.3-6.3-9-15-9.9-15-25-34-3.2-4.3-22-28 12-14 32-40 14-19 24-36z"/></g></svg>