<?xml version="1.0" encoding="UTF-8" standalone="no"?>
<!-- Created with Inkscape (http://www.inkscape.org/) -->

<svg
   xmlns:dc="http://purl.org/dc/elements/1.1/"
   xmlns:cc="http://creativecommons.org/ns#"
   xmlns:rdf="http://www.w3.org/1999/02/22-rdf-syntax-ns#"
   xmlns:svg="http://www.w3.org/2000/svg"
   xmlns="http://www.w3.org/2000/svg"
   xmlns:sodipodi="http://sodipodi.sourceforge.net/DTD/sodipodi-0.dtd"
   xmlns:inkscape="http://www.inkscape.org/namespaces/inkscape"
   width="747.34698"
   height="1046.2856"
   id="svg2"
   sodipodi:version="0.32"
   inkscape:version="0.92.4 (5da689c313, 2019-01-14)"
   version="1.0"
   sodipodi:docname="Cards-8-Heart.svg"
   inkscape:output_extension="org.inkscape.output.svg.inkscape">
  <defs
     id="defs4">
    <inkscape:perspective
       sodipodi:type="inkscape:persp3d"
       inkscape:vp_x="0 : 526.18109 : 1"
       inkscape:vp_y="0 : 1000 : 0"
       inkscape:vp_z="744.09448 : 526.18109 : 1"
       inkscape:persp3d-origin="372.04724 : 350.78739 : 1"
       id="perspective10" />
    <inkscape:perspective
       id="perspective2390"
       inkscape:persp3d-origin="372.04724 : 350.78739 : 1"
       inkscape:vp_z="744.09448 : 526.18109 : 1"
       inkscape:vp_y="0 : 1000 : 0"
       inkscape:vp_x="0 : 526.18109 : 1"
       sodipodi:type="inkscape:persp3d" />
  </defs>
  <sodipodi:namedview
     id="base"
     pagecolor="#ffffff"
     bordercolor="#666666"
     borderopacity="1.0"
     gridtolerance="10000"
     guidetolerance="10"
     objecttolerance="10"
     inkscape:pageopacity="0.0"
     inkscape:pageshadow="2"
     inkscape:zoom="0.35"
     inkscape:cx="-497.30741"
     inkscape:cy="297.80037"
     inkscape:document-units="px"
     inkscape:current-layer="layer1"
     showgrid="false"
     showguides="true"
     inkscape:guide-bbox="true"
     inkscape:window-width="3840"
     inkscape:window-height="2066"
     inkscape:window-x="-11"
     inkscape:window-y="-11"
     inkscape:window-maximized="1" />
  <metadata
     id="metadata7">
    <rdf:RDF>
      <cc:Work
         rdf:about="">
        <dc:format>image/svg+xml</dc:format>
        <dc:type
           rdf:resource="http://purl.org/dc/dcmitype/StillImage" />
      </cc:Work>
    </rdf:RDF>
  </metadata>
  <g
     inkscape:label="Layer 1"
     inkscape:groupmode="layer"
     id="layer1"
     transform="translate(2.2448993,-0.6479052)">
    <path
       inkscape:connector-curvature="0"
       id="path913"
       style="font-style:normal;font-variant:normal;font-weight:normal;font-stretch:normal;font-size:144px;line-height:1.25;font-family:'Arial Narrow';-inkscape-font-specification:'Arial Narrow';text-align:center;text-anchor:middle;fill:#ff0000;fill-opacity:1;stroke:none;stroke-width:1px;stroke-linecap:butt;stroke-linejoin:miter;stroke-opacity:1"
       d="m 59.428593,97.47821 q -10.125,0 -15.960938,5.41406 -5.765625,5.41407 -5.765625,14.90625 0,9.49219 5.765625,14.90625 5.835938,5.41407 15.960938,5.41407 10.125,0 15.960937,-5.41407 5.835938,-5.48437 5.835938,-14.90625 0,-9.49218 -5.835938,-14.90625 -5.765625,-5.41406 -15.960937,-5.41406 z M 45.225468,91.431335 q -9.140625,-2.25 -14.273438,-8.507812 -5.0625,-6.257813 -5.0625,-15.257813 0,-12.585937 8.929688,-19.898437 9,-7.3125 24.609375,-7.3125 15.679687,0 24.609375,7.3125 8.929687,7.3125 8.929687,19.898437 0,9 -5.132812,15.257813 -5.0625,6.257812 -14.132813,8.507812 10.265625,2.390625 15.960938,9.351565 5.765625,6.96094 5.765625,17.01562 0,15.25782 -9.351563,23.41407 -9.28125,8.15625 -26.648437,8.15625 -17.367188,0 -26.71875,-8.15625 -9.28125,-8.15625 -9.28125,-23.41407 0,-10.05468 5.765625,-17.01562 5.765625,-6.96094 16.03125,-9.351565 z M 40.022343,69.001648 q 0,8.15625 5.0625,12.726562 5.132812,4.570313 14.34375,4.570313 9.140625,0 14.273437,-4.570313 5.203125,-4.570312 5.203125,-12.726562 0,-8.15625 -5.203125,-12.726563 -5.132812,-4.570312 -14.273437,-4.570312 -9.210938,0 -14.34375,4.570312 -5.0625,4.570313 -5.0625,12.726563 z" />
    <path
       inkscape:connector-curvature="0"
       id="path916"
       style="font-style:normal;font-variant:normal;font-weight:normal;font-stretch:normal;font-size:144px;line-height:1.25;font-family:'Arial Narrow';-inkscape-font-specification:'Arial Narrow';text-align:center;text-anchor:middle;fill:#ff0000;fill-opacity:1;stroke:none;stroke-width:1px;stroke-linecap:butt;stroke-linejoin:miter;stroke-opacity:1"
       d="m 37.772343,182.42352 q 14.273437,0 22.429687,16.52344 2.953125,6.53906 3.09375,9.98438 h 0.210938 q 2.460937,-11.39063 8.929687,-18.91407 7.59375,-7.59375 17.085938,-7.59375 14.695317,0 23.554687,15.75 2.25,5.83594 2.25,10.96875 0,17.57813 -14.625,33.53907 L 63.506718,287.32977 H 63.084843 L 23.569218,238.88446 q -11.8125,-14.41406 -11.8125,-29.74219 0,-14.83593 13.992187,-23.55468 5.90625,-3.16407 12.023438,-3.16407 z" />
    <path
       inkscape:connector-curvature="0"
       id="path910"
       style="font-style:normal;font-variant:normal;font-weight:normal;font-stretch:normal;font-size:144px;line-height:1.25;font-family:'Arial Narrow';-inkscape-font-specification:'Arial Narrow';text-align:center;text-anchor:middle;fill:#ff0000;fill-opacity:1;stroke:none;stroke-width:1px;stroke-linecap:butt;stroke-linejoin:miter;stroke-opacity:1"
       d="m 683.42859,950.10321 q 10.125,0 15.96094,-5.41406 5.76562,-5.41406 5.76562,-14.90625 0,-9.49219 -5.76562,-14.90625 -5.83594,-5.41406 -15.96094,-5.41406 -10.125,0 -15.96094,5.41406 -5.83594,5.48437 -5.83594,14.90625 0,9.49219 5.83594,14.90625 5.76563,5.41406 15.96094,5.41406 z m 14.20312,6.04688 q 9.14063,2.25 14.27344,8.50781 5.0625,6.25781 5.0625,15.25781 0,12.58594 -8.92969,19.89844 -9,7.31245 -24.60937,7.31245 -15.67969,0 -24.60938,-7.31245 -8.92968,-7.3125 -8.92968,-19.89844 0,-9 5.13281,-15.25781 5.0625,-6.25781 14.13281,-8.50781 -10.26562,-2.39063 -15.96094,-9.35157 -5.76562,-6.96093 -5.76562,-17.01562 0,-15.25781 9.35156,-23.41406 9.28125,-8.15625 26.64844,-8.15625 17.36719,0 26.71875,8.15625 9.28125,8.15625 9.28125,23.41406 0,10.05469 -5.76563,17.01562 -5.76562,6.96094 -16.03125,9.35157 z m 5.20313,22.42968 q 0,-8.15625 -5.0625,-12.72656 -5.13281,-4.57031 -14.34375,-4.57031 -9.14063,0 -14.27344,4.57031 -5.20312,4.57031 -5.20312,12.72656 0,8.15625 5.20312,12.72657 5.13281,4.57031 14.27344,4.57031 9.21094,0 14.34375,-4.57031 5.0625,-4.57032 5.0625,-12.72657 z" />
    <path
       inkscape:connector-curvature="0"
       id="path907"
       style="font-style:normal;font-variant:normal;font-weight:normal;font-stretch:normal;font-size:144px;line-height:1.25;font-family:'Arial Narrow';-inkscape-font-specification:'Arial Narrow';text-align:center;text-anchor:middle;fill:#ff0000;fill-opacity:1;stroke:none;stroke-width:1px;stroke-linecap:butt;stroke-linejoin:miter;stroke-opacity:1"
       d="m 705.08484,865.1579 q -14.27344,0 -22.42969,-16.52344 -2.95312,-6.53906 -3.09375,-9.98437 h -0.21094 q -2.46093,11.39062 -8.92968,18.91406 -7.59375,7.59375 -17.08594,7.59375 -14.69531,0 -23.55469,-15.75 -2.25,-5.83594 -2.25,-10.96875 0,-17.57813 14.625,-33.53906 l 37.19531,-44.64844 h 0.42188 l 39.51562,48.44531 q 11.8125,14.41406 11.8125,29.74219 0,14.83594 -13.99218,23.55469 -5.90625,3.16406 -12.02344,3.16406 z" />
    <path
       inkscape:connector-curvature="0"
       id="path901"
       style="font-style:normal;font-weight:normal;font-size:250px;line-height:1.25;font-family:Arial;text-align:center;text-anchor:middle;fill:#ff0000;fill-opacity:1;stroke:none;stroke-width:1px;stroke-linecap:butt;stroke-linejoin:miter;stroke-opacity:1"
       d="m 231.67273,301.85471 q -3.78418,-14.4043 -10.86426,-26.97754 -6.95801,-12.69532 -27.09961,-39.30664 -14.77051,-19.53125 -18.18847,-24.78028 -5.61524,-8.54492 -8.17872,-15.625 -2.4414,-7.20215 -2.4414,-14.52636 0,-13.54981 9.0332,-22.70508 9.0332,-9.15528 22.33887,-9.15528 13.42773,0 23.31543,9.52149 7.44629,7.08008 12.08496,21.11816 4.02832,-13.79394 11.35254,-20.99609 10.13183,-9.76563 23.4375,-9.76563 13.18359,0 22.33887,9.15528 9.15527,9.0332 9.15527,21.60644 0,10.98633 -5.37109,22.94922 -5.3711,11.84082 -20.75196,31.12793 -20.01953,25.26856 -29.1748,41.50391 -7.20215,12.81738 -10.98633,26.85547 z" />
    <path
       inkscape:connector-curvature="0"
       d="m 231.67273,745.72669 q -3.78418,14.4043 -10.86426,26.97754 -6.95801,12.69532 -27.09961,39.30664 -14.77051,19.53125 -18.18847,24.78028 -5.61524,8.54492 -8.17872,15.625 -2.4414,7.20215 -2.4414,14.52636 0,13.54981 9.0332,22.70508 9.0332,9.15528 22.33887,9.15528 13.42773,0 23.31543,-9.52149 7.44629,-7.08008 12.08496,-21.11816 4.02832,13.79394 11.35254,20.99609 10.13183,9.76563 23.4375,9.76563 13.18359,0 22.33887,-9.15528 9.15527,-9.0332 9.15527,-21.60644 0,-10.98633 -5.37109,-22.94922 -5.3711,-11.84082 -20.75196,-31.12793 -20.01953,-25.26856 -29.1748,-41.50391 -7.20215,-12.81738 -10.98633,-26.85547 z"
       style="font-style:normal;font-weight:normal;font-size:250px;line-height:1.25;font-family:Arial;text-align:center;text-anchor:middle;fill:#ff0000;fill-opacity:1;stroke:none;stroke-width:1px;stroke-linecap:butt;stroke-linejoin:miter;stroke-opacity:1"
       id="path927" />
    <path
       inkscape:connector-curvature="0"
       d="m 231.67273,601.85471 q -3.78418,-14.4043 -10.86426,-26.97754 -6.95801,-12.69532 -27.09961,-39.30664 -14.77051,-19.53125 -18.18847,-24.78028 -5.61524,-8.54492 -8.17872,-15.625 -2.4414,-7.20215 -2.4414,-14.52636 0,-13.54981 9.0332,-22.70508 9.0332,-9.15528 22.33887,-9.15528 13.42773,0 23.31543,9.52149 7.44629,7.08008 12.08496,21.11816 4.02832,-13.79394 11.35254,-20.99609 10.13183,-9.76563 23.4375,-9.76563 13.18359,0 22.33887,9.15528 9.15527,9.0332 9.15527,21.60644 0,10.98633 -5.37109,22.94922 -5.3711,11.84082 -20.75196,31.12793 -20.01953,25.26856 -29.1748,41.50391 -7.20215,12.81738 -10.98633,26.85547 z"
       style="font-style:normal;font-weight:normal;font-size:250px;line-height:1.25;font-family:Arial;text-align:center;text-anchor:middle;fill:#ff0000;fill-opacity:1;stroke:none;stroke-width:1px;stroke-linecap:butt;stroke-linejoin:miter;stroke-opacity:1"
       id="path931" />
    <path
       inkscape:connector-curvature="0"
       id="path898"
       style="font-style:normal;font-weight:normal;font-size:250px;line-height:1.25;font-family:Arial;text-align:center;text-anchor:middle;fill:#ff0000;fill-opacity:1;stroke:none;stroke-width:1px;stroke-linecap:butt;stroke-linejoin:miter;stroke-opacity:1"
       d="m 511.67273,301.85471 q -3.78418,-14.4043 -10.86426,-26.97754 -6.95801,-12.69532 -27.09961,-39.30664 -14.77051,-19.53125 -18.18847,-24.78028 -5.61524,-8.54492 -8.17872,-15.625 -2.4414,-7.20215 -2.4414,-14.52636 0,-13.54981 9.0332,-22.70508 9.0332,-9.15528 22.33887,-9.15528 13.42773,0 23.31543,9.52149 7.44629,7.08008 12.08496,21.11816 4.02832,-13.79394 11.35254,-20.99609 10.13183,-9.76563 23.4375,-9.76563 13.18359,0 22.33887,9.15528 9.15527,9.0332 9.15527,21.60644 0,10.98633 -5.37109,22.94922 -5.3711,11.84082 -20.75196,31.12793 -20.01953,25.26856 -29.1748,41.50391 -7.20215,12.81738 -10.98633,26.85547 z" />
    <path
       inkscape:connector-curvature="0"
       d="m 511.67273,745.72669 q -3.78418,14.4043 -10.86426,26.97754 -6.95801,12.69532 -27.09961,39.30664 -14.77051,19.53125 -18.18847,24.78028 -5.61524,8.54492 -8.17872,15.625 -2.4414,7.20215 -2.4414,14.52636 0,13.54981 9.0332,22.70508 9.0332,9.15528 22.33887,9.15528 13.42773,0 23.31543,-9.52149 7.44629,-7.08008 12.08496,-21.11816 4.02832,13.79394 11.35254,20.99609 10.13183,9.76563 23.4375,9.76563 13.18359,0 22.33887,-9.15528 9.15527,-9.0332 9.15527,-21.60644 0,-10.98633 -5.37109,-22.94922 -5.3711,-11.84082 -20.75196,-31.12793 -20.01953,-25.26856 -29.1748,-41.50391 -7.20215,-12.81738 -10.98633,-26.85547 z"
       style="font-style:normal;font-weight:normal;font-size:250px;line-height:1.25;font-family:Arial;text-align:center;text-anchor:middle;fill:#ff0000;fill-opacity:1;stroke:none;stroke-width:1px;stroke-linecap:butt;stroke-linejoin:miter;stroke-opacity:1"
       id="path923" />
    <path
       inkscape:connector-curvature="0"
       d="m 511.67273,601.85471 q -3.78418,-14.4043 -10.86426,-26.97754 -6.95801,-12.69532 -27.09961,-39.30664 -14.77051,-19.53125 -18.18847,-24.78028 -5.61524,-8.54492 -8.17872,-15.625 -2.4414,-7.20215 -2.4414,-14.52636 0,-13.54981 9.0332,-22.70508 9.0332,-9.15528 22.33887,-9.15528 13.42773,0 23.31543,9.52149 7.44629,7.08008 12.08496,21.11816 4.02832,-13.79394 11.35254,-20.99609 10.13183,-9.76563 23.4375,-9.76563 13.18359,0 22.33887,9.15528 9.15527,9.0332 9.15527,21.60644 0,10.98633 -5.37109,22.94922 -5.3711,11.84082 -20.75196,31.12793 -20.01953,25.26856 -29.1748,41.50391 -7.20215,12.81738 -10.98633,26.85547 z"
       style="font-style:normal;font-weight:normal;font-size:250px;line-height:1.25;font-family:Arial;text-align:center;text-anchor:middle;fill:#ff0000;fill-opacity:1;stroke:none;stroke-width:1px;stroke-linecap:butt;stroke-linejoin:miter;stroke-opacity:1"
       id="path919" />
    <path
       inkscape:connector-curvature="0"
       id="path904"
       style="font-style:normal;font-weight:normal;font-size:250px;line-height:1.25;font-family:Arial;text-align:center;text-anchor:middle;fill:#ff0000;fill-opacity:1;stroke:none;stroke-width:1px;stroke-linecap:butt;stroke-linejoin:miter;stroke-opacity:1"
       d="m 371.67273,461.85468 q -3.78418,-14.4043 -10.86426,-26.97754 -6.95801,-12.69532 -27.09961,-39.30664 -14.77051,-19.53125 -18.18847,-24.78028 -5.61524,-8.54492 -8.17872,-15.625 -2.4414,-7.20215 -2.4414,-14.52637 0,-13.5498 9.0332,-22.70507 9.0332,-9.15528 22.33887,-9.15528 13.42773,0 23.31543,9.52149 7.44629,7.08008 12.08496,21.11816 4.02832,-13.79394 11.35254,-20.99609 10.13183,-9.76563 23.4375,-9.76563 13.18359,0 22.33887,9.15528 9.15527,9.0332 9.15527,21.60644 0,10.98633 -5.37109,22.94922 -5.3711,11.84082 -20.75196,31.12793 -20.01953,25.26855 -29.1748,41.50391 -7.20215,12.81738 -10.98633,26.85547 z" />
    <path
       inkscape:connector-curvature="0"
       d="m 371.67273,625.72672 q -3.78418,14.4043 -10.86426,26.97754 -6.95801,12.69532 -27.09961,39.30664 -14.77051,19.53125 -18.18847,24.78028 -5.61524,8.54492 -8.17872,15.625 -2.4414,7.20215 -2.4414,14.52637 0,13.5498 9.0332,22.70507 9.0332,9.15528 22.33887,9.15528 13.42773,0 23.31543,-9.52149 7.44629,-7.08008 12.08496,-21.11816 4.02832,13.79394 11.35254,20.99609 10.13183,9.76563 23.4375,9.76563 13.18359,0 22.33887,-9.15528 9.15527,-9.0332 9.15527,-21.60644 0,-10.98633 -5.37109,-22.94922 -5.3711,-11.84082 -20.75196,-31.12793 -20.01953,-25.26855 -29.1748,-41.50391 -7.20215,-12.81738 -10.98633,-26.85547 z"
       style="font-style:normal;font-weight:normal;font-size:250px;line-height:1.25;font-family:Arial;text-align:center;text-anchor:middle;fill:#ff0000;fill-opacity:1;stroke:none;stroke-width:1px;stroke-linecap:butt;stroke-linejoin:miter;stroke-opacity:1"
       id="path935" />
  </g>
</svg>
