<?xml version="1.0" encoding="UTF-8" standalone="no"?>
<!-- Created with Inkscape (http://www.inkscape.org/) -->

<svg
   xmlns:dc="http://purl.org/dc/elements/1.1/"
   xmlns:cc="http://creativecommons.org/ns#"
   xmlns:rdf="http://www.w3.org/1999/02/22-rdf-syntax-ns#"
   xmlns:svg="http://www.w3.org/2000/svg"
   xmlns="http://www.w3.org/2000/svg"
   xmlns:sodipodi="http://sodipodi.sourceforge.net/DTD/sodipodi-0.dtd"
   xmlns:inkscape="http://www.inkscape.org/namespaces/inkscape"
   version="1.0"
   width="747.34698"
   height="1046.2856"
   id="svg2"
   sodipodi:docname="Cards-6-Spade.svg"
   inkscape:version="0.92.4 (5da689c313, 2019-01-14)">
  <metadata
     id="metadata22">
    <rdf:RDF>
      <cc:Work
         rdf:about="">
        <dc:format>image/svg+xml</dc:format>
        <dc:type
           rdf:resource="http://purl.org/dc/dcmitype/StillImage" />
      </cc:Work>
    </rdf:RDF>
  </metadata>
  <sodipodi:namedview
     pagecolor="#ffffff"
     bordercolor="#666666"
     borderopacity="1"
     objecttolerance="10"
     gridtolerance="10"
     guidetolerance="10"
     inkscape:pageopacity="0"
     inkscape:pageshadow="2"
     inkscape:window-width="3840"
     inkscape:window-height="2066"
     id="namedview20"
     showgrid="false"
     inkscape:zoom="0.22555982"
     inkscape:cx="373.67349"
     inkscape:cy="523.14282"
     inkscape:window-x="-11"
     inkscape:window-y="-11"
     inkscape:window-maximized="1"
     inkscape:current-layer="svg2" />
  <defs
     id="defs4" />
  <path
     d="m 63.325837,88.533431 q -9.5625,0 -15.1875,6.53907 -5.554687,6.539059 -5.554687,17.929679 0,11.32032 5.554687,17.92969 5.625,6.53906 15.1875,6.53906 9.5625,0 15.117188,-6.53906 5.625,-6.60937 5.625,-17.92969 0,-11.39062 -5.625,-17.929679 -5.554688,-6.53907 -15.117188,-6.53907 z M 91.52115,44.025623 v 12.9375 q -5.34375,-2.53125 -10.828125,-3.867188 -5.414063,-1.335937 -10.757813,-1.335937 -14.0625,0 -21.515625,9.492187 -7.382812,9.492188 -8.4375,28.687496 4.148438,-6.117183 10.40625,-9.351558 6.257813,-3.304688 13.78125,-3.304688 15.820313,0 24.960938,9.632813 9.210937,9.562503 9.210937,26.085932 0,16.17188 -9.5625,25.94532 -9.5625,9.77343 -25.453125,9.77343 -18.210937,0 -27.84375,-13.92187 -9.632812,-13.99219 -9.632812,-40.499999 0,-24.890626 11.8125,-39.656251 11.8125,-14.835937 31.710937,-14.835937 5.34375,0 10.757813,1.054687 5.484375,1.054688 11.390625,3.164063 z"
     style="font-style:normal;font-variant:normal;font-weight:normal;font-stretch:normal;font-size:144px;font-family:'Arial Narrow';-inkscape-font-specification:'Arial Narrow';text-align:center;text-anchor:middle;fill:#000000;fill-opacity:1;stroke:none;stroke-width:1px;stroke-linecap:butt;stroke-linejoin:miter;stroke-opacity:1"
     id="path844"
     inkscape:connector-curvature="0" />
  <path
     d="m 65.892243,181.77562 q 6.609375,11.74219 21.796875,31.14844 16.664062,19.54687 17.085932,23.55469 2.74219,5.97656 2.74219,11.60156 v 2.8125 q 0,11.74219 -11.390622,18.49219 -3.726562,1.54687 -8.226562,1.54687 -10.828125,0 -17.507813,-15.53906 h -2.953125 v 0.84375 q 0,19.89844 5.835938,30.44531 H 58.157868 V 286.26 q 5.976563,-10.61719 5.976563,-30.65625 l -0.210938,-0.21094 h -2.671875 l -3.304687,6.1875 q -5.976563,9.35156 -14.90625,9.35156 -13.148438,0 -18.492188,-14.69531 l -0.632812,-5.13281 v -3.23438 q 0,-12.86719 13.148437,-27.14062 22.148438,-27.14063 28.40625,-38.74219 l 0.210938,-0.21094 z"
     style="font-style:normal;font-variant:normal;font-weight:normal;font-stretch:normal;font-size:144px;font-family:'Arial Narrow';-inkscape-font-specification:'Arial Narrow';text-align:center;text-anchor:middle;fill:#000000;fill-opacity:1;stroke:none;stroke-width:1px;stroke-linecap:butt;stroke-linejoin:miter;stroke-opacity:1"
     id="path847"
     inkscape:connector-curvature="0" />
  <path
     inkscape:connector-curvature="0"
     id="path889"
     style="font-style:normal;font-variant:normal;font-weight:normal;font-stretch:normal;font-size:144px;font-family:'Arial Narrow';-inkscape-font-specification:'Arial Narrow';text-align:center;text-anchor:middle;fill:#000000;fill-opacity:1;stroke:none;stroke-width:1px;stroke-linecap:butt;stroke-linejoin:miter;stroke-opacity:1"
     d="m 684.02113,957.7522 q 9.5625,0 15.1875,-6.53907 5.55469,-6.53906 5.55469,-17.92968 0,-11.32032 -5.55469,-17.92969 -5.625,-6.53906 -15.1875,-6.53906 -9.5625,0 -15.11718,6.53906 -5.625,6.60937 -5.625,17.92969 0,11.39062 5.625,17.92968 5.55468,6.53907 15.11718,6.53907 z m -28.19531,44.5078 v -12.93749 q 5.34375,2.53125 10.82813,3.86719 5.41406,1.33593 10.75781,1.33593 14.0625,0 21.51562,-9.49218 7.38282,-9.49219 8.4375,-28.6875 -4.14843,6.11718 -10.40625,9.35156 -6.25781,3.30469 -13.78125,3.30469 -15.82031,0 -24.96093,-9.63282 -9.21094,-9.5625 -9.21094,-26.08593 0,-16.17188 9.5625,-25.94532 9.5625,-9.77343 25.45312,-9.77343 18.21094,0 27.84375,13.92187 9.63282,13.99219 9.63282,40.5 0,24.89063 -11.8125,39.65625 -11.8125,14.83598 -31.71094,14.83598 -5.34375,0 -10.75781,-1.0547 -5.48438,-1.0547 -11.39063,-3.1641 z" />
  <path
     inkscape:connector-curvature="0"
     id="path893"
     style="font-style:normal;font-variant:normal;font-weight:normal;font-stretch:normal;font-size:144px;font-family:'Arial Narrow';-inkscape-font-specification:'Arial Narrow';text-align:center;text-anchor:middle;fill:#000000;fill-opacity:1;stroke:none;stroke-width:1px;stroke-linecap:butt;stroke-linejoin:miter;stroke-opacity:1"
     d="m 681.45473,864.51001 q -6.60938,-11.74219 -21.79688,-31.14844 -16.66406,-19.54687 -17.08593,-23.55469 -2.74219,-5.97656 -2.74219,-11.60156 v -2.8125 q 0,-11.74219 11.39062,-18.49219 3.72657,-1.54687 8.22657,-1.54687 10.82812,0 17.50781,15.53906 h 2.95312 v -0.84375 q 0,-19.89844 -5.83593,-30.44531 h 15.11718 v 0.42187 q -5.97656,10.61719 -5.97656,30.65625 l 0.21094,0.21094 h 2.67187 l 3.30469,-6.1875 q 5.97656,-9.35156 14.90625,-9.35156 13.14844,0 18.49219,14.69531 l 0.63281,5.13281 v 3.23438 q 0,12.86719 -13.14844,27.14062 -22.14843,27.14063 -28.40625,38.74219 l -0.21093,0.21094 z" />
  <path
     d="m 233.79556,148.00855 q 3.17383,13.18359 9.76563,23.55957 6.59179,10.37597 23.4375,25.75683 16.96777,15.25879 21.48437,23.4375 4.5166,8.17871 4.5166,16.60157 0,11.71875 -7.8125,19.53125 -7.8125,7.8125 -19.04297,7.8125 -9.52148,0 -17.33398,-5.85938 -7.69043,-5.98144 -13.67188,-17.33398 0.12207,17.94433 4.63868,28.56445 4.63867,10.49805 14.64843,16.60156 10.13184,5.98145 26.85547,7.08008 l 0.85449,4.5166 h -96.80175 l 0.97656,-4.5166 q 22.46094,0 34.79004,-13.06152 12.45117,-13.1836 11.96289,-39.18457 -5.49316,11.59668 -13.67188,17.45605 -8.05664,5.73731 -18.31054,5.73731 -10.98633,0 -18.9209,-7.93457 -7.8125,-7.93457 -7.8125,-19.04297 0,-8.91114 4.02832,-16.11328 5.49316,-10.00977 17.82226,-20.14161 12.32911,-10.13183 18.18848,-16.72363 8.91113,-10.13183 12.93945,-18.0664 4.1504,-7.93457 6.46973,-18.67676 z"
     style="font-style:normal;font-weight:normal;font-size:250px;font-family:Arial;text-align:center;text-anchor:middle;fill:#000000;fill-opacity:1;stroke:none;stroke-width:1px;stroke-linecap:butt;stroke-linejoin:miter;stroke-opacity:1"
     id="path850"
     inkscape:connector-curvature="0" />
  <path
     inkscape:connector-curvature="0"
     id="path907"
     style="font-style:normal;font-weight:normal;font-size:250px;font-family:Arial;text-align:center;text-anchor:middle;fill:#000000;fill-opacity:1;stroke:none;stroke-width:1px;stroke-linecap:butt;stroke-linejoin:miter;stroke-opacity:1"
     d="m 233.79556,898.27707 q 3.17383,-13.18359 9.76563,-23.55957 6.59179,-10.37597 23.4375,-25.75683 16.96777,-15.25879 21.48437,-23.4375 4.5166,-8.17871 4.5166,-16.60157 0,-11.71875 -7.8125,-19.53125 -7.8125,-7.8125 -19.04297,-7.8125 -9.52148,0 -17.33398,5.85938 -7.69043,5.98144 -13.67188,17.33398 0.12207,-17.94433 4.63868,-28.56445 4.63867,-10.49805 14.64843,-16.60156 10.13184,-5.98145 26.85547,-7.08008 l 0.85449,-4.5166 h -96.80175 l 0.97656,4.5166 q 22.46094,0 34.79004,13.06152 12.45117,13.1836 11.96289,39.18457 -5.49316,-11.59668 -13.67188,-17.45605 -8.05664,-5.73731 -18.31054,-5.73731 -10.98633,0 -18.9209,7.93457 -7.8125,7.93457 -7.8125,19.04297 0,8.91114 4.02832,16.11328 5.49316,10.00977 17.82226,20.14161 12.32911,10.13183 18.18848,16.72363 8.91113,10.13183 12.93945,18.0664 4.1504,7.93457 6.46973,18.67676 z" />
  <path
     inkscape:connector-curvature="0"
     id="path911"
     style="font-style:normal;font-weight:normal;font-size:250px;font-family:Arial;text-align:center;text-anchor:middle;fill:#000000;fill-opacity:1;stroke:none;stroke-width:1px;stroke-linecap:butt;stroke-linejoin:miter;stroke-opacity:1"
     d="m 233.79556,448.00855 q 3.17383,13.18359 9.76563,23.55957 6.59179,10.37597 23.4375,25.75683 16.96777,15.25879 21.48437,23.4375 4.5166,8.17871 4.5166,16.60157 0,11.71875 -7.8125,19.53125 -7.8125,7.8125 -19.04297,7.8125 -9.52148,0 -17.33398,-5.85938 -7.69043,-5.98144 -13.67188,-17.33398 0.12207,17.94433 4.63868,28.56445 4.63867,10.49805 14.64843,16.60156 10.13184,5.98145 26.85547,7.08008 l 0.85449,4.5166 h -96.80175 l 0.97656,-4.5166 q 22.46094,0 34.79004,-13.06152 12.45117,-13.1836 11.96289,-39.18457 -5.49316,11.59668 -13.67188,17.45605 -8.05664,5.73731 -18.31054,5.73731 -10.98633,0 -18.9209,-7.93457 -7.8125,-7.93457 -7.8125,-19.04297 0,-8.91114 4.02832,-16.11328 5.49316,-10.00977 17.82226,-20.14161 12.32911,-10.13183 18.18848,-16.72363 8.91113,-10.13183 12.93945,-18.0664 4.1504,-7.93457 6.46973,-18.67676 z" />
  <path
     inkscape:connector-curvature="0"
     id="path879"
     style="font-style:normal;font-weight:normal;font-size:250px;font-family:Arial;text-align:center;text-anchor:middle;fill:#000000;fill-opacity:1;stroke:none;stroke-width:1px;stroke-linecap:butt;stroke-linejoin:miter;stroke-opacity:1"
     d="m 513.79556,148.00855 q 3.17383,13.18359 9.76563,23.55957 6.59179,10.37597 23.4375,25.75683 16.96777,15.25879 21.48437,23.4375 4.5166,8.17871 4.5166,16.60157 0,11.71875 -7.8125,19.53125 -7.8125,7.8125 -19.04297,7.8125 -9.52148,0 -17.33398,-5.85938 -7.69043,-5.98144 -13.67188,-17.33398 0.12207,17.94433 4.63868,28.56445 4.63867,10.49805 14.64843,16.60156 10.13184,5.98145 26.85547,7.08008 l 0.85449,4.5166 h -96.80175 l 0.97656,-4.5166 q 22.46094,0 34.79004,-13.06152 12.45117,-13.1836 11.96289,-39.18457 -5.49316,11.59668 -13.67188,17.45605 -8.05664,5.73731 -18.31054,5.73731 -10.98633,0 -18.9209,-7.93457 -7.8125,-7.93457 -7.8125,-19.04297 0,-8.91114 4.02832,-16.11328 5.49316,-10.00977 17.82226,-20.14161 12.32911,-10.13183 18.18848,-16.72363 8.91113,-10.13183 12.93945,-18.0664 4.1504,-7.93457 6.46973,-18.67676 z" />
  <path
     d="m 513.79556,898.27707 q 3.17383,-13.18359 9.76563,-23.55957 6.59179,-10.37597 23.4375,-25.75683 16.96777,-15.25879 21.48437,-23.4375 4.5166,-8.17871 4.5166,-16.60157 0,-11.71875 -7.8125,-19.53125 -7.8125,-7.8125 -19.04297,-7.8125 -9.52148,0 -17.33398,5.85938 -7.69043,5.98144 -13.67188,17.33398 0.12207,-17.94433 4.63868,-28.56445 4.63867,-10.49805 14.64843,-16.60156 10.13184,-5.98145 26.85547,-7.08008 l 0.85449,-4.5166 h -96.80175 l 0.97656,4.5166 q 22.46094,0 34.79004,13.06152 12.45117,13.1836 11.96289,39.18457 -5.49316,-11.59668 -13.67188,-17.45605 -8.05664,-5.73731 -18.31054,-5.73731 -10.98633,0 -18.9209,7.93457 -7.8125,7.93457 -7.8125,19.04297 0,8.91114 4.02832,16.11328 5.49316,10.00977 17.82226,20.14161 12.32911,10.13183 18.18848,16.72363 8.91113,10.13183 12.93945,18.0664 4.1504,7.93457 6.46973,18.67676 z"
     style="font-style:normal;font-weight:normal;font-size:250px;font-family:Arial;text-align:center;text-anchor:middle;fill:#000000;fill-opacity:1;stroke:none;stroke-width:1px;stroke-linecap:butt;stroke-linejoin:miter;stroke-opacity:1"
     id="path915"
     inkscape:connector-curvature="0" />
  <path
     d="m 513.79556,448.00855 q 3.17383,13.18359 9.76563,23.55957 6.59179,10.37597 23.4375,25.75683 16.96777,15.25879 21.48437,23.4375 4.5166,8.17871 4.5166,16.60157 0,11.71875 -7.8125,19.53125 -7.8125,7.8125 -19.04297,7.8125 -9.52148,0 -17.33398,-5.85938 -7.69043,-5.98144 -13.67188,-17.33398 0.12207,17.94433 4.63868,28.56445 4.63867,10.49805 14.64843,16.60156 10.13184,5.98145 26.85547,7.08008 l 0.85449,4.5166 h -96.80175 l 0.97656,-4.5166 q 22.46094,0 34.79004,-13.06152 12.45117,-13.1836 11.96289,-39.18457 -5.49316,11.59668 -13.67188,17.45605 -8.05664,5.73731 -18.31054,5.73731 -10.98633,0 -18.9209,-7.93457 -7.8125,-7.93457 -7.8125,-19.04297 0,-8.91114 4.02832,-16.11328 5.49316,-10.00977 17.82226,-20.14161 12.32911,-10.13183 18.18848,-16.72363 8.91113,-10.13183 12.93945,-18.0664 4.1504,-7.93457 6.46973,-18.67676 z"
     style="font-style:normal;font-weight:normal;font-size:250px;font-family:Arial;text-align:center;text-anchor:middle;fill:#000000;fill-opacity:1;stroke:none;stroke-width:1px;stroke-linecap:butt;stroke-linejoin:miter;stroke-opacity:1"
     id="path919"
     inkscape:connector-curvature="0" />
</svg>
