<?xml version="1.0" encoding="UTF-8" standalone="no"?>
<!-- Created with Inkscape (http://www.inkscape.org/) -->

<svg
   xmlns:dc="http://purl.org/dc/elements/1.1/"
   xmlns:cc="http://creativecommons.org/ns#"
   xmlns:rdf="http://www.w3.org/1999/02/22-rdf-syntax-ns#"
   xmlns:svg="http://www.w3.org/2000/svg"
   xmlns="http://www.w3.org/2000/svg"
   xmlns:sodipodi="http://sodipodi.sourceforge.net/DTD/sodipodi-0.dtd"
   xmlns:inkscape="http://www.inkscape.org/namespaces/inkscape"
   width="747.34698"
   height="1046.2856"
   id="svg2"
   sodipodi:version="0.32"
   inkscape:version="0.92.4 (5da689c313, 2019-01-14)"
   version="1.0"
   sodipodi:docname="Cards-9-Spade.svg"
   inkscape:output_extension="org.inkscape.output.svg.inkscape">
  <defs
     id="defs4">
    <inkscape:perspective
       sodipodi:type="inkscape:persp3d"
       inkscape:vp_x="0 : 526.18109 : 1"
       inkscape:vp_y="0 : 1000 : 0"
       inkscape:vp_z="744.09448 : 526.18109 : 1"
       inkscape:persp3d-origin="372.04724 : 350.78739 : 1"
       id="perspective10" />
    <inkscape:perspective
       id="perspective2390"
       inkscape:persp3d-origin="372.04724 : 350.78739 : 1"
       inkscape:vp_z="744.09448 : 526.18109 : 1"
       inkscape:vp_y="0 : 1000 : 0"
       inkscape:vp_x="0 : 526.18109 : 1"
       sodipodi:type="inkscape:persp3d" />
  </defs>
  <sodipodi:namedview
     id="base"
     pagecolor="#ffffff"
     bordercolor="#666666"
     borderopacity="1.0"
     gridtolerance="10000"
     guidetolerance="10"
     objecttolerance="10"
     inkscape:pageopacity="0.0"
     inkscape:pageshadow="2"
     inkscape:zoom="0.49497475"
     inkscape:cx="-455.87124"
     inkscape:cy="606.74501"
     inkscape:document-units="px"
     inkscape:current-layer="g2415"
     showgrid="false"
     showguides="true"
     inkscape:guide-bbox="true"
     inkscape:window-width="3840"
     inkscape:window-height="2066"
     inkscape:window-x="-11"
     inkscape:window-y="-11"
     inkscape:window-maximized="1" />
  <metadata
     id="metadata7">
    <rdf:RDF>
      <cc:Work
         rdf:about="">
        <dc:format>image/svg+xml</dc:format>
        <dc:type
           rdf:resource="http://purl.org/dc/dcmitype/StillImage" />
      </cc:Work>
    </rdf:RDF>
  </metadata>
  <g
     inkscape:label="Layer 1"
     inkscape:groupmode="layer"
     id="layer1"
     transform="translate(2.2448993,-0.6479052)">
    <path
       inkscape:connector-curvature="0"
       id="path876"
       style="font-style:normal;font-variant:normal;font-weight:normal;font-stretch:normal;font-size:144px;line-height:1.25;font-family:'Arial Narrow';-inkscape-font-specification:'Arial Narrow';text-align:center;text-anchor:middle;fill:#000000;fill-opacity:1;stroke:none;stroke-width:1px;stroke-linecap:butt;stroke-linejoin:miter;stroke-opacity:1"
       d="m 29.369999,145.15009 v -12.9375 q 5.34375,2.53125 10.828125,3.86718 5.484375,1.33594 10.757812,1.33594 14.0625,0 21.445313,-9.42187 7.453125,-9.49219 8.507812,-28.757817 -4.078125,6.046877 -10.335937,9.281247 -6.257813,3.23438 -13.851563,3.23438 -15.75,0 -24.960937,-9.49219 -9.140625,-9.5625 -9.140625,-26.085937 0,-16.171875 9.5625,-25.945313 9.5625,-9.773437 25.453125,-9.773437 18.210937,0 27.773437,13.992187 9.632813,13.921875 9.632813,40.5 0,24.82031 -11.8125,39.65625 -11.742188,14.76563 -31.640625,14.76563 -5.34375,0 -10.828125,-1.05469 -5.484375,-1.05469 -11.390625,-3.16406 z m 28.265625,-44.50782 q 9.5625,0 15.117187,-6.53906 5.625,-6.539062 5.625,-17.929687 0,-11.320313 -5.625,-17.859375 -5.554687,-6.609375 -15.117187,-6.609375 -9.5625,0 -15.1875,6.609375 -5.554688,6.539062 -5.554688,17.859375 0,11.390625 5.554688,17.929687 5.625,6.53906 15.1875,6.53906 z" />
    <path
       inkscape:connector-curvature="0"
       id="path879"
       style="font-style:normal;font-variant:normal;font-weight:normal;font-stretch:normal;font-size:144px;line-height:1.25;font-family:'Arial Narrow';-inkscape-font-specification:'Arial Narrow';text-align:center;text-anchor:middle;fill:#000000;fill-opacity:1;stroke:none;stroke-width:1px;stroke-linecap:butt;stroke-linejoin:miter;stroke-opacity:1"
       d="m 63.647343,182.42352 q 6.609375,11.74219 21.796875,31.14844 16.664062,19.54688 17.085942,23.55469 2.74218,5.97656 2.74218,11.60156 v 2.8125 q 0,11.74219 -11.390622,18.49219 -3.726563,1.54687 -8.226563,1.54687 -10.828125,0 -17.507812,-15.53906 h -2.953125 v 0.84375 q 0,19.89844 5.835937,30.44531 H 55.912968 v -0.42187 q 5.976562,-10.61719 5.976562,-30.65625 l -0.210937,-0.21094 h -2.671875 l -3.304688,6.1875 q -5.976562,9.35156 -14.90625,9.35156 -13.148437,0 -18.492187,-14.69531 l -0.632813,-5.13281 v -3.23438 q 0,-12.86718 13.148438,-27.14062 22.148437,-27.14063 28.40625,-38.74219 l 0.210937,-0.21094 z" />
    <path
       inkscape:connector-curvature="0"
       id="path873"
       style="font-style:normal;font-variant:normal;font-weight:normal;font-stretch:normal;font-size:144px;line-height:1.25;font-family:'Arial Narrow';-inkscape-font-specification:'Arial Narrow';text-align:center;text-anchor:middle;fill:#000000;fill-opacity:1;stroke:none;stroke-width:1px;stroke-linecap:butt;stroke-linejoin:miter;stroke-opacity:1"
       d="m 713.48718,902.43134 v 12.9375 q -5.34375,-2.53125 -10.82812,-3.86719 -5.48438,-1.33594 -10.75781,-1.33594 -14.0625,0 -21.44532,9.42188 -7.45312,9.49218 -8.50781,28.75781 4.07813,-6.04688 10.33594,-9.28125 6.25781,-3.23438 13.85156,-3.23438 15.75,0 24.96094,9.49219 9.14062,9.5625 9.14062,26.08594 0,16.17187 -9.5625,25.94531 -9.5625,9.77339 -25.45312,9.77339 -18.21094,0 -27.77344,-13.99214 -9.63281,-13.92187 -9.63281,-40.5 0,-24.82031 11.8125,-39.65625 11.74219,-14.76562 31.64062,-14.76562 5.34375,0 10.82813,1.05468 5.48437,1.05469 11.39062,3.16407 z m -28.26562,44.50781 q -9.5625,0 -15.11719,6.53906 -5.625,6.53906 -5.625,17.92969 0,11.32031 5.625,17.85937 5.55469,6.60938 15.11719,6.60938 9.5625,0 15.1875,-6.60938 5.55469,-6.53906 5.55469,-17.85937 0,-11.39063 -5.55469,-17.92969 -5.625,-6.53906 -15.1875,-6.53906 z" />
    <path
       inkscape:connector-curvature="0"
       id="path870"
       style="font-style:normal;font-variant:normal;font-weight:normal;font-stretch:normal;font-size:144px;line-height:1.25;font-family:'Arial Narrow';-inkscape-font-specification:'Arial Narrow';text-align:center;text-anchor:middle;fill:#000000;fill-opacity:1;stroke:none;stroke-width:1px;stroke-linecap:butt;stroke-linejoin:miter;stroke-opacity:1"
       d="m 679.20984,865.1579 q -6.60938,-11.74219 -21.79688,-31.14844 -16.66406,-19.54687 -17.08593,-23.55469 -2.74219,-5.97656 -2.74219,-11.60156 v -2.8125 q 0,-11.74219 11.39062,-18.49219 3.72657,-1.54687 8.22657,-1.54687 10.82812,0 17.50781,15.53906 h 2.95312 v -0.84375 q 0,-19.89844 -5.83593,-30.44531 h 15.11718 v 0.42187 q -5.97656,10.61719 -5.97656,30.65625 l 0.21094,0.21094 h 2.67187 l 3.30469,-6.1875 q 5.97656,-9.35156 14.90625,-9.35156 13.14844,0 18.49219,14.69531 l 0.63281,5.13281 v 3.23438 q 0,12.86719 -13.14844,27.14062 -22.14843,27.14063 -28.40625,38.74219 l -0.21093,0.21094 z" />
    <g
       id="g2432"
       transform="translate(66.406249,0)">
      <g
         id="g2415"
         transform="translate(-2.0407968,-11.714273)">
        <path
           d="m 167.18521,120.37073 q 3.17383,13.18359 9.76563,23.55957 6.59179,10.37597 23.4375,25.75683 16.96777,15.25879 21.48437,23.4375 4.5166,8.17871 4.5166,16.60157 0,11.71875 -7.8125,19.53125 -7.8125,7.8125 -19.04297,7.8125 -9.52148,0 -17.33398,-5.85938 -7.69043,-5.98144 -13.67188,-17.33398 0.12207,17.94433 4.63868,28.56445 4.63867,10.49805 14.64843,16.60156 10.13184,5.98145 26.85547,7.08008 l 0.85449,4.5166 H 118.7233 l 0.97656,-4.5166 q 22.46094,0 34.79004,-13.06152 12.45117,-13.1836 11.96289,-39.18457 -5.49316,11.59668 -13.67188,17.45605 -8.05664,5.73731 -18.31054,5.73731 -10.98633,0 -18.9209,-7.93457 -7.8125,-7.93457 -7.8125,-19.04297 0,-8.91114 4.02832,-16.11328 5.49316,-10.00977 17.82226,-20.14161 12.32911,-10.13183 18.18848,-16.72363 8.91113,-10.13183 12.93945,-18.0664 4.1504,-7.93457 6.46973,-18.67676 z"
           style="font-style:normal;font-weight:normal;font-size:250px;line-height:1.25;font-family:Arial;text-align:center;text-anchor:middle;fill:#000000;fill-opacity:1;stroke:none;stroke-width:1px;stroke-linecap:butt;stroke-linejoin:miter;stroke-opacity:1"
           id="path867"
           inkscape:connector-curvature="0" />
        <path
           id="path890"
           style="font-style:normal;font-weight:normal;font-size:250px;line-height:1.25;font-family:Arial;text-align:center;text-anchor:middle;fill:#000000;fill-opacity:1;stroke:none;stroke-width:1px;stroke-linecap:butt;stroke-linejoin:miter;stroke-opacity:1"
           d="m 167.18521,950.63927 q 3.17383,-13.18359 9.76563,-23.55957 6.59179,-10.37597 23.4375,-25.75683 16.96777,-15.25879 21.48437,-23.4375 4.5166,-8.17871 4.5166,-16.60157 0,-11.71875 -7.8125,-19.53125 -7.8125,-7.8125 -19.04297,-7.8125 -9.52148,0 -17.33398,5.85938 -7.69043,5.98144 -13.67188,17.33398 0.12207,-17.94433 4.63868,-28.56445 4.63867,-10.49805 14.64843,-16.60156 10.13184,-5.98145 26.85547,-7.08008 l 0.85449,-4.5166 H 118.7233 l 0.97656,4.5166 q 22.46094,0 34.79004,13.06152 12.45117,13.1836 11.96289,39.18457 -5.49316,-11.59668 -13.67188,-17.45605 -8.05664,-5.73731 -18.31054,-5.73731 -10.98633,0 -18.9209,7.93457 -7.8125,7.93457 -7.8125,19.04297 0,8.91114 4.02832,16.11328 5.49316,10.00977 17.82226,20.14161 12.32911,10.13183 18.18848,16.72363 8.91113,10.13183 12.93945,18.0664 4.1504,7.93457 6.46973,18.67676 z"
           inkscape:connector-curvature="0" />
        <path
           id="path886"
           style="font-style:normal;font-weight:normal;font-size:250px;line-height:1.25;font-family:Arial;text-align:center;text-anchor:middle;fill:#000000;fill-opacity:1;stroke:none;stroke-width:1px;stroke-linecap:butt;stroke-linejoin:miter;stroke-opacity:1"
           d="m 167.18521,340.37073 q 3.17383,13.18359 9.76563,23.55957 6.59179,10.37597 23.4375,25.75683 16.96777,15.25879 21.48437,23.4375 4.5166,8.17871 4.5166,16.60157 0,11.71875 -7.8125,19.53125 -7.8125,7.8125 -19.04297,7.8125 -9.52148,0 -17.33398,-5.85938 -7.69043,-5.98144 -13.67188,-17.33398 0.12207,17.94433 4.63868,28.56445 4.63867,10.49805 14.64843,16.60156 10.13184,5.98145 26.85547,7.08008 l 0.85449,4.5166 H 118.7233 l 0.97656,-4.5166 q 22.46094,0 34.79004,-13.06152 12.45117,-13.1836 11.96289,-39.18457 -5.49316,11.59668 -13.67188,17.45605 -8.05664,5.73731 -18.31054,5.73731 -10.98633,0 -18.9209,-7.93457 -7.8125,-7.93457 -7.8125,-19.04297 0,-8.91114 4.02832,-16.11328 5.49316,-10.00977 17.82226,-20.14161 12.32911,-10.13183 18.18848,-16.72363 8.91113,-10.13183 12.93945,-18.0664 4.1504,-7.93457 6.46973,-18.67676 z"
           inkscape:connector-curvature="0" />
        <path
           id="path882"
           style="font-style:normal;font-weight:normal;font-size:250px;line-height:1.25;font-family:Arial;text-align:center;text-anchor:middle;fill:#000000;fill-opacity:1;stroke:none;stroke-width:1px;stroke-linecap:butt;stroke-linejoin:miter;stroke-opacity:1"
           d="m 167.18521,730.63927 q 3.17383,-13.18359 9.76563,-23.55957 6.59179,-10.37597 23.4375,-25.75683 16.96777,-15.25879 21.48437,-23.4375 4.5166,-8.17871 4.5166,-16.60157 0,-11.71875 -7.8125,-19.53125 -7.8125,-7.8125 -19.04297,-7.8125 -9.52148,0 -17.33398,5.85938 -7.69043,5.98144 -13.67188,17.33398 0.12207,-17.94433 4.63868,-28.56445 4.63867,-10.49805 14.64843,-16.60156 10.13184,-5.98145 26.85547,-7.08008 l 0.85449,-4.5166 H 118.7233 l 0.97656,4.5166 q 22.46094,0 34.79004,13.06152 12.45117,13.1836 11.96289,39.18457 -5.49316,-11.59668 -13.67188,-17.45605 -8.05664,-5.73731 -18.31054,-5.73731 -10.98633,0 -18.9209,7.93457 -7.8125,7.93457 -7.8125,19.04297 0,8.91114 4.02832,16.11328 5.49316,10.00977 17.82226,20.14161 12.32911,10.13183 18.18848,16.72363 8.91113,10.13183 12.93945,18.0664 4.1504,7.93457 6.46973,18.67676 z"
           inkscape:connector-curvature="0" />
        <path
           inkscape:connector-curvature="0"
           id="path903"
           style="font-style:normal;font-weight:normal;font-size:250px;line-height:1.25;font-family:Arial;text-align:center;text-anchor:middle;fill:#000000;fill-opacity:1;stroke:none;stroke-width:1px;stroke-linecap:butt;stroke-linejoin:miter;stroke-opacity:1"
           d="m 447.18521,120.37073 q 3.17383,13.18359 9.76563,23.55957 6.59179,10.37597 23.4375,25.75683 16.96777,15.25879 21.48437,23.4375 4.5166,8.17871 4.5166,16.60157 0,11.71875 -7.8125,19.53125 -7.8125,7.8125 -19.04297,7.8125 -9.52148,0 -17.33398,-5.85938 -7.69043,-5.98144 -13.67188,-17.33398 0.12207,17.94433 4.63868,28.56445 4.63867,10.49805 14.64843,16.60156 10.13184,5.98145 26.85547,7.08008 l 0.85449,4.5166 H 398.7233 l 0.97656,-4.5166 q 22.46094,0 34.79004,-13.06152 12.45117,-13.1836 11.96289,-39.18457 -5.49316,11.59668 -13.67188,17.45605 -8.05664,5.73731 -18.31054,5.73731 -10.98633,0 -18.9209,-7.93457 -7.8125,-7.93457 -7.8125,-19.04297 0,-8.91114 4.02832,-16.11328 5.49316,-10.00977 17.82226,-20.14161 12.32911,-10.13183 18.18848,-16.72363 8.91113,-10.13183 12.93945,-18.0664 4.1504,-7.93457 6.46973,-18.67676 z" />
        <path
           inkscape:connector-curvature="0"
           d="m 447.18521,950.63927 q 3.17383,-13.18359 9.76563,-23.55957 6.59179,-10.37597 23.4375,-25.75683 16.96777,-15.25879 21.48437,-23.4375 4.5166,-8.17871 4.5166,-16.60157 0,-11.71875 -7.8125,-19.53125 -7.8125,-7.8125 -19.04297,-7.8125 -9.52148,0 -17.33398,5.85938 -7.69043,5.98144 -13.67188,17.33398 0.12207,-17.94433 4.63868,-28.56445 4.63867,-10.49805 14.64843,-16.60156 10.13184,-5.98145 26.85547,-7.08008 l 0.85449,-4.5166 H 398.7233 l 0.97656,4.5166 q 22.46094,0 34.79004,13.06152 12.45117,13.1836 11.96289,39.18457 -5.49316,-11.59668 -13.67188,-17.45605 -8.05664,-5.73731 -18.31054,-5.73731 -10.98633,0 -18.9209,7.93457 -7.8125,7.93457 -7.8125,19.04297 0,8.91114 4.02832,16.11328 5.49316,10.00977 17.82226,20.14161 12.32911,10.13183 18.18848,16.72363 8.91113,10.13183 12.93945,18.0664 4.1504,7.93457 6.46973,18.67676 z"
           style="font-style:normal;font-weight:normal;font-size:250px;line-height:1.25;font-family:Arial;text-align:center;text-anchor:middle;fill:#000000;fill-opacity:1;stroke:none;stroke-width:1px;stroke-linecap:butt;stroke-linejoin:miter;stroke-opacity:1"
           id="path905" />
        <path
           inkscape:connector-curvature="0"
           d="m 447.18521,340.37073 q 3.17383,13.18359 9.76563,23.55957 6.59179,10.37597 23.4375,25.75683 16.96777,15.25879 21.48437,23.4375 4.5166,8.17871 4.5166,16.60157 0,11.71875 -7.8125,19.53125 -7.8125,7.8125 -19.04297,7.8125 -9.52148,0 -17.33398,-5.85938 -7.69043,-5.98144 -13.67188,-17.33398 0.12207,17.94433 4.63868,28.56445 4.63867,10.49805 14.64843,16.60156 10.13184,5.98145 26.85547,7.08008 l 0.85449,4.5166 H 398.7233 l 0.97656,-4.5166 q 22.46094,0 34.79004,-13.06152 12.45117,-13.1836 11.96289,-39.18457 -5.49316,11.59668 -13.67188,17.45605 -8.05664,5.73731 -18.31054,5.73731 -10.98633,0 -18.9209,-7.93457 -7.8125,-7.93457 -7.8125,-19.04297 0,-8.91114 4.02832,-16.11328 5.49316,-10.00977 17.82226,-20.14161 12.32911,-10.13183 18.18848,-16.72363 8.91113,-10.13183 12.93945,-18.0664 4.1504,-7.93457 6.46973,-18.67676 z"
           style="font-style:normal;font-weight:normal;font-size:250px;line-height:1.25;font-family:Arial;text-align:center;text-anchor:middle;fill:#000000;fill-opacity:1;stroke:none;stroke-width:1px;stroke-linecap:butt;stroke-linejoin:miter;stroke-opacity:1"
           id="path907" />
        <path
           inkscape:connector-curvature="0"
           d="m 447.18521,730.63927 q 3.17383,-13.18359 9.76563,-23.55957 6.59179,-10.37597 23.4375,-25.75683 16.96777,-15.25879 21.48437,-23.4375 4.5166,-8.17871 4.5166,-16.60157 0,-11.71875 -7.8125,-19.53125 -7.8125,-7.8125 -19.04297,-7.8125 -9.52148,0 -17.33398,5.85938 -7.69043,5.98144 -13.67188,17.33398 0.12207,-17.94433 4.63868,-28.56445 4.63867,-10.49805 14.64843,-16.60156 10.13184,-5.98145 26.85547,-7.08008 l 0.85449,-4.5166 H 398.7233 l 0.97656,4.5166 q 22.46094,0 34.79004,13.06152 12.45117,13.1836 11.96289,39.18457 -5.49316,-11.59668 -13.67188,-17.45605 -8.05664,-5.73731 -18.31054,-5.73731 -10.98633,0 -18.9209,7.93457 -7.8125,7.93457 -7.8125,19.04297 0,8.91114 4.02832,16.11328 5.49316,10.00977 17.82226,20.14161 12.32911,10.13183 18.18848,16.72363 8.91113,10.13183 12.93945,18.0664 4.1504,7.93457 6.46973,18.67676 z"
           style="font-style:normal;font-weight:normal;font-size:250px;line-height:1.25;font-family:Arial;text-align:center;text-anchor:middle;fill:#000000;fill-opacity:1;stroke:none;stroke-width:1px;stroke-linecap:butt;stroke-linejoin:miter;stroke-opacity:1"
           id="path909" />
      </g>
      <path
         inkscape:connector-curvature="0"
         id="path864"
         style="font-style:normal;font-weight:normal;font-size:250px;line-height:1.25;font-family:Arial;text-align:center;text-anchor:middle;fill:#000000;fill-opacity:1;stroke:none;stroke-width:1px;stroke-linecap:butt;stroke-linejoin:miter;stroke-opacity:1"
         d="m 305.14441,254.65643 q 3.17383,13.1836 9.76562,23.55957 6.5918,10.37598 23.4375,25.75684 16.96778,15.25879 21.48438,23.4375 4.5166,8.17871 4.5166,16.60156 0,11.71875 -7.8125,19.53125 -7.8125,7.8125 -19.04297,7.8125 -9.52148,0 -17.33398,-5.85937 -7.69043,-5.98145 -13.67188,-17.33399 0.12207,17.94434 4.63867,28.56446 4.63868,10.49804 14.64844,16.60156 10.13184,5.98144 26.85547,7.08008 l 0.85449,4.5166 H 256.6825 l 0.97656,-4.5166 q 22.46094,0 34.79004,-13.06153 12.45117,-13.18359 11.96289,-39.18457 -5.49317,11.59668 -13.67188,17.45606 -8.05664,5.7373 -18.31054,5.7373 -10.98633,0 -18.9209,-7.93457 -7.8125,-7.93457 -7.8125,-19.04297 0,-8.91113 4.02832,-16.11328 5.49316,-10.00976 17.82226,-20.1416 12.3291,-10.13184 18.18848,-16.72363 8.91113,-10.13184 12.93945,-18.06641 4.15039,-7.93457 6.46973,-18.67676 z" />
    </g>
  </g>
</svg>
