<?xml version="1.0" encoding="UTF-8" standalone="no"?>
<!-- Created with Inkscape (http://www.inkscape.org/) -->

<svg
   xmlns:dc="http://purl.org/dc/elements/1.1/"
   xmlns:cc="http://creativecommons.org/ns#"
   xmlns:rdf="http://www.w3.org/1999/02/22-rdf-syntax-ns#"
   xmlns:svg="http://www.w3.org/2000/svg"
   xmlns="http://www.w3.org/2000/svg"
   xmlns:sodipodi="http://sodipodi.sourceforge.net/DTD/sodipodi-0.dtd"
   xmlns:inkscape="http://www.inkscape.org/namespaces/inkscape"
   width="747.34698"
   height="1046.2856"
   id="svg2"
   sodipodi:version="0.32"
   inkscape:version="0.92.4 (5da689c313, 2019-01-14)"
   version="1.0"
   sodipodi:docname="Cards-6-Club.svg"
   inkscape:output_extension="org.inkscape.output.svg.inkscape">
  <defs
     id="defs4">
    <inkscape:perspective
       sodipodi:type="inkscape:persp3d"
       inkscape:vp_x="0 : 526.18109 : 1"
       inkscape:vp_y="0 : 1000 : 0"
       inkscape:vp_z="744.09448 : 526.18109 : 1"
       inkscape:persp3d-origin="372.04724 : 350.78739 : 1"
       id="perspective10" />
    <inkscape:perspective
       id="perspective2390"
       inkscape:persp3d-origin="372.04724 : 350.78739 : 1"
       inkscape:vp_z="744.09448 : 526.18109 : 1"
       inkscape:vp_y="0 : 1000 : 0"
       inkscape:vp_x="0 : 526.18109 : 1"
       sodipodi:type="inkscape:persp3d" />
  </defs>
  <sodipodi:namedview
     id="base"
     pagecolor="#ffffff"
     bordercolor="#666666"
     borderopacity="1.0"
     gridtolerance="10000"
     guidetolerance="10"
     objecttolerance="10"
     inkscape:pageopacity="0.0"
     inkscape:pageshadow="2"
     inkscape:zoom="0.35"
     inkscape:cx="-1555.949"
     inkscape:cy="466.42309"
     inkscape:document-units="px"
     inkscape:current-layer="g2797"
     showgrid="false"
     showguides="true"
     inkscape:guide-bbox="true"
     inkscape:window-width="3840"
     inkscape:window-height="2066"
     inkscape:window-x="-11"
     inkscape:window-y="-11"
     inkscape:window-maximized="1" />
  <metadata
     id="metadata7">
    <rdf:RDF>
      <cc:Work
         rdf:about="">
        <dc:format>image/svg+xml</dc:format>
        <dc:type
           rdf:resource="http://purl.org/dc/dcmitype/StillImage" />
      </cc:Work>
    </rdf:RDF>
  </metadata>
  <g
     inkscape:label="Layer 1"
     inkscape:groupmode="layer"
     id="layer1"
     transform="translate(2.2448993,-0.6479052)">
    <g
       id="g2775"
       transform="translate(-2.0407968,-11.714273)">
      <g
         id="g2797">
        <path
           d="m 67.973298,100.89561 q -9.5625,0 -15.1875,6.53907 -5.554688,6.53906 -5.554688,17.92968 0,11.32032 5.554688,17.92969 5.625,6.53906 15.1875,6.53906 9.5625,0 15.117187,-6.53906 5.625,-6.60937 5.625,-17.92969 0,-11.39062 -5.625,-17.92968 -5.554687,-6.53907 -15.117187,-6.53907 z M 96.16861,56.387801 v 12.9375 q -5.34375,-2.53125 -10.828125,-3.867188 -5.414062,-1.335937 -10.757812,-1.335937 -14.0625,0 -21.515625,9.492187 -7.382813,9.492188 -8.4375,28.687497 4.148437,-6.117184 10.40625,-9.351559 6.257812,-3.304688 13.78125,-3.304688 15.820312,0 24.960937,9.632813 9.210935,9.562504 9.210935,26.085934 0,16.17188 -9.562497,25.94532 -9.5625,9.77343 -25.453125,9.77343 -18.210938,0 -27.84375,-13.92187 -9.632813,-13.99219 -9.632813,-40.5 0,-24.890627 11.8125,-39.656252 11.8125,-14.835937 31.710938,-14.835937 5.34375,0 10.757812,1.054687 5.484375,1.054688 11.390625,3.164063 z"
           style="font-style:normal;font-variant:normal;font-weight:normal;font-stretch:normal;font-size:144px;line-height:1.25;font-family:'Arial Narrow';-inkscape-font-specification:'Arial Narrow';text-align:center;text-anchor:middle;fill:#000000;fill-opacity:1;stroke:none;stroke-width:1px;stroke-linecap:butt;stroke-linejoin:miter;stroke-opacity:1"
           id="path853"
           inkscape:connector-curvature="0" />
        <path
           d="m 65.617829,194.1378 q 15.046875,0 22.148437,15.96094 0.914063,3.65625 1.125,7.59375 0,8.22656 -8.4375,19.47656 l -4.21875,4.21875 h 0.210938 q 5.203125,-1.96875 11.109375,-1.96875 h 1.335937 q 16.734374,0 23.484374,14.20313 1.61719,4.64062 1.61719,8.85937 0,14.41406 -14.695314,21.72656 -2.8125,0.84375 -7.804687,1.26563 -17.015625,0 -24.117188,-19.26563 h -0.210937 v 0.63282 q 0,24.11718 5.765625,31.78125 v 0.42187 h -14.625 l -0.421875,-0.42187 q 5.976562,-9 5.976562,-32.41407 v -0.21093 h -0.210937 q -7.03125,19.47656 -24.257813,19.47656 -13.429687,0 -20.601562,-14.13281 -1.757813,-4.78125 -1.757813,-8.85938 0,-16.38281 17.296875,-22.21875 4.640625,-0.84375 8.226563,-0.84375 h 0.632812 q 6.046875,0 11.53125,1.96875 h 0.210938 v -0.21094 q -5.90625,-4.99218 -7.945313,-9.84375 -4.21875,-7.73437 -4.21875,-13.42968 v -0.98438 q 0,-14.13281 15.117188,-21.44531 4.992187,-1.33594 7.734375,-1.33594 z"
           style="font-style:normal;font-variant:normal;font-weight:normal;font-stretch:normal;font-size:144px;line-height:1.25;font-family:'Arial Narrow';-inkscape-font-specification:'Arial Narrow';text-align:center;text-anchor:middle;fill:#000000;fill-opacity:1;stroke:none;stroke-width:1px;stroke-linecap:butt;stroke-linejoin:miter;stroke-opacity:1"
           id="path856"
           inkscape:connector-curvature="0" />
        <path
           d="m 680.19211,976.2159 q 9.5625,0 15.1875,-6.53907 5.55469,-6.53906 5.55469,-17.92968 0,-11.32032 -5.55469,-17.92969 -5.625,-6.53906 -15.1875,-6.53906 -9.5625,0 -15.11719,6.53906 -5.625,6.60937 -5.625,17.92969 0,11.39062 5.625,17.92968 5.55469,6.53907 15.11719,6.53907 z m -28.19531,44.5078 v -12.9375 q 5.34375,2.5313 10.82812,3.8672 5.41407,1.3359 10.75782,1.3359 14.0625,0 21.51562,-9.4922 7.38281,-9.49214 8.4375,-28.68745 -4.14844,6.11718 -10.40625,9.35156 -6.25781,3.30469 -13.78125,3.30469 -15.82031,0 -24.96094,-9.63282 -9.21093,-9.5625 -9.21093,-26.08593 0,-16.17188 9.5625,-25.94532 9.5625,-9.77343 25.45312,-9.77343 18.21094,0 27.84375,13.92187 9.63281,13.99219 9.63281,40.5 0,24.89063 -11.8125,39.65623 -11.8125,14.836 -31.71093,14.836 -5.34375,0 -10.75782,-1.0547 -5.48437,-1.0547 -11.39062,-3.1641 z"
           style="font-style:normal;font-variant:normal;font-weight:normal;font-stretch:normal;font-size:144px;line-height:1.25;font-family:'Arial Narrow';-inkscape-font-specification:'Arial Narrow';text-align:center;text-anchor:middle;fill:#000000;fill-opacity:1;stroke:none;stroke-width:1px;stroke-linecap:butt;stroke-linejoin:miter;stroke-opacity:1"
           id="path853-3"
           inkscape:connector-curvature="0" />
        <path
           d="m 682.54758,882.97371 q -15.04687,0 -22.14844,-15.96094 -0.91406,-3.65625 -1.125,-7.59375 0,-8.22656 8.4375,-19.47656 l 4.21875,-4.21875 h -0.21093 q -5.20313,1.96875 -11.10938,1.96875 h -1.33594 q -16.73437,0 -23.48437,-14.20313 -1.61719,-4.64062 -1.61719,-8.85937 0,-14.41406 14.69531,-21.72656 2.8125,-0.84375 7.80469,-1.26563 17.01563,0 24.11719,19.26563 h 0.21094 v -0.63282 q 0,-24.11718 -5.76563,-31.78125 v -0.42187 h 14.625 l 0.42188,0.42187 q -5.97657,9 -5.97657,32.41407 v 0.21093 h 0.21094 q 7.03125,-19.47656 24.25781,-19.47656 13.42969,0 20.60157,14.13281 1.75781,4.78125 1.75781,8.85938 0,16.38281 -17.29688,22.21875 -4.64062,0.84375 -8.22656,0.84375 h -0.63281 q -6.04688,0 -11.53125,-1.96875 h -0.21094 v 0.21094 q 5.90625,4.99218 7.94531,9.84375 4.21875,7.73437 4.21875,13.42968 v 0.98438 q 0,14.13281 -15.11718,21.44531 -4.99219,1.33594 -7.73438,1.33594 z"
           style="font-style:normal;font-variant:normal;font-weight:normal;font-stretch:normal;font-size:144px;line-height:1.25;font-family:'Arial Narrow';-inkscape-font-specification:'Arial Narrow';text-align:center;text-anchor:middle;fill:#000000;fill-opacity:1;stroke:none;stroke-width:1px;stroke-linecap:butt;stroke-linejoin:miter;stroke-opacity:1"
           id="path856-8"
           inkscape:connector-curvature="0" />
      </g>
      <path
         inkscape:connector-curvature="0"
         id="path862"
         style="font-style:normal;font-weight:normal;font-size:250px;line-height:1.25;font-family:Arial;text-align:center;text-anchor:middle;fill:#000000;fill-opacity:1;stroke:none;stroke-width:1px;stroke-linecap:butt;stroke-linejoin:miter;stroke-opacity:1"
         d="M 285.53238,310.63928 H 182.01675 l 0.97657,-4.15039 q 20.1416,-4.27246 26.7334,-8.42285 9.88769,-6.22559 16.11328,-18.43262 6.34765,-12.20703 6.34765,-25.75683 0,-1.95313 -0.12207,-5.61524 -7.44629,15.13672 -18.18847,22.09473 -10.62012,6.95801 -21.72852,6.95801 -14.16016,0 -24.04785,-9.8877 -9.8877,-9.88769 -9.8877,-24.29199 0,-14.16016 9.03321,-23.80371 9.0332,-9.76563 20.50781,-9.76563 7.32422,0 19.89746,6.22559 -5.12695,-8.54492 -6.71387,-12.81738 -1.46484,-4.39453 -1.46484,-9.39942 0,-13.91601 9.64355,-23.55957 9.64356,-9.64355 24.04786,-9.64355 14.40429,0 24.16992,9.64355 9.88769,9.64356 9.88769,22.94922 0,10.86426 -8.42285,22.82715 10.25391,-4.88281 12.3291,-5.49316 3.2959,-0.97657 7.44629,-0.97657 12.20703,0 21.11817,9.64356 9.0332,9.52148 9.0332,23.68164 0,14.64844 -9.8877,24.6582 -9.76562,9.8877 -23.55957,9.8877 -7.69043,0 -15.86914,-3.66211 -8.05664,-3.78418 -14.03808,-10.00977 -4.27246,-4.5166 -10.62012,-15.25879 0.48828,19.40918 5.85937,30.76172 5.49317,11.23047 16.72364,18.67676 7.56836,5.00488 27.22168,8.78906 z" />
      <path
         inkscape:connector-curvature="0"
         d="M 285.53238,760.37072 H 182.01675 l 0.97657,4.15039 q 20.1416,4.27246 26.7334,8.42285 9.88769,6.22559 16.11328,18.43262 6.34765,12.20703 6.34765,25.75683 0,1.95313 -0.12207,5.61524 -7.44629,-15.13672 -18.18847,-22.09473 -10.62012,-6.95801 -21.72852,-6.95801 -14.16016,0 -24.04785,9.8877 -9.8877,9.88769 -9.8877,24.29199 0,14.16016 9.03321,23.80371 9.0332,9.76563 20.50781,9.76563 7.32422,0 19.89746,-6.22559 -5.12695,8.54492 -6.71387,12.81738 -1.46484,4.39453 -1.46484,9.39942 0,13.91601 9.64355,23.55957 9.64356,9.64355 24.04786,9.64355 14.40429,0 24.16992,-9.64355 9.88769,-9.64356 9.88769,-22.94922 0,-10.86426 -8.42285,-22.82715 10.25391,4.88281 12.3291,5.49316 3.2959,0.97657 7.44629,0.97657 12.20703,0 21.11817,-9.64356 9.0332,-9.52148 9.0332,-23.68164 0,-14.64844 -9.8877,-24.6582 -9.76562,-9.8877 -23.55957,-9.8877 -7.69043,0 -15.86914,3.66211 -8.05664,3.78418 -14.03808,10.00977 -4.27246,4.5166 -10.62012,15.25879 0.48828,-19.40918 5.85937,-30.76172 5.49317,-11.23047 16.72364,-18.67676 7.56836,-5.00488 27.22168,-8.78906 z"
         style="font-style:normal;font-weight:normal;font-size:250px;line-height:1.25;font-family:Arial;text-align:center;text-anchor:middle;fill:#000000;fill-opacity:1;stroke:none;stroke-width:1px;stroke-linecap:butt;stroke-linejoin:miter;stroke-opacity:1"
         id="path873" />
      <path
         inkscape:connector-curvature="0"
         d="M 285.53238,610.63928 H 182.01675 l 0.97657,-4.15039 q 20.1416,-4.27246 26.7334,-8.42285 9.88769,-6.22559 16.11328,-18.43262 6.34765,-12.20703 6.34765,-25.75683 0,-1.95313 -0.12207,-5.61524 -7.44629,15.13672 -18.18847,22.09473 -10.62012,6.95801 -21.72852,6.95801 -14.16016,0 -24.04785,-9.8877 -9.8877,-9.88769 -9.8877,-24.29199 0,-14.16016 9.03321,-23.80371 9.0332,-9.76563 20.50781,-9.76563 7.32422,0 19.89746,6.22559 -5.12695,-8.54492 -6.71387,-12.81738 -1.46484,-4.39453 -1.46484,-9.39942 0,-13.91601 9.64355,-23.55957 9.64356,-9.64355 24.04786,-9.64355 14.40429,0 24.16992,9.64355 9.88769,9.64356 9.88769,22.94922 0,10.86426 -8.42285,22.82715 10.25391,-4.88281 12.3291,-5.49316 3.2959,-0.97657 7.44629,-0.97657 12.20703,0 21.11817,9.64356 9.0332,9.52148 9.0332,23.68164 0,14.64844 -9.8877,24.6582 -9.76562,9.8877 -23.55957,9.8877 -7.69043,0 -15.86914,-3.66211 -8.05664,-3.78418 -14.03808,-10.00977 -4.27246,-4.5166 -10.62012,-15.25879 0.48828,19.40918 5.85937,30.76172 5.49317,11.23047 16.72364,18.67676 7.56836,5.00488 27.22168,8.78906 z"
         style="font-style:normal;font-weight:normal;font-size:250px;line-height:1.25;font-family:Arial;text-align:center;text-anchor:middle;fill:#000000;fill-opacity:1;stroke:none;stroke-width:1px;stroke-linecap:butt;stroke-linejoin:miter;stroke-opacity:1"
         id="path877" />
      <path
         inkscape:connector-curvature="0"
         id="path859"
         style="font-style:normal;font-weight:normal;font-size:250px;line-height:1.25;font-family:Arial;text-align:center;text-anchor:middle;fill:#000000;fill-opacity:1;stroke:none;stroke-width:1px;stroke-linecap:butt;stroke-linejoin:miter;stroke-opacity:1"
         d="M 565.53235,310.63928 H 462.01672 l 0.97657,-4.15039 q 20.1416,-4.27246 26.73339,-8.42285 9.8877,-6.22559 16.11329,-18.43262 6.34765,-12.20703 6.34765,-25.75683 0,-1.95313 -0.12207,-5.61524 -7.44629,15.13672 -18.18847,22.09473 -10.62012,6.95801 -21.72852,6.95801 -14.16016,0 -24.04785,-9.8877 -9.8877,-9.88769 -9.8877,-24.29199 0,-14.16016 9.03321,-23.80371 9.0332,-9.76563 20.50781,-9.76563 7.32422,0 19.89746,6.22559 -5.12695,-8.54492 -6.71387,-12.81738 -1.46484,-4.39453 -1.46484,-9.39942 0,-13.91601 9.64355,-23.55957 9.64356,-9.64355 24.04785,-9.64355 14.4043,0 24.16993,9.64355 9.88769,9.64356 9.88769,22.94922 0,10.86426 -8.42285,22.82715 10.25391,-4.88281 12.3291,-5.49316 3.2959,-0.97657 7.44629,-0.97657 12.20703,0 21.11816,9.64356 9.03321,9.52148 9.03321,23.68164 0,14.64844 -9.8877,24.6582 -9.76562,9.8877 -23.55957,9.8877 -7.69043,0 -15.86914,-3.66211 -8.05664,-3.78418 -14.03808,-10.00977 -4.27247,-4.5166 -10.62012,-15.25879 0.48828,19.40918 5.85937,30.76172 5.49317,11.23047 16.72364,18.67676 7.56836,5.00488 27.22168,8.78906 z" />
      <path
         inkscape:connector-curvature="0"
         d="M 565.53238,760.37072 H 462.01675 l 0.97657,4.15039 q 20.1416,4.27246 26.7334,8.42285 9.88769,6.22559 16.11328,18.43262 6.34765,12.20703 6.34765,25.75683 0,1.95313 -0.12207,5.61524 -7.44629,-15.13672 -18.18847,-22.09473 -10.62012,-6.95801 -21.72852,-6.95801 -14.16016,0 -24.04785,9.8877 -9.8877,9.88769 -9.8877,24.29199 0,14.16016 9.03321,23.80371 9.0332,9.76563 20.50781,9.76563 7.32422,0 19.89746,-6.22559 -5.12695,8.54492 -6.71387,12.81738 -1.46484,4.39453 -1.46484,9.39942 0,13.91601 9.64355,23.55957 9.64356,9.64355 24.04786,9.64355 14.40429,0 24.16992,-9.64355 9.88769,-9.64356 9.88769,-22.94922 0,-10.86426 -8.42285,-22.82715 10.25391,4.88281 12.3291,5.49316 3.2959,0.97657 7.44629,0.97657 12.20703,0 21.11817,-9.64356 9.0332,-9.52148 9.0332,-23.68164 0,-14.64844 -9.8877,-24.6582 -9.76562,-9.8877 -23.55957,-9.8877 -7.69043,0 -15.86914,3.66211 -8.05664,3.78418 -14.03808,10.00977 -4.27246,4.5166 -10.62012,15.25879 0.48828,-19.40918 5.85937,-30.76172 5.49317,-11.23047 16.72364,-18.67676 7.56836,-5.00488 27.22168,-8.78906 z"
         style="font-style:normal;font-weight:normal;font-size:250px;line-height:1.25;font-family:Arial;text-align:center;text-anchor:middle;fill:#000000;fill-opacity:1;stroke:none;stroke-width:1px;stroke-linecap:butt;stroke-linejoin:miter;stroke-opacity:1"
         id="path869" />
      <path
         inkscape:connector-curvature="0"
         d="M 565.53238,610.63928 H 462.01675 l 0.97657,-4.15039 q 20.1416,-4.27246 26.7334,-8.42285 9.88769,-6.22559 16.11328,-18.43262 6.34765,-12.20703 6.34765,-25.75683 0,-1.95313 -0.12207,-5.61524 -7.44629,15.13672 -18.18847,22.09473 -10.62012,6.95801 -21.72852,6.95801 -14.16016,0 -24.04785,-9.8877 -9.8877,-9.88769 -9.8877,-24.29199 0,-14.16016 9.03321,-23.80371 9.0332,-9.76563 20.50781,-9.76563 7.32422,0 19.89746,6.22559 -5.12695,-8.54492 -6.71387,-12.81738 -1.46484,-4.39453 -1.46484,-9.39942 0,-13.91601 9.64355,-23.55957 9.64356,-9.64355 24.04786,-9.64355 14.40429,0 24.16992,9.64355 9.88769,9.64356 9.88769,22.94922 0,10.86426 -8.42285,22.82715 10.25391,-4.88281 12.3291,-5.49316 3.2959,-0.97657 7.44629,-0.97657 12.20703,0 21.11817,9.64356 9.0332,9.52148 9.0332,23.68164 0,14.64844 -9.8877,24.6582 -9.76562,9.8877 -23.55957,9.8877 -7.69043,0 -15.86914,-3.66211 -8.05664,-3.78418 -14.03808,-10.00977 -4.27246,-4.5166 -10.62012,-15.25879 0.48828,19.40918 5.85937,30.76172 5.49317,11.23047 16.72364,18.67676 7.56836,5.00488 27.22168,8.78906 z"
         style="font-style:normal;font-weight:normal;font-size:250px;line-height:1.25;font-family:Arial;text-align:center;text-anchor:middle;fill:#000000;fill-opacity:1;stroke:none;stroke-width:1px;stroke-linecap:butt;stroke-linejoin:miter;stroke-opacity:1"
         id="path865" />
    </g>
  </g>
</svg>
