<svg version="1.0" viewBox="0 0 747 1000" xmlns="http://www.w3.org/2000/svg" xmlns:xlink="http://www.w3.org/1999/xlink"><g transform="translate(2.2 -.65)"><path d="M529 401v-75h15v102" fill="#0b3400" stroke="#0b3400"/><path d="M537 329c6.7 0 14 17 29 2.3 14-14-3.6-22-3.6-29 0-6.5 18-14 3.6-29-15-15-22 2.3-29 2.3-6.3 0-14-17-29-2.3-14 14 3.6 22 3.6 29s-18 14-3.6 29c15 15 22-2.3 29-2.3z" stroke-linecap="round" stroke-linejoin="round" stroke-width="1.6" stroke="#000"/><path d="M545 302a7.7 7.7 0 01-7.7 7.7 7.7 7.7 0 01-7.7-7.7 7.7 7.7 0 017.7-7.7 7.7 7.7 0 017.7 7.7z" fill="#f7fa00" stroke-linecap="round" stroke-linejoin="round" stroke-width="1.6" stroke="#f7fa00"/><path d="M241 654v75h-15V627" fill="#0b3400" stroke="#0b3400"/><path d="M233 726c-6.7 0-14-17-29-2.3-14 14 3.6 22 3.6 29 0 6.5-18 14-3.6 29 15 15 22-2.3 29-2.3 6.3 0 14 17 29 2.3 14-14-3.6-22-3.6-29s18-14 3.6-29c-15-15-22 2.3-29 2.3z" stroke-linecap="round" stroke-linejoin="round" stroke-width="1.6" stroke="#000"/><path d="M225 753a7.7 7.7 0 017.7-7.7 7.7 7.7 0 017.7 7.7 7.7 7.7 0 01-7.7 7.7 7.7 7.7 0 01-7.7-7.7z" fill="#f7fa00" stroke-linecap="round" stroke-linejoin="round" stroke-width="1.6" stroke="#f7fa00"/><path d="M59 52q-15 0-25 12-9.1 12-9.1 31 0 20 9.1 31 9.1 12 25 12t24-12q9.1-12 9.1-31 0-20-9.1-31-9-12-24-12zm20 93l19 20H81l-16-17q-2.3.14-3.6.21-1.2.07-2.3.07-22 0-35-15t-13-40q0-25 13-40t35-15q22 0 35 15t13 40q0 18-7.4 31-7.3 13-21 19zM64 182q6.6 12 22 31 17 20 17 24 2.7 6 2.7 12v2.8q0 12-11 18-3.7 1.5-8.2 1.5-11 0-18-16h-3v.84q0 20 5.8 30h-15v-.42q6-11 6-31l-.21-.21h-2.7l-3.3 6.2q-6 9.4-15 9.4-13 0-18-15l-.63-5.1v-3.2q0-13 13-27 22-27 28-39l.21-.21zM683 996q15 0 25-12 9.1-12 9.1-31 0-20-9.1-31-9.1-12-25-12t-24 12q-9.1 12-9.1 31 0 20 9.1 31 9 12 24 12zm-20-93l-19-20h17l16 17q2.3-.14 3.6-.21 1.2-.07 2.3-.07 22 0 35 15t13 40q0 25-13 40t-35 15q-22 0-35-15t-13-40q0-18 7.4-31 7.3-13 21-19zM679 865q-6.6-12-22-31-17-20-17-24-2.7-6-2.7-12v-2.8q0-12 11-18 3.7-1.5 8.2-1.5 11 0 18 16h3v-.84q0-20-5.8-30h15v.42q-6 11-6 31l.21.21h2.7l3.3-6.2q6-9.4 15-9.4 13 0 18 15l.63 5.1v3.2q0 13-13 27-22 27-28 39l-.21.21z"/><path d="M117 92h509v863H117z" fill="none" opacity=".78" stroke-linecap="square" stroke-width="8.5" stroke="#000"/><path d="M205 115q3.2 13 9.8 24 6.6 10 23 26 17 15 21 23t4.5 17q0 12-7.8 20t-19 7.8q-9.5 0-17-5.9-7.7-6-14-17 .12 18 4.6 29 4.6 10 15 17 10 6 27 7.1l.85 4.5h-97l.98-4.5q22 0 35-13 12-13 12-39-5.5 12-14 17-8.1 5.7-18 5.7-11 0-19-7.9-7.8-7.9-7.8-19 0-8.9 4-16 5.5-10 18-20t18-17q8.9-10 13-18 4.2-7.9 6.5-19zM537 925q3.2-13 9.8-24 6.6-10 23-26 17-15 21-23t4.5-17q0-12-7.8-20t-19-7.8q-9.5 0-17 5.9-7.7 6-14 17 .12-18 4.6-29 4.6-10 15-17 10-6 27-7.1l.85-4.5h-97l.98 4.5q22 0 35 13 12 13 12 39-5.5-12-14-17-8.1-5.7-18-5.7-11 0-19 7.9-7.8 7.9-7.8 19 0 8.9 4 16 5.5 10 18 20t18 17q8.9 10 13 18 4.2 7.9 6.5 19z"/><path id="l" d="M330 328l11-11 98-14c10 2.1.75 17 9.4 21 90 37 107 148 172 185l-498 .12c148-30 97-102 187-165l20-16z" stroke="#000"/><use transform="translate(.18 -13)" width="747.347" height="1046.286" xlink:href="#a"/><path id="b" d="M390 320a7 7 0 01-7 7 7 7 0 01-7-7 7 7 0 017-7 7 7 0 017 7z" fill="#ccc"/><use id="c" transform="translate(-11 7.9)" width="747.347" height="1046.286" xlink:href="#b"/><use id="d" transform="translate(-9.2 9.7)" width="747.347" height="1046.286" xlink:href="#c"/><use id="e" transform="translate(-12 6.1)" width="747.347" height="1046.286" xlink:href="#d"/><use id="a" transform="translate(-12 -7)" width="747.347" height="1046.286" xlink:href="#e"/><path d="M325 223c-3 9.3-2.6 18-3.4 26 0 1.8-6.9 22-6.9 22l.058 2.8c-.044.33 3 3.6 6 3.9l-1.3 14c-1.1.77 5.8-.96 5.8.3 0 1.4-6.4 4-6.4 4 0 6.8-4.3 16-.79 20 4.2 4.2 41-.065 41-.065 48 0 49-35 49-35 0-40-2.6-66-2.6-66-2.5-.014-18-2.8-35-1.1-19 1.9-30 4.2-45 9z" fill="#ddbdd0" stroke="#ddbdd0"/><path d="M378 209l9 160 64 27-9.3-174z" fill="#999" stroke="#000"/><path d="M329 238c8.1-1.2 14 .35 21 6.2" fill="none" stroke-linecap="round" stroke-linejoin="round" stroke-width="4" stroke="#000"/><path id="f" d="M384 214l10 161" fill="none" stroke="#000"/><use id="g" transform="translate(8 2.9)" width="747.347" height="1046.286" xlink:href="#f"/><use id="h" transform="translate(8 2.9)" width="747.347" height="1046.286" xlink:href="#g"/><use id="i" transform="translate(8 2.4)" width="747.347" height="1046.286" xlink:href="#h"/><use id="j" transform="translate(8 5.3)" width="747.347" height="1046.286" xlink:href="#i"/><use id="k" transform="translate(8 .93)" width="747.347" height="1046.286" xlink:href="#j"/><use transform="translate(8 10)" width="747.347" height="1046.286" xlink:href="#k"/><path d="M334 244c4.2.89 4.6 1.1 8.1 5.1-3.7 1.5-5 1.7-8.9 1.4-7.8-1.3-5.6-7.4.75-6.5z" fill="#fff" stroke-width=".5" stroke="#000"/><path d="M337 247a3.1 2.9 0 01-3.1 2.9 3.1 2.9 0 01-3.1-2.9 3.1 2.9 0 013.1-2.9 3.1 2.9 0 013.1 2.9z" fill="#502d16" stroke-linecap="round" stroke-linejoin="round" stroke-width=".5" stroke="#000"/><path d="M334 247a.76.69 0 01-.76.69.76.69 0 01-.76-.69.76.69 0 01.76-.69.76.69 0 01.76.69z" stroke-linecap="round" stroke-linejoin="round" stroke-width=".5" stroke="#000"/><path d="M325 223s23-71 57-86c32-21 88 138 78 197-7.1-6.6-23 .35-26-6.6-12-31-15-72-34-89-26-24-67-19-75-15z" stroke="#000"/><use transform="rotate(180 371.5 500)" width="747.347" height="1046.286" xlink:href="#l"/><use transform="rotate(180 372 516)" width="747.347" height="1046.286" xlink:href="#a"/><path d="M353 699a7 7 0 017-7 7 7 0 017 7 7 7 0 01-7 7 7 7 0 01-7-7z" fill="#ccc"/><use transform="rotate(180 377 506)" width="747.347" height="1046.286" xlink:href="#b"/><use transform="rotate(180 376 505)" width="747.347" height="1046.286" xlink:href="#c"/><use transform="rotate(180 378 506)" width="747.347" height="1046.286" xlink:href="#d"/><use transform="rotate(180 377 513)" width="747.347" height="1046.286" xlink:href="#e"/><path d="M418 795c3-9.3 2.6-18 3.4-26 0-1.8 6.9-22 6.9-22l-.058-2.8c.044-.33-3-3.6-6-3.9l1.3-14c1.1-.77-5.8.96-5.8-.3 0-1.4 6.4-4 6.4-4 0-6.8 4.3-16 .79-20-4.2-4.2-41 .065-41 .065-48 0-49 35-49 35 0 40 2.6 66 2.6 66 2.5.014 18 2.8 35 1.1 19-1.9 30-4.2 45-9z" fill="#ddbdd0" stroke="#ddbdd0"/><path d="M365 809l-9-160-64-27 9.3 174z" fill="#999" stroke="#000"/><path d="M415 781c-8.1 1.2-14-.35-21-6.2" fill="none" stroke-linecap="round" stroke-linejoin="round" stroke-width="4" stroke="#000"/><path d="M359 805l-10-161" fill="none" stroke="#000"/><use transform="rotate(180 368 508)" width="747.347" height="1046.286" xlink:href="#f"/><use transform="rotate(180 368 508)" width="747.347" height="1046.286" xlink:href="#g"/><use transform="rotate(180 368 508)" width="747.347" height="1046.286" xlink:href="#h"/><use transform="rotate(180 368 507)" width="747.347" height="1046.286" xlink:href="#i"/><use transform="rotate(180 368 509)" width="747.347" height="1046.286" xlink:href="#j"/><use transform="rotate(180 368 504)" width="747.347" height="1046.286" xlink:href="#k"/><path d="M409 775c-4.2-.89-4.6-1.1-8.1-5.1 3.7-1.5 5-1.7 8.9-1.4 7.8 1.3 5.6 7.4-.75 6.5z" fill="#fff" stroke-width=".5" stroke="#000"/><path d="M407 772a2.9 3.1 90 013.1-2.9 2.9 3.1 90 013.1 2.9 2.9 3.1 90 01-3.1 2.9 2.9 3.1 90 01-3.1-2.9z" fill="#502d16" stroke-linecap="round" stroke-linejoin="round" stroke-width=".5" stroke="#000"/><path d="M409 772a.69.76 90 01.76-.69.69.76 90 01.76.69.69.76 90 01-.76.69.69.76 90 01-.76-.69z" stroke-linecap="round" stroke-linejoin="round" stroke-width=".5" stroke="#000"/><path d="M418 795s-23 71-57 86c-32 21-88-138-78-197 7.1 6.6 23-.35 26 6.6 12 31 15 72 34 89 26 24 67 19 75 15z" stroke="#000"/></g></svg>