<?xml version="1.0" encoding="UTF-8" standalone="no"?>
<!-- Created with Inkscape (http://www.inkscape.org/) -->

<svg
   xmlns:dc="http://purl.org/dc/elements/1.1/"
   xmlns:cc="http://creativecommons.org/ns#"
   xmlns:rdf="http://www.w3.org/1999/02/22-rdf-syntax-ns#"
   xmlns:svg="http://www.w3.org/2000/svg"
   xmlns="http://www.w3.org/2000/svg"
   xmlns:sodipodi="http://sodipodi.sourceforge.net/DTD/sodipodi-0.dtd"
   xmlns:inkscape="http://www.inkscape.org/namespaces/inkscape"
   width="747.34698"
   height="1046.2856"
   id="svg2"
   sodipodi:version="0.32"
   inkscape:version="0.92.4 (5da689c313, 2019-01-14)"
   version="1.0"
   sodipodi:docname="Cards-5-Diamond.svg"
   inkscape:output_extension="org.inkscape.output.svg.inkscape">
  <defs
     id="defs4">
    <inkscape:perspective
       sodipodi:type="inkscape:persp3d"
       inkscape:vp_x="0 : 526.18109 : 1"
       inkscape:vp_y="0 : 1000 : 0"
       inkscape:vp_z="744.09448 : 526.18109 : 1"
       inkscape:persp3d-origin="372.04724 : 350.78739 : 1"
       id="perspective10" />
    <inkscape:perspective
       id="perspective2390"
       inkscape:persp3d-origin="372.04724 : 350.78739 : 1"
       inkscape:vp_z="744.09448 : 526.18109 : 1"
       inkscape:vp_y="0 : 1000 : 0"
       inkscape:vp_x="0 : 526.18109 : 1"
       sodipodi:type="inkscape:persp3d" />
  </defs>
  <sodipodi:namedview
     id="base"
     pagecolor="#ffffff"
     bordercolor="#666666"
     borderopacity="1.0"
     gridtolerance="10000"
     guidetolerance="10"
     objecttolerance="10"
     inkscape:pageopacity="0.0"
     inkscape:pageshadow="2"
     inkscape:zoom="0.24748737"
     inkscape:cx="-2050.4385"
     inkscape:cy="218.73154"
     inkscape:document-units="px"
     inkscape:current-layer="g2775"
     showgrid="false"
     showguides="true"
     inkscape:guide-bbox="true"
     inkscape:window-width="3840"
     inkscape:window-height="2066"
     inkscape:window-x="-11"
     inkscape:window-y="-11"
     inkscape:window-maximized="1" />
  <metadata
     id="metadata7">
    <rdf:RDF>
      <cc:Work
         rdf:about="">
        <dc:format>image/svg+xml</dc:format>
        <dc:type
           rdf:resource="http://purl.org/dc/dcmitype/StillImage" />
      </cc:Work>
    </rdf:RDF>
  </metadata>
  <g
     inkscape:label="Layer 1"
     inkscape:groupmode="layer"
     id="layer1"
     transform="translate(2.2448993,-0.6479052)">
    <g
       id="g2775"
       transform="translate(-2.0407968,-11.714273)">
      <path
         inkscape:connector-curvature="0"
         id="path881"
         style="font-style:normal;font-variant:normal;font-weight:normal;font-stretch:normal;font-size:144px;line-height:1.25;font-family:'Arial Narrow';-inkscape-font-specification:'Arial Narrow';text-align:center;text-anchor:middle;fill:#ff0000;fill-opacity:1;stroke:none;stroke-width:1px;stroke-linecap:butt;stroke-linejoin:miter;stroke-opacity:1"
         d="m 31.059235,54.06749 h 55.757812 v 11.953125 h -42.75 V 91.75499 q 3.09375,-1.054688 6.1875,-1.546875 3.09375,-0.5625 6.1875,-0.5625 17.578125,0 27.84375,9.632812 10.265625,9.632813 10.265625,26.085933 0,16.94532 -10.546875,26.36719 -10.546875,9.35156 -29.742187,9.35156 -6.609375,0 -13.5,-1.125 -6.820313,-1.125 -14.132813,-3.375 v -14.27343 q 6.328125,3.44531 13.078125,5.13281 6.75,1.6875 14.273438,1.6875 12.164062,0 19.265625,-6.39844 7.101562,-6.39844 7.101562,-17.36719 0,-10.96875 -7.101562,-17.36718 -7.101563,-6.39844 -19.265625,-6.39844 -5.695313,0 -11.390625,1.26562 -5.625,1.26563 -11.53125,3.9375 z" />
      <path
         inkscape:connector-curvature="0"
         id="path884"
         style="font-style:normal;font-variant:normal;font-weight:normal;font-stretch:normal;font-size:144px;line-height:1.25;font-family:'Arial Narrow';-inkscape-font-specification:'Arial Narrow';text-align:center;text-anchor:middle;fill:#ff0000;fill-opacity:1;stroke:none;stroke-width:1px;stroke-linecap:butt;stroke-linejoin:miter;stroke-opacity:1"
         d="m 65.617828,194.13779 35.367192,45.91406 q 4.85156,5.97656 4.85156,6.89062 l -40.218752,52.10157 q -0.84375,-0.5625 -40.359375,-52.10157 0,-0.98437 7.804688,-10.6875 z" />
      <path
         inkscape:connector-curvature="0"
         id="path878"
         style="font-style:normal;font-variant:normal;font-weight:normal;font-stretch:normal;font-size:144px;line-height:1.25;font-family:'Arial Narrow';-inkscape-font-specification:'Arial Narrow';text-align:center;text-anchor:middle;fill:#ff0000;fill-opacity:1;stroke:none;stroke-width:1px;stroke-linecap:butt;stroke-linejoin:miter;stroke-opacity:1"
         d="m 715.87958,1016.9425 h -55.75781 v -11.9531 h 42.75 V 979.255 q -3.09375,1.05469 -6.1875,1.54688 -3.09375,0.5625 -6.1875,0.5625 -17.57813,0 -27.84375,-9.63281 -10.26563,-9.63282 -10.26563,-26.08594 0,-16.94531 10.54688,-26.36719 10.54687,-9.35156 29.74218,-9.35156 6.60938,0 13.5,1.125 6.82032,1.125 14.13282,3.375 v 14.27344 q -6.32813,-3.44532 -13.07813,-5.13282 -6.75,-1.6875 -14.27344,-1.6875 -12.16406,0 -19.26562,6.39844 -7.10156,6.39844 -7.10156,17.36719 0,10.96875 7.10156,17.36719 7.10156,6.39843 19.26562,6.39843 5.69532,0 11.39063,-1.26562 5.625,-1.26563 11.53125,-3.9375 z" />
      <path
         inkscape:connector-curvature="0"
         id="path875"
         style="font-style:normal;font-variant:normal;font-weight:normal;font-stretch:normal;font-size:144px;line-height:1.25;font-family:'Arial Narrow';-inkscape-font-specification:'Arial Narrow';text-align:center;text-anchor:middle;fill:#ff0000;fill-opacity:1;stroke:none;stroke-width:1px;stroke-linecap:butt;stroke-linejoin:miter;stroke-opacity:1"
         d="M 681.32098,876.87219 645.9538,830.95813 q -4.85157,-5.97656 -4.85157,-6.89063 l 40.21875,-52.10156 q 0.84375,0.5625 40.35938,52.10156 0,0.98438 -7.80469,10.6875 z" />
      <path
         inkscape:connector-curvature="0"
         id="path893"
         style="font-style:normal;font-weight:normal;font-size:250px;line-height:1.25;font-family:Arial;text-align:center;text-anchor:middle;fill:#ff0000;fill-opacity:1;stroke:none;stroke-width:1px;stroke-linecap:butt;stroke-linejoin:miter;stroke-opacity:1"
         d="m 233.22525,160.37073 q 10.86426,18.43261 26.7334,39.55078 18.31055,24.41406 29.54101,36.9873 -9.0332,9.52149 -29.54101,36.86524 -16.60156,22.21679 -26.61133,39.79492 -3.2959,-6.34766 -9.0332,-14.77051 -9.8877,-14.64844 -24.53614,-34.05762 -3.17382,-4.27246 -22.33886,-27.83203 12.3291,-14.03808 31.73828,-40.03906 14.4043,-19.28711 24.04785,-36.49902 z" />
      <path
         inkscape:connector-curvature="0"
         d="m 233.22525,910.63927 q 10.86426,-18.43261 26.7334,-39.55078 18.31055,-24.41406 29.54101,-36.9873 -9.0332,-9.52149 -29.54101,-36.86524 -16.60156,-22.21679 -26.61133,-39.79492 -3.2959,6.34766 -9.0332,14.77051 -9.8877,14.64844 -24.53614,34.05762 -3.17382,4.27246 -22.33886,27.83203 12.3291,14.03808 31.73828,40.03906 14.4043,19.28711 24.04785,36.49902 z"
         style="font-style:normal;font-weight:normal;font-size:250px;line-height:1.25;font-family:Arial;text-align:center;text-anchor:middle;fill:#ff0000;fill-opacity:1;stroke:none;stroke-width:1px;stroke-linecap:butt;stroke-linejoin:miter;stroke-opacity:1"
         id="path900" />
      <path
         inkscape:connector-curvature="0"
         id="path890"
         style="font-style:normal;font-weight:normal;font-size:250px;line-height:1.25;font-family:Arial;text-align:center;text-anchor:middle;fill:#ff0000;fill-opacity:1;stroke:none;stroke-width:1px;stroke-linecap:butt;stroke-linejoin:miter;stroke-opacity:1"
         d="m 513.22528,160.37073 q 10.86426,18.43261 26.7334,39.55078 18.31055,24.41406 29.54101,36.9873 -9.0332,9.52149 -29.54101,36.86524 -16.60156,22.21679 -26.61133,39.79492 -3.2959,-6.34766 -9.0332,-14.77051 -9.8877,-14.64844 -24.53613,-34.05762 -3.17383,-4.27246 -22.33887,-27.83203 12.3291,-14.03808 31.73828,-40.03906 14.4043,-19.28711 24.04785,-36.49902 z" />
      <path
         inkscape:connector-curvature="0"
         d="m 513.22525,910.63927 q 10.86426,-18.43261 26.7334,-39.55078 18.31055,-24.41406 29.54101,-36.9873 -9.0332,-9.52149 -29.54101,-36.86524 -16.60156,-22.21679 -26.61133,-39.79492 -3.2959,6.34766 -9.0332,14.77051 -9.8877,14.64844 -24.53614,34.05762 -3.17382,4.27246 -22.33886,27.83203 12.3291,14.03808 31.73828,40.03906 14.4043,19.28711 24.04785,36.49902 z"
         style="font-style:normal;font-weight:normal;font-size:250px;line-height:1.25;font-family:Arial;text-align:center;text-anchor:middle;fill:#ff0000;fill-opacity:1;stroke:none;stroke-width:1px;stroke-linecap:butt;stroke-linejoin:miter;stroke-opacity:1"
         id="path896" />
      <path
         inkscape:connector-curvature="0"
         id="path887"
         style="font-style:normal;font-weight:normal;font-size:250px;line-height:1.25;font-family:Arial;text-align:center;text-anchor:middle;fill:#ff0000;fill-opacity:1;stroke:none;stroke-width:1px;stroke-linecap:butt;stroke-linejoin:miter;stroke-opacity:1"
         d="m 373.22525,460.37073 q 10.86426,18.43261 26.7334,39.55078 18.31055,24.41406 29.54101,36.9873 -9.0332,9.52149 -29.54101,36.86524 -16.60156,22.21679 -26.61133,39.79492 -3.2959,-6.34766 -9.0332,-14.77051 -9.8877,-14.64844 -24.53614,-34.05762 -3.17382,-4.27246 -22.33886,-27.83203 12.3291,-14.03808 31.73828,-40.03906 14.4043,-19.28711 24.04785,-36.49902 z" />
    </g>
  </g>
</svg>
