<svg version="1.0" viewBox="0 0 747 1000" xmlns="http://www.w3.org/2000/svg"><path d="M70.2 54l-36 56h36zm-3.7-12h18v68h15v12h-15v25h-14v-25h-47v-14zM66.2 182q6.6 12 22 31 17 20 17 24 2.7 6 2.7 12v2.8q0 12-11 18-3.7 1.5-8.2 1.5-11 0-18-16h-3v.84q0 20 5.8 30h-15v-.42q6-11 6-31l-.21-.21h-2.7l-3.3 6.2q-6 9.4-15 9.4-13 0-18-15l-.63-5.1v-3.2q0-13 13-27 22-27 28-39l.21-.21zM677.2 988l36-56h-36zm3.7 12h-18v-68h-15v-12h15v-25h14v25h47v14zM681.2 865q-6.6-12-22-31-17-20-17-24-2.7-6-2.7-12v-2.8q0-12 11-18 3.7-1.5 8.2-1.5 11 0 18 16h3v-.84q0-20-5.8-30h15v.42q-6 11-6 31l.21.21h2.7l3.3-6.2q6-9.4 15-9.4 13 0 18 15l.63 5.1v3.2q0 13-13 27-22 27-28 39l-.21.21zM234.2 148q3.2 13 9.8 24 6.6 10 23 26 17 15 21 23t4.5 17q0 12-7.8 20t-19 7.8q-9.5 0-17-5.9-7.7-6-14-17 .12 18 4.6 29 4.6 10 15 17 10 6 27 7.1l.85 4.5h-97l.98-4.5q22 0 35-13 12-13 12-39-5.5 12-14 17-8.1 5.7-18 5.7-11 0-19-7.9-7.8-7.9-7.8-19 0-8.9 4-16 5.5-10 18-20 12-10 18-17 8.9-10 13-18 4.2-7.9 6.5-19zM234.2 899q3.2-13 9.8-24 6.6-10 23-26 17-15 21-23t4.5-17q0-12-7.8-20t-19-7.8q-9.5 0-17 5.9-7.7 6-14 17 .12-18 4.6-29 4.6-10 15-17 10-6 27-7.1l.85-4.5h-97l.98 4.5q22 0 35 13 12 13 12 39-5.5-12-14-17-8.1-5.7-18-5.7-11 0-19 7.9-7.8 7.9-7.8 19 0 8.9 4 16 5.5 10 18 20 12 10 18 17 8.9 10 13 18 4.2 7.9 6.5 19zM514.2 148q3.2 13 9.8 24 6.6 10 23 26 17 15 21 23t4.5 17q0 12-7.8 20t-19 7.8q-9.5 0-17-5.9-7.7-6-14-17 .12 18 4.6 29 4.6 10 15 17 10 6 27 7.1l.85 4.5h-97l.98-4.5q22 0 35-13 12-13 12-39-5.5 12-14 17-8.1 5.7-18 5.7-11 0-19-7.9-7.8-7.9-7.8-19 0-8.9 4-16 5.5-10 18-20 12-10 18-17 8.9-10 13-18 4.2-7.9 6.5-19zM514.2 899q3.2-13 9.8-24 6.6-10 23-26 17-15 21-23t4.5-17q0-12-7.8-20t-19-7.8q-9.5 0-17 5.9-7.7 6-14 17 .12-18 4.6-29 4.6-10 15-17 10-6 27-7.1l.85-4.5h-97l.98 4.5q22 0 35 13 12 13 12 39-5.5-12-14-17-8.1-5.7-18-5.7-11 0-19 7.9-7.8 7.9-7.8 19 0 8.9 4 16 5.5 10 18 20 12 10 18 17 8.9 10 13 18 4.2 7.9 6.5 19z"/></svg>