<svg version="1.0" viewBox="0 0 747 1000" xmlns="http://www.w3.org/2000/svg"><path d="M61.2 96.35q-10 0-16 5.4-5.8 5.4-5.8 15 0 9.5 5.8 15 5.8 5.4 16 5.4t16-5.4q5.8-5.5 5.8-15t-5.8-15q-5.8-5.4-16-5.4zm-14-6q-9.1-2.2-14-8.5-5.1-6.3-5.1-15 0-13 8.9-20 9-7.3 25-7.3t25 7.3q8.9 7.3 8.9 20 0 9-5.1 15-5.1 6.3-14 8.5 10 2.4 16 9.4 5.8 7 5.8 17 0 15-9.4 23-9.3 8.2-27 8.2-17 0-27-8.2-9.3-8.2-9.3-23 0-10 5.8-17t16-9.4zm-5.2-22q0 8.2 5.1 13 5.1 4.6 14 4.6 9.1 0 14-4.6 5.2-4.6 5.2-13t-5.2-13q-5.1-4.6-14-4.6-9.2 0-14 4.6-5.1 4.6-5.1 13zM66.2 181.35q6.6 12 22 31 17 20 17 24 2.7 6 2.7 12v2.8q0 12-11 18-3.7 1.5-8.2 1.5-11 0-18-16h-3v.84q0 20 5.8 30h-15v-.42q6-11 6-31l-.21-.21h-2.7l-3.3 6.2q-6 9.4-15 9.4-13 0-18-15l-.63-5.1v-3.2q0-13 13-27 22-27 28-39l.21-.21zM686.2 949.35q10 0 16-5.4 5.8-5.4 5.8-15t-5.8-15q-5.8-5.4-16-5.4t-16 5.4q-5.8 5.5-5.8 15t5.8 15q5.8 5.4 16 5.4zm14 6q9.1 2.2 14 8.5 5.1 6.3 5.1 15 0 13-8.9 20-9 7.3-25 7.3t-25-7.3q-8.9-7.3-8.9-20 0-9 5.1-15 5.1-6.3 14-8.5-10-2.4-16-9.4-5.8-7-5.8-17 0-15 9.4-23 9.3-8.2 27-8.2t27 8.2q9.3 8.2 9.3 23 0 10-5.8 17t-16 9.4zm5.2 22q0-8.2-5.1-13-5.1-4.6-14-4.6-9.1 0-14 4.6-5.2 4.6-5.2 13t5.2 13q5.1 4.6 14 4.6 9.2 0 14-4.6 5.1-4.6 5.1-13zM681.2 864.35q-6.6-12-22-31-17-20-17-24-2.7-6-2.7-12v-2.8q0-12 11-18 3.7-1.5 8.2-1.5 11 0 18 16h3v-.84q0-20-5.8-30h15v.42q-6 11-6 31l.21.21h2.7l3.3-6.2q6-9.4 15-9.4 13 0 18 15l.63 5.1v3.2q0 13-13 27-22 27-28 39l-.21.21zM234.2 148.35q3.2 13 9.8 24 6.6 10 23 26 17 15 21 23t4.5 17q0 12-7.8 20t-19 7.8q-9.5 0-17-5.9-7.7-6-14-17 .12 18 4.6 29 4.6 10 15 17 10 6 27 7.1l.85 4.5h-97l.98-4.5q22 0 35-13 12-13 12-39-5.5 12-14 17-8.1 5.7-18 5.7-11 0-19-7.9-7.8-7.9-7.8-19 0-8.9 4-16 5.5-10 18-20t18-17q8.9-10 13-18 4.2-7.9 6.5-19zM234.2 898.35q3.2-13 9.8-24 6.6-10 23-26 17-15 21-23t4.5-17q0-12-7.8-20t-19-7.8q-9.5 0-17 5.9-7.7 6-14 17 .12-18 4.6-29 4.6-10 15-17 10-6 27-7.1l.85-4.5h-97l.98 4.5q22 0 35 13 12 13 12 39-5.5-12-14-17-8.1-5.7-18-5.7-11 0-19 7.9-7.8 7.9-7.8 19 0 8.9 4 16 5.5 10 18 20t18 17q8.9 10 13 18 4.2 7.9 6.5 19zM234.2 448.35q3.2 13 9.8 24 6.6 10 23 26 17 15 21 23t4.5 17q0 12-7.8 20t-19 7.8q-9.5 0-17-5.9-7.7-6-14-17 .12 18 4.6 29 4.6 10 15 17 10 6 27 7.1l.85 4.5h-97l.98-4.5q22 0 35-13 12-13 12-39-5.5 12-14 17-8.1 5.7-18 5.7-11 0-19-7.9-7.8-7.9-7.8-19 0-8.9 4-16 5.5-10 18-20t18-17q8.9-10 13-18 4.2-7.9 6.5-19zM514.2 148.35q3.2 13 9.8 24 6.6 10 23 26 17 15 21 23t4.5 17q0 12-7.8 20t-19 7.8q-9.5 0-17-5.9-7.7-6-14-17 .12 18 4.6 29 4.6 10 15 17 10 6 27 7.1l.85 4.5h-97l.98-4.5q22 0 35-13 12-13 12-39-5.5 12-14 17-8.1 5.7-18 5.7-11 0-19-7.9-7.8-7.9-7.8-19 0-8.9 4-16 5.5-10 18-20t18-17q8.9-10 13-18 4.2-7.9 6.5-19zM514.2 898.35q3.2-13 9.8-24 6.6-10 23-26 17-15 21-23t4.5-17q0-12-7.8-20t-19-7.8q-9.5 0-17 5.9-7.7 6-14 17 .12-18 4.6-29 4.6-10 15-17 10-6 27-7.1l.85-4.5h-97l.98 4.5q22 0 35 13 12 13 12 39-5.5-12-14-17-8.1-5.7-18-5.7-11 0-19 7.9-7.8 7.9-7.8 19 0 8.9 4 16 5.5 10 18 20t18 17q8.9 10 13 18 4.2 7.9 6.5 19zM514.2 448.35q3.2 13 9.8 24 6.6 10 23 26 17 15 21 23t4.5 17q0 12-7.8 20t-19 7.8q-9.5 0-17-5.9-7.7-6-14-17 .12 18 4.6 29 4.6 10 15 17 10 6 27 7.1l.85 4.5h-97l.98-4.5q22 0 35-13 12-13 12-39-5.5 12-14 17-8.1 5.7-18 5.7-11 0-19-7.9-7.8-7.9-7.8-19 0-8.9 4-16 5.5-10 18-20t18-17q8.9-10 13-18 4.2-7.9 6.5-19zM374.2 308.35q3.2 13 9.8 24 6.6 10 23 26 17 15 21 23t4.5 17q0 12-7.8 20t-19 7.8q-9.5 0-17-5.9-7.7-6-14-17 .12 18 4.6 29 4.6 10 15 17 10 6 27 7.1l.85 4.5h-97l.98-4.5q22 0 35-13 12-13 12-39-5.5 12-14 17-8.1 5.7-18 5.7-11 0-19-7.9-7.8-7.9-7.8-19 0-8.9 4-16 5.5-10 18-20t18-17q8.9-10 13-18 4.2-7.9 6.5-19zM374.2 778.35q3.2-13 9.8-24 6.6-10 23-26 17-15 21-23t4.5-17q0-12-7.8-20t-19-7.8q-9.5 0-17 5.9-7.7 6-14 17 .12-18 4.6-29 4.6-10 15-17 10-6 27-7.1l.85-4.5h-97l.98 4.5q22 0 35 13 12 13 12 39-5.5-12-14-17-8.1-5.7-18-5.7-11 0-19 7.9-7.8 7.9-7.8 19 0 8.9 4 16 5.5 10 18 20t18 17q8.9 10 13 18 4.2 7.9 6.5 19z"/></svg>