<svg version="1.0" viewBox="0 0 747 1000" xmlns="http://www.w3.org/2000/svg"><g fill="red"><path d="M45.2 134.35h50v12h-67v-12q8.1-8.4 22-22l18-18q6.8-7.7 9.5-13t2.7-10q0-8.4-5.9-14-5.8-5.3-15-5.3-6.7 0-14 2.3-7.4 2.3-16 7v-14q8.6-3.4 16-5.2 7.5-1.8 14-1.8 16 0 26 8.2t9.7 22q0 6.5-2.5 12-2.4 5.8-8.8 14-1.8 2-11 12-9.4 9.7-27 27zM40.2 181.35q14 0 22 17 3 6.5 3.1 10h.21q2.5-11 8.9-19 7.6-7.6 17-7.6 15 0 24 16 2.2 5.8 2.2 11 0 18-15 34l-37 45h-.42l-40-48q-12-14-12-30 0-15 14-24 5.9-3.2 12-3.2zM702.2 911.35h-50v-12h67v12q-8.1 8.4-22 22l-18 18q-6.8 7.7-9.5 13t-2.7 10q0 8.4 5.9 14 5.8 5.3 15 5.3 6.7 0 14-2.3 7.4-2.3 16-7v14q-8.6 3.4-16 5.2-7.5 1.8-14 1.8-16 0-26-8.2-9.7-8.2-9.7-22 0-6.5 2.5-12 2.4-5.8 8.8-14 1.8-2 11-12 9.4-9.7 27-27zM707.2 864.35q-14 0-22-17-3-6.5-3.1-10h-.21q-2.5 11-8.9 19-7.6 7.6-17 7.6-15 0-24-16-2.2-5.8-2.2-11 0-18 15-34l37-45h.42l40 48q12 14 12 30 0 15-14 24-5.9 3.2-12 3.2zM374.2 301.35q-3.8-14-11-27-7-13-27-39-15-20-18-25-5.6-8.5-8.2-16-2.4-7.2-2.4-15 0-14 9-23 9-9.2 22-9.2t23 9.5q7.4 7.1 12 21 4-14 11-21 10-9.8 23-9.8t22 9.2q9.2 9 9.2 22 0 11-5.4 23t-21 31q-20 25-29 42-7.2 13-11 27zM374.2 744.35q-3.8 14-11 27-7 13-27 39-15 20-18 25-5.6 8.5-8.2 16-2.4 7.2-2.4 15 0 14 9 23 9 9.2 22 9.2t23-9.5q7.4-7.1 12-21 4 14 11 21 10 9.8 23 9.8t22-9.2q9.2-9 9.2-22 0-11-5.4-23t-21-31q-20-25-29-42-7.2-13-11-27z"/></g></svg>