<?xml version="1.0" encoding="UTF-8" standalone="no"?>
<!-- Created with Inkscape (http://www.inkscape.org/) -->

<svg
   xmlns:dc="http://purl.org/dc/elements/1.1/"
   xmlns:cc="http://creativecommons.org/ns#"
   xmlns:rdf="http://www.w3.org/1999/02/22-rdf-syntax-ns#"
   xmlns:svg="http://www.w3.org/2000/svg"
   xmlns="http://www.w3.org/2000/svg"
   xmlns:sodipodi="http://sodipodi.sourceforge.net/DTD/sodipodi-0.dtd"
   xmlns:inkscape="http://www.inkscape.org/namespaces/inkscape"
   width="747.34698"
   height="1046.2856"
   id="svg2"
   sodipodi:version="0.32"
   inkscape:version="0.92.4 (5da689c313, 2019-01-14)"
   version="1.0"
   sodipodi:docname="Cards-2-Heart.svg"
   inkscape:output_extension="org.inkscape.output.svg.inkscape">
  <defs
     id="defs4">
    <inkscape:perspective
       sodipodi:type="inkscape:persp3d"
       inkscape:vp_x="0 : 526.18109 : 1"
       inkscape:vp_y="0 : 1000 : 0"
       inkscape:vp_z="744.09448 : 526.18109 : 1"
       inkscape:persp3d-origin="372.04724 : 350.78739 : 1"
       id="perspective10" />
    <inkscape:perspective
       id="perspective2390"
       inkscape:persp3d-origin="372.04724 : 350.78739 : 1"
       inkscape:vp_z="744.09448 : 526.18109 : 1"
       inkscape:vp_y="0 : 1000 : 0"
       inkscape:vp_x="0 : 526.18109 : 1"
       sodipodi:type="inkscape:persp3d" />
  </defs>
  <sodipodi:namedview
     id="base"
     pagecolor="#ffffff"
     bordercolor="#666666"
     borderopacity="1.0"
     gridtolerance="10000"
     guidetolerance="10"
     objecttolerance="10"
     inkscape:pageopacity="0.0"
     inkscape:pageshadow="2"
     inkscape:zoom="0.35"
     inkscape:cx="-1426.4982"
     inkscape:cy="302.2662"
     inkscape:document-units="px"
     inkscape:current-layer="g2797"
     showgrid="false"
     showguides="true"
     inkscape:guide-bbox="true"
     inkscape:window-width="3840"
     inkscape:window-height="2066"
     inkscape:window-x="-11"
     inkscape:window-y="-11"
     inkscape:window-maximized="1" />
  <metadata
     id="metadata7">
    <rdf:RDF>
      <cc:Work
         rdf:about="">
        <dc:format>image/svg+xml</dc:format>
        <dc:type
           rdf:resource="http://purl.org/dc/dcmitype/StillImage" />
      </cc:Work>
    </rdf:RDF>
  </metadata>
  <g
     inkscape:label="Layer 1"
     inkscape:groupmode="layer"
     id="layer1"
     transform="translate(2.2448993,-0.6479052)">
    <g
       id="g2775"
       transform="translate(-2.0407968,-11.714273)">
      <g
         id="g2797">
        <path
           inkscape:connector-curvature="0"
           id="path2171"
           style="font-style:normal;font-variant:normal;font-weight:normal;font-stretch:normal;font-size:144px;line-height:1.25;font-family:'Arial Narrow';-inkscape-font-specification:'Arial Narrow';text-align:center;text-anchor:middle;fill:#ff0000;fill-opacity:1;stroke:none;stroke-width:1px;stroke-linecap:butt;stroke-linejoin:miter;stroke-opacity:1"
           d="m 44.54166,147.09093 h 49.570313 v 11.95312 h -66.65625 v -11.95312 q 8.085937,-8.36719 22.007812,-22.42969 13.992188,-14.13281 17.578125,-18.21094 6.820313,-7.66406 9.492188,-12.937498 2.742187,-5.34375 2.742187,-10.476562 0,-8.367188 -5.90625,-13.640625 -5.835937,-5.273438 -15.257812,-5.273438 -6.679688,0 -14.132813,2.320313 -7.382812,2.320312 -15.820312,7.03125 V 59.12999 q 8.578125,-3.445313 16.03125,-5.203125 7.453125,-1.757813 13.640625,-1.757813 16.3125,0 26.015625,8.15625 9.703125,8.15625 9.703125,21.796875 0,6.46875 -2.460938,12.304688 -2.390625,5.765625 -8.789062,13.640625 -1.757813,2.03906 -11.179688,11.8125 -9.421875,9.70312 -26.578125,27.21094 z" />
        <path
           inkscape:connector-curvature="0"
           id="path2174"
           style="font-style:normal;font-variant:normal;font-weight:normal;font-stretch:normal;font-size:144px;line-height:1.25;font-family:'Arial Narrow';-inkscape-font-specification:'Arial Narrow';text-align:center;text-anchor:middle;fill:#ff0000;fill-opacity:1;stroke:none;stroke-width:1px;stroke-linecap:butt;stroke-linejoin:miter;stroke-opacity:1"
           d="m 39.901039,194.13779 q 14.273438,0 22.429688,16.52343 2.953125,6.53907 3.09375,9.98438 h 0.210937 q 2.460938,-11.39063 8.929688,-18.91406 7.59375,-7.59375 17.085937,-7.59375 14.695311,0 23.554691,15.75 2.25,5.83593 2.25,10.96875 0,17.57812 -14.625,33.53906 L 65.635414,299.04404 H 65.213539 L 25.697914,250.59872 q -11.8125,-14.41406 -11.8125,-29.74218 0,-14.83594 13.992188,-23.55469 5.90625,-3.16406 12.023437,-3.16406 z" />
        <path
           inkscape:connector-curvature="0"
           id="path2168"
           style="font-style:normal;font-variant:normal;font-weight:normal;font-stretch:normal;font-size:144px;line-height:1.25;font-family:'Arial Narrow';-inkscape-font-specification:'Arial Narrow';text-align:center;text-anchor:middle;fill:#ff0000;fill-opacity:1;stroke:none;stroke-width:1px;stroke-linecap:butt;stroke-linejoin:miter;stroke-opacity:1"
           d="m 702.39716,923.91907 h -49.57032 v -11.95313 h 66.65625 v 11.95313 q -8.08593,8.36718 -22.00781,22.42968 -13.99219,14.13282 -17.57812,18.21094 -6.82032,7.66406 -9.49219,12.9375 -2.74219,5.34375 -2.74219,10.47656 0,8.36719 5.90625,13.64065 5.83594,5.2734 15.25781,5.2734 6.67969,0 14.13282,-2.3203 7.38281,-2.3203 15.82031,-7.03125 V 1011.88 q -8.57813,3.4453 -16.03125,5.2031 -7.45313,1.7578 -13.64063,1.7578 -16.3125,0 -26.01562,-8.1562 -9.70313,-8.1563 -9.70313,-21.79688 0,-6.46875 2.46094,-12.30469 2.39063,-5.76563 8.78906,-13.64063 1.75782,-2.03906 11.17969,-11.8125 9.42188,-9.70312 26.57813,-27.21093 z" />
        <path
           inkscape:connector-curvature="0"
           id="path2165"
           style="font-style:normal;font-variant:normal;font-weight:normal;font-stretch:normal;font-size:144px;line-height:1.25;font-family:'Arial Narrow';-inkscape-font-specification:'Arial Narrow';text-align:center;text-anchor:middle;fill:#ff0000;fill-opacity:1;stroke:none;stroke-width:1px;stroke-linecap:butt;stroke-linejoin:miter;stroke-opacity:1"
           d="m 707.03778,876.87219 q -14.27344,0 -22.42969,-16.52344 -2.95312,-6.53906 -3.09375,-9.98437 h -0.21093 q -2.46094,11.39062 -8.92969,18.91406 -7.59375,7.59375 -17.08594,7.59375 -14.69531,0 -23.55469,-15.75 -2.25,-5.83594 -2.25,-10.96875 0,-17.57812 14.625,-33.53906 l 37.19532,-44.64844 h 0.42187 l 39.51563,48.44531 q 11.8125,14.41407 11.8125,29.74219 0,14.83594 -13.99219,23.55469 -5.90625,3.16406 -12.02344,3.16406 z" />
      </g>
      <path
         inkscape:connector-curvature="0"
         id="path2162"
         style="font-style:normal;font-weight:normal;font-size:250px;line-height:1.25;font-family:Arial;text-align:center;text-anchor:middle;fill:#ff0000;fill-opacity:1;stroke:none;stroke-width:1px;stroke-linecap:butt;stroke-linejoin:miter;stroke-opacity:1"
         d="m 373.71353,313.56897 q -3.78418,-14.4043 -10.86426,-26.97754 -6.958,-12.69531 -27.09961,-39.30664 -14.7705,-19.53125 -18.18847,-24.78027 -5.61524,-8.54493 -8.17871,-15.625 -2.44141,-7.20215 -2.44141,-14.52637 0,-13.54981 9.0332,-22.70508 9.03321,-9.15527 22.33887,-9.15527 13.42774,0 23.31543,9.52148 7.44629,7.08008 12.08496,21.11817 4.02832,-13.79395 11.35254,-20.9961 10.13184,-9.76562 23.4375,-9.76562 13.18359,0 22.33887,9.15527 9.15527,9.0332 9.15527,21.60645 0,10.98632 -5.37109,22.94922 -5.3711,11.84082 -20.75196,31.12792 -20.01953,25.26856 -29.1748,41.50391 -7.20215,12.81738 -10.98633,26.85547 z" />
      <path
         inkscape:connector-curvature="0"
         d="m 373.71353,757.44103 q -3.78418,14.4043 -10.86426,26.97754 -6.958,12.69531 -27.09961,39.30664 -14.7705,19.53125 -18.18847,24.78027 -5.61524,8.54493 -8.17871,15.625 -2.44141,7.20215 -2.44141,14.52637 0,13.54981 9.0332,22.70508 9.03321,9.15527 22.33887,9.15527 13.42774,0 23.31543,-9.52148 7.44629,-7.08008 12.08496,-21.11817 4.02832,13.79395 11.35254,20.9961 10.13184,9.76562 23.4375,9.76562 13.18359,0 22.33887,-9.15527 9.15527,-9.0332 9.15527,-21.60645 0,-10.98632 -5.37109,-22.94922 -5.3711,-11.84082 -20.75196,-31.12792 -20.01953,-25.26856 -29.1748,-41.50391 -7.20215,-12.81738 -10.98633,-26.85547 z"
         style="font-style:normal;font-weight:normal;font-size:250px;line-height:1.25;font-family:Arial;text-align:center;text-anchor:middle;fill:#ff0000;fill-opacity:1;stroke:none;stroke-width:1px;stroke-linecap:butt;stroke-linejoin:miter;stroke-opacity:1"
         id="path2177" />
    </g>
  </g>
</svg>
