<svg version="1.0" viewBox="0 0 747 1000" xmlns="http://www.w3.org/2000/svg" xmlns:xlink="http://www.w3.org/1999/xlink"><g transform="translate(2.2 -.65)"><path d="M47 42h14v98q0 19-7.2 28-7.2 8.6-23 8.6h-5.4v-12h4.4q9.4 0 13-5.3 3.9-5.3 3.9-19zM30 182q14 0 22 17 3 6.5 3.1 10h.21q2.5-11 8.9-19 7.6-7.6 17-7.6 15 0 24 16 2.2 5.8 2.2 11 0 18-15 34l-37 45h-.42l-40-48q-12-14-12-30 0-15 14-24 5.9-3.2 12-3.2zM696 1000h-14v-98q0-19 7.2-28 7.2-8.6 23-8.6h5.4v12h-4.4q-9.4 0-13 5.3-3.9 5.3-3.9 19zM713 865q-14 0-22-17-3-6.5-3.1-10h-.21q-2.5 11-8.9 19-7.6 7.6-17 7.6-15 0-24-16-2.2-5.8-2.2-11 0-18 15-34l37-45h.42l40 48q12 14 12 30 0 15-14 24-5.9 3.2-12 3.2z" fill="red"/><path d="M117 92h509v863H117z" fill="none" opacity=".78" stroke-linecap="square" stroke-width="8.5" stroke="#000"/><path id="g" d="M310 316l129-12c10 2.1.75 17 9.4 21 90 37 129 135 172 185l-498 .12c24-107 97-102 187-165v-29z" fill="red" stroke="red"/><path d="M205 268q-3.8-14-11-27-7-13-27-39-15-20-18-25-5.6-8.5-8.2-16-2.4-7.2-2.4-15 0-14 9-23 9-9.2 22-9.2t23 9.5q7.4 7.1 12 21 4-14 11-21 10-9.8 23-9.8t22 9.2q9.2 9 9.2 22 0 11-5.4 23t-21 31q-20 25-29 42-7.2 13-11 27zM537 772q-3.8 14-11 27-7 13-27 39-15 20-18 25-5.6 8.5-8.2 16-2.4 7.2-2.4 15 0 14 9 23 9 9.2 22 9.2t23-9.5q7.4-7.1 12-21 4 14 11 21 10 9.8 23 9.8t22-9.2q9.2-9 9.2-22 0-11-5.4-23t-21-31q-20-25-29-42-7.2-13-11-27z" fill="red"/><path d="M325 223c-3 9.3-4.7 18-3.4 26l-6.9 22 .058 2.8c-.044.33 3 3.6 6 3.9l-1.3 14c-1.1.77 1.8 1 1.8 2.3 0 1.4-2.4 2-2.4 2 1.8 6.6-7.2 13-.79 20 4.2 4.2 41-.065 41-.065 48 0 49-35 49-35 0-40-2.6-66-2.6-66-2.5-.014-18-2.8-35-1.1-19 1.9-30 4.2-45 9z" fill="#ddbdd0" stroke="#ddbdd0"/><path d="M294 132l24 69c104-14 94-3.9 128 0l20-69c-43-15-99-20-171 0z" stroke="#000"/><path d="M378 209l9 120 64-9.3-9.3-98z" fill="#c6c801" stroke="#000"/><path d="M329 238c8.1-1.2 14 .35 21 6.2" fill="none" stroke-linecap="round" stroke-linejoin="round" stroke-width="4" stroke="#000"/><path id="a" d="M384 214l10 115" fill="none" stroke="#000"/><use id="b" transform="translate(8 -1.1)" width="747.347" height="1046.286" xlink:href="#a"/><use id="c" transform="translate(8 -1.1)" width="747.347" height="1046.286" xlink:href="#b"/><use id="d" transform="translate(8 -1.6)" width="747.347" height="1046.286" xlink:href="#c"/><use id="e" transform="translate(8 -.71)" width="747.347" height="1046.286" xlink:href="#d"/><use id="f" transform="translate(8 -1.1)" width="747.347" height="1046.286" xlink:href="#e"/><use transform="translate(8 -2)" width="747.347" height="1046.286" xlink:href="#f"/><path d="M334 244c4.2.89 4.6 1.1 8.1 5.1-3.7 1.5-5 1.7-8.9 1.4-7.8-1.3-5.6-7.4.75-6.5z" fill="#fff" stroke-width=".5" stroke="#000"/><path d="M337 247a3.1 2.9 0 01-3.1 2.9 3.1 2.9 0 01-3.1-2.9 3.1 2.9 0 013.1-2.9 3.1 2.9 0 013.1 2.9z" fill="#6c5353" stroke-linecap="round" stroke-linejoin="round" stroke-width=".5" stroke="#000"/><path d="M334 247a.76.69 0 01-.76.69.76.69 0 01-.76-.69.76.69 0 01.76-.69.76.69 0 01.76.69z" stroke-linecap="round" stroke-linejoin="round" stroke-width=".5" stroke="#000"/><path d="M335 289c.11-.11.42.75.48.86.18.31-.36.65-.65.76-.61.24-1.5-.7-1.7-1.3-.31-1 .52-2 1.5-2.2 1.6-.38 3 .88 3.3 2.4.44 2.2-1.4 4.2-3.5 4.6-1.1.18-3.8-.68-7.3-1.5-3.4-.84-5.6-1.7-6.8-2.3" fill="none" stroke-linecap="round" stroke-width="1.6" stroke="#000"/><path d="M441 222l4-22c-34-3.9-24-14-128 0l8 22c65-10 70-11 116 0z" fill="red" stroke="red"/><use transform="rotate(180 371.5 500)" width="747.347" height="1046.286" xlink:href="#g"/><path d="M418 795c3-9.3 4.7-18 3.4-26l6.9-22-.058-2.8c.044-.33-3-3.6-6-3.9l1.3-14c1.1-.77-1.8-1-1.8-2.3 0-1.4 2.4-2 2.4-2-1.8-6.6 7.2-13 .79-20-4.2-4.2-41 .065-41 .065-48 0-49 35-49 35 0 40 2.6 66 2.6 66 2.5.014 18 2.8 35 1.1 19-1.9 30-4.2 45-9z" fill="#ddbdd0" stroke="#ddbdd0"/><path d="M450 887l-24-69c-104 14-94 3.9-128 0l-20 69c43 15 99 20 171 0z" stroke="#000"/><path d="M365 809l-9-120-64 9.3 9.3 98z" fill="#c6c801" stroke="#000"/><path d="M415 781c-8.1 1.2-14-.35-21-6.2" fill="none" stroke-linecap="round" stroke-linejoin="round" stroke-width="4" stroke="#000"/><path d="M359 805l-10-115" fill="none" stroke="#000"/><use transform="rotate(180 368 510)" width="747.347" height="1046.286" xlink:href="#a"/><use transform="rotate(180 368 510)" width="747.347" height="1046.286" xlink:href="#b"/><use transform="rotate(180 368 510)" width="747.347" height="1046.286" xlink:href="#c"/><use transform="rotate(180 368 510)" width="747.347" height="1046.286" xlink:href="#d"/><use transform="rotate(180 368 510)" width="747.347" height="1046.286" xlink:href="#e"/><use transform="rotate(180 368 510)" width="747.347" height="1046.286" xlink:href="#f"/><path d="M409 775c-4.2-.89-4.6-1.1-8.1-5.1 3.7-1.5 5-1.7 8.9-1.4 7.8 1.3 5.6 7.4-.75 6.5z" fill="#fff" stroke-width=".5" stroke="#000"/><path d="M407 772a2.9 3.1 90 013.1-2.9 2.9 3.1 90 013.1 2.9 2.9 3.1 90 01-3.1 2.9 2.9 3.1 90 01-3.1-2.9z" fill="#6c5353" stroke-linecap="round" stroke-linejoin="round" stroke-width=".5" stroke="#000"/><path d="M409 772a.69.76 90 01.76-.69.69.76 90 01.76.69.69.76 90 01-.76.69.69.76 90 01-.76-.69z" stroke-linecap="round" stroke-linejoin="round" stroke-width=".5" stroke="#000"/><path d="M409 729c-.11.11-.42-.75-.48-.86-.18-.31.36-.65.65-.76.61-.24 1.5.7 1.7 1.3.31 1-.52 2-1.5 2.2-1.6.38-3-.88-3.3-2.4-.44-2.2 1.4-4.2 3.5-4.6 1.1-.18 3.8.68 7.3 1.5 3.4.84 5.6 1.7 6.8 2.3" fill="none" stroke-linecap="round" stroke-width="1.6" stroke="#000"/><path d="M302 796l-4 22c34 3.9 24 14 128 0l-8-22c-65 10-70 11-116 0z" fill="red" stroke="red"/><path d="M594 203l-77-26v136l78-26" fill="#c4c4c4" stroke="#000"/><path d="M593 481c-2-6.1 0-280 0-280l16-23h12v334z" fill="olive" stroke="#000"/><path d="M621 178l-15 26v292l15 15" fill="red" stroke="red"/><path d="M148 816l77 26V706l-78 26" fill="#c4c4c4" stroke="#000"/><path d="M149 538c2 6.1 0 280 0 280l-16 23h-12V507z" fill="olive" stroke="#000"/><path d="M121 841l15-26V523l-15-15" fill="red" stroke="red"/></g></svg>