<svg version="1.0" viewBox="0 0 747 1000" xmlns="http://www.w3.org/2000/svg" xmlns:xlink="http://www.w3.org/1999/xlink"><g transform="translate(2.2 -.65)"><path d="M52 42h14v98q0 19-7.2 28-7.2 8.6-23 8.6h-5.4v-12h4.4q9.4 0 13-5.3 3.9-5.3 3.9-19zM64 182q6.6 12 22 31 17 20 17 24 2.7 6 2.7 12v2.8q0 12-11 18-3.7 1.5-8.2 1.5-11 0-18-16h-3v.84q0 20 5.8 30h-15v-.42q6-11 6-31l-.21-.21h-2.7l-3.3 6.2q-6 9.4-15 9.4-13 0-18-15l-.63-5.1v-3.2q0-13 13-27 22-27 28-39l.21-.21zM691 1000h-14v-98q0-19 7.2-28 7.2-8.6 23-8.6h5.4v12h-4.4q-9.4 0-13 5.3-3.9 5.3-3.9 19zM679 865q-6.6-12-22-31-17-20-17-24-2.7-6-2.7-12v-2.8q0-12 11-18 3.7-1.5 8.2-1.5 11 0 18 16h3v-.84q0-20-5.8-30h15v.42q-6 11-6 31l.21.21h2.7l3.3-6.2q6-9.4 15-9.4 13 0 18 15l.63 5.1v3.2q0 13-13 27-22 27-28 39l-.21.21z"/><path d="M117 92h509v863H117z" fill="none" opacity=".78" stroke-linecap="square" stroke-width="8.5" stroke="#000"/><path id="g" d="M310 316l129-12c10 2.1.75 17 9.4 21 90 37 129 135 172 185l-498 .12c24-107 97-102 187-165v-29z" stroke="#000"/><path d="M207 115q3.2 13 9.8 24 6.6 10 23 26 17 15 21 23t4.5 17q0 12-7.8 20t-19 7.8q-9.5 0-17-5.9-7.7-6-14-17 .12 18 4.6 29 4.6 10 15 17 10 6 27 7.1l.85 4.5h-97l.98-4.5q22 0 35-13 12-13 12-39-5.5 12-14 17-8.1 5.7-18 5.7-11 0-19-7.9-7.8-7.9-7.8-19 0-8.9 4-16 5.5-10 18-20t18-17q8.9-10 13-18 4.2-7.9 6.5-19zM537 925q3.2-13 9.8-24 6.6-10 23-26 17-15 21-23t4.5-17q0-12-7.8-20t-19-7.8q-9.5 0-17 5.9-7.7 6-14 17 .12-18 4.6-29 4.6-10 15-17 10-6 27-7.1l.85-4.5h-97l.98 4.5q22 0 35 13 12 13 12 39-5.5-12-14-17-8.1-5.7-18-5.7-11 0-19 7.9-7.8 7.9-7.8 19 0 8.9 4 16 5.5 10 18 20t18 17q8.9 10 13 18 4.2 7.9 6.5 19z"/><path d="M325 223c-3 9.3-4.7 18-3.4 26l-6.9 22 .058 2.8c-.044.33 3 3.6 6 3.9l-1.3 14c-1.1.77 1.8 1 1.8 2.3 0 1.4-2.4 2-2.4 2 1.8 6.6-7.2 13-.79 20 4.2 4.2 41-.065 41-.065 48 0 49-35 49-35 0-40-2.6-66-2.6-66-2.5-.014-18-2.8-35-1.1-19 1.9-30 4.2-45 9z" fill="#ddbdd0" stroke="#ddbdd0"/><path d="M294 132l24 69c104-14 94-3.9 128 0l20-69c-43-15-99-20-171 0z" fill="red" stroke="red"/><path d="M378 209l9 120 64-9.3-9.3-98z" fill="#c6c801" stroke="#000"/><path d="M441 222l4-22c-34-3.9-24-14-128 0l8 22c65-10 70-11 116 0z" stroke="#000"/><path d="M329 238c8.1-1.2 14 .35 21 6.2" fill="none" stroke-linecap="round" stroke-linejoin="round" stroke-width="4" stroke="#000"/><path id="a" d="M384 214l10 115" fill="none" stroke="#000"/><use id="b" transform="translate(8 -1.1)" width="747.347" height="1046.286" xlink:href="#a"/><use id="c" transform="translate(8 -1.1)" width="747.347" height="1046.286" xlink:href="#b"/><use id="d" transform="translate(8 -1.6)" width="747.347" height="1046.286" xlink:href="#c"/><use id="e" transform="translate(8 -.71)" width="747.347" height="1046.286" xlink:href="#d"/><use id="f" transform="translate(8 -1.1)" width="747.347" height="1046.286" xlink:href="#e"/><use transform="translate(8 -2)" width="747.347" height="1046.286" xlink:href="#f"/><path d="M334 244c4.2.89 4.6 1.1 8.1 5.1-3.7 1.5-5 1.7-8.9 1.4-7.8-1.3-5.6-7.4.75-6.5z" fill="#fff" stroke-width=".5" stroke="#000"/><path d="M337 247a3.1 2.9 0 01-3.1 2.9 3.1 2.9 0 01-3.1-2.9 3.1 2.9 0 013.1-2.9 3.1 2.9 0 013.1 2.9z" fill="#6c5353" stroke-linecap="round" stroke-linejoin="round" stroke-width=".5" stroke="#000"/><path d="M334 247a.76.69 0 01-.76.69.76.69 0 01-.76-.69.76.69 0 01.76-.69.76.69 0 01.76.69z" stroke-linecap="round" stroke-linejoin="round" stroke-width=".5" stroke="#000"/><path d="M335 289c.11-.11.42.75.48.86.18.31-.36.65-.65.76-.61.24-1.5-.7-1.7-1.3-.31-1 .52-2 1.5-2.2 1.6-.38 3 .88 3.3 2.4.44 2.2-1.4 4.2-3.5 4.6-1.1.18-3.8-.68-7.3-1.5-3.4-.84-5.6-1.7-6.8-2.3" fill="none" stroke-linecap="round" stroke-width="1.6" stroke="#000"/><use transform="rotate(180 371.5 500)" width="747.347" height="1046.286" xlink:href="#g"/><path d="M418 795c3-9.3 4.7-18 3.4-26l6.9-22-.058-2.8c.044-.33-3-3.6-6-3.9l1.3-14c1.1-.77-1.8-1-1.8-2.3 0-1.4 2.4-2 2.4-2-1.8-6.6 7.2-13 .79-20-4.2-4.2-41 .065-41 .065-48 0-49 35-49 35 0 40 2.6 66 2.6 66 2.5.014 18 2.8 35 1.1 19-1.9 30-4.2 45-9z" fill="#ddbdd0" stroke="#ddbdd0"/><path d="M450 887l-24-69c-104 14-94 3.9-128 0l-20 69c43 15 99 20 171 0z" fill="red" stroke="red"/><path d="M365 809l-9-120-64 9.3 9.3 98z" fill="#c6c801" stroke="#000"/><path d="M302 796l-4 22c34 3.9 24 14 128 0l-8-22c-65 10-70 11-116 0z" stroke="#000"/><path d="M415 781c-8.1 1.2-14-.35-21-6.2" fill="none" stroke-linecap="round" stroke-linejoin="round" stroke-width="4" stroke="#000"/><path d="M359 805l-10-115" fill="none" stroke="#000"/><use transform="rotate(180 368 510)" width="747.347" height="1046.286" xlink:href="#a"/><use transform="rotate(180 368 510)" width="747.347" height="1046.286" xlink:href="#b"/><use transform="rotate(180 368 510)" width="747.347" height="1046.286" xlink:href="#c"/><use transform="rotate(180 368 510)" width="747.347" height="1046.286" xlink:href="#d"/><use transform="rotate(180 368 510)" width="747.347" height="1046.286" xlink:href="#e"/><use transform="rotate(180 368 510)" width="747.347" height="1046.286" xlink:href="#f"/><path d="M409 775c-4.2-.89-4.6-1.1-8.1-5.1 3.7-1.5 5-1.7 8.9-1.4 7.8 1.3 5.6 7.4-.75 6.5z" fill="#fff" stroke-width=".5" stroke="#000"/><path d="M407 772a2.9 3.1 90 013.1-2.9 2.9 3.1 90 013.1 2.9 2.9 3.1 90 01-3.1 2.9 2.9 3.1 90 01-3.1-2.9z" fill="#6c5353" stroke-linecap="round" stroke-linejoin="round" stroke-width=".5" stroke="#000"/><path d="M409 772a.69.76 90 01.76-.69.69.76 90 01.76.69.69.76 90 01-.76.69.69.76 90 01-.76-.69z" stroke-linecap="round" stroke-linejoin="round" stroke-width=".5" stroke="#000"/><path d="M409 729c-.11.11-.42-.75-.48-.86-.18-.31.36-.65.65-.76.61-.24 1.5.7 1.7 1.3.31 1-.52 2-1.5 2.2-1.6.38-3-.88-3.3-2.4-.44-2.2 1.4-4.2 3.5-4.6 1.1-.18 3.8.68 7.3 1.5 3.4.84 5.6 1.7 6.8 2.3" fill="none" stroke-linecap="round" stroke-width="1.6" stroke="#000"/><path d="M594 203l-77-26v136l78-26" fill="#c4c4c4" stroke="#000"/><path d="M593 481c-2-6.1 0-280 0-280l16-23h12v334z" fill="olive" stroke="#000"/><path d="M621 178l-15 26v292l15 15" stroke="#000"/><path d="M148 816l77 26V706l-78 26" fill="#c4c4c4" stroke="#000"/><path d="M149 538c2 6.1 0 280 0 280l-16 23h-12V507z" fill="olive" stroke="#000"/><path d="M121 841l15-26V523l-15-15" stroke="#000"/></g></svg>