<?xml version="1.0" encoding="UTF-8" standalone="no"?>
<!-- Created with Inkscape (http://www.inkscape.org/) -->

<svg
   xmlns:dc="http://purl.org/dc/elements/1.1/"
   xmlns:cc="http://creativecommons.org/ns#"
   xmlns:rdf="http://www.w3.org/1999/02/22-rdf-syntax-ns#"
   xmlns:svg="http://www.w3.org/2000/svg"
   xmlns="http://www.w3.org/2000/svg"
   xmlns:sodipodi="http://sodipodi.sourceforge.net/DTD/sodipodi-0.dtd"
   xmlns:inkscape="http://www.inkscape.org/namespaces/inkscape"
   width="747.34698"
   height="1046.2856"
   id="svg2"
   sodipodi:version="0.32"
   inkscape:version="0.92.4 (5da689c313, 2019-01-14)"
   version="1.0"
   sodipodi:docname="Cards-8-Diamond.svg"
   inkscape:output_extension="org.inkscape.output.svg.inkscape">
  <defs
     id="defs4">
    <inkscape:perspective
       sodipodi:type="inkscape:persp3d"
       inkscape:vp_x="0 : 526.18109 : 1"
       inkscape:vp_y="0 : 1000 : 0"
       inkscape:vp_z="744.09448 : 526.18109 : 1"
       inkscape:persp3d-origin="372.04724 : 350.78739 : 1"
       id="perspective10" />
    <inkscape:perspective
       id="perspective2390"
       inkscape:persp3d-origin="372.04724 : 350.78739 : 1"
       inkscape:vp_z="744.09448 : 526.18109 : 1"
       inkscape:vp_y="0 : 1000 : 0"
       inkscape:vp_x="0 : 526.18109 : 1"
       sodipodi:type="inkscape:persp3d" />
  </defs>
  <sodipodi:namedview
     id="base"
     pagecolor="#ffffff"
     bordercolor="#666666"
     borderopacity="1.0"
     gridtolerance="10000"
     guidetolerance="10"
     objecttolerance="10"
     inkscape:pageopacity="0.0"
     inkscape:pageshadow="2"
     inkscape:zoom="0.35"
     inkscape:cx="-385.37928"
     inkscape:cy="275.15568"
     inkscape:document-units="px"
     inkscape:current-layer="g2797"
     showgrid="false"
     showguides="true"
     inkscape:guide-bbox="true"
     inkscape:window-width="3840"
     inkscape:window-height="2066"
     inkscape:window-x="-11"
     inkscape:window-y="-11"
     inkscape:window-maximized="1" />
  <metadata
     id="metadata7">
    <rdf:RDF>
      <cc:Work
         rdf:about="">
        <dc:format>image/svg+xml</dc:format>
        <dc:type
           rdf:resource="http://purl.org/dc/dcmitype/StillImage" />
      </cc:Work>
    </rdf:RDF>
  </metadata>
  <g
     inkscape:label="Layer 1"
     inkscape:groupmode="layer"
     id="layer1"
     transform="translate(2.2448993,-0.6479052)">
    <g
       id="g2775"
       transform="translate(-2.0407968,-11.714273)">
      <g
         id="g2797">
        <path
           inkscape:connector-curvature="0"
           id="path900"
           style="font-style:normal;font-variant:normal;font-weight:normal;font-stretch:normal;font-size:144px;line-height:1.25;font-family:'Arial Narrow';-inkscape-font-specification:'Arial Narrow';text-align:center;text-anchor:middle;fill:#ff0000;fill-opacity:1;stroke:none;stroke-width:1px;stroke-linecap:butt;stroke-linejoin:miter;stroke-opacity:1"
           d="m 61.469391,109.19249 q -10.125,0 -15.960938,5.41406 -5.765625,5.41406 -5.765625,14.90625 0,9.49219 5.765625,14.90625 5.835938,5.41406 15.960938,5.41406 10.125,0 15.960937,-5.41406 5.835938,-5.48437 5.835938,-14.90625 0,-9.49219 -5.835938,-14.90625 -5.765625,-5.41406 -15.960937,-5.41406 z m -14.203125,-6.04688 q -9.140625,-2.25 -14.273438,-8.507808 -5.0625,-6.257812 -5.0625,-15.257812 0,-12.585938 8.929688,-19.898438 9,-7.3125 24.609375,-7.3125 15.679687,0 24.609375,7.3125 8.929687,7.3125 8.929687,19.898438 0,9 -5.132812,15.257812 -5.0625,6.257808 -14.132813,8.507808 10.265625,2.39063 15.960938,9.35157 5.765625,6.96093 5.765625,17.01562 0,15.25781 -9.351563,23.41406 -9.28125,8.15625 -26.648437,8.15625 -17.367188,0 -26.71875,-8.15625 -9.28125,-8.15625 -9.28125,-23.41406 0,-10.05469 5.765625,-17.01562 5.765625,-6.96094 16.03125,-9.35157 z M 42.063141,80.715927 q 0,8.15625 5.0625,12.726563 5.132812,4.570312 14.34375,4.570312 9.140625,0 14.273437,-4.570312 5.203125,-4.570313 5.203125,-12.726563 0,-8.15625 -5.203125,-12.726562 -5.132812,-4.570313 -14.273437,-4.570313 -9.210938,0 -14.34375,4.570313 -5.0625,4.570312 -5.0625,12.726562 z" />
        <path
           inkscape:connector-curvature="0"
           id="path903"
           style="font-style:normal;font-variant:normal;font-weight:normal;font-stretch:normal;font-size:144px;line-height:1.25;font-family:'Arial Narrow';-inkscape-font-specification:'Arial Narrow';text-align:center;text-anchor:middle;fill:#ff0000;fill-opacity:1;stroke:none;stroke-width:1px;stroke-linecap:butt;stroke-linejoin:miter;stroke-opacity:1"
           d="m 65.547516,194.13779 35.367184,45.91406 q 4.85157,5.97656 4.85157,6.89062 l -40.218754,52.10157 q -0.84375,-0.5625 -40.359375,-52.10157 0,-0.98437 7.804687,-10.6875 z" />
        <path
           inkscape:connector-curvature="0"
           id="path897"
           style="font-style:normal;font-variant:normal;font-weight:normal;font-stretch:normal;font-size:144px;line-height:1.25;font-family:'Arial Narrow';-inkscape-font-specification:'Arial Narrow';text-align:center;text-anchor:middle;fill:#ff0000;fill-opacity:1;stroke:none;stroke-width:1px;stroke-linecap:butt;stroke-linejoin:miter;stroke-opacity:1"
           d="m 685.46942,961.8175 q 10.125,0 15.96094,-5.41406 5.76562,-5.41406 5.76562,-14.90625 0,-9.49219 -5.76562,-14.90625 -5.83594,-5.41406 -15.96094,-5.41406 -10.125,0 -15.96094,5.41406 -5.83593,5.48438 -5.83593,14.90625 0,9.49219 5.83593,14.90625 5.76563,5.41406 15.96094,5.41406 z m 14.20313,6.04688 q 9.14062,2.25 14.27343,8.50781 5.0625,6.25781 5.0625,15.25781 0,12.5859 -8.92968,19.8984 -9,7.3125 -24.60938,7.3125 -15.67969,0 -24.60937,-7.3125 -8.92969,-7.3125 -8.92969,-19.8984 0,-9 5.13281,-15.25781 5.0625,-6.25781 14.13281,-8.50781 -10.26562,-2.39063 -15.96093,-9.35156 -5.76563,-6.96094 -5.76563,-17.01563 0,-15.25781 9.35156,-23.41406 9.28125,-8.15625 26.64844,-8.15625 17.36719,0 26.71875,8.15625 9.28125,8.15625 9.28125,23.41406 0,10.05469 -5.76562,17.01563 -5.76563,6.96093 -16.03125,9.35156 z m 5.20312,22.42969 q 0,-8.15625 -5.0625,-12.72657 -5.13281,-4.57031 -14.34375,-4.57031 -9.14062,0 -14.27344,4.57031 -5.20312,4.57032 -5.20312,12.72657 0,8.15625 5.20312,12.72653 5.13282,4.5703 14.27344,4.5703 9.21094,0 14.34375,-4.5703 5.0625,-4.57028 5.0625,-12.72653 z" />
        <path
           inkscape:connector-curvature="0"
           id="path894"
           style="font-style:normal;font-variant:normal;font-weight:normal;font-stretch:normal;font-size:144px;line-height:1.25;font-family:'Arial Narrow';-inkscape-font-specification:'Arial Narrow';text-align:center;text-anchor:middle;fill:#ff0000;fill-opacity:1;stroke:none;stroke-width:1px;stroke-linecap:butt;stroke-linejoin:miter;stroke-opacity:1"
           d="m 681.3913,876.87219 -35.36719,-45.91406 q -4.85156,-5.97656 -4.85156,-6.89063 l 40.21875,-52.10156 q 0.84375,0.5625 40.35937,52.10156 0,0.98438 -7.80469,10.6875 z" />
      </g>
    </g>
    <path
       inkscape:connector-curvature="0"
       id="path888"
       style="font-style:normal;font-weight:normal;font-size:250px;line-height:1.25;font-family:Arial;text-align:center;text-anchor:middle;fill:#ff0000;fill-opacity:1;stroke:none;stroke-width:1px;stroke-linecap:butt;stroke-linejoin:miter;stroke-opacity:1"
       d="m 231.18445,148.65646 q 10.86426,18.43262 26.7334,39.55078 18.31054,24.41407 29.54101,36.98731 -9.0332,9.52148 -29.54101,36.86523 -16.60157,22.2168 -26.61133,39.79493 -3.2959,-6.34766 -9.0332,-14.77051 -9.8877,-14.64844 -24.53614,-34.05762 -3.17383,-4.27246 -22.33886,-27.83203 12.3291,-14.03809 31.73828,-40.03906 14.40429,-19.28711 24.04785,-36.49903 z" />
    <path
       inkscape:connector-curvature="0"
       d="m 231.18445,898.92494 q 10.86426,-18.43262 26.7334,-39.55078 18.31054,-24.41407 29.54101,-36.98731 -9.0332,-9.52148 -29.54101,-36.86523 -16.60157,-22.2168 -26.61133,-39.79493 -3.2959,6.34766 -9.0332,14.77051 -9.8877,14.64844 -24.53614,34.05762 -3.17383,4.27246 -22.33886,27.83203 12.3291,14.03809 31.73828,40.03906 14.40429,19.28711 24.04785,36.49903 z"
       style="font-style:normal;font-weight:normal;font-size:250px;line-height:1.25;font-family:Arial;text-align:center;text-anchor:middle;fill:#ff0000;fill-opacity:1;stroke:none;stroke-width:1px;stroke-linecap:butt;stroke-linejoin:miter;stroke-opacity:1"
       id="path914" />
    <path
       inkscape:connector-curvature="0"
       d="m 231.18445,448.65646 q 10.86426,18.43262 26.7334,39.55078 18.31054,24.41407 29.54101,36.98731 -9.0332,9.52148 -29.54101,36.86523 -16.60157,22.2168 -26.61133,39.79493 -3.2959,-6.34766 -9.0332,-14.77051 -9.8877,-14.64844 -24.53614,-34.05762 -3.17383,-4.27246 -22.33886,-27.83203 12.3291,-14.03809 31.73828,-40.03906 14.40429,-19.28711 24.04785,-36.49903 z"
       style="font-style:normal;font-weight:normal;font-size:250px;line-height:1.25;font-family:Arial;text-align:center;text-anchor:middle;fill:#ff0000;fill-opacity:1;stroke:none;stroke-width:1px;stroke-linecap:butt;stroke-linejoin:miter;stroke-opacity:1"
       id="path918" />
    <path
       inkscape:connector-curvature="0"
       id="path885"
       style="font-style:normal;font-weight:normal;font-size:250px;line-height:1.25;font-family:Arial;text-align:center;text-anchor:middle;fill:#ff0000;fill-opacity:1;stroke:none;stroke-width:1px;stroke-linecap:butt;stroke-linejoin:miter;stroke-opacity:1"
       d="m 511.18445,148.65646 q 10.86426,18.43262 26.7334,39.55078 18.31054,24.41407 29.54101,36.98731 -9.0332,9.52148 -29.54101,36.86523 -16.60157,22.2168 -26.61133,39.79493 -3.2959,-6.34766 -9.0332,-14.77051 -9.8877,-14.64844 -24.53614,-34.05762 -3.17383,-4.27246 -22.33886,-27.83203 12.3291,-14.03809 31.73828,-40.03906 14.40429,-19.28711 24.04785,-36.49903 z" />
    <path
       inkscape:connector-curvature="0"
       d="m 511.18445,898.92494 q 10.86426,-18.43262 26.7334,-39.55078 18.31054,-24.41407 29.54101,-36.98731 -9.0332,-9.52148 -29.54101,-36.86523 -16.60157,-22.2168 -26.61133,-39.79493 -3.2959,6.34766 -9.0332,14.77051 -9.8877,14.64844 -24.53614,34.05762 -3.17383,4.27246 -22.33886,27.83203 12.3291,14.03809 31.73828,40.03906 14.40429,19.28711 24.04785,36.49903 z"
       style="font-style:normal;font-weight:normal;font-size:250px;line-height:1.25;font-family:Arial;text-align:center;text-anchor:middle;fill:#ff0000;fill-opacity:1;stroke:none;stroke-width:1px;stroke-linecap:butt;stroke-linejoin:miter;stroke-opacity:1"
       id="path910" />
    <path
       inkscape:connector-curvature="0"
       d="m 511.18445,448.65646 q 10.86426,18.43262 26.7334,39.55078 18.31054,24.41407 29.54101,36.98731 -9.0332,9.52148 -29.54101,36.86523 -16.60157,22.2168 -26.61133,39.79493 -3.2959,-6.34766 -9.0332,-14.77051 -9.8877,-14.64844 -24.53614,-34.05762 -3.17383,-4.27246 -22.33886,-27.83203 12.3291,-14.03809 31.73828,-40.03906 14.40429,-19.28711 24.04785,-36.49903 z"
       style="font-style:normal;font-weight:normal;font-size:250px;line-height:1.25;font-family:Arial;text-align:center;text-anchor:middle;fill:#ff0000;fill-opacity:1;stroke:none;stroke-width:1px;stroke-linecap:butt;stroke-linejoin:miter;stroke-opacity:1"
       id="path906" />
    <path
       inkscape:connector-curvature="0"
       id="path891"
       style="font-style:normal;font-weight:normal;font-size:250px;line-height:1.25;font-family:Arial;text-align:center;text-anchor:middle;fill:#ff0000;fill-opacity:1;stroke:none;stroke-width:1px;stroke-linecap:butt;stroke-linejoin:miter;stroke-opacity:1"
       d="m 371.18445,308.65643 q 10.86426,18.43262 26.7334,39.55078 18.31054,24.41407 29.54101,36.98731 -9.0332,9.52148 -29.54101,36.86523 -16.60157,22.2168 -26.61133,39.79493 -3.2959,-6.34766 -9.0332,-14.77051 -9.8877,-14.64844 -24.53614,-34.05762 -3.17383,-4.27246 -22.33886,-27.83203 12.3291,-14.03809 31.73828,-40.03906 14.40429,-19.28711 24.04785,-36.49903 z" />
    <path
       inkscape:connector-curvature="0"
       d="m 371.18445,778.92497 q 10.86426,-18.43262 26.7334,-39.55078 18.31054,-24.41407 29.54101,-36.98731 -9.0332,-9.52148 -29.54101,-36.86523 -16.60157,-22.2168 -26.61133,-39.79493 -3.2959,6.34766 -9.0332,14.77051 -9.8877,14.64844 -24.53614,34.05762 -3.17383,4.27246 -22.33886,27.83203 12.3291,14.03809 31.73828,40.03906 14.40429,19.28711 24.04785,36.49903 z"
       style="font-style:normal;font-weight:normal;font-size:250px;line-height:1.25;font-family:Arial;text-align:center;text-anchor:middle;fill:#ff0000;fill-opacity:1;stroke:none;stroke-width:1px;stroke-linecap:butt;stroke-linejoin:miter;stroke-opacity:1"
       id="path922" />
  </g>
</svg>
