<svg width="747" height="1000" version="1.0" viewBox="0 0 745 1000" xmlns="http://www.w3.org/2000/svg" xmlns:xlink="http://www.w3.org/1999/xlink"><g transform="translate(2.2 -.65)"><path d="M51 42h14v98q0 19-7.2 28-7.2 8.6-23 8.6h-5.4v-12h4.4q9.4 0 13-5.3 3.9-5.3 3.9-19zM56 182q15 0 22 16 .91 3.7 1.1 7.6 0 8.2-8.4 19l-4.2 4.2h.21q5.2-2 11-2h1.3q17 0 23 14 1.6 4.6 1.6 8.9 0 14-15 22-2.8.84-7.8 1.3-17 0-24-19h-.21v.63q0 24 5.8 32v.42h-15l-.42-.42q6-9 6-32v-.21h-.21q-7 19-24 19-13 0-21-14-1.8-4.8-1.8-8.9 0-16 17-22 4.6-.84 8.2-.84h.63q6 0 12 2h.21v-.21q-5.9-5-7.9-9.8-4.2-7.7-4.2-13v-.98q0-14 15-21 5-1.3 7.7-1.3zM691 1000h-14v-98q0-19 7.2-28 7.2-8.6 23-8.6h5.4v12h-4.4q-9.4 0-13 5.3-3.9 5.3-3.9 19zM687 865q-15 0-22-16-.91-3.7-1.1-7.6 0-8.2 8.4-19l4.2-4.2h-.21q-5.2 2-11 2h-1.3q-17 0-23-14-1.6-4.6-1.6-8.9 0-14 15-22 2.8-.84 7.8-1.3 17 0 24 19h.21v-.63q0-24-5.8-32v-.42h15l.42.42q-6 9-6 32v.21h.21q7-19 24-19 13 0 21 14 1.8 4.8 1.8 8.9 0 16-17 22-4.6.84-8.2.84h-.63q-6 0-12-2h-.21v.21q5.9 5 7.9 9.8 4.2 7.7 4.2 13v.98q0 14-15 21-5 1.3-7.7 1.3z"/><path d="M117 92h509v863H117z" fill="none" opacity=".78" stroke-linecap="square" stroke-width="8.5" stroke="#000"/><path id="g" d="M310 316l129-12c10 2.1.75 17 9.4 21 90 37 129 135 172 185l-498 .12c24-107 97-102 187-165z" stroke="#000"/><path d="M261 265H157l.98-4.2q20-4.3 27-8.4 9.9-6.2 16-18 6.3-12 6.3-26 0-2-.12-5.6-7.4 15-18 22-11 7-22 7-14 0-24-9.9-9.9-9.9-9.9-24 0-14 9-24 9-9.8 21-9.8 7.3 0 20 6.2-5.1-8.5-6.7-13-1.5-4.4-1.5-9.4 0-14 9.6-24 9.6-9.6 24-9.6 14 0 24 9.6 9.9 9.6 9.9 23 0 11-8.4 23 10-4.9 12-5.5 3.3-.98 7.4-.98 12 0 21 9.6 9 9.5 9 24 0 15-9.9 25-9.8 9.9-24 9.9-7.7 0-16-3.7-8.1-3.8-14-10-4.3-4.5-11-15 .49 19 5.9 31 5.5 11 17 19 7.6 5 27 8.8zM587 775H483l.98 4.2q20 4.3 27 8.4 9.9 6.2 16 18 6.3 12 6.3 26 0 2-.12 5.6-7.4-15-18-22-11-7-22-7-14 0-24 9.9-9.9 9.9-9.9 24 0 14 9 24 9 9.8 21 9.8 7.3 0 20-6.2-5.1 8.5-6.7 13-1.5 4.4-1.5 9.4 0 14 9.6 24 9.6 9.6 24 9.6 14 0 24-9.6 9.9-9.6 9.9-23 0-11-8.4-23 10 4.9 12 5.5 3.3.98 7.4.98 12 0 21-9.6 9-9.5 9-24 0-15-9.9-25-9.8-9.9-24-9.9-7.7 0-16 3.7-8.1 3.8-14 10-4.3 4.5-11 15 .49-19 5.9-31 5.5-11 17-19 7.6-5 27-8.8z"/><path d="M325 223c-3 9.3-4.7 18-3.4 26l-6.9 22 .058 2.8c-.044.33 3 3.6 6 3.9l-1.3 14c-1.1.77 1.8 1 1.8 2.3 0 1.4-2.4 2-2.4 2 1.8 6.6-7.2 13-.79 20 4.2 4.2 41-.065 41-.065 48 0 49-35 49-35 0-40-2.6-66-2.6-66-2.5-.014-18-2.8-35-1.1-19 1.9-30 4.2-45 9z" fill="#ddbdd0" stroke="#ddbdd0"/><path d="M294 132l24 69c104-14 94-3.9 128 0l20-69c-43-15-99-20-171 0z" fill="red" stroke="red"/><path d="M378 209l9 120 64-9.3-9.3-98z" fill="#c6c801" stroke="#000"/><path d="M441 222l4-22c-34-3.9-24-14-128 0l8 22c65-10 70-11 116 0z" stroke="#000"/><path d="M329 238c8.1-1.2 14 .35 21 6.2" fill="none" stroke-linecap="round" stroke-linejoin="round" stroke-width="4" stroke="#000"/><path id="a" d="M384 214l10 115" fill="none" stroke="#000"/><use id="b" transform="translate(8 -1.1)" width="747.347" height="1046.286" xlink:href="#a"/><use id="c" transform="translate(8 -1.1)" width="747.347" height="1046.286" xlink:href="#b"/><use id="d" transform="translate(8 -1.6)" width="747.347" height="1046.286" xlink:href="#c"/><use id="e" transform="translate(8 -.71)" width="747.347" height="1046.286" xlink:href="#d"/><use id="f" transform="translate(8 -1.1)" width="747.347" height="1046.286" xlink:href="#e"/><use transform="translate(8 -2)" width="747.347" height="1046.286" xlink:href="#f"/><path d="M334 244c4.2.89 4.6 1.1 8.1 5.1-3.7 1.5-5 1.7-8.9 1.4-7.8-1.3-5.6-7.4.75-6.5z" fill="#fff" stroke-width=".5" stroke="#000"/><path d="M337 247a3.1 2.9 0 01-3.1 2.9 3.1 2.9 0 01-3.1-2.9 3.1 2.9 0 013.1-2.9 3.1 2.9 0 013.1 2.9z" fill="#6c5353" stroke-linecap="round" stroke-linejoin="round" stroke-width=".5" stroke="#000"/><path d="M334 247a.76.69 0 01-.76.69.76.69 0 01-.76-.69.76.69 0 01.76-.69.76.69 0 01.76.69z" stroke-linecap="round" stroke-linejoin="round" stroke-width=".5" stroke="#000"/><path d="M335 289c.11-.11.42.75.48.86.18.31-.36.65-.65.76-.61.24-1.5-.7-1.7-1.3-.31-1 .52-2 1.5-2.2 1.6-.38 3 .88 3.3 2.4.44 2.2-1.4 4.2-3.5 4.6-1.1.18-3.8-.68-7.3-1.5-3.4-.84-5.6-1.7-6.8-2.3" fill="none" stroke-linecap="round" stroke-width="1.6" stroke="#000"/><use transform="rotate(180 372 509)" width="747.347" height="1046.286" xlink:href="#g"/><path d="M418 795c3-9.3 4.7-18 3.4-26l6.9-22-.058-2.8c.044-.33-3-3.6-6-3.9l1.3-14c1.1-.77-1.8-1-1.8-2.3 0-1.4 2.4-2 2.4-2-1.8-6.6 7.2-13 .79-20-4.2-4.2-41 .065-41 .065-48 0-49 35-49 35 0 40 2.6 66 2.6 66 2.5.014 18 2.8 35 1.1 19-1.9 30-4.2 45-9z" fill="#ddbdd0" stroke="#ddbdd0"/><path d="M450 887l-24-69c-104 14-94 3.9-128 0l-20 69c43 15 99 20 171 0z" fill="red" stroke="red"/><path d="M365 809l-9-120-64 9.3 9.3 98z" fill="#c6c801" stroke="#000"/><path d="M302 796l-4 22c34 3.9 24 14 128 0l-8-22c-65 10-70 11-116 0z" stroke="#000"/><path d="M415 781c-8.1 1.2-14-.35-21-6.2" fill="none" stroke-linecap="round" stroke-linejoin="round" stroke-width="4" stroke="#000"/><path d="M359 805l-10-115" fill="none" stroke="#000"/><use transform="rotate(180 368 510)" width="747.347" height="1046.286" xlink:href="#a"/><use transform="rotate(180 368 510)" width="747.347" height="1046.286" xlink:href="#b"/><use transform="rotate(180 368 510)" width="747.347" height="1046.286" xlink:href="#c"/><use transform="rotate(180 368 510)" width="747.347" height="1046.286" xlink:href="#d"/><use transform="rotate(180 368 510)" width="747.347" height="1046.286" xlink:href="#e"/><use transform="rotate(180 368 510)" width="747.347" height="1046.286" xlink:href="#f"/><path d="M409 775c-4.2-.89-4.6-1.1-8.1-5.1 3.7-1.5 5-1.7 8.9-1.4 7.8 1.3 5.6 7.4-.75 6.5z" fill="#fff" stroke-width=".5" stroke="#000"/><path d="M407 772a2.9 3.1 90 013.1-2.9 2.9 3.1 90 013.1 2.9 2.9 3.1 90 01-3.1 2.9 2.9 3.1 90 01-3.1-2.9z" fill="#6c5353" stroke-linecap="round" stroke-linejoin="round" stroke-width=".5" stroke="#000"/><path d="M409 772a.69.76 90 01.76-.69.69.76 90 01.76.69.69.76 90 01-.76.69.69.76 90 01-.76-.69z" stroke-linecap="round" stroke-linejoin="round" stroke-width=".5" stroke="#000"/><path d="M409 729c-.11.11-.42-.75-.48-.86-.18-.31.36-.65.65-.76.61-.24 1.5.7 1.7 1.3.31 1-.52 2-1.5 2.2-1.6.38-3-.88-3.3-2.4-.44-2.2 1.4-4.2 3.5-4.6 1.1-.18 3.8.68 7.3 1.5 3.4.84 5.6 1.7 6.8 2.3" fill="none" stroke-linecap="round" stroke-width="1.6" stroke="#000"/><path d="M594 203l-77-26v136l78-26" fill="#c4c4c4" stroke="#000"/><path d="M593 481c-2-6.1 0-280 0-280l16-23h12v334z" fill="olive" stroke="#000"/><path d="M621 178l-15 26v292l15 15" stroke="#000"/><path d="M148 816l77 26V706l-78 26" fill="#c4c4c4" stroke="#000"/><path d="M149 538c2 6.1 0 280 0 280l-16 23h-12V507z" fill="olive" stroke="#000"/><path d="M121 841l15-26V523l-15-15" stroke="#000"/></g></svg>