<?xml version="1.0" encoding="UTF-8" standalone="no"?>
<!-- Created with Inkscape (http://www.inkscape.org/) -->

<svg
   xmlns:dc="http://purl.org/dc/elements/1.1/"
   xmlns:cc="http://creativecommons.org/ns#"
   xmlns:rdf="http://www.w3.org/1999/02/22-rdf-syntax-ns#"
   xmlns:svg="http://www.w3.org/2000/svg"
   xmlns="http://www.w3.org/2000/svg"
   xmlns:xlink="http://www.w3.org/1999/xlink"
   xmlns:sodipodi="http://sodipodi.sourceforge.net/DTD/sodipodi-0.dtd"
   xmlns:inkscape="http://www.inkscape.org/namespaces/inkscape"
   width="747.34698"
   height="1046.2856"
   id="svg2"
   sodipodi:version="0.32"
   inkscape:version="0.92.4 (5da689c313, 2019-01-14)"
   version="1.0"
   sodipodi:docname="Cards-J-Spade.svg"
   inkscape:output_extension="org.inkscape.output.svg.inkscape">
  <defs
     id="defs4">
    <inkscape:perspective
       sodipodi:type="inkscape:persp3d"
       inkscape:vp_x="0 : 526.18109 : 1"
       inkscape:vp_y="0 : 1000 : 0"
       inkscape:vp_z="744.09448 : 526.18109 : 1"
       inkscape:persp3d-origin="372.04724 : 350.78739 : 1"
       id="perspective10" />
    <inkscape:perspective
       id="perspective2390"
       inkscape:persp3d-origin="372.04724 : 350.78739 : 1"
       inkscape:vp_z="744.09448 : 526.18109 : 1"
       inkscape:vp_y="0 : 1000 : 0"
       inkscape:vp_x="0 : 526.18109 : 1"
       sodipodi:type="inkscape:persp3d" />
  </defs>
  <sodipodi:namedview
     id="base"
     pagecolor="#ffffff"
     bordercolor="#666666"
     borderopacity="1.0"
     gridtolerance="10000"
     guidetolerance="10"
     objecttolerance="10"
     inkscape:pageopacity="0.0"
     inkscape:pageshadow="2"
     inkscape:zoom="0.49497475"
     inkscape:cx="-371.04656"
     inkscape:cy="624.15509"
     inkscape:document-units="px"
     inkscape:current-layer="layer1"
     showgrid="false"
     showguides="true"
     inkscape:guide-bbox="true"
     inkscape:window-width="3840"
     inkscape:window-height="2066"
     inkscape:window-x="-11"
     inkscape:window-y="-11"
     inkscape:window-maximized="1" />
  <metadata
     id="metadata7">
    <rdf:RDF>
      <cc:Work
         rdf:about="">
        <dc:format>image/svg+xml</dc:format>
        <dc:type
           rdf:resource="http://purl.org/dc/dcmitype/StillImage" />
      </cc:Work>
    </rdf:RDF>
  </metadata>
  <g
     inkscape:label="Layer 1"
     inkscape:groupmode="layer"
     id="layer1"
     transform="translate(2.2448993,-0.6479052)">
    <path
       inkscape:connector-curvature="0"
       id="path976"
       style="font-style:normal;font-variant:normal;font-weight:normal;font-stretch:normal;font-size:144px;line-height:1.25;font-family:'Arial Narrow';-inkscape-font-specification:'Arial Narrow';text-align:center;text-anchor:middle;fill:#000000;fill-opacity:1;stroke:none;stroke-width:1px;stroke-linecap:butt;stroke-linejoin:miter;stroke-opacity:1"
       d="m 52.291874,42.35321 h 14.203125 v 97.66406 q 0,18.98438 -7.242188,27.5625 -7.171875,8.57813 -23.132812,8.57813 h -5.414063 v -11.95313 h 4.429688 q 9.421875,0 13.289062,-5.27343 3.867188,-5.27344 3.867188,-18.91407 z" />
    <path
       inkscape:connector-curvature="0"
       id="path979"
       style="font-style:normal;font-variant:normal;font-weight:normal;font-stretch:normal;font-size:144px;line-height:1.25;font-family:'Arial Narrow';-inkscape-font-specification:'Arial Narrow';text-align:center;text-anchor:middle;fill:#000000;fill-opacity:1;stroke:none;stroke-width:1px;stroke-linecap:butt;stroke-linejoin:miter;stroke-opacity:1"
       d="m 63.647343,182.42352 q 6.609375,11.74219 21.796875,31.14844 16.664062,19.54688 17.085942,23.55469 2.74218,5.97656 2.74218,11.60156 v 2.8125 q 0,11.74219 -11.390622,18.49219 -3.726563,1.54687 -8.226563,1.54687 -10.828125,0 -17.507812,-15.53906 h -2.953125 v 0.84375 q 0,19.89844 5.835937,30.44531 H 55.912968 v -0.42187 q 5.976562,-10.61719 5.976562,-30.65625 l -0.210937,-0.21094 h -2.671875 l -3.304688,6.1875 q -5.976562,9.35156 -14.90625,9.35156 -13.148437,0 -18.492187,-14.69531 l -0.632813,-5.13281 v -3.23438 q 0,-12.86718 13.148438,-27.14062 22.148437,-27.14063 28.40625,-38.74219 l 0.210937,-0.21094 z" />
    <path
       inkscape:connector-curvature="0"
       id="path973"
       style="font-style:normal;font-variant:normal;font-weight:normal;font-stretch:normal;font-size:144px;line-height:1.25;font-family:'Arial Narrow';-inkscape-font-specification:'Arial Narrow';text-align:center;text-anchor:middle;fill:#000000;fill-opacity:1;stroke:none;stroke-width:1px;stroke-linecap:butt;stroke-linejoin:miter;stroke-opacity:1"
       d="m 690.56531,1005.2282 h -14.20313 v -97.66405 q 0,-18.98438 7.24219,-27.5625 7.17188,-8.57813 23.13281,-8.57813 h 5.41407 v 11.95313 h -4.42969 q -9.42188,0 -13.28906,5.27344 -3.86719,5.27343 -3.86719,18.91406 z" />
    <path
       inkscape:connector-curvature="0"
       id="path970"
       style="font-style:normal;font-variant:normal;font-weight:normal;font-stretch:normal;font-size:144px;line-height:1.25;font-family:'Arial Narrow';-inkscape-font-specification:'Arial Narrow';text-align:center;text-anchor:middle;fill:#000000;fill-opacity:1;stroke:none;stroke-width:1px;stroke-linecap:butt;stroke-linejoin:miter;stroke-opacity:1"
       d="m 679.20984,865.1579 q -6.60938,-11.74219 -21.79688,-31.14844 -16.66406,-19.54687 -17.08593,-23.55469 -2.74219,-5.97656 -2.74219,-11.60156 v -2.8125 q 0,-11.74219 11.39062,-18.49219 3.72657,-1.54687 8.22657,-1.54687 10.82812,0 17.50781,15.53906 h 2.95312 v -0.84375 q 0,-19.89844 -5.83593,-30.44531 h 15.11718 v 0.42187 q -5.97656,10.61719 -5.97656,30.65625 l 0.21094,0.21094 h 2.67187 l 3.30469,-6.1875 q 5.97656,-9.35156 14.90625,-9.35156 13.14844,0 18.49219,14.69531 l 0.63281,5.13281 v 3.23438 q 0,12.86719 -13.14844,27.14062 -22.14843,27.14063 -28.40625,38.74219 l -0.21093,0.21094 z" />
    <path
       style="opacity:0.77520004;fill:none;fill-opacity:1;stroke:#000000;stroke-width:8.5;stroke-linecap:square;stroke-linejoin:miter;stroke-miterlimit:4;stroke-dasharray:none;stroke-opacity:1"
       d="M 117.14288,92.362167 H 625.71432 V 955.21928 H 117.14288 Z"
       id="rect3077" />
    <path
       sodipodi:nodetypes="ccscccc"
       id="path3918"
       d="M 309.89796,316.21927 L 438.82653,304.07641 C 448.85157,306.15365 439.57428,321.15705 448.22049,324.68528 C 538.64583,361.58486 576.77443,459.37246 620.39287,510.09943 L 122.46938,510.21927 C 146.21086,403.46884 219.14627,408.24124 309.89796,344.7907 L 309.89796,316.21927 z"
       style="fill:#000000;fill-opacity:1;fill-rule:nonzero;stroke:#000000;stroke-width:1;stroke-linecap:butt;stroke-linejoin:miter;marker:none;marker-start:none;marker-mid:none;marker-end:none;stroke-miterlimit:4;stroke-dasharray:none;stroke-dashoffset:0;stroke-opacity:1;visibility:visible;display:inline;overflow:visible;enable-background:accumulate" />
    <path
       inkscape:connector-curvature="0"
       id="path967"
       style="font-style:normal;font-weight:normal;font-size:250px;line-height:1.25;font-family:Arial;text-align:center;text-anchor:middle;fill:#000000;fill-opacity:1;stroke:none;stroke-width:1px;stroke-linecap:butt;stroke-linejoin:miter;stroke-opacity:1"
       d="m 207.14441,114.65643 q 3.17383,13.1836 9.76562,23.55957 6.5918,10.37598 23.4375,25.75684 16.96778,15.25879 21.48438,23.4375 4.5166,8.17871 4.5166,16.60156 0,11.71875 -7.8125,19.53125 -7.8125,7.8125 -19.04297,7.8125 -9.52148,0 -17.33398,-5.85937 -7.69043,-5.98145 -13.67188,-17.33399 0.12207,17.94434 4.63867,28.56446 4.63868,10.49804 14.64844,16.60156 10.13184,5.98144 26.85547,7.08008 l 0.85449,4.5166 H 158.6825 l 0.97656,-4.5166 q 22.46094,0 34.79004,-13.06153 12.45117,-13.18359 11.96289,-39.18457 -5.49317,11.59668 -13.67188,17.45606 -8.05664,5.7373 -18.31054,5.7373 -10.98633,0 -18.9209,-7.93457 -7.8125,-7.93457 -7.8125,-19.04297 0,-8.91113 4.02832,-16.11328 5.49316,-10.00976 17.82226,-20.1416 12.3291,-10.13184 18.18848,-16.72363 8.91113,-10.13184 12.93945,-18.06641 4.15039,-7.93457 6.46973,-18.67676 z" />
    <path
       inkscape:connector-curvature="0"
       d="m 537.14441,924.92497 q 3.17383,-13.1836 9.76562,-23.55957 6.5918,-10.37598 23.4375,-25.75684 16.96778,-15.25879 21.48438,-23.4375 4.5166,-8.17871 4.5166,-16.60156 0,-11.71875 -7.8125,-19.53125 -7.8125,-7.8125 -19.04297,-7.8125 -9.52148,0 -17.33398,5.85937 -7.69043,5.98145 -13.67188,17.33399 0.12207,-17.94434 4.63867,-28.56446 4.63868,-10.49804 14.64844,-16.60156 10.13184,-5.98144 26.85547,-7.08008 l 0.85449,-4.5166 H 488.6825 l 0.97656,4.5166 q 22.46094,0 34.79004,13.06153 12.45117,13.18359 11.96289,39.18457 -5.49317,-11.59668 -13.67188,-17.45606 -8.05664,-5.7373 -18.31054,-5.7373 -10.98633,0 -18.9209,7.93457 -7.8125,7.93457 -7.8125,19.04297 0,8.91113 4.02832,16.11328 5.49316,10.00976 17.82226,20.1416 12.3291,10.13184 18.18848,16.72363 8.91113,10.13184 12.93945,18.06641 4.15039,7.93457 6.46973,18.67676 z"
       style="font-style:normal;font-weight:normal;font-size:250px;line-height:1.25;font-family:Arial;text-align:center;text-anchor:middle;fill:#000000;fill-opacity:1;stroke:none;stroke-width:1px;stroke-linecap:butt;stroke-linejoin:miter;stroke-opacity:1"
       id="path983" />
    <path
       inkscape:connector-curvature="0"
       style="display:inline;overflow:visible;visibility:visible;opacity:1;fill:#ddbdd0;fill-opacity:1;fill-rule:nonzero;stroke:#ddbdd0;stroke-width:1;stroke-linecap:butt;stroke-linejoin:miter;stroke-miterlimit:4;stroke-dasharray:none;stroke-dashoffset:0;stroke-opacity:1;marker:none;marker-start:none;marker-mid:none;marker-end:none;enable-background:accumulate"
       d="m 325.40167,223.00622 c -3.00753,9.27436 -4.65171,18.36153 -3.42248,26.24693 l -6.86077,21.8498 0.0584,2.84285 c -0.0445,0.33365 2.96779,3.57095 6.04854,3.90465 l -1.32381,14.20065 c -1.11164,0.76664 1.78559,1.03724 1.78559,2.29993 0,1.42087 -2.38602,2.03466 -2.38602,2.03466 1.77593,6.62785 -7.2331,13.38247 -0.78843,19.82714 4.1688,4.16879 41.29596,-0.065 41.29596,-0.065 47.99288,0 48.57143,-35 48.57143,-35 0,-40.40926 -2.5823,-66.014 -2.5823,-66.014 -2.48201,-0.0144 -18.08525,-2.82071 -34.9718,-1.10924 -18.54827,1.87988 -29.64383,4.19936 -45.42433,8.98162 z"
       id="path3867"
       sodipodi:nodetypes="ccccccccccccsc" />
    <path
       inkscape:connector-curvature="0"
       style="display:inline;overflow:visible;visibility:visible;opacity:1;fill:#ff0000;fill-opacity:1;fill-rule:nonzero;stroke:#ff0000;stroke-width:1;stroke-linecap:butt;stroke-linejoin:miter;stroke-miterlimit:4;stroke-dasharray:none;stroke-dashoffset:0;stroke-opacity:1;marker:none;marker-start:none;marker-mid:none;marker-end:none;enable-background:accumulate"
       d="m 293.68918,131.62964 23.79523,68.68627 c 104.19463,-13.73239 94.25455,-3.9311 127.79523,0 l 19.79522,-68.68627 c -43.06005,-15.41361 -99.13676,-19.54925 -171.38568,0 z"
       id="path3854"
       sodipodi:nodetypes="ccccc" />
    <path
       inkscape:connector-curvature="0"
       style="display:inline;overflow:visible;visibility:visible;opacity:1;fill:#c6c801;fill-opacity:1;fill-rule:nonzero;stroke:#000000;stroke-width:1;stroke-linecap:butt;stroke-linejoin:miter;stroke-miterlimit:4;stroke-dasharray:none;stroke-dashoffset:0;stroke-opacity:1;marker:none;marker-start:none;marker-mid:none;marker-end:none;enable-background:accumulate"
       d="m 377.98283,209.45395 9.02082,120.45622 63.6011,-9.30155 -9.29989,-97.98469 z"
       id="path3871"
       sodipodi:nodetypes="ccccc" />
    <path
       inkscape:connector-curvature="0"
       id="path3858"
       style="display:inline;overflow:visible;visibility:visible;opacity:1;fill:#000000;fill-opacity:1;fill-rule:nonzero;stroke:#000000;stroke-width:1;stroke-linecap:butt;stroke-linejoin:miter;stroke-miterlimit:4;stroke-dasharray:none;stroke-dashoffset:0;stroke-opacity:1;marker:none;marker-start:none;marker-mid:none;marker-end:none;enable-background:accumulate"
       d="m 441.27964,222.31591 4,-22 c -33.54068,-3.9311 -23.6006,-13.73239 -127.79523,0 l 8,22 c 65.30376,-10.19686 69.62764,-11.00217 115.79523,0 z"
       sodipodi:nodetypes="ccccc" />
    <path
       inkscape:connector-curvature="0"
       style="display:inline;overflow:visible;visibility:visible;opacity:1;fill:none;fill-opacity:0.70348834;fill-rule:nonzero;stroke:#000000;stroke-width:4;stroke-linecap:round;stroke-linejoin:round;stroke-miterlimit:4;stroke-dasharray:none;stroke-dashoffset:0;stroke-opacity:1;marker:none;marker-start:none;marker-mid:none;marker-end:none;enable-background:accumulate"
       d="m 328.77304,237.5561 c 8.08859,-1.16138 14.27507,0.3491 21.48614,6.17974"
       id="path3875"
       sodipodi:nodetypes="cc" />
    <path
       inkscape:connector-curvature="0"
       style="display:inline;overflow:visible;visibility:visible;opacity:1;fill:none;fill-opacity:0.70348834;fill-rule:nonzero;stroke:#000000;stroke-width:1;stroke-linecap:butt;stroke-linejoin:miter;stroke-miterlimit:4;stroke-dasharray:none;stroke-dashoffset:0;stroke-opacity:1;marker:none;marker-start:none;marker-mid:none;marker-end:none;enable-background:accumulate"
       d="m 384.45153,213.5407 10.08929,115.35714"
       id="path3902" />
    <use
       x="0"
       y="0"
       xlink:href="#path3902"
       id="use3904"
       width="747.34698"
       height="1046.2856"
       transform="translate(8.0000047,-1.0714284)" />
    <use
       x="0"
       y="0"
       xlink:href="#use3904"
       id="use3906"
       width="747.34698"
       height="1046.2856"
       transform="translate(8.0000047,-1.0714284)" />
    <use
       x="0"
       y="0"
       xlink:href="#use3906"
       id="use3908"
       transform="translate(8.0000047,-1.6428572)"
       width="747.34698"
       height="1046.2856" />
    <use
       x="0"
       y="0"
       xlink:href="#use3908"
       id="use3910"
       width="747.34698"
       height="1046.2856"
       transform="translate(8.0000047,-0.7142856)" />
    <use
       x="0"
       y="0"
       xlink:href="#use3910"
       id="use3912"
       transform="translate(8.0000047,-1.0714284)"
       width="747.34698"
       height="1046.2856" />
    <use
       x="0"
       y="0"
       xlink:href="#use3912"
       id="use3914"
       width="747.34698"
       height="1046.2856"
       transform="translate(8.0000047,-2)" />
    <path
       inkscape:connector-curvature="0"
       style="display:inline;overflow:visible;visibility:visible;opacity:1;fill:#ffffff;fill-opacity:1;fill-rule:nonzero;stroke:#000000;stroke-width:0.5;stroke-linecap:butt;stroke-linejoin:miter;stroke-miterlimit:4;stroke-dasharray:none;stroke-dashoffset:0;stroke-opacity:1;marker:none;marker-start:none;marker-mid:none;marker-end:none;enable-background:accumulate"
       d="m 334.32544,243.64262 c 4.21184,0.8881 4.63962,1.05126 8.1246,5.12634 -3.66828,1.53734 -5.01132,1.66092 -8.87234,1.3605 -7.82105,-1.30025 -5.56827,-7.36846 0.74774,-6.48684 z"
       id="path3877"
       sodipodi:nodetypes="cccc" />
    <path
       style="opacity:1;fill:#6c5353;fill-opacity:1;stroke:#000000;stroke-width:0.50000006;stroke-linecap:round;stroke-linejoin:round;stroke-miterlimit:4;stroke-dasharray:none;stroke-opacity:1"
       d="m 336.62386,246.76646 a 3.1192534,2.9081445 0 0 1 -3.11925,2.90815 3.1192534,2.9081445 0 0 1 -3.11926,-2.90815 3.1192534,2.9081445 0 0 1 3.11926,-2.90814 3.1192534,2.9081445 0 0 1 3.11925,2.90814 z"
       id="path3885" />
    <path
       style="opacity:1;fill:#000000;fill-opacity:1;stroke:#000000;stroke-width:0.5;stroke-linecap:round;stroke-linejoin:round;stroke-miterlimit:4;stroke-dasharray:none;stroke-opacity:1"
       d="m 334.07277,246.89273 a 0.75761443,0.69447988 0 0 1 -0.75761,0.69448 0.75761443,0.69447988 0 0 1 -0.75762,-0.69448 0.75761443,0.69447988 0 0 1 0.75762,-0.69448 0.75761443,0.69447988 0 0 1 0.75761,0.69448 z"
       id="path3887" />
    <path
       inkscape:connector-curvature="0"
       style="fill:none;fill-rule:evenodd;stroke:#000000;stroke-width:1.60000002;stroke-linecap:round;stroke-linejoin:miter;stroke-miterlimit:4;stroke-dasharray:none;stroke-opacity:1"
       d="m 334.72747,289.43472 c 0.1147,-0.11061 0.4181,0.74832 0.47972,0.85755 0.17537,0.31091 -0.35936,0.64875 -0.64768,0.76227 -0.61218,0.24103 -1.52779,-0.70067 -1.69871,-1.27155 -0.30784,-1.02814 0.52031,-2.0002 1.48758,-2.23186 1.56724,-0.37536 2.9966,0.88438 3.29095,2.3704 0.44305,2.23679 -1.35535,4.24781 -3.4927,4.58819 -1.11048,0.17685 -3.76655,-0.68053 -7.27265,-1.52981 -3.4485,-0.83532 -5.63456,-1.68595 -6.7735,-2.25796"
       id="path3895"
       sodipodi:nodetypes="csssssssc" />
    <use
       x="0"
       y="0"
       xlink:href="#path3918"
       id="use3954"
       transform="matrix(-1,0,0,-1,743.36733,1018.4066)"
       width="747.34698"
       height="1046.2856" />
    <path
       inkscape:connector-curvature="0"
       sodipodi:nodetypes="ccccccccccccsc"
       id="path851"
       d="m 417.96567,795.40039 c 3.00753,-9.27436 4.65171,-18.36153 3.42248,-26.24693 l 6.86077,-21.8498 -0.0584,-2.84285 c 0.0445,-0.33365 -2.96779,-3.57095 -6.04854,-3.90465 l 1.32381,-14.20065 c 1.11164,-0.76664 -1.78559,-1.03724 -1.78559,-2.29993 0,-1.42087 2.38602,-2.03466 2.38602,-2.03466 -1.77593,-6.62785 7.2331,-13.38247 0.78843,-19.82714 -4.1688,-4.16879 -41.29596,0.065 -41.29596,0.065 -47.99288,0 -48.57143,35 -48.57143,35 0,40.40926 2.5823,66.014 2.5823,66.014 2.48201,0.0144 18.08525,2.82071 34.9718,1.10924 18.54827,-1.87988 29.64383,-4.19936 45.42433,-8.98162 z"
       style="display:inline;overflow:visible;visibility:visible;opacity:1;fill:#ddbdd0;fill-opacity:1;fill-rule:nonzero;stroke:#ddbdd0;stroke-width:1;stroke-linecap:butt;stroke-linejoin:miter;stroke-miterlimit:4;stroke-dasharray:none;stroke-dashoffset:0;stroke-opacity:1;marker:none;marker-start:none;marker-mid:none;marker-end:none;enable-background:accumulate" />
    <path
       inkscape:connector-curvature="0"
       sodipodi:nodetypes="ccccc"
       id="path853"
       d="M 449.67816,886.77697 425.88293,818.0907 c -104.19463,13.73239 -94.25455,3.9311 -127.79523,0 l -19.79522,68.68627 c 43.06005,15.41361 99.13676,19.54925 171.38568,0 z"
       style="display:inline;overflow:visible;visibility:visible;opacity:1;fill:#ff0000;fill-opacity:1;fill-rule:nonzero;stroke:#ff0000;stroke-width:1;stroke-linecap:butt;stroke-linejoin:miter;stroke-miterlimit:4;stroke-dasharray:none;stroke-dashoffset:0;stroke-opacity:1;marker:none;marker-start:none;marker-mid:none;marker-end:none;enable-background:accumulate" />
    <path
       inkscape:connector-curvature="0"
       sodipodi:nodetypes="ccccc"
       id="path855"
       d="m 365.38451,808.95266 -9.02082,-120.45622 -63.6011,9.30155 9.29989,97.98469 z"
       style="display:inline;overflow:visible;visibility:visible;opacity:1;fill:#c6c801;fill-opacity:1;fill-rule:nonzero;stroke:#000000;stroke-width:1;stroke-linecap:butt;stroke-linejoin:miter;stroke-miterlimit:4;stroke-dasharray:none;stroke-dashoffset:0;stroke-opacity:1;marker:none;marker-start:none;marker-mid:none;marker-end:none;enable-background:accumulate" />
    <path
       inkscape:connector-curvature="0"
       sodipodi:nodetypes="ccccc"
       d="m 302.0877,796.09069 -4,22 c 33.54068,3.9311 23.6006,13.73239 127.79523,0 l -8,-22 c -65.30376,10.19686 -69.62764,11.00217 -115.79523,0 z"
       style="display:inline;overflow:visible;visibility:visible;opacity:1;fill:#000000;fill-opacity:1;fill-rule:nonzero;stroke:#000000;stroke-width:1;stroke-linecap:butt;stroke-linejoin:miter;stroke-miterlimit:4;stroke-dasharray:none;stroke-dashoffset:0;stroke-opacity:1;marker:none;marker-start:none;marker-mid:none;marker-end:none;enable-background:accumulate"
       id="path857" />
    <path
       inkscape:connector-curvature="0"
       sodipodi:nodetypes="cc"
       id="path859"
       d="m 414.5943,780.8505 c -8.08859,1.16138 -14.27507,-0.3491 -21.48614,-6.17974"
       style="display:inline;overflow:visible;visibility:visible;opacity:1;fill:none;fill-opacity:0.70348834;fill-rule:nonzero;stroke:#000000;stroke-width:4;stroke-linecap:round;stroke-linejoin:round;stroke-miterlimit:4;stroke-dasharray:none;stroke-dashoffset:0;stroke-opacity:1;marker:none;marker-start:none;marker-mid:none;marker-end:none;enable-background:accumulate" />
    <path
       inkscape:connector-curvature="0"
       id="path861"
       d="M 358.91581,804.86591 348.82652,689.50877"
       style="display:inline;overflow:visible;visibility:visible;opacity:1;fill:none;fill-opacity:0.70348834;fill-rule:nonzero;stroke:#000000;stroke-width:1;stroke-linecap:butt;stroke-linejoin:miter;stroke-miterlimit:4;stroke-dasharray:none;stroke-dashoffset:0;stroke-opacity:1;marker:none;marker-start:none;marker-mid:none;marker-end:none;enable-background:accumulate" />
    <use
       transform="rotate(180,367.68367,509.73901)"
       height="1046.2856"
       width="747.34698"
       id="use863"
       xlink:href="#path3902"
       y="0"
       x="0" />
    <use
       transform="rotate(180,367.68367,509.73901)"
       height="1046.2856"
       width="747.34698"
       id="use865"
       xlink:href="#use3904"
       y="0"
       x="0" />
    <use
       height="1046.2856"
       width="747.34698"
       transform="rotate(180,367.68367,510.02473)"
       id="use867"
       xlink:href="#use3906"
       y="0"
       x="0" />
    <use
       transform="rotate(180,367.68367,509.56044)"
       height="1046.2856"
       width="747.34698"
       id="use869"
       xlink:href="#use3908"
       y="0"
       x="0" />
    <use
       height="1046.2856"
       width="747.34698"
       transform="rotate(180,367.68367,509.73901)"
       id="use871"
       xlink:href="#use3910"
       y="0"
       x="0" />
    <use
       transform="rotate(180,367.68367,510.2033)"
       height="1046.2856"
       width="747.34698"
       id="use873"
       xlink:href="#use3912"
       y="0"
       x="0" />
    <path
       inkscape:connector-curvature="0"
       sodipodi:nodetypes="cccc"
       id="path875"
       d="m 409.0419,774.76398 c -4.21184,-0.8881 -4.63962,-1.05126 -8.1246,-5.12634 3.66828,-1.53734 5.01132,-1.66092 8.87234,-1.3605 7.82105,1.30025 5.56827,7.36846 -0.74774,6.48684 z"
       style="display:inline;overflow:visible;visibility:visible;opacity:1;fill:#ffffff;fill-opacity:1;fill-rule:nonzero;stroke:#000000;stroke-width:0.5;stroke-linecap:butt;stroke-linejoin:miter;stroke-miterlimit:4;stroke-dasharray:none;stroke-dashoffset:0;stroke-opacity:1;marker:none;marker-start:none;marker-mid:none;marker-end:none;enable-background:accumulate" />
    <path
       transform="scale(-1)"
       style="opacity:1;fill:#6c5353;fill-opacity:1;stroke:#000000;stroke-width:0.50000006;stroke-linecap:round;stroke-linejoin:round;stroke-miterlimit:4;stroke-dasharray:none;stroke-opacity:1"
       d="m -406.74345,-771.64014 a 3.1192534,2.9081445 0 0 1 -3.11925,2.90815 3.1192534,2.9081445 0 0 1 -3.11925,-2.90815 3.1192534,2.9081445 0 0 1 3.11925,-2.90814 3.1192534,2.9081445 0 0 1 3.11925,2.90814 z"
       id="path877" />
    <path
       transform="scale(-1)"
       style="opacity:1;fill:#000000;fill-opacity:1;stroke:#000000;stroke-width:0.5;stroke-linecap:round;stroke-linejoin:round;stroke-miterlimit:4;stroke-dasharray:none;stroke-opacity:1"
       d="m -409.29457,-771.51385 a 0.75761443,0.69447988 0 0 1 -0.75762,0.69447 0.75761443,0.69447988 0 0 1 -0.75761,-0.69447 0.75761443,0.69447988 0 0 1 0.75761,-0.69448 0.75761443,0.69447988 0 0 1 0.75762,0.69448 z"
       id="path879" />
    <path
       inkscape:connector-curvature="0"
       sodipodi:nodetypes="csssssssc"
       id="path881"
       d="m 408.63987,728.97189 c -0.1147,0.11061 -0.4181,-0.74832 -0.47972,-0.85755 -0.17537,-0.31091 0.35936,-0.64875 0.64768,-0.76227 0.61218,-0.24103 1.52779,0.70067 1.69871,1.27155 0.30784,1.02814 -0.52031,2.0002 -1.48758,2.23186 -1.56724,0.37536 -2.9966,-0.88438 -3.29095,-2.3704 -0.44305,-2.23679 1.35535,-4.24781 3.4927,-4.58819 1.11048,-0.17685 3.76655,0.68053 7.27265,1.52981 3.4485,0.83532 5.63456,1.68595 6.7735,2.25796"
       style="fill:none;fill-rule:evenodd;stroke:#000000;stroke-width:1.60000002;stroke-linecap:round;stroke-linejoin:miter;stroke-miterlimit:4;stroke-dasharray:none;stroke-opacity:1" />
    <path
       inkscape:connector-curvature="0"
       style="display:inline;overflow:visible;visibility:visible;opacity:1;fill:#c4c4c4;fill-opacity:1;fill-rule:nonzero;stroke:#000000;stroke-width:1;stroke-linecap:butt;stroke-linejoin:miter;stroke-miterlimit:4;stroke-dasharray:none;stroke-dashoffset:0;stroke-opacity:1;marker:none;marker-start:none;marker-mid:none;marker-end:none;enable-background:accumulate"
       d="m 594.39796,203.00498 -77.32085,-26.07704 v 135.7199 l 77.73554,-26.18816"
       id="path3980"
       sodipodi:nodetypes="cccc" />
    <path
       inkscape:connector-curvature="0"
       style="display:inline;overflow:visible;visibility:visible;opacity:1;fill:#808000;fill-opacity:1;fill-rule:nonzero;stroke:#000000;stroke-width:1;stroke-linecap:butt;stroke-linejoin:miter;stroke-miterlimit:4;stroke-dasharray:none;stroke-dashoffset:0;stroke-opacity:1;marker:none;marker-start:none;marker-mid:none;marker-end:none;enable-background:accumulate"
       d="m 593.24001,481.20752 c -2.0203,-6.06092 0,-279.81226 0,-279.81226 l 16.16245,-23.2335 h 12.12183 v 334.36049 z"
       id="path3978" />
    <path
       inkscape:connector-curvature="0"
       sodipodi:nodetypes="cccc"
       id="path3988"
       d="m 621.32653,178.36212 -14.64286,26.42858 v 292.32142 l 14.64286,14.82143"
       style="display:inline;overflow:visible;visibility:visible;opacity:1;fill:#000000;fill-opacity:1;fill-rule:nonzero;stroke:#000000;stroke-width:1;stroke-linecap:butt;stroke-linejoin:miter;stroke-miterlimit:4;stroke-dasharray:none;stroke-dashoffset:0;stroke-opacity:1;marker:none;marker-start:none;marker-mid:none;marker-end:none;enable-background:accumulate" />
    <path
       inkscape:connector-curvature="0"
       sodipodi:nodetypes="cccc"
       id="path885"
       d="m 148.20344,816.44523 77.32085,26.07704 v -135.7199 l -77.73554,26.18816"
       style="display:inline;overflow:visible;visibility:visible;opacity:1;fill:#c4c4c4;fill-opacity:1;fill-rule:nonzero;stroke:#000000;stroke-width:1;stroke-linecap:butt;stroke-linejoin:miter;stroke-miterlimit:4;stroke-dasharray:none;stroke-dashoffset:0;stroke-opacity:1;marker:none;marker-start:none;marker-mid:none;marker-end:none;enable-background:accumulate" />
    <path
       inkscape:connector-curvature="0"
       id="path887"
       d="m 149.36139,538.24268 c 2.0203,6.06092 0,279.81226 0,279.81226 l -16.16245,23.2335 h -12.12183 l 0,-334.36049 z"
       style="display:inline;overflow:visible;visibility:visible;opacity:1;fill:#808000;fill-opacity:1;fill-rule:nonzero;stroke:#000000;stroke-width:1;stroke-linecap:butt;stroke-linejoin:miter;stroke-miterlimit:4;stroke-dasharray:none;stroke-dashoffset:0;stroke-opacity:1;marker:none;marker-start:none;marker-mid:none;marker-end:none;enable-background:accumulate" />
    <path
       inkscape:connector-curvature="0"
       style="display:inline;overflow:visible;visibility:visible;opacity:1;fill:#000000;fill-opacity:1;fill-rule:nonzero;stroke:#000000;stroke-width:1;stroke-linecap:butt;stroke-linejoin:miter;stroke-miterlimit:4;stroke-dasharray:none;stroke-dashoffset:0;stroke-opacity:1;marker:none;marker-start:none;marker-mid:none;marker-end:none;enable-background:accumulate"
       d="m 121.27487,841.08809 14.64286,-26.42858 0,-292.32142 -14.64286,-14.82143"
       id="path889"
       sodipodi:nodetypes="cccc" />
  </g>
</svg>
