<?xml version="1.0" encoding="UTF-8" standalone="no"?>
<!-- Created with Inkscape (http://www.inkscape.org/) -->

<svg
   xmlns:dc="http://purl.org/dc/elements/1.1/"
   xmlns:cc="http://creativecommons.org/ns#"
   xmlns:rdf="http://www.w3.org/1999/02/22-rdf-syntax-ns#"
   xmlns:svg="http://www.w3.org/2000/svg"
   xmlns="http://www.w3.org/2000/svg"
   xmlns:xlink="http://www.w3.org/1999/xlink"
   xmlns:sodipodi="http://sodipodi.sourceforge.net/DTD/sodipodi-0.dtd"
   xmlns:inkscape="http://www.inkscape.org/namespaces/inkscape"
   width="747.34698"
   height="1046.2856"
   id="svg2"
   sodipodi:version="0.32"
   inkscape:version="0.92.4 (5da689c313, 2019-01-14)"
   version="1.0"
   sodipodi:docname="Cards-K-Diamond.svg"
   inkscape:output_extension="org.inkscape.output.svg.inkscape">
  <defs
     id="defs4">
    <inkscape:perspective
       sodipodi:type="inkscape:persp3d"
       inkscape:vp_x="0 : 526.18109 : 1"
       inkscape:vp_y="0 : 1000 : 0"
       inkscape:vp_z="744.09448 : 526.18109 : 1"
       inkscape:persp3d-origin="372.04724 : 350.78739 : 1"
       id="perspective10" />
    <inkscape:perspective
       id="perspective2390"
       inkscape:persp3d-origin="372.04724 : 350.78739 : 1"
       inkscape:vp_z="744.09448 : 526.18109 : 1"
       inkscape:vp_y="0 : 1000 : 0"
       inkscape:vp_x="0 : 526.18109 : 1"
       sodipodi:type="inkscape:persp3d" />
  </defs>
  <sodipodi:namedview
     id="base"
     pagecolor="#ffffff"
     bordercolor="#666666"
     borderopacity="1.0"
     gridtolerance="10000"
     guidetolerance="10"
     objecttolerance="10"
     inkscape:pageopacity="0.0"
     inkscape:pageshadow="2"
     inkscape:zoom="0.70710678"
     inkscape:cx="-568.45711"
     inkscape:cy="507.30391"
     inkscape:document-units="px"
     inkscape:current-layer="g2797"
     showgrid="false"
     showguides="true"
     inkscape:guide-bbox="true"
     inkscape:window-width="3840"
     inkscape:window-height="2066"
     inkscape:window-x="-11"
     inkscape:window-y="-11"
     inkscape:window-maximized="1" />
  <metadata
     id="metadata7">
    <rdf:RDF>
      <cc:Work
         rdf:about="">
        <dc:format>image/svg+xml</dc:format>
        <dc:type
           rdf:resource="http://purl.org/dc/dcmitype/StillImage" />
      </cc:Work>
    </rdf:RDF>
  </metadata>
  <g
     inkscape:label="Layer 1"
     inkscape:groupmode="layer"
     id="layer1"
     transform="translate(2.2448993,-0.6479052)">
    <path
       inkscape:connector-curvature="0"
       sodipodi:nodetypes="ccccc"
       style="display:inline;overflow:visible;visibility:visible;opacity:1;fill:#bfbfbf;fill-opacity:1;fill-rule:nonzero;stroke:#000000;stroke-width:1;stroke-linecap:butt;stroke-linejoin:miter;stroke-miterlimit:4;stroke-dasharray:none;stroke-dashoffset:0;stroke-opacity:1;marker:none;marker-start:none;marker-mid:none;marker-end:none;enable-background:accumulate"
       d="M 548.83672,369.00806 V 192.18085 l 11.67218,-29.99999 11.6722,29.99999 v 176.82721"
       id="path3994" />
    <path
       inkscape:connector-curvature="0"
       sodipodi:nodetypes="cczccczccccc"
       d="m 549.93156,377.17343 -27.25416,-5e-5 c 0,0 -8.18301,-5.05186 -8.13939,-8.65875 0.0436,-3.60689 8.5433,-8.65873 8.5433,-8.65873 l 37.42761,-4e-5 37.42761,4e-5 c 0,0 8.49962,5.05184 8.54327,8.65873 0.0436,3.60689 -8.13936,8.65875 -8.13936,8.65875 l -27.25418,5e-5 0.10618,81.52382 c 0,6.43849 -21.26086,6.08192 -21.26086,0 z"
       style="display:inline;overflow:visible;visibility:visible;fill:#bbb700;fill-opacity:1;fill-rule:nonzero;stroke:#000000;stroke-width:1;stroke-linecap:butt;stroke-linejoin:miter;stroke-miterlimit:4;stroke-dasharray:none;stroke-dashoffset:0;stroke-opacity:1;marker:none;marker-start:none;marker-mid:none;marker-end:none;enable-background:accumulate"
       id="path4168" />
    <path
       inkscape:connector-curvature="0"
       id="path872"
       d="m 186.94393,640.1271 v 176.82721 l -11.67218,29.99999 -11.6722,-29.99999 V 640.1271"
       style="display:inline;overflow:visible;visibility:visible;opacity:1;fill:#bfbfbf;fill-opacity:1;fill-rule:nonzero;stroke:#000000;stroke-width:1;stroke-linecap:butt;stroke-linejoin:miter;stroke-miterlimit:4;stroke-dasharray:none;stroke-dashoffset:0;stroke-opacity:1;marker:none;marker-start:none;marker-mid:none;marker-end:none;enable-background:accumulate"
       sodipodi:nodetypes="ccccc" />
    <path
       inkscape:connector-curvature="0"
       id="path874"
       style="display:inline;overflow:visible;visibility:visible;fill:#bbb700;fill-opacity:1;fill-rule:nonzero;stroke:#000000;stroke-width:1;stroke-linecap:butt;stroke-linejoin:miter;stroke-miterlimit:4;stroke-dasharray:none;stroke-dashoffset:0;stroke-opacity:1;marker:none;marker-start:none;marker-mid:none;marker-end:none;enable-background:accumulate"
       d="m 185.84909,631.96173 27.25416,5e-5 c 0,0 8.18301,5.05186 8.13939,8.65875 -0.0436,3.60689 -8.5433,8.65873 -8.5433,8.65873 l -37.42761,4e-5 -37.42761,-4e-5 c 0,0 -8.49962,-5.05184 -8.54327,-8.65873 -0.0436,-3.60689 8.13936,-8.65875 8.13936,-8.65875 l 27.25418,-5e-5 -0.10618,-81.52382 c 0,-6.43849 21.26086,-6.08192 21.26086,0 z"
       sodipodi:nodetypes="cczccczccccc" />
    <g
       id="g2775"
       transform="translate(-2.0407968,-11.714273)">
      <g
         id="g2797">
        <g
           aria-label="K"
           style="font-style:normal;font-weight:normal;line-height:0%;font-family:Arial;text-align:center;text-anchor:middle;fill:#ff0000;fill-opacity:1;stroke:none;stroke-width:1px;stroke-linecap:butt;stroke-linejoin:miter;stroke-opacity:1"
           id="text2396">
          <path
             d="M 19.244781,54.06749 H 33.447906 V 98.434677 L 80.557281,54.06749 h 18.28125 l -52.101562,48.9375 55.828121,56.03906 H 83.861969 L 33.447906,108.48936 v 50.55469 H 19.244781 Z"
             style="font-style:normal;font-variant:normal;font-weight:normal;font-stretch:normal;font-size:144px;line-height:1.25;font-family:'Arial Narrow';-inkscape-font-specification:'Arial Narrow';text-align:center;text-anchor:middle;fill:#ff0000"
             id="path1060" />
        </g>
        <g
           aria-label="♦"
           style="font-style:normal;font-weight:normal;line-height:0%;font-family:Arial;text-align:center;text-anchor:middle;fill:#ff0000;fill-opacity:1;stroke:none;stroke-width:1px;stroke-linecap:butt;stroke-linejoin:miter;stroke-opacity:1"
           id="text2702">
          <path
             d="m 61.080719,194.13779 35.367187,45.91406 q 4.851564,5.97656 4.851564,6.89062 l -40.218751,52.10157 q -0.84375,-0.5625 -40.359375,-52.10157 0,-0.98437 7.804687,-10.6875 z"
             style="font-style:normal;font-variant:normal;font-weight:normal;font-stretch:normal;font-size:144px;line-height:1.25;font-family:'Arial Narrow';-inkscape-font-specification:'Arial Narrow';text-align:center;text-anchor:middle;fill:#ff0000"
             id="path1063" />
        </g>
        <g
           aria-label="K"
           transform="scale(-1)"
           style="font-style:normal;font-weight:normal;line-height:0%;font-family:Arial;text-align:center;text-anchor:middle;fill:#ff0000;fill-opacity:1;stroke:none;stroke-width:1px;stroke-linecap:butt;stroke-linejoin:miter;stroke-opacity:1"
           id="text880">
          <path
             d="m -727.69403,-1016.9425 h 14.20312 v 44.36718 l 47.10938,-44.36718 h 18.28125 l -52.10156,48.9375 55.82812,56.03906 h -18.70312 l -50.41407,-50.55469 v 50.55469 h -14.20312 z"
             style="font-style:normal;font-variant:normal;font-weight:normal;font-stretch:normal;font-size:144px;line-height:1.25;font-family:'Arial Narrow';-inkscape-font-specification:'Arial Narrow';text-align:center;text-anchor:middle;fill:#ff0000"
             id="path1057" />
        </g>
        <g
           aria-label="♦"
           transform="scale(-1)"
           style="font-style:normal;font-weight:normal;line-height:0%;font-family:Arial;text-align:center;text-anchor:middle;fill:#ff0000;fill-opacity:1;stroke:none;stroke-width:1px;stroke-linecap:butt;stroke-linejoin:miter;stroke-opacity:1"
           id="text884">
          <path
             d="m -685.85809,-876.87219 35.36718,45.91406 q 4.85157,5.97656 4.85157,6.89063 l -40.21875,52.10156 q -0.84375,-0.5625 -40.35938,-52.10156 0,-0.98438 7.80469,-10.6875 z"
             style="font-style:normal;font-variant:normal;font-weight:normal;font-stretch:normal;font-size:144px;line-height:1.25;font-family:'Arial Narrow';-inkscape-font-specification:'Arial Narrow';text-align:center;text-anchor:middle;fill:#ff0000"
             id="path1054" />
        </g>
      </g>
      <path
         style="opacity:0.77520004;fill:none;fill-opacity:1;stroke:#000000;stroke-width:8.5;stroke-linecap:square;stroke-linejoin:miter;stroke-miterlimit:4;stroke-dasharray:none;stroke-opacity:1"
         d="M 119.18367,104.07644 H 627.75511 V 966.93356 H 119.18367 Z"
         id="rect3077" />
    </g>
    <g
       aria-label="♦"
       style="font-style:normal;font-weight:normal;line-height:0%;font-family:Arial;text-align:center;text-anchor:middle;fill:#ff0000;fill-opacity:1;stroke:none;stroke-width:1px;stroke-linecap:butt;stroke-linejoin:miter;stroke-opacity:1"
       id="text2941">
      <path
         d="m 190.90027,114.65643 q 10.86426,18.43262 26.7334,39.55078 18.31054,24.41407 29.54101,36.98731 -9.0332,9.52148 -29.54101,36.86523 -16.60157,22.2168 -26.61133,39.79493 -3.2959,-6.34766 -9.0332,-14.77051 -9.8877,-14.64844 -24.53614,-34.05762 -3.17383,-4.27246 -22.33886,-27.83203 12.3291,-14.03809 31.73828,-40.03906 14.40429,-19.28711 24.04785,-36.49903 z"
         style="font-size:250px;line-height:1.25"
         id="path1050" />
    </g>
    <use
       x="0"
       y="0"
       xlink:href="#text2941"
       id="use3017"
       transform="matrix(1,0,0,-1,360,1039.5814)"
       width="747.34698"
       height="1046.2856" />
    <path
       sodipodi:nodetypes="ccscccc"
       id="path3918"
       d="M 309.89796,316.21927 L 438.82653,304.07641 C 448.85157,306.15365 443.80095,316.45892 448.22049,324.68528 C 491.14583,404.58486 618.56123,481.50444 620.39287,510.09943 L 122.46938,510.21927 C 144.45962,477.74043 219.14627,408.24124 309.89796,344.7907 L 309.89796,316.21927 z"
       style="fill:#ff0000;fill-opacity:1;fill-rule:nonzero;stroke:#ff0000;stroke-width:1;stroke-linecap:butt;stroke-linejoin:miter;marker:none;marker-start:none;marker-mid:none;marker-end:none;stroke-miterlimit:4;stroke-dasharray:none;stroke-dashoffset:0;stroke-opacity:1;visibility:visible;display:inline;overflow:visible;enable-background:accumulate" />
    <path
       inkscape:connector-curvature="0"
       style="display:inline;overflow:visible;visibility:visible;opacity:1;fill:#ddbdd0;fill-opacity:1;fill-rule:nonzero;stroke:#ddbdd0;stroke-width:1;stroke-linecap:butt;stroke-linejoin:miter;stroke-miterlimit:4;stroke-dasharray:none;stroke-dashoffset:0;stroke-opacity:1;marker:none;marker-start:none;marker-mid:none;marker-end:none;enable-background:accumulate"
       d="m 325.40167,223.00622 c -3.00753,9.27436 -2.56893,18.31207 -3.42248,26.24693 0,1.79462 -6.86077,21.8498 -6.86077,21.8498 l 0.0584,2.84285 c -0.0445,0.33365 2.96779,3.57095 6.04854,3.90465 l -1.32381,14.20065 c -1.11164,0.76664 5.78559,-0.96276 5.78559,0.29993 0,1.42087 -6.38602,4.03466 -6.38602,4.03466 0,6.75605 -4.34507,16.2705 -0.78843,19.82714 4.1688,4.16879 41.29596,-0.065 41.29596,-0.065 47.99288,0 48.57143,-35 48.57143,-35 0,-40.40926 -2.5823,-66.014 -2.5823,-66.014 -2.48201,-0.0144 -18.08525,-2.82071 -34.9718,-1.10924 -18.54827,1.87988 -29.64383,4.19936 -45.42433,8.98162 z"
       id="path3867"
       sodipodi:nodetypes="ccccccccccccsc" />
    <path
       inkscape:connector-curvature="0"
       style="display:inline;overflow:visible;visibility:visible;opacity:1;fill:#b2b2b2;fill-opacity:1;fill-rule:nonzero;stroke:#000000;stroke-width:1;stroke-linecap:butt;stroke-linejoin:miter;stroke-miterlimit:4;stroke-dasharray:none;stroke-dashoffset:0;stroke-opacity:1;marker:none;marker-start:none;marker-mid:none;marker-end:none;enable-background:accumulate"
       d="m 377.98283,209.45395 9.02082,140.45622 63.6011,-13.30155 -9.29989,-113.98469 z"
       id="path3871"
       sodipodi:nodetypes="ccccc" />
    <path
       inkscape:connector-curvature="0"
       style="display:inline;overflow:visible;visibility:visible;opacity:1;fill:none;fill-opacity:0.70348834;fill-rule:nonzero;stroke:#000000;stroke-width:4;stroke-linecap:round;stroke-linejoin:round;stroke-miterlimit:4;stroke-dasharray:none;stroke-dashoffset:0;stroke-opacity:1;marker:none;marker-start:none;marker-mid:none;marker-end:none;enable-background:accumulate"
       d="m 328.77304,237.5561 c 8.08859,-1.16138 14.27507,0.3491 21.48614,6.17974"
       id="path3875"
       sodipodi:nodetypes="cc" />
    <path
       inkscape:connector-curvature="0"
       sodipodi:nodetypes="cc"
       style="display:inline;overflow:visible;visibility:visible;opacity:1;fill:none;fill-opacity:0.70348834;fill-rule:nonzero;stroke:#000000;stroke-width:1;stroke-linecap:butt;stroke-linejoin:miter;stroke-miterlimit:4;stroke-dasharray:none;stroke-dashoffset:0;stroke-opacity:1;marker:none;marker-start:none;marker-mid:none;marker-end:none;enable-background:accumulate"
       d="m 384.45153,213.5407 9.02863,134.84064"
       id="path3902" />
    <use
       x="0"
       y="0"
       xlink:href="#path3902"
       id="use3904"
       width="747.34698"
       height="1046.2856"
       transform="translate(8.0000047,-1.0714284)" />
    <use
       x="0"
       y="0"
       xlink:href="#use3904"
       id="use3906"
       width="747.34698"
       height="1046.2856"
       transform="translate(8.0000047,-1.6901465)" />
    <use
       x="0"
       y="0"
       xlink:href="#use3906"
       id="use3908"
       transform="translate(8.0000047,-1.6870519)"
       width="747.34698"
       height="1046.2856" />
    <use
       x="0"
       y="0"
       xlink:href="#use3908"
       id="use3910"
       width="747.34698"
       height="1046.2856"
       transform="translate(8.0000047,-2.051373)" />
    <use
       x="0"
       y="0"
       xlink:href="#use3910"
       id="use3912"
       transform="translate(8.0000047,-1.2482048)"
       width="747.34698"
       height="1046.2856" />
    <use
       x="0"
       y="0"
       xlink:href="#use3912"
       id="use3914"
       width="747.34698"
       height="1046.2856"
       transform="translate(8.0000047,-1.8232232)" />
    <path
       inkscape:connector-curvature="0"
       style="display:inline;overflow:visible;visibility:visible;opacity:1;fill:#ffffff;fill-opacity:1;fill-rule:nonzero;stroke:#000000;stroke-width:0.5;stroke-linecap:butt;stroke-linejoin:miter;stroke-miterlimit:4;stroke-dasharray:none;stroke-dashoffset:0;stroke-opacity:1;marker:none;marker-start:none;marker-mid:none;marker-end:none;enable-background:accumulate"
       d="m 334.32544,243.64262 c 4.21184,0.8881 4.63962,1.05126 8.1246,5.12634 -3.66828,1.53734 -5.01132,1.66092 -8.87234,1.3605 -7.82105,-1.30025 -5.56827,-7.36846 0.74774,-6.48684 z"
       id="path3877"
       sodipodi:nodetypes="cccc" />
    <path
       style="opacity:1;fill:#165044;fill-opacity:1;stroke:#000000;stroke-width:0.50000006;stroke-linecap:round;stroke-linejoin:round;stroke-miterlimit:4;stroke-dasharray:none;stroke-opacity:1"
       d="m 336.62386,246.76646 a 3.1192534,2.9081445 0 0 1 -3.11925,2.90815 3.1192534,2.9081445 0 0 1 -3.11926,-2.90815 3.1192534,2.9081445 0 0 1 3.11926,-2.90814 3.1192534,2.9081445 0 0 1 3.11925,2.90814 z"
       id="path3885" />
    <path
       style="opacity:1;fill:#000000;fill-opacity:1;stroke:#000000;stroke-width:0.5;stroke-linecap:round;stroke-linejoin:round;stroke-miterlimit:4;stroke-dasharray:none;stroke-opacity:1"
       d="m 334.07277,246.89273 a 0.75761443,0.69447988 0 0 1 -0.75761,0.69448 0.75761443,0.69447988 0 0 1 -0.75762,-0.69448 0.75761443,0.69447988 0 0 1 0.75762,-0.69448 0.75761443,0.69447988 0 0 1 0.75761,0.69448 z"
       id="path3887" />
    <path
       inkscape:connector-curvature="0"
       sodipodi:nodetypes="cc"
       id="path4045"
       d="m 317.85332,305.78177 -2.8125,6.65178"
       style="display:inline;overflow:visible;visibility:visible;opacity:1;fill:none;fill-opacity:0.70348834;fill-rule:nonzero;stroke:#5a5a5a;stroke-width:1;stroke-linecap:butt;stroke-linejoin:miter;stroke-miterlimit:4;stroke-dasharray:none;stroke-dashoffset:0;stroke-opacity:1;marker:none;marker-start:none;marker-mid:none;marker-end:none;enable-background:accumulate" />
    <use
       height="1046.2856"
       width="747.34698"
       transform="translate(2)"
       id="use4061"
       xlink:href="#path4045"
       y="0"
       x="0" />
    <use
       height="1046.2856"
       width="747.34698"
       transform="translate(2)"
       id="use4063"
       xlink:href="#use4061"
       y="0"
       x="0" />
    <use
       height="1046.2856"
       width="747.34698"
       transform="translate(2)"
       id="use4065"
       xlink:href="#use4063"
       y="0"
       x="0" />
    <use
       height="1046.2856"
       width="747.34698"
       transform="translate(2)"
       id="use4067"
       xlink:href="#use4065"
       y="0"
       x="0" />
    <use
       height="1046.2856"
       width="747.34698"
       transform="translate(2)"
       id="use4069"
       xlink:href="#use4067"
       y="0"
       x="0" />
    <use
       height="1046.2856"
       width="747.34698"
       transform="translate(2)"
       id="use4071"
       xlink:href="#use4069"
       y="0"
       x="0" />
    <use
       height="1046.2856"
       width="747.34698"
       transform="translate(2)"
       id="use4073"
       xlink:href="#use4071"
       y="0"
       x="0" />
    <use
       height="1046.2856"
       width="747.34698"
       transform="translate(2)"
       id="use4075"
       xlink:href="#use4073"
       y="0"
       x="0" />
    <use
       height="1046.2856"
       width="747.34698"
       transform="translate(2.1785714)"
       id="use4077"
       xlink:href="#use4075"
       y="0"
       x="0" />
    <use
       height="1046.2856"
       width="747.34698"
       transform="translate(0.8035714,7.2857143)"
       id="use4121"
       xlink:href="#path4045"
       y="0"
       x="0" />
    <use
       height="1046.2856"
       width="747.34698"
       transform="translate(2)"
       id="use4123"
       xlink:href="#use4121"
       y="0"
       x="0" />
    <use
       height="1046.2856"
       width="747.34698"
       transform="translate(2)"
       id="use4125"
       xlink:href="#use4123"
       y="0"
       x="0" />
    <use
       height="1046.2856"
       width="747.34698"
       transform="translate(2)"
       id="use4127"
       xlink:href="#use4125"
       y="0"
       x="0" />
    <use
       height="1046.2856"
       width="747.34698"
       transform="translate(2)"
       id="use4129"
       xlink:href="#use4127"
       y="0"
       x="0" />
    <use
       height="1046.2856"
       width="747.34698"
       transform="translate(2)"
       id="use4131"
       xlink:href="#use4129"
       y="0"
       x="0" />
    <use
       height="1046.2856"
       width="747.34698"
       transform="translate(2)"
       id="use4133"
       xlink:href="#use4131"
       y="0"
       x="0" />
    <use
       height="1046.2856"
       width="747.34698"
       transform="translate(2.0446429)"
       id="use4135"
       xlink:href="#use4133"
       y="0"
       x="0" />
    <use
       height="1046.2856"
       width="747.34698"
       transform="translate(2)"
       id="use4139"
       xlink:href="#use4135"
       y="0"
       x="0" />
    <use
       height="1046.2856"
       width="747.34698"
       transform="translate(2)"
       id="use4141"
       xlink:href="#use4139"
       y="0"
       x="0" />
    <use
       height="1046.2856"
       width="747.34698"
       transform="translate(2)"
       id="use4143"
       xlink:href="#use4141"
       y="0"
       x="0" />
    <path
       inkscape:connector-curvature="0"
       sodipodi:nodetypes="cssssssc"
       id="path4157"
       d="m 336.33933,288.79741 c 0.11998,-0.0949 0.27826,0.0336 0.32689,0.14373 0.13842,0.31354 -0.14932,0.62647 -0.43548,0.7079 -0.60758,0.1729 -1.14906,-0.3624 -1.25885,-0.92395 -0.19772,-1.01132 0.6848,-1.86251 1.63082,-1.99316 1.5328,-0.21167 2.78049,1.12616 2.92238,2.57375 0.21357,2.17895 -1.69464,3.91481 -3.76784,4.05671 -2.0146,0.13789 -9.42535,-2.3369 -11.75215,-3.39313"
       style="fill:none;fill-rule:evenodd;stroke:#484848;stroke-width:1px;stroke-linecap:round;stroke-linejoin:miter;stroke-opacity:1" />
    <path
       inkscape:connector-curvature="0"
       id="path4368"
       d="m 320.7551,225.93356 126,15.5 2,-42 -10.16987,-37.95448 -19.93478,34.52803 -9.73926,-36.34743 -18.73053,32.44223 -9.27396,-34.6109 -18.15292,31.44179 -8.81911,-32.91338 -19.78816,34.27409 v -34.85995 l -8.37911,31.27124 z"
       style="display:inline;overflow:visible;visibility:visible;opacity:1;fill:#bbb700;fill-opacity:1;fill-rule:nonzero;stroke:#000000;stroke-width:1;stroke-linecap:butt;stroke-linejoin:round;stroke-miterlimit:4;stroke-dasharray:none;stroke-dashoffset:0;stroke-opacity:1;marker:none;marker-start:none;marker-mid:none;marker-end:none;enable-background:accumulate" />
    <use
       x="0"
       y="0"
       xlink:href="#path3918"
       id="use3954"
       transform="matrix(-1,0,0,-1,743.36733,1018.4066)"
       width="747.34698"
       height="1046.2856" />
    <path
       inkscape:connector-curvature="0"
       sodipodi:nodetypes="ccccccccccccsc"
       id="path888"
       d="m 417.96567,795.40039 c 3.00753,-9.27436 2.56893,-18.31207 3.42248,-26.24693 0,-1.79462 6.86077,-21.8498 6.86077,-21.8498 l -0.0584,-2.84285 c 0.0445,-0.33365 -2.96779,-3.57095 -6.04854,-3.90465 l 1.32381,-14.20065 c 1.11164,-0.76664 -5.78559,0.96276 -5.78559,-0.29993 0,-1.42087 6.38602,-4.03466 6.38602,-4.03466 0,-6.75605 4.34507,-16.2705 0.78843,-19.82714 -4.1688,-4.16879 -41.29596,0.065 -41.29596,0.065 -47.99288,0 -48.57143,35 -48.57143,35 0,40.40926 2.5823,66.014 2.5823,66.014 2.48201,0.0144 18.08525,2.82071 34.9718,1.10924 18.54827,-1.87988 29.64383,-4.19936 45.42433,-8.98162 z"
       style="display:inline;overflow:visible;visibility:visible;opacity:1;fill:#ddbdd0;fill-opacity:1;fill-rule:nonzero;stroke:#ddbdd0;stroke-width:1;stroke-linecap:butt;stroke-linejoin:miter;stroke-miterlimit:4;stroke-dasharray:none;stroke-dashoffset:0;stroke-opacity:1;marker:none;marker-start:none;marker-mid:none;marker-end:none;enable-background:accumulate" />
    <path
       inkscape:connector-curvature="0"
       sodipodi:nodetypes="ccccc"
       id="path890"
       d="m 365.38451,808.95266 -9.02082,-140.45622 -63.6011,13.30155 9.29989,113.98469 z"
       style="display:inline;overflow:visible;visibility:visible;opacity:1;fill:#b2b2b2;fill-opacity:1;fill-rule:nonzero;stroke:#000000;stroke-width:1;stroke-linecap:butt;stroke-linejoin:miter;stroke-miterlimit:4;stroke-dasharray:none;stroke-dashoffset:0;stroke-opacity:1;marker:none;marker-start:none;marker-mid:none;marker-end:none;enable-background:accumulate" />
    <path
       inkscape:connector-curvature="0"
       sodipodi:nodetypes="cc"
       id="path892"
       d="m 414.5943,780.8505 c -8.08859,1.16138 -14.27507,-0.3491 -21.48614,-6.17974"
       style="display:inline;overflow:visible;visibility:visible;opacity:1;fill:none;fill-opacity:0.70348834;fill-rule:nonzero;stroke:#000000;stroke-width:4;stroke-linecap:round;stroke-linejoin:round;stroke-miterlimit:4;stroke-dasharray:none;stroke-dashoffset:0;stroke-opacity:1;marker:none;marker-start:none;marker-mid:none;marker-end:none;enable-background:accumulate" />
    <path
       inkscape:connector-curvature="0"
       id="path894"
       d="M 358.91581,804.86591 349.88718,670.02527"
       style="display:inline;overflow:visible;visibility:visible;opacity:1;fill:none;fill-opacity:0.70348834;fill-rule:nonzero;stroke:#000000;stroke-width:1;stroke-linecap:butt;stroke-linejoin:miter;stroke-miterlimit:4;stroke-dasharray:none;stroke-dashoffset:0;stroke-opacity:1;marker:none;marker-start:none;marker-mid:none;marker-end:none;enable-background:accumulate"
       sodipodi:nodetypes="cc" />
    <use
       transform="rotate(180,367.68367,509.73901)"
       height="1046.2856"
       width="747.34698"
       id="use896"
       xlink:href="#path3902"
       y="0"
       x="0" />
    <use
       transform="rotate(180,367.68367,510.04837)"
       height="1046.2856"
       width="747.34698"
       id="use898"
       xlink:href="#use3904"
       y="0"
       x="0" />
    <use
       height="1046.2856"
       width="747.34698"
       transform="rotate(180,367.68367,510.04683)"
       id="use900"
       xlink:href="#use3906"
       y="0"
       x="0" />
    <use
       transform="rotate(180,367.68367,510.22899)"
       height="1046.2856"
       width="747.34698"
       id="use902"
       xlink:href="#use3908"
       y="0"
       x="0" />
    <use
       height="1046.2856"
       width="747.34698"
       transform="rotate(180,367.68367,509.8274)"
       id="use904"
       xlink:href="#use3910"
       y="0"
       x="0" />
    <use
       transform="rotate(180,367.68367,510.11491)"
       height="1046.2856"
       width="747.34698"
       id="use906"
       xlink:href="#use3912"
       y="0"
       x="0" />
    <path
       inkscape:connector-curvature="0"
       sodipodi:nodetypes="cccc"
       id="path908"
       d="m 409.0419,774.76398 c -4.21184,-0.8881 -4.63962,-1.05126 -8.1246,-5.12634 3.66828,-1.53734 5.01132,-1.66092 8.87234,-1.3605 7.82105,1.30025 5.56827,7.36846 -0.74774,6.48684 z"
       style="display:inline;overflow:visible;visibility:visible;opacity:1;fill:#ffffff;fill-opacity:1;fill-rule:nonzero;stroke:#000000;stroke-width:0.5;stroke-linecap:butt;stroke-linejoin:miter;stroke-miterlimit:4;stroke-dasharray:none;stroke-dashoffset:0;stroke-opacity:1;marker:none;marker-start:none;marker-mid:none;marker-end:none;enable-background:accumulate" />
    <path
       transform="scale(-1)"
       style="opacity:1;fill:#165044;fill-opacity:1;stroke:#000000;stroke-width:0.50000006;stroke-linecap:round;stroke-linejoin:round;stroke-miterlimit:4;stroke-dasharray:none;stroke-opacity:1"
       d="m -406.74345,-771.64014 a 3.1192534,2.9081445 0 0 1 -3.11925,2.90815 3.1192534,2.9081445 0 0 1 -3.11925,-2.90815 3.1192534,2.9081445 0 0 1 3.11925,-2.90814 3.1192534,2.9081445 0 0 1 3.11925,2.90814 z"
       id="path910" />
    <path
       transform="scale(-1)"
       style="opacity:1;fill:#000000;fill-opacity:1;stroke:#000000;stroke-width:0.5;stroke-linecap:round;stroke-linejoin:round;stroke-miterlimit:4;stroke-dasharray:none;stroke-opacity:1"
       d="m -409.29457,-771.51385 a 0.75761443,0.69447988 0 0 1 -0.75762,0.69447 0.75761443,0.69447988 0 0 1 -0.75761,-0.69447 0.75761443,0.69447988 0 0 1 0.75761,-0.69448 0.75761443,0.69447988 0 0 1 0.75762,0.69448 z"
       id="path912" />
    <path
       inkscape:connector-curvature="0"
       style="display:inline;overflow:visible;visibility:visible;opacity:1;fill:none;fill-opacity:0.70348834;fill-rule:nonzero;stroke:#5a5a5a;stroke-width:1;stroke-linecap:butt;stroke-linejoin:miter;stroke-miterlimit:4;stroke-dasharray:none;stroke-dashoffset:0;stroke-opacity:1;marker:none;marker-start:none;marker-mid:none;marker-end:none;enable-background:accumulate"
       d="m 425.51402,712.62483 2.8125,-6.65178"
       id="path914"
       sodipodi:nodetypes="cc" />
    <use
       x="0"
       y="0"
       xlink:href="#path4045"
       id="use916"
       transform="rotate(180,370.68367,509.2033)"
       width="747.34698"
       height="1046.2856" />
    <use
       x="0"
       y="0"
       xlink:href="#use4061"
       id="use918"
       transform="rotate(180,370.68367,509.2033)"
       width="747.34698"
       height="1046.2856" />
    <use
       x="0"
       y="0"
       xlink:href="#use4063"
       id="use920"
       transform="rotate(180,370.68367,509.2033)"
       width="747.34698"
       height="1046.2856" />
    <use
       x="0"
       y="0"
       xlink:href="#use4065"
       id="use922"
       transform="rotate(180,370.68367,509.2033)"
       width="747.34698"
       height="1046.2856" />
    <use
       x="0"
       y="0"
       xlink:href="#use4067"
       id="use924"
       transform="rotate(180,370.68367,509.2033)"
       width="747.34698"
       height="1046.2856" />
    <use
       x="0"
       y="0"
       xlink:href="#use4069"
       id="use926"
       transform="rotate(180,370.68367,509.2033)"
       width="747.34698"
       height="1046.2856" />
    <use
       x="0"
       y="0"
       xlink:href="#use4071"
       id="use928"
       transform="rotate(180,370.68367,509.2033)"
       width="747.34698"
       height="1046.2856" />
    <use
       x="0"
       y="0"
       xlink:href="#use4073"
       id="use930"
       transform="rotate(180,370.68367,509.2033)"
       width="747.34698"
       height="1046.2856" />
    <use
       x="0"
       y="0"
       xlink:href="#use4075"
       id="use932"
       transform="rotate(180,370.59438,509.2033)"
       width="747.34698"
       height="1046.2856" />
    <use
       x="0"
       y="0"
       xlink:href="#path4045"
       id="use934"
       transform="rotate(180,371.28188,505.56044)"
       width="747.34698"
       height="1046.2856" />
    <use
       x="0"
       y="0"
       xlink:href="#use4121"
       id="use936"
       transform="rotate(180,370.68367,509.2033)"
       width="747.34698"
       height="1046.2856" />
    <use
       x="0"
       y="0"
       xlink:href="#use4123"
       id="use938"
       transform="rotate(180,370.68367,509.2033)"
       width="747.34698"
       height="1046.2856" />
    <use
       x="0"
       y="0"
       xlink:href="#use4125"
       id="use940"
       transform="rotate(180,370.68367,509.2033)"
       width="747.34698"
       height="1046.2856" />
    <use
       x="0"
       y="0"
       xlink:href="#use4127"
       id="use942"
       transform="rotate(180,370.68367,509.2033)"
       width="747.34698"
       height="1046.2856" />
    <use
       x="0"
       y="0"
       xlink:href="#use4129"
       id="use944"
       transform="rotate(180,370.68367,509.2033)"
       width="747.34698"
       height="1046.2856" />
    <use
       x="0"
       y="0"
       xlink:href="#use4131"
       id="use946"
       transform="rotate(180,370.68367,509.2033)"
       width="747.34698"
       height="1046.2856" />
    <use
       x="0"
       y="0"
       xlink:href="#use4133"
       id="use948"
       transform="rotate(180,370.66135,509.2033)"
       width="747.34698"
       height="1046.2856" />
    <use
       x="0"
       y="0"
       xlink:href="#use4135"
       id="use950"
       transform="rotate(180,370.68367,509.2033)"
       width="747.34698"
       height="1046.2856" />
    <use
       x="0"
       y="0"
       xlink:href="#use4139"
       id="use952"
       transform="rotate(180,370.68367,509.2033)"
       width="747.34698"
       height="1046.2856" />
    <use
       x="0"
       y="0"
       xlink:href="#use4141"
       id="use954"
       transform="rotate(180,370.68367,509.2033)"
       width="747.34698"
       height="1046.2856" />
    <path
       inkscape:connector-curvature="0"
       style="fill:none;fill-rule:evenodd;stroke:#484848;stroke-width:1px;stroke-linecap:round;stroke-linejoin:miter;stroke-opacity:1"
       d="m 407.02802,729.60918 c -0.11998,0.0949 -0.27826,-0.0336 -0.32689,-0.14373 -0.13842,-0.31354 0.14932,-0.62647 0.43548,-0.7079 0.60758,-0.1729 1.14906,0.3624 1.25885,0.92395 0.19772,1.01132 -0.6848,1.86251 -1.63082,1.99316 -1.5328,0.21167 -2.78049,-1.12616 -2.92238,-2.57375 -0.21357,-2.17895 1.69464,-3.91481 3.76784,-4.05671 2.0146,-0.13789 9.42535,2.3369 11.75215,3.39313"
       id="path956"
       sodipodi:nodetypes="cssssssc" />
    <path
       inkscape:connector-curvature="0"
       style="display:inline;overflow:visible;visibility:visible;opacity:1;fill:#bbb700;fill-opacity:1;fill-rule:nonzero;stroke:#000000;stroke-width:1;stroke-linecap:butt;stroke-linejoin:round;stroke-miterlimit:4;stroke-dasharray:none;stroke-dashoffset:0;stroke-opacity:1;marker:none;marker-start:none;marker-mid:none;marker-end:none;enable-background:accumulate"
       d="m 422.61224,792.47305 -126,-15.5 -2,42 10.16987,37.95448 19.93478,-34.52803 9.73926,36.34743 18.73053,-32.44223 9.27396,34.6109 18.15292,-31.44179 8.81911,32.91338 19.78816,-34.27409 v 34.85995 l 8.37911,-31.27124 z"
       id="path958" />
    <path
       style="opacity:1;fill:#727272;fill-opacity:1;fill-rule:nonzero;stroke:none;stroke-width:1;stroke-linecap:butt;stroke-linejoin:miter;marker:none;stroke-miterlimit:4;stroke-dasharray:none;stroke-dashoffset:0;stroke-opacity:1;visibility:visible;display:inline;overflow:visible;enable-background:accumulate"
       d="M 560.0051,164.80025 L 560.0051,359.36666 L 561.0051,359.36666 L 561.0051,164.80025 L 560.5051,163.55807 L 560.0051,164.80025 z"
       id="path4179"
       sodipodi:nodetypes="cccccc" />
    <use
       x="0"
       y="0"
       xlink:href="#path4179"
       id="use4188"
       transform="matrix(-1,0,0,-1,735.77682,1009.1457)"
       width="747.34698"
       height="1046.2856" />
  </g>
</svg>
