<svg xmlns="http://www.w3.org/2000/svg" xmlns:xlink="http://www.w3.org/1999/xlink" width="747.347" height="1046.286" version="1.0"><defs><linearGradient id="a"><stop offset="0"/><stop offset="1" stop-opacity="0"/></linearGradient></defs><g transform="translate(.204 -12.362)"><use height="1046.286" width="747.347" transform="rotate(180 374.423 536.934)" xlink:href="#b"/><path id="c" d="M342.857 248.14l76.707 155.425 171.522 24.923L466.97 549.47l29.3 170.828-153.414-80.654-153.413 80.654 29.299-170.828L94.629 428.488l171.521-24.923z" transform="matrix(.12216 0 0 .12201 23.54 436.533)" opacity="1" fill="#000" fill-opacity="1" stroke="#000" stroke-width="13.106" stroke-linecap="butt" stroke-linejoin="round" stroke-miterlimit="4" stroke-dasharray="none" stroke-opacity="1"/><use xlink:href="#c" width="747.347" height="1046.286" transform="rotate(180 374.423 536.613)"/><g><path d="M500.852 593.007c0 114.255-57.244 206.877-127.858 206.877-70.613 0-127.857-92.622-127.857-206.877 0-114.255 57.244-206.877 127.857-206.877 70.614 0 127.858 92.622 127.858 206.877z" fill="#fff" stroke="#000" stroke-width="1.6" stroke-linejoin="round"/><path d="M499.423 539.344v-80c-82.45-35.354-124.204-33.076-250 0v80c125.796-33.076 167.55-35.354 250 0z" style="marker:none" stroke="#000" overflow="visible"/><path style="marker:none" d="M619.423 339.344c-56.732 20.359-122.705 29.869-120 120-82.45-35.354-124.204-33.076-250 0-28.928-71.37-75.532-92.658-120-120 64.47-22.98 123.235 16.799 182.5 51.074l62.5-156.735 62.5 152.095c57.137-63.533 120.186-50.2 182.5-46.434z" stroke="#000" overflow="visible"/><path d="M466.557 642.851c0-20.755-55.209 67.126-93.563 67.126s-93.562-90.156-93.562-67.126c0 22.02 55.208 107.126 93.562 107.126s93.563-85.866 93.563-107.126z" style="marker:none" fill="none" stroke="#000" overflow="visible"/><path style="marker:none" d="M466.557 642.851c-8.081 0-55.209 89.126-93.563 89.126s-83.94-89.126-93.562-89.126" fill="none" stroke="#000" overflow="visible"/><g transform="translate(9.445 -55.375)"><path style="marker:none" d="M262.639 641.96c20.3-82.885 69.666-27.65 81.822 7.071" id="d" opacity="1" fill="none" fill-opacity=".703" fill-rule="nonzero" stroke="#000" stroke-width="8.7" stroke-linecap="round" stroke-linejoin="miter" marker-start="none" marker-mid="none" marker-end="none" stroke-miterlimit="4" stroke-dasharray="none" stroke-dashoffset="0" stroke-opacity="1" visibility="visible" display="inline" overflow="visible"/><use xlink:href="#d" transform="matrix(-1 0 0 1 727.1 0)" width="747.347" height="1046.286"/></g><g transform="translate(-.558 -55.375)"><path id="e" d="M320.014 649.03c0 6.138-4.975 11.113-11.111 11.113-6.137 0-11.112-4.975-11.112-11.112 0-6.137 4.975-11.112 11.112-11.112 6.136 0 11.111 4.975 11.111 11.112z" opacity="1" fill="#000" fill-opacity="1" stroke="#000" stroke-width="8.7" stroke-linecap="round" stroke-linejoin="round" stroke-miterlimit="4" stroke-dasharray="none" stroke-opacity="1"/><use xlink:href="#e" transform="translate(129.3)" width="747.347" height="1046.286"/></g></g></g></svg>