<?xml version="1.0" encoding="UTF-8" standalone="no"?>
<!-- Created with Inkscape (http://www.inkscape.org/) -->

<svg
   xmlns:dc="http://purl.org/dc/elements/1.1/"
   xmlns:cc="http://creativecommons.org/ns#"
   xmlns:rdf="http://www.w3.org/1999/02/22-rdf-syntax-ns#"
   xmlns:svg="http://www.w3.org/2000/svg"
   xmlns="http://www.w3.org/2000/svg"
   xmlns:sodipodi="http://sodipodi.sourceforge.net/DTD/sodipodi-0.dtd"
   xmlns:inkscape="http://www.inkscape.org/namespaces/inkscape"
   width="747.34698"
   height="1046.2856"
   id="svg2"
   sodipodi:version="0.32"
   inkscape:version="0.92.4 (5da689c313, 2019-01-14)"
   version="1.0"
   sodipodi:docname="Cards-2-Diamond.svg"
   inkscape:output_extension="org.inkscape.output.svg.inkscape">
  <defs
     id="defs4">
    <inkscape:perspective
       sodipodi:type="inkscape:persp3d"
       inkscape:vp_x="0 : 526.18109 : 1"
       inkscape:vp_y="0 : 1000 : 0"
       inkscape:vp_z="744.09448 : 526.18109 : 1"
       inkscape:persp3d-origin="372.04724 : 350.78739 : 1"
       id="perspective10" />
    <inkscape:perspective
       id="perspective2390"
       inkscape:persp3d-origin="372.04724 : 350.78739 : 1"
       inkscape:vp_z="744.09448 : 526.18109 : 1"
       inkscape:vp_y="0 : 1000 : 0"
       inkscape:vp_x="0 : 526.18109 : 1"
       sodipodi:type="inkscape:persp3d" />
  </defs>
  <sodipodi:namedview
     id="base"
     pagecolor="#ffffff"
     bordercolor="#666666"
     borderopacity="1.0"
     gridtolerance="10000"
     guidetolerance="10"
     objecttolerance="10"
     inkscape:pageopacity="0.0"
     inkscape:pageshadow="2"
     inkscape:zoom="0.35"
     inkscape:cx="-1426.4982"
     inkscape:cy="302.2662"
     inkscape:document-units="px"
     inkscape:current-layer="g2775"
     showgrid="false"
     showguides="true"
     inkscape:guide-bbox="true"
     inkscape:window-width="3840"
     inkscape:window-height="2066"
     inkscape:window-x="-11"
     inkscape:window-y="-11"
     inkscape:window-maximized="1" />
  <metadata
     id="metadata7">
    <rdf:RDF>
      <cc:Work
         rdf:about="">
        <dc:format>image/svg+xml</dc:format>
        <dc:type
           rdf:resource="http://purl.org/dc/dcmitype/StillImage" />
      </cc:Work>
    </rdf:RDF>
  </metadata>
  <g
     inkscape:label="Layer 1"
     inkscape:groupmode="layer"
     id="layer1"
     transform="translate(2.2448993,-0.6479052)">
    <g
       id="g2775"
       transform="translate(-2.0407968,-11.714273)">
      <path
         inkscape:connector-curvature="0"
         id="path2118"
         style="font-style:normal;font-variant:normal;font-weight:normal;font-stretch:normal;font-size:144px;line-height:1.25;font-family:'Arial Narrow';-inkscape-font-specification:'Arial Narrow';text-align:center;text-anchor:middle;fill:#ff0000;fill-opacity:1;stroke:none;stroke-width:1px;stroke-linecap:butt;stroke-linejoin:miter;stroke-opacity:1"
         d="m 44.54166,147.09093 h 49.570313 v 11.95312 h -66.65625 v -11.95312 q 8.085937,-8.36719 22.007812,-22.42969 13.992188,-14.13281 17.578125,-18.21094 6.820313,-7.66406 9.492188,-12.937498 2.742187,-5.34375 2.742187,-10.476562 0,-8.367188 -5.90625,-13.640625 -5.835937,-5.273438 -15.257812,-5.273438 -6.679688,0 -14.132813,2.320313 -7.382812,2.320312 -15.820312,7.03125 V 59.12999 q 8.578125,-3.445313 16.03125,-5.203125 7.453125,-1.757813 13.640625,-1.757813 16.3125,0 26.015625,8.15625 9.703125,8.15625 9.703125,21.796875 0,6.46875 -2.460938,12.304688 -2.390625,5.765625 -8.789062,13.640625 -1.757813,2.03906 -11.179688,11.8125 -9.421875,9.70312 -26.578125,27.21094 z" />
      <path
         inkscape:connector-curvature="0"
         id="path2121"
         style="font-style:normal;font-variant:normal;font-weight:normal;font-stretch:normal;font-size:144px;line-height:1.25;font-family:'Arial Narrow';-inkscape-font-specification:'Arial Narrow';text-align:center;text-anchor:middle;fill:#ff0000;fill-opacity:1;stroke:none;stroke-width:1px;stroke-linecap:butt;stroke-linejoin:miter;stroke-opacity:1"
         d="m 65.635414,194.13779 35.367186,45.91406 q 4.85156,5.97656 4.85156,6.89062 l -40.218746,52.10157 q -0.84375,-0.5625 -40.359375,-52.10157 0,-0.98437 7.804688,-10.6875 z" />
      <path
         inkscape:connector-curvature="0"
         id="path2115"
         style="font-style:normal;font-variant:normal;font-weight:normal;font-stretch:normal;font-size:144px;line-height:1.25;font-family:'Arial Narrow';-inkscape-font-specification:'Arial Narrow';text-align:center;text-anchor:middle;fill:#ff0000;fill-opacity:1;stroke:none;stroke-width:1px;stroke-linecap:butt;stroke-linejoin:miter;stroke-opacity:1"
         d="m 702.39716,923.91907 h -49.57032 v -11.95313 h 66.65625 v 11.95313 q -8.08593,8.36718 -22.00781,22.42968 -13.99219,14.13282 -17.57812,18.21094 -6.82032,7.66406 -9.49219,12.9375 -2.74219,5.34375 -2.74219,10.47656 0,8.36719 5.90625,13.64065 5.83594,5.2734 15.25781,5.2734 6.67969,0 14.13282,-2.3203 7.38281,-2.3203 15.82031,-7.03125 V 1011.88 q -8.57813,3.4453 -16.03125,5.2031 -7.45313,1.7578 -13.64063,1.7578 -16.3125,0 -26.01562,-8.1562 -9.70313,-8.1563 -9.70313,-21.79688 0,-6.46875 2.46094,-12.30469 2.39063,-5.76563 8.78906,-13.64063 1.75782,-2.03906 11.17969,-11.8125 9.42188,-9.70312 26.57813,-27.21093 z" />
      <path
         inkscape:connector-curvature="0"
         id="path2112"
         style="font-style:normal;font-variant:normal;font-weight:normal;font-stretch:normal;font-size:144px;line-height:1.25;font-family:'Arial Narrow';-inkscape-font-specification:'Arial Narrow';text-align:center;text-anchor:middle;fill:#ff0000;fill-opacity:1;stroke:none;stroke-width:1px;stroke-linecap:butt;stroke-linejoin:miter;stroke-opacity:1"
         d="m 681.30341,876.87219 -35.36719,-45.91406 q -4.85156,-5.97656 -4.85156,-6.89063 l 40.21875,-52.10156 q 0.84375,0.5625 40.35937,52.10156 0,0.98438 -7.80469,10.6875 z" />
      <path
         inkscape:connector-curvature="0"
         id="path2124"
         style="font-style:normal;font-weight:normal;font-size:250px;line-height:1.25;font-family:Arial;text-align:center;text-anchor:middle;fill:#ff0000;fill-opacity:1;stroke:none;stroke-width:1px;stroke-linecap:butt;stroke-linejoin:miter;stroke-opacity:1"
         d="m 373.22525,160.37073 q 10.86426,18.43261 26.7334,39.55078 18.31055,24.41406 29.54101,36.9873 -9.0332,9.52149 -29.54101,36.86524 -16.60156,22.21679 -26.61133,39.79492 -3.2959,-6.34766 -9.0332,-14.77051 -9.8877,-14.64844 -24.53614,-34.05762 -3.17382,-4.27246 -22.33886,-27.83203 12.3291,-14.03808 31.73828,-40.03906 14.4043,-19.28711 24.04785,-36.49902 z" />
      <path
         inkscape:connector-curvature="0"
         d="m 373.22525,910.63927 q 10.86426,-18.43261 26.7334,-39.55078 18.31055,-24.41406 29.54101,-36.9873 -9.0332,-9.52149 -29.54101,-36.86524 -16.60156,-22.21679 -26.61133,-39.79492 -3.2959,6.34766 -9.0332,14.77051 -9.8877,14.64844 -24.53614,34.05762 -3.17382,4.27246 -22.33886,27.83203 12.3291,14.03808 31.73828,40.03906 14.4043,19.28711 24.04785,36.49902 z"
         style="font-style:normal;font-weight:normal;font-size:250px;line-height:1.25;font-family:Arial;text-align:center;text-anchor:middle;fill:#ff0000;fill-opacity:1;stroke:none;stroke-width:1px;stroke-linecap:butt;stroke-linejoin:miter;stroke-opacity:1"
         id="path2127" />
    </g>
  </g>
</svg>
