<svg version="1.0" viewBox="0 0 747 1000" xmlns="http://www.w3.org/2000/svg"><path d="M65.2 55.35l-19 52h39zm-8-14h16l40 105h-15l-9.6-27h-47l-9.6 27H17zM65.2 181.35q15 0 22 16 .91 3.7 1.1 7.6 0 8.2-8.4 19l-4.2 4.2h.21q5.2-2 11-2h1.3q17 0 23 14 1.6 4.6 1.6 8.9 0 14-15 22-2.8.84-7.8 1.3-17 0-24-19h-.21v.63q0 24 5.8 32v.42h-15l-.42-.42q6-9 6-32v-.21h-.21q-7 19-24 19-13 0-21-14-1.8-4.8-1.8-8.9 0-16 17-22 4.6-.84 8.2-.84H41q6 0 12 2h.21v-.21q-5.9-5-7.9-9.8-4.2-7.7-4.2-13v-.98q0-14 15-21 5-1.3 7.7-1.3zM682.2 987.35l19-52h-39zm8 14h-16l-40-105h15l9.6 27h47l9.6-27h15zM681.2 864.35q-15 0-22-16-.91-3.7-1.1-7.6 0-8.2 8.4-19l4.2-4.2h-.21q-5.2 2-11 2h-1.3q-17 0-23-14-1.6-4.6-1.6-8.9 0-14 15-22 2.8-.84 7.8-1.3 17 0 24 19h.21v-.63q0-24-5.8-32v-.42h15l.42.42q-6 9-6 32v.21h.21q7-19 24-19 13 0 21 14 1.8 4.8 1.8 8.9 0 16-17 22-4.6.84-8.2.84h-.63q-6 0-12-2h-.21v.21q5.9 5 7.9 9.8 4.2 7.7 4.2 13v.98q0 14-15 21-5 1.3-7.7 1.3zM478.2 673.35h-207l2-8.3q40-8.5 53-17 20-12 32-37 13-24 13-52 0-3.9-.24-11-15 30-36 44t-43 14q-28 0-48-20t-20-49q0-28 18-48t41-20q15 0 40 12-10-17-13-26-2.9-8.8-2.9-19 0-28 19-47t48-19 48 19q20 19 20 46 0 22-17 46 21-9.8 25-11 6.6-2 15-2 24 0 42 19t18 47q0 29-20 49t-47 20q-15 0-32-7.3-16-7.6-28-20-8.5-9-21-31 .98 39 12 62 11 22 33 37 15 10 54 18z"/></svg>