<svg version="1.0" viewBox="0 0 747 1000" xmlns="http://www.w3.org/2000/svg"><g><path d="M43.2 134.35h50v12h-67v-12q8.1-8.4 22-22l18-18q6.8-7.7 9.5-13t2.7-10q0-8.4-5.9-14-5.8-5.3-15-5.3-6.7 0-14 2.3-7.4 2.3-16 7v-14q8.6-3.4 16-5.2 7.5-1.8 14-1.8 16 0 26 8.2t9.7 22q0 6.5-2.5 12-2.4 5.8-8.8 14-1.8 2-11 12-9.4 9.7-27 27zM66.2 181.35q6.6 12 22 31 17 20 17 24 2.7 6 2.7 12v2.8q0 12-11 18-3.7 1.5-8.2 1.5-11 0-18-16h-3v.84q0 20 5.8 30h-15v-.42q6-11 6-31l-.21-.21h-2.7l-3.3 6.2q-6 9.4-15 9.4-13 0-18-15l-.63-5.1v-3.2q0-13 13-27 22-27 28-39l.21-.21zM704.2 911.35h-50v-12h67v12q-8.1 8.4-22 22l-18 18q-6.8 7.7-9.5 13t-2.7 10q0 8.4 5.9 14 5.8 5.3 15 5.3 6.7 0 14-2.3 7.4-2.3 16-7v14q-8.6 3.4-16 5.2-7.5 1.8-14 1.8-16 0-26-8.2-9.7-8.2-9.7-22 0-6.5 2.5-12 2.4-5.8 8.8-14 1.8-2 11-12 9.4-9.7 27-27zM681.2 864.35q-6.6-12-22-31-17-20-17-24-2.7-6-2.7-12v-2.8q0-12 11-18 3.7-1.5 8.2-1.5 11 0 18 16h3v-.84q0-20-5.8-30h15v.42q-6 11-6 31l.21.21h2.7l3.3-6.2q6-9.4 15-9.4 13 0 18 15l.63 5.1v3.2q0 13-13 27-22 27-28 39l-.21.21z"/></g><path d="M374.2 147.35q3.2 13 9.8 24 6.6 10 23 26 17 15 21 23t4.5 17q0 12-7.8 20t-19 7.8q-9.5 0-17-5.9-7.7-6-14-17 .12 18 4.6 29 4.6 10 15 17 10 6 27 7.1l.85 4.5h-97l.98-4.5q22 0 35-13 12-13 12-39-5.5 12-14 17-8.1 5.7-18 5.7-11 0-19-7.9-7.8-7.9-7.8-19 0-8.9 4-16 5.5-10 18-20 12-10 18-17 8.9-10 13-18 4.2-7.9 6.5-19zM374.2 898.35q3.2-13 9.8-24 6.6-10 23-26 17-15 21-23t4.5-17q0-12-7.8-20t-19-7.8q-9.5 0-17 5.9-7.7 6-14 17 .12-18 4.6-29 4.6-10 15-17 10-6 27-7.1l.85-4.5h-97l.98 4.5q22 0 35 13 12 13 12 39-5.5-12-14-17-8.1-5.7-18-5.7-11 0-19 7.9-7.8 7.9-7.8 19 0 8.9 4 16 5.5 10 18 20 12 10 18 17 8.9 10 13 18 4.2 7.9 6.5 19z"/></svg>