<svg version="1.0" viewBox="0 0 747 1000" xmlns="http://www.w3.org/2000/svg"><g fill="red"><path d="M61.2 96.35q-10 0-16 5.4-5.8 5.4-5.8 15 0 9.5 5.8 15 5.8 5.4 16 5.4t16-5.4q5.8-5.5 5.8-15t-5.8-15q-5.8-5.4-16-5.4zm-14-6q-9.1-2.2-14-8.5-5.1-6.3-5.1-15 0-13 8.9-20 9-7.3 25-7.3t25 7.3q8.9 7.3 8.9 20 0 9-5.1 15-5.1 6.3-14 8.5 10 2.4 16 9.4 5.8 7 5.8 17 0 15-9.4 23-9.3 8.2-27 8.2-17 0-27-8.2-9.3-8.2-9.3-23 0-10 5.8-17t16-9.4zm-5.2-22q0 8.2 5.1 13 5.1 4.6 14 4.6 9.1 0 14-4.6 5.2-4.6 5.2-13t-5.2-13q-5.1-4.6-14-4.6-9.2 0-14 4.6-5.1 4.6-5.1 13zM40.2 181.35q14 0 22 17 3 6.5 3.1 10h.21q2.5-11 8.9-19 7.6-7.6 17-7.6 15 0 24 16 2.2 5.8 2.2 11 0 18-15 34l-37 45h-.42l-40-48q-12-14-12-30 0-15 14-24 5.9-3.2 12-3.2zM685.2 949.35q10 0 16-5.4 5.8-5.4 5.8-15t-5.8-15q-5.8-5.4-16-5.4t-16 5.4q-5.8 5.5-5.8 15t5.8 15q5.8 5.4 16 5.4zm14 6q9.1 2.2 14 8.5 5.1 6.3 5.1 15 0 13-8.9 20-9 7.3-25 7.3t-25-7.3q-8.9-7.3-8.9-20 0-9 5.1-15 5.1-6.3 14-8.5-10-2.4-16-9.4-5.8-7-5.8-17 0-15 9.4-23 9.3-8.2 27-8.2t27 8.2q9.3 8.2 9.3 23 0 10-5.8 17t-16 9.4zm5.2 22q0-8.2-5.1-13-5.1-4.6-14-4.6-9.1 0-14 4.6-5.2 4.6-5.2 13t5.2 13q5.1 4.6 14 4.6 9.2 0 14-4.6 5.1-4.6 5.1-13zM707.2 864.35q-14 0-22-17-3-6.5-3.1-10h-.21q-2.5 11-8.9 19-7.6 7.6-17 7.6-15 0-24-16-2.2-5.8-2.2-11 0-18 15-34l37-45h.42l40 48q12 14 12 30 0 15-14 24-5.9 3.2-12 3.2zM234.2 301.35q-3.8-14-11-27-7-13-27-39-15-20-18-25-5.6-8.5-8.2-16-2.4-7.2-2.4-15 0-14 9-23 9-9.2 22-9.2t23 9.5q7.4 7.1 12 21 4-14 11-21 10-9.8 23-9.8t22 9.2q9.2 9 9.2 22 0 11-5.4 23t-21 31q-20 25-29 42-7.2 13-11 27zM234.2 745.35q-3.8 14-11 27-7 13-27 39-15 20-18 25-5.6 8.5-8.2 16-2.4 7.2-2.4 15 0 14 9 23 9 9.2 22 9.2t23-9.5q7.4-7.1 12-21 4 14 11 21 10 9.8 23 9.8t22-9.2q9.2-9 9.2-22 0-11-5.4-23t-21-31q-20-25-29-42-7.2-13-11-27zM234.2 601.35q-3.8-14-11-27-7-13-27-39-15-20-18-25-5.6-8.5-8.2-16-2.4-7.2-2.4-15 0-14 9-23 9-9.2 22-9.2t23 9.5q7.4 7.1 12 21 4-14 11-21 10-9.8 23-9.8t22 9.2q9.2 9 9.2 22 0 11-5.4 23t-21 31q-20 25-29 42-7.2 13-11 27zM514.2 301.35q-3.8-14-11-27-7-13-27-39-15-20-18-25-5.6-8.5-8.2-16-2.4-7.2-2.4-15 0-14 9-23 9-9.2 22-9.2t23 9.5q7.4 7.1 12 21 4-14 11-21 10-9.8 23-9.8t22 9.2q9.2 9 9.2 22 0 11-5.4 23t-21 31q-20 25-29 42-7.2 13-11 27zM514.2 745.35q-3.8 14-11 27-7 13-27 39-15 20-18 25-5.6 8.5-8.2 16-2.4 7.2-2.4 15 0 14 9 23 9 9.2 22 9.2t23-9.5q7.4-7.1 12-21 4 14 11 21 10 9.8 23 9.8t22-9.2q9.2-9 9.2-22 0-11-5.4-23t-21-31q-20-25-29-42-7.2-13-11-27zM514.2 601.35q-3.8-14-11-27-7-13-27-39-15-20-18-25-5.6-8.5-8.2-16-2.4-7.2-2.4-15 0-14 9-23 9-9.2 22-9.2t23 9.5q7.4 7.1 12 21 4-14 11-21 10-9.8 23-9.8t22 9.2q9.2 9 9.2 22 0 11-5.4 23t-21 31q-20 25-29 42-7.2 13-11 27zM374.2 461.35q-3.8-14-11-27-7-13-27-39-15-20-18-25-5.6-8.5-8.2-16-2.4-7.2-2.4-15 0-14 9-23 9-9.2 22-9.2t23 9.5q7.4 7.1 12 21 4-14 11-21 10-9.8 23-9.8t22 9.2q9.2 9 9.2 22 0 11-5.4 23t-21 31q-20 25-29 42-7.2 13-11 27zM374.2 625.35q-3.8 14-11 27-7 13-27 39-15 20-18 25-5.6 8.5-8.2 16-2.4 7.2-2.4 15 0 14 9 23 9 9.2 22 9.2t23-9.5q7.4-7.1 12-21 4 14 11 21 10 9.8 23 9.8t22-9.2q9.2-9 9.2-22 0-11-5.4-23t-21-31q-20-25-29-42-7.2-13-11-27z"/></g></svg>