<?xml version="1.0" encoding="UTF-8" standalone="no"?>
<!-- Created with Inkscape (http://www.inkscape.org/) -->

<svg
   xmlns:dc="http://purl.org/dc/elements/1.1/"
   xmlns:cc="http://creativecommons.org/ns#"
   xmlns:rdf="http://www.w3.org/1999/02/22-rdf-syntax-ns#"
   xmlns:svg="http://www.w3.org/2000/svg"
   xmlns="http://www.w3.org/2000/svg"
   xmlns:sodipodi="http://sodipodi.sourceforge.net/DTD/sodipodi-0.dtd"
   xmlns:inkscape="http://www.inkscape.org/namespaces/inkscape"
   width="747.34698"
   height="1046.2856"
   id="svg2"
   sodipodi:version="0.32"
   inkscape:version="0.92.4 (5da689c313, 2019-01-14)"
   version="1.0"
   sodipodi:docname="Cards-10-Club.svg"
   inkscape:output_extension="org.inkscape.output.svg.inkscape">
  <defs
     id="defs4">
    <inkscape:perspective
       sodipodi:type="inkscape:persp3d"
       inkscape:vp_x="0 : 526.18109 : 1"
       inkscape:vp_y="0 : 1000 : 0"
       inkscape:vp_z="744.09448 : 526.18109 : 1"
       inkscape:persp3d-origin="372.04724 : 350.78739 : 1"
       id="perspective10" />
    <inkscape:perspective
       id="perspective2390"
       inkscape:persp3d-origin="372.04724 : 350.78739 : 1"
       inkscape:vp_z="744.09448 : 526.18109 : 1"
       inkscape:vp_y="0 : 1000 : 0"
       inkscape:vp_x="0 : 526.18109 : 1"
       sodipodi:type="inkscape:persp3d" />
  </defs>
  <sodipodi:namedview
     id="base"
     pagecolor="#ffffff"
     bordercolor="#666666"
     borderopacity="1.0"
     gridtolerance="10000"
     guidetolerance="10"
     objecttolerance="10"
     inkscape:pageopacity="0.0"
     inkscape:pageshadow="2"
     inkscape:zoom="0.24748738"
     inkscape:cx="-673.9683"
     inkscape:cy="578.41455"
     inkscape:document-units="px"
     inkscape:current-layer="g2797"
     showgrid="false"
     showguides="true"
     inkscape:guide-bbox="true"
     inkscape:window-width="3840"
     inkscape:window-height="2066"
     inkscape:window-x="-11"
     inkscape:window-y="-11"
     inkscape:window-maximized="1" />
  <metadata
     id="metadata7">
    <rdf:RDF>
      <cc:Work
         rdf:about="">
        <dc:format>image/svg+xml</dc:format>
        <dc:type
           rdf:resource="http://purl.org/dc/dcmitype/StillImage" />
      </cc:Work>
    </rdf:RDF>
  </metadata>
  <g
     inkscape:label="Layer 1"
     inkscape:groupmode="layer"
     id="layer1"
     transform="translate(2.2448993,-0.6479052)">
    <g
       id="g2775"
       transform="translate(-2.0407968,-11.714273)">
      <g
         id="g2797">
        <path
           inkscape:connector-curvature="0"
           id="path914"
           style="font-style:normal;font-variant:normal;font-weight:normal;font-stretch:normal;font-size:144px;line-height:1.25;font-family:'Arial Narrow';-inkscape-font-specification:'Arial Narrow';text-align:center;text-anchor:middle;fill:#000000;fill-opacity:1;stroke:none;stroke-width:1px;stroke-linecap:butt;stroke-linejoin:miter;stroke-opacity:1"
           d="M 5.60611,147.09093 H 28.809235 V 67.00499 l -25.242188,5.0625 v -12.9375 l 25.101563,-5.0625 h 14.203125 v 93.02344 H 66.07486 v 11.95312 H 5.60611 Z" />
        <path
           inkscape:connector-curvature="0"
           id="path916"
           style="font-style:normal;font-variant:normal;font-weight:normal;font-stretch:normal;font-size:144px;line-height:1.25;font-family:'Arial Narrow';-inkscape-font-specification:'Arial Narrow';text-align:center;text-anchor:middle;fill:#000000;fill-opacity:1;stroke:none;stroke-width:1px;stroke-linecap:butt;stroke-linejoin:miter;stroke-opacity:1"
           d="m 125.20767,63.419052 q -10.96875,0 -16.52343,10.828125 -5.48438,10.757813 -5.48438,32.414063 0,21.58594 5.48438,32.41406 5.55468,10.75781 16.52343,10.75781 11.03906,0 16.52344,-10.75781 5.55469,-10.82812 5.55469,-32.41406 0,-21.65625 -5.55469,-32.414063 -5.48438,-10.828125 -16.52344,-10.828125 z m 0,-11.25 q 17.64844,0 26.92969,13.992188 9.35156,13.921875 9.35156,40.5 0,26.50781 -9.35156,40.5 -9.28125,13.92187 -26.92969,13.92187 -17.64843,0 -26.999998,-13.92187 -9.28125,-13.99219 -9.28125,-40.5 0,-26.578125 9.28125,-40.5 9.351568,-13.992188 26.999998,-13.992188 z" />
        <path
           inkscape:connector-curvature="0"
           id="path919"
           style="font-style:normal;font-variant:normal;font-weight:normal;font-stretch:normal;font-size:144px;line-height:1.25;font-family:'Arial Narrow';-inkscape-font-specification:'Arial Narrow';text-align:center;text-anchor:middle;fill:#000000;fill-opacity:1;stroke:none;stroke-width:1px;stroke-linecap:butt;stroke-linejoin:miter;stroke-opacity:1"
           d="m 64.879547,194.13779 q 15.046875,0 22.148438,15.96093 0.914062,3.65625 1.125,7.59375 0,8.22657 -8.4375,19.47657 l -4.21875,4.21875 h 0.210937 q 5.203125,-1.96875 11.109375,-1.96875 h 1.335938 q 16.734375,0 23.484375,14.20312 1.61719,4.64063 1.61719,8.85938 0,14.41406 -14.695315,21.72656 -2.8125,0.84375 -7.804688,1.26562 -17.015625,0 -24.117187,-19.26562 h -0.210938 v 0.63281 q 0,24.11719 5.765625,31.78125 v 0.42188 h -14.625 l -0.421875,-0.42188 q 5.976563,-9 5.976563,-32.41406 v -0.21094 h -0.210938 q -7.03125,19.47656 -24.257812,19.47656 -13.429688,0 -20.601563,-14.13281 -1.757812,-4.78125 -1.757812,-8.85937 0,-16.38282 17.296875,-22.21875 4.640625,-0.84375 8.226562,-0.84375 h 0.632813 q 6.046875,0 11.53125,1.96875 h 0.210937 v -0.21094 q -5.90625,-4.99219 -7.945312,-9.84375 -4.21875,-7.73438 -4.21875,-13.42969 v -0.98437 q 0,-14.13282 15.117187,-21.44532 4.992188,-1.33593 7.734375,-1.33593 z" />
        <path
           inkscape:connector-curvature="0"
           id="path909"
           style="font-style:normal;font-variant:normal;font-weight:normal;font-stretch:normal;font-size:144px;line-height:1.25;font-family:'Arial Narrow';-inkscape-font-specification:'Arial Narrow';text-align:center;text-anchor:middle;fill:#000000;fill-opacity:1;stroke:none;stroke-width:1px;stroke-linecap:butt;stroke-linejoin:miter;stroke-opacity:1"
           d="m 741.3327,923.91907 h -23.20312 v 80.08593 l 25.24219,-5.0625 v 12.9375 l -25.10157,5.0625 h -14.20312 v -93.02343 h -23.20313 v -11.95313 h 60.46875 z" />
        <path
           inkscape:connector-curvature="0"
           id="path911"
           style="font-style:normal;font-variant:normal;font-weight:normal;font-stretch:normal;font-size:144px;line-height:1.25;font-family:'Arial Narrow';-inkscape-font-specification:'Arial Narrow';text-align:center;text-anchor:middle;fill:#000000;fill-opacity:1;stroke:none;stroke-width:1px;stroke-linecap:butt;stroke-linejoin:miter;stroke-opacity:1"
           d="m 621.73114,1007.5909 q 10.96875,0 16.52344,-10.82808 5.48437,-10.75782 5.48437,-32.41407 0,-21.58593 -5.48437,-32.41406 -5.55469,-10.75781 -16.52344,-10.75781 -11.03906,0 -16.52344,10.75781 -5.55468,10.82813 -5.55468,32.41406 0,21.65625 5.55468,32.41407 5.48438,10.82808 16.52344,10.82808 z m 0,11.25 q -17.64844,0 -26.92969,-13.9921 -9.35156,-13.92192 -9.35156,-40.50005 0,-26.50781 9.35156,-40.5 9.28125,-13.92187 26.92969,-13.92187 17.64844,0 27,13.92187 9.28125,13.99219 9.28125,40.5 0,26.57813 -9.28125,40.50005 -9.35156,13.9921 -27,13.9921 z" />
        <path
           inkscape:connector-curvature="0"
           id="path906"
           style="font-style:normal;font-variant:normal;font-weight:normal;font-stretch:normal;font-size:144px;line-height:1.25;font-family:'Arial Narrow';-inkscape-font-specification:'Arial Narrow';text-align:center;text-anchor:middle;fill:#000000;fill-opacity:1;stroke:none;stroke-width:1px;stroke-linecap:butt;stroke-linejoin:miter;stroke-opacity:1"
           d="m 682.05927,876.87219 q -15.04688,0 -22.14844,-15.96094 -0.91406,-3.65625 -1.125,-7.59375 0,-8.22656 8.4375,-19.47656 l 4.21875,-4.21875 h -0.21094 q -5.20312,1.96875 -11.10937,1.96875 h -1.33594 q -16.73438,0 -23.48438,-14.20312 -1.61718,-4.64063 -1.61718,-8.85938 0,-14.41406 14.69531,-21.72656 2.8125,-0.84375 7.80469,-1.26563 17.01562,0 24.11718,19.26563 h 0.21094 v -0.63281 q 0,-24.11719 -5.76562,-31.78125 v -0.42188 h 14.625 l 0.42187,0.42188 q -5.97656,9 -5.97656,32.41406 v 0.21094 h 0.21094 q 7.03125,-19.47657 24.25781,-19.47657 13.42969,0 20.60156,14.13282 1.75781,4.78125 1.75781,8.85937 0,16.38281 -17.29687,22.21875 -4.64063,0.84375 -8.22656,0.84375 h -0.63282 q -6.04687,0 -11.53125,-1.96875 h -0.21093 v 0.21094 q 5.90625,4.99219 7.94531,9.84375 4.21875,7.73437 4.21875,13.42969 v 0.98437 q 0,14.13281 -15.11719,21.44531 -4.99219,1.33594 -7.73437,1.33594 z" />
      </g>
    </g>
    <path
       inkscape:connector-curvature="0"
       id="path900"
       style="font-style:normal;font-weight:normal;font-size:250px;line-height:1.25;font-family:Arial;text-align:center;text-anchor:middle;fill:#000000;fill-opacity:1;stroke:none;stroke-width:1px;stroke-linecap:butt;stroke-linejoin:miter;stroke-opacity:1"
       d="M 283.49158,258.92502 H 179.97595 l 0.97656,-4.15039 q 20.14161,-4.27246 26.7334,-8.42285 9.8877,-6.22559 16.11328,-18.43262 6.34766,-12.20703 6.34766,-25.75684 0,-1.95312 -0.12207,-5.61523 -7.44629,15.13672 -18.18848,22.09473 -10.62011,6.958 -21.72851,6.958 -14.16016,0 -24.04785,-9.88769 -9.8877,-9.8877 -9.8877,-24.29199 0,-14.16016 9.0332,-23.80372 9.03321,-9.76562 20.50782,-9.76562 7.32422,0 19.89746,6.22559 -5.12696,-8.54493 -6.71387,-12.81739 -1.46484,-4.39453 -1.46484,-9.39941 0,-13.91602 9.64355,-23.55957 9.64356,-9.64356 24.04785,-9.64356 14.4043,0 24.16992,9.64356 9.8877,9.64355 9.8877,22.94922 0,10.86425 -8.42285,22.82715 10.2539,-4.88282 12.3291,-5.49317 3.2959,-0.97656 7.44629,-0.97656 12.20703,0 21.11816,9.64355 9.03321,9.52149 9.03321,23.68164 0,14.64844 -9.8877,24.65821 -9.76562,9.88769 -23.55957,9.88769 -7.69043,0 -15.86914,-3.66211 -8.05664,-3.78418 -14.03809,-10.00976 -4.27246,-4.5166 -10.62011,-15.25879 0.48828,19.40918 5.85937,30.76172 5.49317,11.23047 16.72363,18.67676 7.56836,5.00488 27.22168,8.78906 z" />
    <path
       inkscape:connector-curvature="0"
       d="M 283.49158,788.65638 H 179.97595 l 0.97656,4.15039 q 20.14161,4.27246 26.7334,8.42285 9.8877,6.22559 16.11328,18.43262 6.34766,12.20703 6.34766,25.75684 0,1.95312 -0.12207,5.61523 -7.44629,-15.13672 -18.18848,-22.09473 -10.62011,-6.958 -21.72851,-6.958 -14.16016,0 -24.04785,9.88769 -9.8877,9.8877 -9.8877,24.29199 0,14.16016 9.0332,23.80372 9.03321,9.76562 20.50782,9.76562 7.32422,0 19.89746,-6.22559 -5.12696,8.54493 -6.71387,12.81739 -1.46484,4.39453 -1.46484,9.39941 0,13.91602 9.64355,23.55957 9.64356,9.64356 24.04785,9.64356 14.4043,0 24.16992,-9.64356 9.8877,-9.64355 9.8877,-22.94922 0,-10.86425 -8.42285,-22.82715 10.2539,4.88282 12.3291,5.49317 3.2959,0.97656 7.44629,0.97656 12.20703,0 21.11816,-9.64355 9.03321,-9.52149 9.03321,-23.68164 0,-14.64844 -9.8877,-24.65821 -9.76562,-9.88769 -23.55957,-9.88769 -7.69043,0 -15.86914,3.66211 -8.05664,3.78418 -14.03809,10.00976 -4.27246,4.5166 -10.62011,15.25879 0.48828,-19.40918 5.85937,-30.76172 5.49317,-11.23047 16.72363,-18.67676 7.56836,-5.00488 27.22168,-8.78906 z"
       style="font-style:normal;font-weight:normal;font-size:250px;line-height:1.25;font-family:Arial;text-align:center;text-anchor:middle;fill:#000000;fill-opacity:1;stroke:none;stroke-width:1px;stroke-linecap:butt;stroke-linejoin:miter;stroke-opacity:1"
       id="path938" />
    <path
       inkscape:connector-curvature="0"
       d="M 283.49158,478.92502 H 179.97595 l 0.97656,-4.15039 q 20.14161,-4.27246 26.7334,-8.42285 9.8877,-6.22559 16.11328,-18.43262 6.34766,-12.20703 6.34766,-25.75684 0,-1.95312 -0.12207,-5.61523 -7.44629,15.13672 -18.18848,22.09473 -10.62011,6.958 -21.72851,6.958 -14.16016,0 -24.04785,-9.88769 -9.8877,-9.8877 -9.8877,-24.29199 0,-14.16016 9.0332,-23.80372 9.03321,-9.76562 20.50782,-9.76562 7.32422,0 19.89746,6.22559 -5.12696,-8.54493 -6.71387,-12.81739 -1.46484,-4.39453 -1.46484,-9.39941 0,-13.91602 9.64355,-23.55957 9.64356,-9.64356 24.04785,-9.64356 14.4043,0 24.16992,9.64356 9.8877,9.64355 9.8877,22.94922 0,10.86425 -8.42285,22.82715 10.2539,-4.88282 12.3291,-5.49317 3.2959,-0.97656 7.44629,-0.97656 12.20703,0 21.11816,9.64355 9.03321,9.52149 9.03321,23.68164 0,14.64844 -9.8877,24.65821 -9.76562,9.88769 -23.55957,9.88769 -7.69043,0 -15.86914,-3.66211 -8.05664,-3.78418 -14.03809,-10.00976 -4.27246,-4.5166 -10.62011,-15.25879 0.48828,19.40918 5.85937,30.76172 5.49317,11.23047 16.72363,18.67676 7.56836,5.00488 27.22168,8.78906 z"
       style="font-style:normal;font-weight:normal;font-size:250px;line-height:1.25;font-family:Arial;text-align:center;text-anchor:middle;fill:#000000;fill-opacity:1;stroke:none;stroke-width:1px;stroke-linecap:butt;stroke-linejoin:miter;stroke-opacity:1"
       id="path942" />
    <path
       inkscape:connector-curvature="0"
       d="M 283.49158,568.65638 H 179.97595 l 0.97656,4.15039 q 20.14161,4.27246 26.7334,8.42285 9.8877,6.22559 16.11328,18.43262 6.34766,12.20703 6.34766,25.75684 0,1.95312 -0.12207,5.61523 -7.44629,-15.13672 -18.18848,-22.09473 -10.62011,-6.958 -21.72851,-6.958 -14.16016,0 -24.04785,9.88769 -9.8877,9.8877 -9.8877,24.29199 0,14.16016 9.0332,23.80372 9.03321,9.76562 20.50782,9.76562 7.32422,0 19.89746,-6.22559 -5.12696,8.54493 -6.71387,12.81739 -1.46484,4.39453 -1.46484,9.39941 0,13.91602 9.64355,23.55957 9.64356,9.64356 24.04785,9.64356 14.4043,0 24.16992,-9.64356 9.8877,-9.64355 9.8877,-22.94922 0,-10.86425 -8.42285,-22.82715 10.2539,4.88282 12.3291,5.49317 3.2959,0.97656 7.44629,0.97656 12.20703,0 21.11816,-9.64355 9.03321,-9.52149 9.03321,-23.68164 0,-14.64844 -9.8877,-24.65821 -9.76562,-9.88769 -23.55957,-9.88769 -7.69043,0 -15.86914,3.66211 -8.05664,3.78418 -14.03809,10.00976 -4.27246,4.5166 -10.62011,15.25879 0.48828,-19.40918 5.85937,-30.76172 5.49317,-11.23047 16.72363,-18.67676 7.56836,-5.00488 27.22168,-8.78906 z"
       style="font-style:normal;font-weight:normal;font-size:250px;line-height:1.25;font-family:Arial;text-align:center;text-anchor:middle;fill:#000000;fill-opacity:1;stroke:none;stroke-width:1px;stroke-linecap:butt;stroke-linejoin:miter;stroke-opacity:1"
       id="path926" />
    <path
       inkscape:connector-curvature="0"
       id="path897"
       style="font-style:normal;font-weight:normal;font-size:250px;line-height:1.25;font-family:Arial;text-align:center;text-anchor:middle;fill:#000000;fill-opacity:1;stroke:none;stroke-width:1px;stroke-linecap:butt;stroke-linejoin:miter;stroke-opacity:1"
       d="M 563.49158,258.92502 H 459.97595 l 0.97656,-4.15039 q 20.14161,-4.27246 26.7334,-8.42285 9.8877,-6.22559 16.11328,-18.43262 6.34766,-12.20703 6.34766,-25.75684 0,-1.95312 -0.12207,-5.61523 -7.44629,15.13672 -18.18848,22.09473 -10.62011,6.958 -21.72851,6.958 -14.16016,0 -24.04785,-9.88769 -9.8877,-9.8877 -9.8877,-24.29199 0,-14.16016 9.0332,-23.80372 9.03321,-9.76562 20.50782,-9.76562 7.32422,0 19.89746,6.22559 -5.12696,-8.54493 -6.71387,-12.81739 -1.46484,-4.39453 -1.46484,-9.39941 0,-13.91602 9.64355,-23.55957 9.64356,-9.64356 24.04785,-9.64356 14.4043,0 24.16992,9.64356 9.8877,9.64355 9.8877,22.94922 0,10.86425 -8.42285,22.82715 10.2539,-4.88282 12.3291,-5.49317 3.2959,-0.97656 7.44629,-0.97656 12.20703,0 21.11816,9.64355 9.03321,9.52149 9.03321,23.68164 0,14.64844 -9.8877,24.65821 -9.76562,9.88769 -23.55957,9.88769 -7.69043,0 -15.86914,-3.66211 -8.05664,-3.78418 -14.03809,-10.00976 -4.27246,-4.5166 -10.62011,-15.25879 0.48828,19.40918 5.85937,30.76172 5.49317,11.23047 16.72363,18.67676 7.56836,5.00488 27.22168,8.78906 z" />
    <path
       inkscape:connector-curvature="0"
       d="M 563.49158,788.65638 H 459.97595 l 0.97656,4.15039 q 20.14161,4.27246 26.7334,8.42285 9.8877,6.22559 16.11328,18.43262 6.34766,12.20703 6.34766,25.75684 0,1.95312 -0.12207,5.61523 -7.44629,-15.13672 -18.18848,-22.09473 -10.62011,-6.958 -21.72851,-6.958 -14.16016,0 -24.04785,9.88769 -9.8877,9.8877 -9.8877,24.29199 0,14.16016 9.0332,23.80372 9.03321,9.76562 20.50782,9.76562 7.32422,0 19.89746,-6.22559 -5.12696,8.54493 -6.71387,12.81739 -1.46484,4.39453 -1.46484,9.39941 0,13.91602 9.64355,23.55957 9.64356,9.64356 24.04785,9.64356 14.4043,0 24.16992,-9.64356 9.8877,-9.64355 9.8877,-22.94922 0,-10.86425 -8.42285,-22.82715 10.2539,4.88282 12.3291,5.49317 3.2959,0.97656 7.44629,0.97656 12.20703,0 21.11816,-9.64355 9.03321,-9.52149 9.03321,-23.68164 0,-14.64844 -9.8877,-24.65821 -9.76562,-9.88769 -23.55957,-9.88769 -7.69043,0 -15.86914,3.66211 -8.05664,3.78418 -14.03809,10.00976 -4.27246,4.5166 -10.62011,15.25879 0.48828,-19.40918 5.85937,-30.76172 5.49317,-11.23047 16.72363,-18.67676 7.56836,-5.00488 27.22168,-8.78906 z"
       style="font-style:normal;font-weight:normal;font-size:250px;line-height:1.25;font-family:Arial;text-align:center;text-anchor:middle;fill:#000000;fill-opacity:1;stroke:none;stroke-width:1px;stroke-linecap:butt;stroke-linejoin:miter;stroke-opacity:1"
       id="path934" />
    <path
       inkscape:connector-curvature="0"
       d="M 563.49158,478.92502 H 459.97595 l 0.97656,-4.15039 q 20.14161,-4.27246 26.7334,-8.42285 9.8877,-6.22559 16.11328,-18.43262 6.34766,-12.20703 6.34766,-25.75684 0,-1.95312 -0.12207,-5.61523 -7.44629,15.13672 -18.18848,22.09473 -10.62011,6.958 -21.72851,6.958 -14.16016,0 -24.04785,-9.88769 -9.8877,-9.8877 -9.8877,-24.29199 0,-14.16016 9.0332,-23.80372 9.03321,-9.76562 20.50782,-9.76562 7.32422,0 19.89746,6.22559 -5.12696,-8.54493 -6.71387,-12.81739 -1.46484,-4.39453 -1.46484,-9.39941 0,-13.91602 9.64355,-23.55957 9.64356,-9.64356 24.04785,-9.64356 14.4043,0 24.16992,9.64356 9.8877,9.64355 9.8877,22.94922 0,10.86425 -8.42285,22.82715 10.2539,-4.88282 12.3291,-5.49317 3.2959,-0.97656 7.44629,-0.97656 12.20703,0 21.11816,9.64355 9.03321,9.52149 9.03321,23.68164 0,14.64844 -9.8877,24.65821 -9.76562,9.88769 -23.55957,9.88769 -7.69043,0 -15.86914,-3.66211 -8.05664,-3.78418 -14.03809,-10.00976 -4.27246,-4.5166 -10.62011,-15.25879 0.48828,19.40918 5.85937,30.76172 5.49317,11.23047 16.72363,18.67676 7.56836,5.00488 27.22168,8.78906 z"
       style="font-style:normal;font-weight:normal;font-size:250px;line-height:1.25;font-family:Arial;text-align:center;text-anchor:middle;fill:#000000;fill-opacity:1;stroke:none;stroke-width:1px;stroke-linecap:butt;stroke-linejoin:miter;stroke-opacity:1"
       id="path930" />
    <path
       inkscape:connector-curvature="0"
       d="M 563.49158,568.65638 H 459.97595 l 0.97656,4.15039 q 20.14161,4.27246 26.7334,8.42285 9.8877,6.22559 16.11328,18.43262 6.34766,12.20703 6.34766,25.75684 0,1.95312 -0.12207,5.61523 -7.44629,-15.13672 -18.18848,-22.09473 -10.62011,-6.958 -21.72851,-6.958 -14.16016,0 -24.04785,9.88769 -9.8877,9.8877 -9.8877,24.29199 0,14.16016 9.0332,23.80372 9.03321,9.76562 20.50782,9.76562 7.32422,0 19.89746,-6.22559 -5.12696,8.54493 -6.71387,12.81739 -1.46484,4.39453 -1.46484,9.39941 0,13.91602 9.64355,23.55957 9.64356,9.64356 24.04785,9.64356 14.4043,0 24.16992,-9.64356 9.8877,-9.64355 9.8877,-22.94922 0,-10.86425 -8.42285,-22.82715 10.2539,4.88282 12.3291,5.49317 3.2959,0.97656 7.44629,0.97656 12.20703,0 21.11816,-9.64355 9.03321,-9.52149 9.03321,-23.68164 0,-14.64844 -9.8877,-24.65821 -9.76562,-9.88769 -23.55957,-9.88769 -7.69043,0 -15.86914,3.66211 -8.05664,3.78418 -14.03809,10.00976 -4.27246,4.5166 -10.62011,15.25879 0.48828,-19.40918 5.85937,-30.76172 5.49317,-11.23047 16.72363,-18.67676 7.56836,-5.00488 27.22168,-8.78906 z"
       style="font-style:normal;font-weight:normal;font-size:250px;line-height:1.25;font-family:Arial;text-align:center;text-anchor:middle;fill:#000000;fill-opacity:1;stroke:none;stroke-width:1px;stroke-linecap:butt;stroke-linejoin:miter;stroke-opacity:1"
       id="path922" />
    <path
       inkscape:connector-curvature="0"
       id="path903"
       style="font-style:normal;font-weight:normal;font-size:250px;line-height:1.25;font-family:Arial;text-align:center;text-anchor:middle;fill:#000000;fill-opacity:1;stroke:none;stroke-width:1px;stroke-linecap:butt;stroke-linejoin:miter;stroke-opacity:1"
       d="M 423.49158,384.92499 H 319.97595 l 0.97656,-4.15039 q 20.14161,-4.27246 26.7334,-8.42285 9.8877,-6.22559 16.11328,-18.43262 6.34766,-12.20703 6.34766,-25.75684 0,-1.95312 -0.12207,-5.61523 -7.44629,15.13672 -18.18848,22.09472 -10.62011,6.95801 -21.72851,6.95801 -14.16016,0 -24.04785,-9.88769 -9.8877,-9.8877 -9.8877,-24.292 0,-14.16015 9.0332,-23.80371 9.03321,-9.76562 20.50782,-9.76562 7.32422,0 19.89746,6.22558 -5.12696,-8.54492 -6.71387,-12.81738 -1.46484,-4.39453 -1.46484,-9.39941 0,-13.91602 9.64355,-23.55957 9.64356,-9.64356 24.04785,-9.64356 14.4043,0 24.16992,9.64356 9.8877,9.64355 9.8877,22.94922 0,10.86425 -8.42285,22.82714 10.2539,-4.88281 12.3291,-5.49316 3.2959,-0.97656 7.44629,-0.97656 12.20703,0 21.11816,9.64355 9.03321,9.52149 9.03321,23.68164 0,14.64844 -9.8877,24.65821 -9.76562,9.88769 -23.55957,9.88769 -7.69043,0 -15.86914,-3.66211 -8.05664,-3.78418 -14.03809,-10.00976 -4.27246,-4.5166 -10.62011,-15.25879 0.48828,19.40918 5.85937,30.76172 5.49317,11.23047 16.72363,18.67675 7.56836,5.00489 27.22168,8.78907 z" />
    <path
       inkscape:connector-curvature="0"
       d="M 423.49158,674.65641 H 319.97595 l 0.97656,4.15039 q 20.14161,4.27246 26.7334,8.42285 9.8877,6.22559 16.11328,18.43262 6.34766,12.20703 6.34766,25.75684 0,1.95312 -0.12207,5.61523 -7.44629,-15.13672 -18.18848,-22.09472 -10.62011,-6.95801 -21.72851,-6.95801 -14.16016,0 -24.04785,9.88769 -9.8877,9.8877 -9.8877,24.292 0,14.16015 9.0332,23.80371 9.03321,9.76562 20.50782,9.76562 7.32422,0 19.89746,-6.22558 -5.12696,8.54492 -6.71387,12.81738 -1.46484,4.39453 -1.46484,9.39941 0,13.91602 9.64355,23.55957 9.64356,9.64356 24.04785,9.64356 14.4043,0 24.16992,-9.64356 9.8877,-9.64355 9.8877,-22.94922 0,-10.86425 -8.42285,-22.82714 10.2539,4.88281 12.3291,5.49316 3.2959,0.97656 7.44629,0.97656 12.20703,0 21.11816,-9.64355 9.03321,-9.52149 9.03321,-23.68164 0,-14.64844 -9.8877,-24.65821 -9.76562,-9.88769 -23.55957,-9.88769 -7.69043,0 -15.86914,3.66211 -8.05664,3.78418 -14.03809,10.00976 -4.27246,4.5166 -10.62011,15.25879 0.48828,-19.40918 5.85937,-30.76172 5.49317,-11.23047 16.72363,-18.67675 7.56836,-5.00489 27.22168,-8.78907 z"
       style="font-style:normal;font-weight:normal;font-size:250px;line-height:1.25;font-family:Arial;text-align:center;text-anchor:middle;fill:#000000;fill-opacity:1;stroke:none;stroke-width:1px;stroke-linecap:butt;stroke-linejoin:miter;stroke-opacity:1"
       id="path946" />
  </g>
</svg>
