<svg version="1.0" viewBox="0 0 747 1000" xmlns="http://www.w3.org/2000/svg"><g fill="red"><path d="M65.2 55.35l-19 52h39zm-8-14h16l40 105h-15l-9.6-27h-47l-9.6 27H17zM70.2 181.35l35 46q4.9 6 4.9 6.9l-40 52q-.84-.56-40-52 0-.98 7.8-11zM682.2 987.35l19-52h-39zm8 14h-16l-40-105h15l9.6 27h47l9.6-27h15zM677.2 864.35l-35-46q-4.9-6-4.9-6.9l40-52q.84.56 40 52 0 .98-7.8 11zM373.2 372.35q22 37 53 79 37 49 59 74-18 19-59 74-33 44-53 80-6.6-13-18-30-20-29-49-68-6.3-8.5-45-56 25-28 63-80 29-39 48-73z"/></g></svg>