<svg version="1.0" viewBox="0 0 747 1000" xmlns="http://www.w3.org/2000/svg"><path d="M76.2 53.35l-36 56h36zm-3.7-12h18v68h15v12h-15v25h-14v-25h-47v-14zM66.2 181.35q15 0 22 16 .91 3.7 1.1 7.6 0 8.2-8.4 19l-4.2 4.2h.21q5.2-2 11-2h1.3q17 0 23 14 1.6 4.6 1.6 8.9 0 14-15 22-2.8.84-7.8 1.3-17 0-24-19h-.21v.63q0 24 5.8 32v.42h-15l-.42-.42q6-9 6-32v-.21h-.21q-7 19-24 19-13 0-21-14-1.8-4.8-1.8-8.9 0-16 17-22 4.6-.84 8.2-.84H42q6 0 12 2h.21v-.21q-5.9-5-7.9-9.8-4.2-7.7-4.2-13v-.98q0-14 15-21 5-1.3 7.7-1.3zM671.2 987.35l36-56h-36zm3.7 12h-18v-68h-15v-12h15v-25h14v25h47v14zM681.2 864.35q-15 0-22-16-.91-3.7-1.1-7.6 0-8.2 8.4-19l4.2-4.2h-.21q-5.2 2-11 2h-1.3q-17 0-23-14-1.6-4.6-1.6-8.9 0-14 15-22 2.8-.84 7.8-1.3 17 0 24 19h.21v-.63q0-24-5.8-32v-.42h15l.42.42q-6 9-6 32v.21h.21q7-19 24-19 13 0 21 14 1.8 4.8 1.8 8.9 0 16-17 22-4.6.84-8.2.84h-.63q-6 0-12-2h-.21v.21q5.9 5 7.9 9.8 4.2 7.7 4.2 13v.98q0 14-15 21-5 1.3-7.7 1.3zM286.2 298.35h-104l.98-4.2q20-4.3 27-8.4 9.9-6.2 16-18 6.3-12 6.3-26 0-2-.12-5.6-7.4 15-18 22-11 7-22 7-14 0-24-9.9-9.9-9.9-9.9-24 0-14 9-24 9-9.8 21-9.8 7.3 0 20 6.2-5.1-8.5-6.7-13-1.5-4.4-1.5-9.4 0-14 9.6-24 9.6-9.6 24-9.6 14 0 24 9.6 9.9 9.6 9.9 23 0 11-8.4 23 10-4.9 12-5.5 3.3-.98 7.4-.98 12 0 21 9.6 9 9.5 9 24 0 15-9.9 25-9.8 9.9-24 9.9-7.7 0-16-3.7-8.1-3.8-14-10-4.3-4.5-11-15 .49 19 5.9 31 5.5 11 17 19 7.6 5 27 8.8zM286.2 747.35h-104l.98 4.2q20 4.3 27 8.4 9.9 6.2 16 18 6.3 12 6.3 26 0 2-.12 5.6-7.4-15-18-22-11-7-22-7-14 0-24 9.9-9.9 9.9-9.9 24 0 14 9 24 9 9.8 21 9.8 7.3 0 20-6.2-5.1 8.5-6.7 13-1.5 4.4-1.5 9.4 0 14 9.6 24 9.6 9.6 24 9.6 14 0 24-9.6 9.9-9.6 9.9-23 0-11-8.4-23 10 4.9 12 5.5 3.3.98 7.4.98 12 0 21-9.6 9-9.5 9-24 0-15-9.9-25-9.8-9.9-24-9.9-7.7 0-16 3.7-8.1 3.8-14 10-4.3 4.5-11 15 .49-19 5.9-31 5.5-11 17-19 7.6-5 27-8.8zM566.2 298.35h-104l.98-4.2q20-4.3 27-8.4 9.9-6.2 16-18 6.3-12 6.3-26 0-2-.12-5.6-7.4 15-18 22-11 7-22 7-14 0-24-9.9-9.9-9.9-9.9-24 0-14 9-24 9-9.8 21-9.8 7.3 0 20 6.2-5.1-8.5-6.7-13-1.5-4.4-1.5-9.4 0-14 9.6-24 9.6-9.6 24-9.6 14 0 24 9.6 9.9 9.6 9.9 23 0 11-8.4 23 10-4.9 12-5.5 3.3-.98 7.4-.98 12 0 21 9.6 9 9.5 9 24 0 15-9.9 25-9.8 9.9-24 9.9-7.7 0-16-3.7-8.1-3.8-14-10-4.3-4.5-11-15 .49 19 5.9 31 5.5 11 17 19 7.6 5 27 8.8zM566.2 747.35h-104l.98 4.2q20 4.3 27 8.4 9.9 6.2 16 18 6.3 12 6.3 26 0 2-.12 5.6-7.4-15-18-22-11-7-22-7-14 0-24 9.9-9.9 9.9-9.9 24 0 14 9 24 9 9.8 21 9.8 7.3 0 20-6.2-5.1 8.5-6.7 13-1.5 4.4-1.5 9.4 0 14 9.6 24 9.6 9.6 24 9.6 14 0 24-9.6 9.9-9.6 9.9-23 0-11-8.4-23 10 4.9 12 5.5 3.3.98 7.4.98 12 0 21-9.6 9-9.5 9-24 0-15-9.9-25-9.8-9.9-24-9.9-7.7 0-16 3.7-8.1 3.8-14 10-4.3 4.5-11 15 .49-19 5.9-31 5.5-11 17-19 7.6-5 27-8.8z"/></svg>