<?xml version="1.0" encoding="UTF-8" standalone="no"?>
<!-- Created with Inkscape (http://www.inkscape.org/) -->

<svg
   xmlns:dc="http://purl.org/dc/elements/1.1/"
   xmlns:cc="http://creativecommons.org/ns#"
   xmlns:rdf="http://www.w3.org/1999/02/22-rdf-syntax-ns#"
   xmlns:svg="http://www.w3.org/2000/svg"
   xmlns="http://www.w3.org/2000/svg"
   xmlns:sodipodi="http://sodipodi.sourceforge.net/DTD/sodipodi-0.dtd"
   xmlns:inkscape="http://www.inkscape.org/namespaces/inkscape"
   width="747.34698"
   height="1046.2856"
   id="svg2"
   sodipodi:version="0.32"
   inkscape:version="0.92.4 (5da689c313, 2019-01-14)"
   version="1.0"
   sodipodi:docname="Cards-7-Heart.svg"
   inkscape:output_extension="org.inkscape.output.svg.inkscape">
  <defs
     id="defs4">
    <inkscape:perspective
       sodipodi:type="inkscape:persp3d"
       inkscape:vp_x="0 : 526.18109 : 1"
       inkscape:vp_y="0 : 1000 : 0"
       inkscape:vp_z="744.09448 : 526.18109 : 1"
       inkscape:persp3d-origin="372.04724 : 350.78739 : 1"
       id="perspective10" />
    <inkscape:perspective
       id="perspective2390"
       inkscape:persp3d-origin="372.04724 : 350.78739 : 1"
       inkscape:vp_z="744.09448 : 526.18109 : 1"
       inkscape:vp_y="0 : 1000 : 0"
       inkscape:vp_x="0 : 526.18109 : 1"
       sodipodi:type="inkscape:persp3d" />
  </defs>
  <sodipodi:namedview
     id="base"
     pagecolor="#ffffff"
     bordercolor="#666666"
     borderopacity="1.0"
     gridtolerance="10000"
     guidetolerance="10"
     objecttolerance="10"
     inkscape:pageopacity="0.0"
     inkscape:pageshadow="2"
     inkscape:zoom="0.49497474"
     inkscape:cx="-898.45341"
     inkscape:cy="427.23902"
     inkscape:document-units="px"
     inkscape:current-layer="g2797"
     showgrid="false"
     showguides="true"
     inkscape:guide-bbox="true"
     inkscape:window-width="3840"
     inkscape:window-height="2066"
     inkscape:window-x="-11"
     inkscape:window-y="-11"
     inkscape:window-maximized="1" />
  <metadata
     id="metadata7">
    <rdf:RDF>
      <cc:Work
         rdf:about="">
        <dc:format>image/svg+xml</dc:format>
        <dc:type
           rdf:resource="http://purl.org/dc/dcmitype/StillImage" />
      </cc:Work>
    </rdf:RDF>
  </metadata>
  <g
     inkscape:label="Layer 1"
     inkscape:groupmode="layer"
     id="layer1"
     transform="translate(2.2448993,-0.6479052)">
    <g
       id="g2775"
       transform="translate(-2.0407968,-11.714273)">
      <g
         id="g2797">
        <path
           inkscape:connector-curvature="0"
           id="path897"
           style="font-style:normal;font-variant:normal;font-weight:normal;font-stretch:normal;font-size:144px;line-height:1.25;font-family:'Arial Narrow';-inkscape-font-specification:'Arial Narrow';text-align:center;text-anchor:middle;fill:#ff0000;fill-opacity:1;stroke:none;stroke-width:1px;stroke-linecap:butt;stroke-linejoin:miter;stroke-opacity:1"
           d="m 27.227203,54.06749 h 67.5 v 6.046875 L 56.617828,159.04405 H 41.781891 L 77.641266,66.020615 H 27.227203 Z" />
        <path
           inkscape:connector-curvature="0"
           id="path894"
           style="font-style:normal;font-variant:normal;font-weight:normal;font-stretch:normal;font-size:144px;line-height:1.25;font-family:'Arial Narrow';-inkscape-font-specification:'Arial Narrow';text-align:center;text-anchor:middle;fill:#ff0000;fill-opacity:1;stroke:none;stroke-width:1px;stroke-linecap:butt;stroke-linejoin:miter;stroke-opacity:1"
           d="m 39.813141,194.13779 q 14.273437,0 22.429687,16.52343 2.953125,6.53907 3.09375,9.98438 h 0.210938 q 2.460937,-11.39063 8.929687,-18.91406 7.59375,-7.59375 17.085938,-7.59375 14.695309,0 23.554689,15.75 2.25,5.83593 2.25,10.96875 0,17.57812 -14.625,33.53906 L 65.547516,299.04404 H 65.125641 L 25.610016,250.59872 q -11.8125,-14.41406 -11.8125,-29.74218 0,-14.83594 13.992187,-23.55469 5.90625,-3.16406 12.023438,-3.16406 z" />
        <path
           inkscape:connector-curvature="0"
           id="path900"
           style="font-style:normal;font-variant:normal;font-weight:normal;font-stretch:normal;font-size:144px;line-height:1.25;font-family:'Arial Narrow';-inkscape-font-specification:'Arial Narrow';text-align:center;text-anchor:middle;fill:#ff0000;fill-opacity:1;stroke:none;stroke-width:1px;stroke-linecap:butt;stroke-linejoin:miter;stroke-opacity:1"
           d="m 719.71161,1016.9425 h -67.5 v -6.0469 l 38.10937,-98.92966 h 14.83594 l -35.85937,93.02346 h 50.41406 z" />
        <path
           inkscape:connector-curvature="0"
           id="path903"
           style="font-style:normal;font-variant:normal;font-weight:normal;font-stretch:normal;font-size:144px;line-height:1.25;font-family:'Arial Narrow';-inkscape-font-specification:'Arial Narrow';text-align:center;text-anchor:middle;fill:#ff0000;fill-opacity:1;stroke:none;stroke-width:1px;stroke-linecap:butt;stroke-linejoin:miter;stroke-opacity:1"
           d="m 707.12567,876.87219 q -14.27344,0 -22.42969,-16.52344 -2.95312,-6.53906 -3.09375,-9.98437 h -0.21093 q -2.46094,11.39062 -8.92969,18.91406 -7.59375,7.59375 -17.08594,7.59375 -14.69531,0 -23.55469,-15.75 -2.25,-5.83594 -2.25,-10.96875 0,-17.57812 14.625,-33.53906 l 37.19532,-44.64844 h 0.42187 l 39.51563,48.44531 q 11.8125,14.41407 11.8125,29.74219 0,14.83594 -13.99219,23.55469 -5.90625,3.16406 -12.02344,3.16406 z" />
      </g>
    </g>
    <path
       inkscape:connector-curvature="0"
       id="path909"
       style="font-style:normal;font-weight:normal;font-size:250px;line-height:1.25;font-family:Arial;text-align:center;text-anchor:middle;fill:#ff0000;fill-opacity:1;stroke:none;stroke-width:1px;stroke-linecap:butt;stroke-linejoin:miter;stroke-opacity:1"
       d="m 231.67273,301.85471 q -3.78418,-14.4043 -10.86426,-26.97754 -6.95801,-12.69532 -27.09961,-39.30664 -14.77051,-19.53125 -18.18847,-24.78028 -5.61524,-8.54492 -8.17872,-15.625 -2.4414,-7.20215 -2.4414,-14.52636 0,-13.54981 9.0332,-22.70508 9.0332,-9.15528 22.33887,-9.15528 13.42773,0 23.31543,9.52149 7.44629,7.08008 12.08496,21.11816 4.02832,-13.79394 11.35254,-20.99609 10.13183,-9.76563 23.4375,-9.76563 13.18359,0 22.33887,9.15528 9.15527,9.0332 9.15527,21.60644 0,10.98633 -5.37109,22.94922 -5.3711,11.84082 -20.75196,31.12793 -20.01953,25.26856 -29.1748,41.50391 -7.20215,12.81738 -10.98633,26.85547 z" />
    <path
       inkscape:connector-curvature="0"
       d="m 231.67273,745.72669 q -3.78418,14.4043 -10.86426,26.97754 -6.95801,12.69532 -27.09961,39.30664 -14.77051,19.53125 -18.18847,24.78028 -5.61524,8.54492 -8.17872,15.625 -2.4414,7.20215 -2.4414,14.52636 0,13.54981 9.0332,22.70508 9.0332,9.15528 22.33887,9.15528 13.42773,0 23.31543,-9.52149 7.44629,-7.08008 12.08496,-21.11816 4.02832,13.79394 11.35254,20.99609 10.13183,9.76563 23.4375,9.76563 13.18359,0 22.33887,-9.15528 9.15527,-9.0332 9.15527,-21.60644 0,-10.98633 -5.37109,-22.94922 -5.3711,-11.84082 -20.75196,-31.12793 -20.01953,-25.26856 -29.1748,-41.50391 -7.20215,-12.81738 -10.98633,-26.85547 z"
       style="font-style:normal;font-weight:normal;font-size:250px;line-height:1.25;font-family:Arial;text-align:center;text-anchor:middle;fill:#ff0000;fill-opacity:1;stroke:none;stroke-width:1px;stroke-linecap:butt;stroke-linejoin:miter;stroke-opacity:1"
       id="path923" />
    <path
       inkscape:connector-curvature="0"
       d="m 231.67273,601.85471 q -3.78418,-14.4043 -10.86426,-26.97754 -6.95801,-12.69532 -27.09961,-39.30664 -14.77051,-19.53125 -18.18847,-24.78028 -5.61524,-8.54492 -8.17872,-15.625 -2.4414,-7.20215 -2.4414,-14.52636 0,-13.54981 9.0332,-22.70508 9.0332,-9.15528 22.33887,-9.15528 13.42773,0 23.31543,9.52149 7.44629,7.08008 12.08496,21.11816 4.02832,-13.79394 11.35254,-20.99609 10.13183,-9.76563 23.4375,-9.76563 13.18359,0 22.33887,9.15528 9.15527,9.0332 9.15527,21.60644 0,10.98633 -5.37109,22.94922 -5.3711,11.84082 -20.75196,31.12793 -20.01953,25.26856 -29.1748,41.50391 -7.20215,12.81738 -10.98633,26.85547 z"
       style="font-style:normal;font-weight:normal;font-size:250px;line-height:1.25;font-family:Arial;text-align:center;text-anchor:middle;fill:#ff0000;fill-opacity:1;stroke:none;stroke-width:1px;stroke-linecap:butt;stroke-linejoin:miter;stroke-opacity:1"
       id="path927" />
    <path
       inkscape:connector-curvature="0"
       id="path906"
       style="font-style:normal;font-weight:normal;font-size:250px;line-height:1.25;font-family:Arial;text-align:center;text-anchor:middle;fill:#ff0000;fill-opacity:1;stroke:none;stroke-width:1px;stroke-linecap:butt;stroke-linejoin:miter;stroke-opacity:1"
       d="m 511.67273,301.85471 q -3.78418,-14.4043 -10.86426,-26.97754 -6.95801,-12.69532 -27.09961,-39.30664 -14.77051,-19.53125 -18.18847,-24.78028 -5.61524,-8.54492 -8.17872,-15.625 -2.4414,-7.20215 -2.4414,-14.52636 0,-13.54981 9.0332,-22.70508 9.0332,-9.15528 22.33887,-9.15528 13.42773,0 23.31543,9.52149 7.44629,7.08008 12.08496,21.11816 4.02832,-13.79394 11.35254,-20.99609 10.13183,-9.76563 23.4375,-9.76563 13.18359,0 22.33887,9.15528 9.15527,9.0332 9.15527,21.60644 0,10.98633 -5.37109,22.94922 -5.3711,11.84082 -20.75196,31.12793 -20.01953,25.26856 -29.1748,41.50391 -7.20215,12.81738 -10.98633,26.85547 z" />
    <path
       inkscape:connector-curvature="0"
       d="m 511.67273,745.72669 q -3.78418,14.4043 -10.86426,26.97754 -6.95801,12.69532 -27.09961,39.30664 -14.77051,19.53125 -18.18847,24.78028 -5.61524,8.54492 -8.17872,15.625 -2.4414,7.20215 -2.4414,14.52636 0,13.54981 9.0332,22.70508 9.0332,9.15528 22.33887,9.15528 13.42773,0 23.31543,-9.52149 7.44629,-7.08008 12.08496,-21.11816 4.02832,13.79394 11.35254,20.99609 10.13183,9.76563 23.4375,9.76563 13.18359,0 22.33887,-9.15528 9.15527,-9.0332 9.15527,-21.60644 0,-10.98633 -5.37109,-22.94922 -5.3711,-11.84082 -20.75196,-31.12793 -20.01953,-25.26856 -29.1748,-41.50391 -7.20215,-12.81738 -10.98633,-26.85547 z"
       style="font-style:normal;font-weight:normal;font-size:250px;line-height:1.25;font-family:Arial;text-align:center;text-anchor:middle;fill:#ff0000;fill-opacity:1;stroke:none;stroke-width:1px;stroke-linecap:butt;stroke-linejoin:miter;stroke-opacity:1"
       id="path919" />
    <path
       inkscape:connector-curvature="0"
       d="m 511.67273,601.85471 q -3.78418,-14.4043 -10.86426,-26.97754 -6.95801,-12.69532 -27.09961,-39.30664 -14.77051,-19.53125 -18.18847,-24.78028 -5.61524,-8.54492 -8.17872,-15.625 -2.4414,-7.20215 -2.4414,-14.52636 0,-13.54981 9.0332,-22.70508 9.0332,-9.15528 22.33887,-9.15528 13.42773,0 23.31543,9.52149 7.44629,7.08008 12.08496,21.11816 4.02832,-13.79394 11.35254,-20.99609 10.13183,-9.76563 23.4375,-9.76563 13.18359,0 22.33887,9.15528 9.15527,9.0332 9.15527,21.60644 0,10.98633 -5.37109,22.94922 -5.3711,11.84082 -20.75196,31.12793 -20.01953,25.26856 -29.1748,41.50391 -7.20215,12.81738 -10.98633,26.85547 z"
       style="font-style:normal;font-weight:normal;font-size:250px;line-height:1.25;font-family:Arial;text-align:center;text-anchor:middle;fill:#ff0000;fill-opacity:1;stroke:none;stroke-width:1px;stroke-linecap:butt;stroke-linejoin:miter;stroke-opacity:1"
       id="path915" />
    <path
       inkscape:connector-curvature="0"
       id="path912"
       style="font-style:normal;font-weight:normal;font-size:250px;line-height:1.25;font-family:Arial;text-align:center;text-anchor:middle;fill:#ff0000;fill-opacity:1;stroke:none;stroke-width:1px;stroke-linecap:butt;stroke-linejoin:miter;stroke-opacity:1"
       d="m 371.67273,461.85468 q -3.78418,-14.4043 -10.86426,-26.97754 -6.95801,-12.69532 -27.09961,-39.30664 -14.77051,-19.53125 -18.18847,-24.78028 -5.61524,-8.54492 -8.17872,-15.625 -2.4414,-7.20215 -2.4414,-14.52637 0,-13.5498 9.0332,-22.70507 9.0332,-9.15528 22.33887,-9.15528 13.42773,0 23.31543,9.52149 7.44629,7.08008 12.08496,21.11816 4.02832,-13.79394 11.35254,-20.99609 10.13183,-9.76563 23.4375,-9.76563 13.18359,0 22.33887,9.15528 9.15527,9.0332 9.15527,21.60644 0,10.98633 -5.37109,22.94922 -5.3711,11.84082 -20.75196,31.12793 -20.01953,25.26855 -29.1748,41.50391 -7.20215,12.81738 -10.98633,26.85547 z" />
  </g>
</svg>
