<?xml version="1.0" encoding="UTF-8" standalone="no"?>
<!-- Created with Inkscape (http://www.inkscape.org/) -->

<svg
   xmlns:dc="http://purl.org/dc/elements/1.1/"
   xmlns:cc="http://creativecommons.org/ns#"
   xmlns:rdf="http://www.w3.org/1999/02/22-rdf-syntax-ns#"
   xmlns:svg="http://www.w3.org/2000/svg"
   xmlns="http://www.w3.org/2000/svg"
   xmlns:sodipodi="http://sodipodi.sourceforge.net/DTD/sodipodi-0.dtd"
   xmlns:inkscape="http://www.inkscape.org/namespaces/inkscape"
   width="747.34698"
   height="1046.2856"
   id="svg2"
   sodipodi:version="0.32"
   inkscape:version="0.92.4 (5da689c313, 2019-01-14)"
   version="1.0"
   sodipodi:docname="Cards-9-Club.svg"
   inkscape:output_extension="org.inkscape.output.svg.inkscape">
  <defs
     id="defs4">
    <inkscape:perspective
       sodipodi:type="inkscape:persp3d"
       inkscape:vp_x="0 : 526.18109 : 1"
       inkscape:vp_y="0 : 1000 : 0"
       inkscape:vp_z="744.09448 : 526.18109 : 1"
       inkscape:persp3d-origin="372.04724 : 350.78739 : 1"
       id="perspective10" />
    <inkscape:perspective
       id="perspective2390"
       inkscape:persp3d-origin="372.04724 : 350.78739 : 1"
       inkscape:vp_z="744.09448 : 526.18109 : 1"
       inkscape:vp_y="0 : 1000 : 0"
       inkscape:vp_x="0 : 526.18109 : 1"
       sodipodi:type="inkscape:persp3d" />
  </defs>
  <sodipodi:namedview
     id="base"
     pagecolor="#ffffff"
     bordercolor="#666666"
     borderopacity="1.0"
     gridtolerance="10000"
     guidetolerance="10"
     objecttolerance="10"
     inkscape:pageopacity="0.0"
     inkscape:pageshadow="2"
     inkscape:zoom="0.49497475"
     inkscape:cx="-814.30987"
     inkscape:cy="606.82754"
     inkscape:document-units="px"
     inkscape:current-layer="g2415"
     showgrid="false"
     showguides="true"
     inkscape:guide-bbox="true"
     inkscape:window-width="3840"
     inkscape:window-height="2066"
     inkscape:window-x="-11"
     inkscape:window-y="-11"
     inkscape:window-maximized="1" />
  <metadata
     id="metadata7">
    <rdf:RDF>
      <cc:Work
         rdf:about="">
        <dc:format>image/svg+xml</dc:format>
        <dc:type
           rdf:resource="http://purl.org/dc/dcmitype/StillImage" />
      </cc:Work>
    </rdf:RDF>
  </metadata>
  <g
     inkscape:label="Layer 1"
     inkscape:groupmode="layer"
     id="layer1"
     transform="translate(2.2448993,-0.6479052)">
    <path
       d="m 33.834844,145.15009 v -12.9375 q 5.34375,2.53125 10.828125,3.86719 5.484375,1.33594 10.757813,1.33594 14.0625,0 21.445312,-9.42188 7.453125,-9.49218 8.507813,-28.757814 -4.078125,6.046884 -10.335938,9.281254 -6.257812,3.23438 -13.851562,3.23438 -15.75,0 -24.960938,-9.49219 -9.140625,-9.562504 -9.140625,-26.085942 0,-16.171875 9.5625,-25.945313 9.5625,-9.773437 25.453125,-9.773437 18.210938,0 27.773438,13.992187 9.632812,13.921875 9.632812,40.500001 0,24.820314 -11.8125,39.656254 -11.742187,14.76562 -31.640625,14.76562 -5.34375,0 -10.828125,-1.05468 -5.484375,-1.05469 -11.390625,-3.16407 z m 28.265625,-44.50781 q 9.5625,0 15.117188,-6.539064 5.625,-6.539063 5.625,-17.929688 0,-11.320313 -5.625,-17.859375 -5.554688,-6.609375 -15.117188,-6.609375 -9.5625,0 -15.1875,6.609375 -5.554687,6.539062 -5.554687,17.859375 0,11.390625 5.554687,17.929688 5.625,6.539064 15.1875,6.539064 z"
       style="font-style:normal;font-variant:normal;font-weight:normal;font-stretch:normal;font-size:144px;line-height:1.25;font-family:'Arial Narrow';-inkscape-font-specification:'Arial Narrow';text-align:center;text-anchor:middle;fill:#000000;fill-opacity:1;stroke:none;stroke-width:1px;stroke-linecap:butt;stroke-linejoin:miter;stroke-opacity:1"
       id="path839"
       inkscape:connector-curvature="0" />
    <path
       d="m 63.577032,182.42353 q 15.046875,0 22.148437,15.96094 0.914063,3.65625 1.125,7.59375 0,8.22656 -8.4375,19.47656 l -4.21875,4.21875 h 0.210938 q 5.203125,-1.96875 11.109375,-1.96875 h 1.335937 q 16.734371,0 23.484371,14.20313 1.61719,4.64062 1.61719,8.85937 0,14.41406 -14.695311,21.72656 -2.8125,0.84375 -7.804687,1.26563 -17.015625,0 -24.117188,-19.26563 h -0.210937 v 0.63282 q 0,24.11718 5.765625,31.78125 v 0.42187 h -14.625 l -0.421875,-0.42187 q 5.976562,-9 5.976562,-32.41407 v -0.21093 h -0.210937 q -7.03125,19.47656 -24.257813,19.47656 -13.429687,0 -20.601562,-14.13281 -1.757813,-4.78125 -1.757813,-8.85938 0,-16.38281 17.296875,-22.21875 4.640625,-0.84375 8.226563,-0.84375 h 0.632812 q 6.046875,0 11.53125,1.96875 h 0.210938 v -0.21094 q -5.90625,-4.99218 -7.945313,-9.84375 -4.21875,-7.73437 -4.21875,-13.42968 v -0.98438 q 0,-14.13281 15.117188,-21.44531 4.992187,-1.33594 7.734375,-1.33594 z"
       style="font-style:normal;font-variant:normal;font-weight:normal;font-stretch:normal;font-size:144px;line-height:1.25;font-family:'Arial Narrow';-inkscape-font-specification:'Arial Narrow';text-align:center;text-anchor:middle;fill:#000000;fill-opacity:1;stroke:none;stroke-width:1px;stroke-linecap:butt;stroke-linejoin:miter;stroke-opacity:1"
       id="path842"
       inkscape:connector-curvature="0" />
    <path
       inkscape:connector-curvature="0"
       id="path904"
       style="font-style:normal;font-variant:normal;font-weight:normal;font-stretch:normal;font-size:144px;line-height:1.25;font-family:'Arial Narrow';-inkscape-font-specification:'Arial Narrow';text-align:center;text-anchor:middle;fill:#000000;fill-opacity:1;stroke:none;stroke-width:1px;stroke-linecap:butt;stroke-linejoin:miter;stroke-opacity:1"
       d="m 709.02233,902.43135 v 12.9375 q -5.34375,-2.53125 -10.82813,-3.86719 -5.48437,-1.33594 -10.75781,-1.33594 -14.0625,0 -21.44531,9.42188 -7.45313,9.49218 -8.50782,28.75781 4.07813,-6.04688 10.33594,-9.28125 6.25781,-3.23438 13.85156,-3.23438 15.75,0 24.96094,9.49219 9.14063,9.5625 9.14063,26.08594 0,16.17187 -9.5625,25.94531 -9.5625,9.77348 -25.45313,9.77348 -18.21094,0 -27.77344,-13.99223 -9.63281,-13.92187 -9.63281,-40.5 0,-24.82031 11.8125,-39.65625 11.74219,-14.76562 31.64063,-14.76562 5.34375,0 10.82812,1.05468 5.48438,1.05469 11.39063,3.16407 z m -28.26563,44.50781 q -9.5625,0 -15.11719,6.53906 -5.625,6.53906 -5.625,17.92969 0,11.32031 5.625,17.85937 5.55469,6.60938 15.11719,6.60938 9.5625,0 15.1875,-6.60938 5.55469,-6.53906 5.55469,-17.85937 0,-11.39063 -5.55469,-17.92969 -5.625,-6.53906 -15.1875,-6.53906 z" />
    <path
       inkscape:connector-curvature="0"
       id="path908"
       style="font-style:normal;font-variant:normal;font-weight:normal;font-stretch:normal;font-size:144px;line-height:1.25;font-family:'Arial Narrow';-inkscape-font-specification:'Arial Narrow';text-align:center;text-anchor:middle;fill:#000000;fill-opacity:1;stroke:none;stroke-width:1px;stroke-linecap:butt;stroke-linejoin:miter;stroke-opacity:1"
       d="m 679.28014,865.15791 q -15.04688,0 -22.14844,-15.96094 -0.91406,-3.65625 -1.125,-7.59375 0,-8.22656 8.4375,-19.47656 l 4.21875,-4.21875 h -0.21094 q -5.20312,1.96875 -11.10937,1.96875 h -1.33594 q -16.73437,0 -23.48437,-14.20313 -1.61719,-4.64062 -1.61719,-8.85937 0,-14.41406 14.69531,-21.72656 2.8125,-0.84375 7.80469,-1.26563 17.01562,0 24.11719,19.26563 h 0.21093 v -0.63282 q 0,-24.11718 -5.76562,-31.78125 v -0.42187 h 14.625 l 0.42187,0.42187 q -5.97656,9 -5.97656,32.41407 v 0.21093 h 0.21094 q 7.03125,-19.47656 24.25781,-19.47656 13.42969,0 20.60156,14.13281 1.75782,4.78125 1.75782,8.85938 0,16.38281 -17.29688,22.21875 -4.64062,0.84375 -8.22656,0.84375 h -0.63281 q -6.04688,0 -11.53125,-1.96875 h -0.21094 v 0.21094 q 5.90625,4.99218 7.94531,9.84375 4.21875,7.73437 4.21875,13.42968 v 0.98438 q 0,14.13281 -15.11719,21.44531 -4.99218,1.33594 -7.73437,1.33594 z" />
    <g
       id="g2432"
       transform="translate(66.467284,0)">
      <g
         id="g2415"
         transform="translate(-2.040797,-11.714273)">
        <path
           d="M 219.06509,270.63928 H 115.54947 l 0.97656,-4.15039 q 20.1416,-4.27246 26.7334,-8.42285 9.8877,-6.22559 16.11328,-18.43262 6.34766,-12.20703 6.34766,-25.75683 0,-1.95313 -0.12207,-5.61524 -7.44629,15.13672 -18.18848,22.09473 -10.62012,6.95801 -21.72852,6.95801 -14.16015,0 -24.04785,-9.8877 -9.88769,-9.88769 -9.88769,-24.29199 0,-14.16016 9.0332,-23.80371 9.0332,-9.76563 20.50781,-9.76563 7.32422,0 19.89746,6.22559 -5.12695,-8.54492 -6.71386,-12.81738 -1.46485,-4.39453 -1.46485,-9.39942 0,-13.91601 9.64356,-23.55957 9.64355,-9.64355 24.04785,-9.64355 14.4043,0 24.16992,9.64355 9.8877,9.64356 9.8877,22.94922 0,10.86426 -8.42285,22.82715 10.2539,-4.88281 12.3291,-5.49316 3.2959,-0.97657 7.44629,-0.97657 12.20703,0 21.11816,9.64356 9.0332,9.52148 9.0332,23.68164 0,14.64844 -9.88769,24.6582 -9.76563,9.8877 -23.55957,9.8877 -7.69043,0 -15.86914,-3.66211 -8.05664,-3.78418 -14.03809,-10.00977 -4.27246,-4.5166 -10.62012,-15.25879 0.48829,19.40918 5.85938,30.76172 5.49316,11.23047 16.72363,18.67676 7.56836,5.00488 27.22168,8.78906 z"
           style="font-style:normal;font-weight:normal;font-size:250px;line-height:1.25;font-family:Arial;text-align:center;text-anchor:middle;fill:#000000;fill-opacity:1;stroke:none;stroke-width:1px;stroke-linecap:butt;stroke-linejoin:miter;stroke-opacity:1"
           id="path836"
           inkscape:connector-curvature="0" />
        <path
           inkscape:connector-curvature="0"
           id="path874"
           style="font-style:normal;font-weight:normal;font-size:250px;line-height:1.25;font-family:Arial;text-align:center;text-anchor:middle;fill:#000000;fill-opacity:1;stroke:none;stroke-width:1px;stroke-linecap:butt;stroke-linejoin:miter;stroke-opacity:1"
           d="M 219.06509,800.37072 H 115.54947 l 0.97656,4.15039 q 20.1416,4.27246 26.7334,8.42285 9.8877,6.22559 16.11328,18.43262 6.34766,12.20703 6.34766,25.75683 0,1.95313 -0.12207,5.61524 -7.44629,-15.13672 -18.18848,-22.09473 -10.62012,-6.95801 -21.72852,-6.95801 -14.16015,0 -24.04785,9.8877 -9.88769,9.88769 -9.88769,24.29199 0,14.16016 9.0332,23.80371 9.0332,9.76563 20.50781,9.76563 7.32422,0 19.89746,-6.22559 -5.12695,8.54492 -6.71386,12.81738 -1.46485,4.39453 -1.46485,9.39942 0,13.91601 9.64356,23.55957 9.64355,9.64355 24.04785,9.64355 14.4043,0 24.16992,-9.64355 9.8877,-9.64356 9.8877,-22.94922 0,-10.86426 -8.42285,-22.82715 10.2539,4.88281 12.3291,5.49316 3.2959,0.97657 7.44629,0.97657 12.20703,0 21.11816,-9.64356 9.0332,-9.52148 9.0332,-23.68164 0,-14.64844 -9.88769,-24.6582 -9.76563,-9.8877 -23.55957,-9.8877 -7.69043,0 -15.86914,3.66211 -8.05664,3.78418 -14.03809,10.00977 -4.27246,4.5166 -10.62012,15.25879 0.48829,-19.40918 5.85938,-30.76172 5.49316,-11.23047 16.72363,-18.67676 7.56836,-5.00488 27.22168,-8.78906 z" />
        <path
           inkscape:connector-curvature="0"
           id="path878"
           style="font-style:normal;font-weight:normal;font-size:250px;line-height:1.25;font-family:Arial;text-align:center;text-anchor:middle;fill:#000000;fill-opacity:1;stroke:none;stroke-width:1px;stroke-linecap:butt;stroke-linejoin:miter;stroke-opacity:1"
           d="M 219.06509,490.63928 H 115.54947 l 0.97656,-4.15039 q 20.1416,-4.27246 26.7334,-8.42285 9.8877,-6.22559 16.11328,-18.43262 6.34766,-12.20703 6.34766,-25.75683 0,-1.95313 -0.12207,-5.61524 -7.44629,15.13672 -18.18848,22.09473 -10.62012,6.95801 -21.72852,6.95801 -14.16015,0 -24.04785,-9.8877 -9.88769,-9.88769 -9.88769,-24.29199 0,-14.16016 9.0332,-23.80371 9.0332,-9.76563 20.50781,-9.76563 7.32422,0 19.89746,6.22559 -5.12695,-8.54492 -6.71386,-12.81738 -1.46485,-4.39453 -1.46485,-9.39942 0,-13.91601 9.64356,-23.55957 9.64355,-9.64355 24.04785,-9.64355 14.4043,0 24.16992,9.64355 9.8877,9.64356 9.8877,22.94922 0,10.86426 -8.42285,22.82715 10.2539,-4.88281 12.3291,-5.49316 3.2959,-0.97657 7.44629,-0.97657 12.20703,0 21.11816,9.64356 9.0332,9.52148 9.0332,23.68164 0,14.64844 -9.88769,24.6582 -9.76563,9.8877 -23.55957,9.8877 -7.69043,0 -15.86914,-3.66211 -8.05664,-3.78418 -14.03809,-10.00977 -4.27246,-4.5166 -10.62012,-15.25879 0.48829,19.40918 5.85938,30.76172 5.49316,11.23047 16.72363,18.67676 7.56836,5.00488 27.22168,8.78906 z" />
        <path
           inkscape:connector-curvature="0"
           id="path870"
           style="font-style:normal;font-weight:normal;font-size:250px;line-height:1.25;font-family:Arial;text-align:center;text-anchor:middle;fill:#000000;fill-opacity:1;stroke:none;stroke-width:1px;stroke-linecap:butt;stroke-linejoin:miter;stroke-opacity:1"
           d="M 219.06509,580.37072 H 115.54947 l 0.97656,4.15039 q 20.1416,4.27246 26.7334,8.42285 9.8877,6.22559 16.11328,18.43262 6.34766,12.20703 6.34766,25.75683 0,1.95313 -0.12207,5.61524 -7.44629,-15.13672 -18.18848,-22.09473 -10.62012,-6.95801 -21.72852,-6.95801 -14.16015,0 -24.04785,9.8877 -9.88769,9.88769 -9.88769,24.29199 0,14.16016 9.0332,23.80371 9.0332,9.76563 20.50781,9.76563 7.32422,0 19.89746,-6.22559 -5.12695,8.54492 -6.71386,12.81738 -1.46485,4.39453 -1.46485,9.39942 0,13.91601 9.64356,23.55957 9.64355,9.64355 24.04785,9.64355 14.4043,0 24.16992,-9.64355 9.8877,-9.64356 9.8877,-22.94922 0,-10.86426 -8.42285,-22.82715 10.2539,4.88281 12.3291,5.49316 3.2959,0.97657 7.44629,0.97657 12.20703,0 21.11816,-9.64356 9.0332,-9.52148 9.0332,-23.68164 0,-14.64844 -9.88769,-24.6582 -9.76563,-9.8877 -23.55957,-9.8877 -7.69043,0 -15.86914,3.66211 -8.05664,3.78418 -14.03809,10.00977 -4.27246,4.5166 -10.62012,15.25879 0.48829,-19.40918 5.85938,-30.76172 5.49316,-11.23047 16.72363,-18.67676 7.56836,-5.00488 27.22168,-8.78906 z" />
        <path
           id="path845"
           style="font-style:normal;font-weight:normal;font-size:250px;line-height:1.25;font-family:Arial;text-align:center;text-anchor:middle;fill:#000000;fill-opacity:1;stroke:none;stroke-width:1px;stroke-linecap:butt;stroke-linejoin:miter;stroke-opacity:1"
           d="M 499.06509,270.63928 H 395.54947 l 0.97656,-4.15039 q 20.1416,-4.27246 26.7334,-8.42285 9.8877,-6.22559 16.11328,-18.43262 6.34766,-12.20703 6.34766,-25.75683 0,-1.95313 -0.12207,-5.61524 -7.44629,15.13672 -18.18848,22.09473 -10.62012,6.95801 -21.72852,6.95801 -14.16015,0 -24.04785,-9.8877 -9.88769,-9.88769 -9.88769,-24.29199 0,-14.16016 9.0332,-23.80371 9.0332,-9.76563 20.50781,-9.76563 7.32422,0 19.89746,6.22559 -5.12695,-8.54492 -6.71386,-12.81738 -1.46485,-4.39453 -1.46485,-9.39942 0,-13.91601 9.64356,-23.55957 9.64355,-9.64355 24.04785,-9.64355 14.4043,0 24.16992,9.64355 9.8877,9.64356 9.8877,22.94922 0,10.86426 -8.42285,22.82715 10.2539,-4.88281 12.3291,-5.49316 3.2959,-0.97657 7.44629,-0.97657 12.20703,0 21.11816,9.64356 9.0332,9.52148 9.0332,23.68164 0,14.64844 -9.88769,24.6582 -9.76563,9.8877 -23.55957,9.8877 -7.69043,0 -15.86914,-3.66211 -8.05664,-3.78418 -14.03809,-10.00977 -4.27246,-4.5166 -10.62012,-15.25879 0.48829,19.40918 5.85938,30.76172 5.49316,11.23047 16.72363,18.67676 7.56836,5.00488 27.22168,8.78906 z"
           inkscape:connector-curvature="0" />
        <path
           d="M 499.06509,800.37072 H 395.54947 l 0.97656,4.15039 q 20.1416,4.27246 26.7334,8.42285 9.8877,6.22559 16.11328,18.43262 6.34766,12.20703 6.34766,25.75683 0,1.95313 -0.12207,5.61524 -7.44629,-15.13672 -18.18848,-22.09473 -10.62012,-6.95801 -21.72852,-6.95801 -14.16015,0 -24.04785,9.8877 -9.88769,9.88769 -9.88769,24.29199 0,14.16016 9.0332,23.80371 9.0332,9.76563 20.50781,9.76563 7.32422,0 19.89746,-6.22559 -5.12695,8.54492 -6.71386,12.81738 -1.46485,4.39453 -1.46485,9.39942 0,13.91601 9.64356,23.55957 9.64355,9.64355 24.04785,9.64355 14.4043,0 24.16992,-9.64355 9.8877,-9.64356 9.8877,-22.94922 0,-10.86426 -8.42285,-22.82715 10.2539,4.88281 12.3291,5.49316 3.2959,0.97657 7.44629,0.97657 12.20703,0 21.11816,-9.64356 9.0332,-9.52148 9.0332,-23.68164 0,-14.64844 -9.88769,-24.6582 -9.76563,-9.8877 -23.55957,-9.8877 -7.69043,0 -15.86914,3.66211 -8.05664,3.78418 -14.03809,10.00977 -4.27246,4.5166 -10.62012,15.25879 0.48829,-19.40918 5.85938,-30.76172 5.49316,-11.23047 16.72363,-18.67676 7.56836,-5.00488 27.22168,-8.78906 z"
           style="font-style:normal;font-weight:normal;font-size:250px;line-height:1.25;font-family:Arial;text-align:center;text-anchor:middle;fill:#000000;fill-opacity:1;stroke:none;stroke-width:1px;stroke-linecap:butt;stroke-linejoin:miter;stroke-opacity:1"
           id="path888"
           inkscape:connector-curvature="0" />
        <path
           d="M 499.06509,490.63928 H 395.54947 l 0.97656,-4.15039 q 20.1416,-4.27246 26.7334,-8.42285 9.8877,-6.22559 16.11328,-18.43262 6.34766,-12.20703 6.34766,-25.75683 0,-1.95313 -0.12207,-5.61524 -7.44629,15.13672 -18.18848,22.09473 -10.62012,6.95801 -21.72852,6.95801 -14.16015,0 -24.04785,-9.8877 -9.88769,-9.88769 -9.88769,-24.29199 0,-14.16016 9.0332,-23.80371 9.0332,-9.76563 20.50781,-9.76563 7.32422,0 19.89746,6.22559 -5.12695,-8.54492 -6.71386,-12.81738 -1.46485,-4.39453 -1.46485,-9.39942 0,-13.91601 9.64356,-23.55957 9.64355,-9.64355 24.04785,-9.64355 14.4043,0 24.16992,9.64355 9.8877,9.64356 9.8877,22.94922 0,10.86426 -8.42285,22.82715 10.2539,-4.88281 12.3291,-5.49316 3.2959,-0.97657 7.44629,-0.97657 12.20703,0 21.11816,9.64356 9.0332,9.52148 9.0332,23.68164 0,14.64844 -9.88769,24.6582 -9.76563,9.8877 -23.55957,9.8877 -7.69043,0 -15.86914,-3.66211 -8.05664,-3.78418 -14.03809,-10.00977 -4.27246,-4.5166 -10.62012,-15.25879 0.48829,19.40918 5.85938,30.76172 5.49316,11.23047 16.72363,18.67676 7.56836,5.00488 27.22168,8.78906 z"
           style="font-style:normal;font-weight:normal;font-size:250px;line-height:1.25;font-family:Arial;text-align:center;text-anchor:middle;fill:#000000;fill-opacity:1;stroke:none;stroke-width:1px;stroke-linecap:butt;stroke-linejoin:miter;stroke-opacity:1"
           id="path892"
           inkscape:connector-curvature="0" />
        <path
           d="M 499.06509,580.37072 H 395.54947 l 0.97656,4.15039 q 20.1416,4.27246 26.7334,8.42285 9.8877,6.22559 16.11328,18.43262 6.34766,12.20703 6.34766,25.75683 0,1.95313 -0.12207,5.61524 -7.44629,-15.13672 -18.18848,-22.09473 -10.62012,-6.95801 -21.72852,-6.95801 -14.16015,0 -24.04785,9.8877 -9.88769,9.88769 -9.88769,24.29199 0,14.16016 9.0332,23.80371 9.0332,9.76563 20.50781,9.76563 7.32422,0 19.89746,-6.22559 -5.12695,8.54492 -6.71386,12.81738 -1.46485,4.39453 -1.46485,9.39942 0,13.91601 9.64356,23.55957 9.64355,9.64355 24.04785,9.64355 14.4043,0 24.16992,-9.64355 9.8877,-9.64356 9.8877,-22.94922 0,-10.86426 -8.42285,-22.82715 10.2539,4.88281 12.3291,5.49316 3.2959,0.97657 7.44629,0.97657 12.20703,0 21.11816,-9.64356 9.0332,-9.52148 9.0332,-23.68164 0,-14.64844 -9.88769,-24.6582 -9.76563,-9.8877 -23.55957,-9.8877 -7.69043,0 -15.86914,3.66211 -8.05664,3.78418 -14.03809,10.00977 -4.27246,4.5166 -10.62012,15.25879 0.48829,-19.40918 5.85938,-30.76172 5.49316,-11.23047 16.72363,-18.67676 7.56836,-5.00488 27.22168,-8.78906 z"
           style="font-style:normal;font-weight:normal;font-size:250px;line-height:1.25;font-family:Arial;text-align:center;text-anchor:middle;fill:#000000;fill-opacity:1;stroke:none;stroke-width:1px;stroke-linecap:butt;stroke-linejoin:miter;stroke-opacity:1"
           id="path914"
           inkscape:connector-curvature="0" />
      </g>
      <path
         inkscape:connector-curvature="0"
         id="path833"
         style="font-style:normal;font-weight:normal;font-size:250px;line-height:1.25;font-family:Arial;text-align:center;text-anchor:middle;fill:#000000;fill-opacity:1;stroke:none;stroke-width:1px;stroke-linecap:butt;stroke-linejoin:miter;stroke-opacity:1"
         d="M 357.02429,384.92499 H 253.50867 l 0.97656,-4.15039 q 20.1416,-4.27246 26.7334,-8.42285 9.88769,-6.22559 16.11328,-18.43262 6.34766,-12.20703 6.34766,-25.75684 0,-1.95312 -0.12207,-5.61523 -7.44629,15.13672 -18.18848,22.09472 -10.62012,6.95801 -21.72852,6.95801 -14.16015,0 -24.04785,-9.88769 -9.88769,-9.8877 -9.88769,-24.292 0,-14.16015 9.0332,-23.80371 9.0332,-9.76562 20.50781,-9.76562 7.32422,0 19.89746,6.22558 -5.12695,-8.54492 -6.71386,-12.81738 -1.46485,-4.39453 -1.46485,-9.39941 0,-13.91602 9.64356,-23.55957 9.64355,-9.64356 24.04785,-9.64356 14.40429,0 24.16992,9.64356 9.8877,9.64355 9.8877,22.94922 0,10.86425 -8.42286,22.82714 10.25391,-4.88281 12.32911,-5.49316 3.29589,-0.97656 7.44628,-0.97656 12.20704,0 21.11817,9.64355 9.0332,9.52149 9.0332,23.68164 0,14.64844 -9.88769,24.65821 -9.76563,9.88769 -23.55957,9.88769 -7.69043,0 -15.86914,-3.66211 -8.05665,-3.78418 -14.03809,-10.00976 -4.27246,-4.5166 -10.62012,-15.25879 0.48828,19.40918 5.85938,30.76172 5.49316,11.23047 16.72363,18.67675 7.56836,5.00489 27.22168,8.78907 z" />
    </g>
  </g>
</svg>
