<svg version="1.0" viewBox="0 0 747 1000" xmlns="http://www.w3.org/2000/svg"><g fill="red"><path d="M64.2 88.35q-9.6 0-15 6.5-5.6 6.5-5.6 18 0 11 5.6 18 5.6 6.5 15 6.5t15-6.5q5.6-6.6 5.6-18 0-11-5.6-18-5.6-6.5-15-6.5zm28-45v13q-5.3-2.5-11-3.9-5.4-1.3-11-1.3-14 0-22 9.5-7.4 9.5-8.4 29 4.1-6.1 10-9.4 6.3-3.3 14-3.3 16 0 25 9.6 9.2 9.6 9.2 26 0 16-9.6 26-9.6 9.8-25 9.8-18 0-28-14-9.6-14-9.6-40 0-25 12-40t32-15q5.3 0 11 1.1 5.5 1.1 11 3.2zM66.2 181.35l35 46q4.9 6 4.9 6.9l-40 52q-.84-.56-40-52 0-.98 7.8-11zM683.2 957.35q9.6 0 15-6.5 5.6-6.5 5.6-18 0-11-5.6-18-5.6-6.5-15-6.5t-15 6.5q-5.6 6.6-5.6 18 0 11 5.6 18 5.6 6.5 15 6.5zm-28 45v-13q5.3 2.5 11 3.9 5.4 1.3 11 1.3 14 0 22-9.5 7.4-9.5 8.4-29-4.1 6.1-10 9.4-6.3 3.3-14 3.3-16 0-25-9.6-9.2-9.6-9.2-26 0-16 9.6-26 9.6-9.8 25-9.8 18 0 28 14 9.6 14 9.6 40 0 25-12 40t-32 15q-5.3 0-11-1.1-5.5-1.1-11-3.2zM681.2 864.35l-35-46q-4.9-6-4.9-6.9l40-52q.84.56 40 52 0 .98-7.8 11zM233.2 147.35q11 18 27 40 18 24 30 37-9 9.5-30 37-17 22-27 40-3.3-6.3-9-15-9.9-15-25-34-3.2-4.3-22-28 12-14 32-40 14-19 24-36zM233.2 898.35q11-18 27-40 18-24 30-37-9-9.5-30-37-17-22-27-40-3.3 6.3-9 15-9.9 15-25 34-3.2 4.3-22 28 12 14 32 40 14 19 24 36zM233.2 447.35q11 18 27 40 18 24 30 37-9 9.5-30 37-17 22-27 40-3.3-6.3-9-15-9.9-15-25-34-3.2-4.3-22-28 12-14 32-40 14-19 24-36zM513.2 147.35q11 18 27 40 18 24 30 37-9 9.5-30 37-17 22-27 40-3.3-6.3-9-15-9.9-15-25-34-3.2-4.3-22-28 12-14 32-40 14-19 24-36zM513.2 898.35q11-18 27-40 18-24 30-37-9-9.5-30-37-17-22-27-40-3.3 6.3-9 15-9.9 15-25 34-3.2 4.3-22 28 12 14 32 40 14 19 24 36zM513.2 447.35q11 18 27 40 18 24 30 37-9 9.5-30 37-17 22-27 40-3.3-6.3-9-15-9.9-15-25-34-3.2-4.3-22-28 12-14 32-40 14-19 24-36z"/></g></svg>