<?xml version="1.0" encoding="UTF-8" standalone="no"?>
<!-- Created with Inkscape (http://www.inkscape.org/) -->

<svg
   xmlns:dc="http://purl.org/dc/elements/1.1/"
   xmlns:cc="http://creativecommons.org/ns#"
   xmlns:rdf="http://www.w3.org/1999/02/22-rdf-syntax-ns#"
   xmlns:svg="http://www.w3.org/2000/svg"
   xmlns="http://www.w3.org/2000/svg"
   xmlns:sodipodi="http://sodipodi.sourceforge.net/DTD/sodipodi-0.dtd"
   xmlns:inkscape="http://www.inkscape.org/namespaces/inkscape"
   width="747.34698"
   height="1046.2856"
   id="svg2"
   sodipodi:version="0.32"
   inkscape:version="0.92.4 (5da689c313, 2019-01-14)"
   version="1.0"
   sodipodi:docname="Cards-4-Club.svg"
   inkscape:output_extension="org.inkscape.output.svg.inkscape">
  <defs
     id="defs4">
    <inkscape:perspective
       sodipodi:type="inkscape:persp3d"
       inkscape:vp_x="0 : 526.18109 : 1"
       inkscape:vp_y="0 : 1000 : 0"
       inkscape:vp_z="744.09448 : 526.18109 : 1"
       inkscape:persp3d-origin="372.04724 : 350.78739 : 1"
       id="perspective10" />
    <inkscape:perspective
       id="perspective2390"
       inkscape:persp3d-origin="372.04724 : 350.78739 : 1"
       inkscape:vp_z="744.09448 : 526.18109 : 1"
       inkscape:vp_y="0 : 1000 : 0"
       inkscape:vp_x="0 : 526.18109 : 1"
       sodipodi:type="inkscape:persp3d" />
  </defs>
  <sodipodi:namedview
     id="base"
     pagecolor="#ffffff"
     bordercolor="#666666"
     borderopacity="1.0"
     gridtolerance="10000"
     guidetolerance="10"
     objecttolerance="10"
     inkscape:pageopacity="0.0"
     inkscape:pageshadow="2"
     inkscape:zoom="0.35"
     inkscape:cx="-1110.6143"
     inkscape:cy="344.50979"
     inkscape:document-units="px"
     inkscape:current-layer="g2775"
     showgrid="false"
     showguides="true"
     inkscape:guide-bbox="true"
     inkscape:window-width="3840"
     inkscape:window-height="2066"
     inkscape:window-x="-11"
     inkscape:window-y="-11"
     inkscape:window-maximized="1" />
  <metadata
     id="metadata7">
    <rdf:RDF>
      <cc:Work
         rdf:about="">
        <dc:format>image/svg+xml</dc:format>
        <dc:type
           rdf:resource="http://purl.org/dc/dcmitype/StillImage" />
      </cc:Work>
    </rdf:RDF>
  </metadata>
  <g
     inkscape:label="Layer 1"
     inkscape:groupmode="layer"
     id="layer1"
     transform="translate(2.2448993,-0.6479052)">
    <g
       id="g2775"
       transform="translate(-2.0407968,-11.714273)">
      <path
         inkscape:connector-curvature="0"
         id="path889"
         style="font-style:normal;font-variant:normal;font-weight:normal;font-stretch:normal;font-size:144px;line-height:1.25;font-family:'Arial Narrow';-inkscape-font-specification:'Arial Narrow';text-align:center;text-anchor:middle;fill:#000000;fill-opacity:1;stroke:none;stroke-width:1px;stroke-linecap:butt;stroke-linejoin:miter;stroke-opacity:1"
         d="M 76.410805,66.44249 40.55143,122.48155 h 35.859375 z m -3.726563,-12.375 h 17.859375 v 68.41406 h 14.976563 v 11.8125 H 90.543617 v 24.75 H 76.410805 v -24.75 H 29.02018 v -13.71094 z" />
      <path
         inkscape:connector-curvature="0"
         id="path886"
         style="font-style:normal;font-variant:normal;font-weight:normal;font-stretch:normal;font-size:144px;line-height:1.25;font-family:'Arial Narrow';-inkscape-font-specification:'Arial Narrow';text-align:center;text-anchor:middle;fill:#000000;fill-opacity:1;stroke:none;stroke-width:1px;stroke-linecap:butt;stroke-linejoin:miter;stroke-opacity:1"
         d="m 65.617828,194.13779 q 15.046875,0 22.148438,15.96093 0.914062,3.65625 1.125,7.59375 0,8.22657 -8.4375,19.47657 l -4.21875,4.21875 h 0.210937 q 5.203125,-1.96875 11.109375,-1.96875 h 1.335938 q 16.734374,0 23.484374,14.20312 1.61719,4.64063 1.61719,8.85938 0,14.41406 -14.695314,21.72656 -2.8125,0.84375 -7.804688,1.26562 -17.015625,0 -24.117187,-19.26562 h -0.210938 v 0.63281 q 0,24.11719 5.765625,31.78125 v 0.42188 h -14.625 l -0.421875,-0.42188 q 5.976563,-9 5.976563,-32.41406 v -0.21094 h -0.210938 q -7.03125,19.47656 -24.257812,19.47656 -13.429688,0 -20.601563,-14.13281 -1.757812,-4.78125 -1.757812,-8.85937 0,-16.38282 17.296875,-22.21875 4.640625,-0.84375 8.226562,-0.84375 h 0.632813 q 6.046875,0 11.53125,1.96875 h 0.210937 v -0.21094 q -5.90625,-4.99219 -7.945312,-9.84375 -4.21875,-7.73438 -4.21875,-13.42969 v -0.98437 q 0,-14.13282 15.117187,-21.44532 4.992188,-1.33593 7.734375,-1.33593 z" />
      <path
         inkscape:connector-curvature="0"
         id="path883"
         style="font-style:normal;font-variant:normal;font-weight:normal;font-stretch:normal;font-size:144px;line-height:1.25;font-family:'Arial Narrow';-inkscape-font-specification:'Arial Narrow';text-align:center;text-anchor:middle;fill:#000000;fill-opacity:1;stroke:none;stroke-width:1px;stroke-linecap:butt;stroke-linejoin:miter;stroke-opacity:1"
         d="m 670.52802,1004.5675 35.85937,-56.03906 h -35.85937 z m 3.72656,12.375 H 656.3952 v -68.41406 h -14.97656 v -11.8125 h 14.97656 v -24.75 h 14.13282 v 24.75 h 47.39062 v 13.71094 z" />
      <path
         inkscape:connector-curvature="0"
         id="path880"
         style="font-style:normal;font-variant:normal;font-weight:normal;font-stretch:normal;font-size:144px;line-height:1.25;font-family:'Arial Narrow';-inkscape-font-specification:'Arial Narrow';text-align:center;text-anchor:middle;fill:#000000;fill-opacity:1;stroke:none;stroke-width:1px;stroke-linecap:butt;stroke-linejoin:miter;stroke-opacity:1"
         d="m 681.32098,876.87219 q -15.04687,0 -22.14843,-15.96094 -0.91407,-3.65625 -1.125,-7.59375 0,-8.22656 8.4375,-19.47656 l 4.21875,-4.21875 h -0.21094 q -5.20313,1.96875 -11.10938,1.96875 h -1.33593 q -16.73438,0 -23.48438,-14.20312 -1.61719,-4.64063 -1.61719,-8.85938 0,-14.41406 14.69532,-21.72656 2.8125,-0.84375 7.80468,-1.26563 17.01563,0 24.11719,19.26563 h 0.21094 v -0.63281 q 0,-24.11719 -5.76563,-31.78125 v -0.42188 h 14.625 l 0.42188,0.42188 q -5.97656,9 -5.97656,32.41406 v 0.21094 h 0.21093 q 7.03125,-19.47657 24.25782,-19.47657 13.42968,0 20.60156,14.13282 1.75781,4.78125 1.75781,8.85937 0,16.38281 -17.29687,22.21875 -4.64063,0.84375 -8.22657,0.84375 h -0.63281 q -6.04687,0 -11.53125,-1.96875 h -0.21094 v 0.21094 q 5.90625,4.99219 7.94532,9.84375 4.21875,7.73437 4.21875,13.42969 v 0.98437 q 0,14.13281 -15.11719,21.44531 -4.99219,1.33594 -7.73438,1.33594 z" />
      <path
         inkscape:connector-curvature="0"
         id="path877"
         style="font-style:normal;font-weight:normal;font-size:250px;line-height:1.25;font-family:Arial;text-align:center;text-anchor:middle;fill:#000000;fill-opacity:1;stroke:none;stroke-width:1px;stroke-linecap:butt;stroke-linejoin:miter;stroke-opacity:1"
         d="M 285.53238,310.63928 H 182.01675 l 0.97657,-4.15039 q 20.1416,-4.27246 26.7334,-8.42285 9.88769,-6.22559 16.11328,-18.43262 6.34765,-12.20703 6.34765,-25.75683 0,-1.95313 -0.12207,-5.61524 -7.44629,15.13672 -18.18847,22.09473 -10.62012,6.95801 -21.72852,6.95801 -14.16016,0 -24.04785,-9.8877 -9.8877,-9.88769 -9.8877,-24.29199 0,-14.16016 9.03321,-23.80371 9.0332,-9.76563 20.50781,-9.76563 7.32422,0 19.89746,6.22559 -5.12695,-8.54492 -6.71387,-12.81738 -1.46484,-4.39453 -1.46484,-9.39942 0,-13.91601 9.64355,-23.55957 9.64356,-9.64355 24.04786,-9.64355 14.40429,0 24.16992,9.64355 9.88769,9.64356 9.88769,22.94922 0,10.86426 -8.42285,22.82715 10.25391,-4.88281 12.3291,-5.49316 3.2959,-0.97657 7.44629,-0.97657 12.20703,0 21.11817,9.64356 9.0332,9.52148 9.0332,23.68164 0,14.64844 -9.8877,24.6582 -9.76562,9.8877 -23.55957,9.8877 -7.69043,0 -15.86914,-3.66211 -8.05664,-3.78418 -14.03808,-10.00977 -4.27246,-4.5166 -10.62012,-15.25879 0.48828,19.40918 5.85937,30.76172 5.49317,11.23047 16.72364,18.67676 7.56836,5.00488 27.22168,8.78906 z" />
      <path
         inkscape:connector-curvature="0"
         d="M 285.53238,760.37072 H 182.01675 l 0.97657,4.15039 q 20.1416,4.27246 26.7334,8.42285 9.88769,6.22559 16.11328,18.43262 6.34765,12.20703 6.34765,25.75683 0,1.95313 -0.12207,5.61524 -7.44629,-15.13672 -18.18847,-22.09473 -10.62012,-6.95801 -21.72852,-6.95801 -14.16016,0 -24.04785,9.8877 -9.8877,9.88769 -9.8877,24.29199 0,14.16016 9.03321,23.80371 9.0332,9.76563 20.50781,9.76563 7.32422,0 19.89746,-6.22559 -5.12695,8.54492 -6.71387,12.81738 -1.46484,4.39453 -1.46484,9.39942 0,13.91601 9.64355,23.55957 9.64356,9.64355 24.04786,9.64355 14.40429,0 24.16992,-9.64355 9.88769,-9.64356 9.88769,-22.94922 0,-10.86426 -8.42285,-22.82715 10.25391,4.88281 12.3291,5.49316 3.2959,0.97657 7.44629,0.97657 12.20703,0 21.11817,-9.64356 9.0332,-9.52148 9.0332,-23.68164 0,-14.64844 -9.8877,-24.6582 -9.76562,-9.8877 -23.55957,-9.8877 -7.69043,0 -15.86914,3.66211 -8.05664,3.78418 -14.03808,10.00977 -4.27246,4.5166 -10.62012,15.25879 0.48828,-19.40918 5.85937,-30.76172 5.49317,-11.23047 16.72364,-18.67676 7.56836,-5.00488 27.22168,-8.78906 z"
         style="font-style:normal;font-weight:normal;font-size:250px;line-height:1.25;font-family:Arial;text-align:center;text-anchor:middle;fill:#000000;fill-opacity:1;stroke:none;stroke-width:1px;stroke-linecap:butt;stroke-linejoin:miter;stroke-opacity:1"
         id="path896" />
      <path
         inkscape:connector-curvature="0"
         id="path874"
         style="font-style:normal;font-weight:normal;font-size:250px;line-height:1.25;font-family:Arial;text-align:center;text-anchor:middle;fill:#000000;fill-opacity:1;stroke:none;stroke-width:1px;stroke-linecap:butt;stroke-linejoin:miter;stroke-opacity:1"
         d="M 565.53235,310.63928 H 462.01672 l 0.97657,-4.15039 q 20.1416,-4.27246 26.73339,-8.42285 9.8877,-6.22559 16.11329,-18.43262 6.34765,-12.20703 6.34765,-25.75683 0,-1.95313 -0.12207,-5.61524 -7.44629,15.13672 -18.18847,22.09473 -10.62012,6.95801 -21.72852,6.95801 -14.16016,0 -24.04785,-9.8877 -9.8877,-9.88769 -9.8877,-24.29199 0,-14.16016 9.03321,-23.80371 9.0332,-9.76563 20.50781,-9.76563 7.32422,0 19.89746,6.22559 -5.12695,-8.54492 -6.71387,-12.81738 -1.46484,-4.39453 -1.46484,-9.39942 0,-13.91601 9.64355,-23.55957 9.64356,-9.64355 24.04785,-9.64355 14.4043,0 24.16993,9.64355 9.88769,9.64356 9.88769,22.94922 0,10.86426 -8.42285,22.82715 10.25391,-4.88281 12.3291,-5.49316 3.2959,-0.97657 7.44629,-0.97657 12.20703,0 21.11816,9.64356 9.03321,9.52148 9.03321,23.68164 0,14.64844 -9.8877,24.6582 -9.76562,9.8877 -23.55957,9.8877 -7.69043,0 -15.86914,-3.66211 -8.05664,-3.78418 -14.03808,-10.00977 -4.27247,-4.5166 -10.62012,-15.25879 0.48828,19.40918 5.85937,30.76172 5.49317,11.23047 16.72364,18.67676 7.56836,5.00488 27.22168,8.78906 z" />
      <path
         inkscape:connector-curvature="0"
         d="M 565.53238,760.37072 H 462.01675 l 0.97657,4.15039 q 20.1416,4.27246 26.7334,8.42285 9.88769,6.22559 16.11328,18.43262 6.34765,12.20703 6.34765,25.75683 0,1.95313 -0.12207,5.61524 -7.44629,-15.13672 -18.18847,-22.09473 -10.62012,-6.95801 -21.72852,-6.95801 -14.16016,0 -24.04785,9.8877 -9.8877,9.88769 -9.8877,24.29199 0,14.16016 9.03321,23.80371 9.0332,9.76563 20.50781,9.76563 7.32422,0 19.89746,-6.22559 -5.12695,8.54492 -6.71387,12.81738 -1.46484,4.39453 -1.46484,9.39942 0,13.91601 9.64355,23.55957 9.64356,9.64355 24.04786,9.64355 14.40429,0 24.16992,-9.64355 9.88769,-9.64356 9.88769,-22.94922 0,-10.86426 -8.42285,-22.82715 10.25391,4.88281 12.3291,5.49316 3.2959,0.97657 7.44629,0.97657 12.20703,0 21.11817,-9.64356 9.0332,-9.52148 9.0332,-23.68164 0,-14.64844 -9.8877,-24.6582 -9.76562,-9.8877 -23.55957,-9.8877 -7.69043,0 -15.86914,3.66211 -8.05664,3.78418 -14.03808,10.00977 -4.27246,4.5166 -10.62012,15.25879 0.48828,-19.40918 5.85937,-30.76172 5.49317,-11.23047 16.72364,-18.67676 7.56836,-5.00488 27.22168,-8.78906 z"
         style="font-style:normal;font-weight:normal;font-size:250px;line-height:1.25;font-family:Arial;text-align:center;text-anchor:middle;fill:#000000;fill-opacity:1;stroke:none;stroke-width:1px;stroke-linecap:butt;stroke-linejoin:miter;stroke-opacity:1"
         id="path892" />
    </g>
  </g>
</svg>
