<svg version="1.0" viewBox="0 0 747 1000" xmlns="http://www.w3.org/2000/svg" xmlns:xlink="http://www.w3.org/1999/xlink"><g transform="translate(2.2 -.65)"><path d="M549 369V192l12-30 12 30v177" fill="#bfbfbf" stroke="#000"/><path d="M550 377h-27s-8.2-5.1-8.1-8.7c.044-3.6 8.5-8.7 8.5-8.7h74s8.5 5.1 8.5 8.7c.044 3.6-8.1 8.7-8.1 8.7h-27l.11 82c0 6.4-21 6.1-21 0z" fill="#bbb700" stroke="#000"/><path d="M187 640v177l-12 30-12-30V640" fill="#bfbfbf" stroke="#000"/><path d="M186 632h27s8.2 5.1 8.1 8.7c-.044 3.6-8.5 8.7-8.5 8.7h-74s-8.5-5.1-8.5-8.7c-.044-3.6 8.1-8.7 8.1-8.7h27l-.11-82c0-6.4 21-6.1 21 0z" fill="#bbb700" stroke="#000"/><path d="M26 42h14v44l47-44h18L53 91l56 56H90L40 96v51H26zM64 182q6.6 12 22 31 17 20 17 24 2.7 6 2.7 12v2.8q0 12-11 18-3.7 1.5-8.2 1.5-11 0-18-16h-3v.84q0 20 5.8 30h-15v-.42q6-11 6-31l-.21-.21h-2.7l-3.3 6.2q-6 9.4-15 9.4-13 0-18-15l-.63-5.1v-3.2q0-13 13-27 22-27 28-39l.21-.21zM717 1000h-14v-44l-47 44h-18l52-49-56-56h19l50 51v-51h14zM679 865q-6.6-12-22-31-17-20-17-24-2.7-6-2.7-12v-2.8q0-12 11-18 3.7-1.5 8.2-1.5 11 0 18 16h3v-.84q0-20-5.8-30h15v.42q-6 11-6 31l.21.21h2.7l3.3-6.2q6-9.4 15-9.4 13 0 18 15l.63 5.1v3.2q0 13-13 27-22 27-28 39l-.21.21z"/><path d="M117 92h509v863H117z" fill="none" opacity=".78" stroke-linecap="square" stroke-width="8.5" stroke="#000"/><path d="M201 115q3.2 13 9.8 24 6.6 10 23 26 17 15 21 23t4.5 17q0 12-7.8 20t-19 7.8q-9.5 0-17-5.9-7.7-6-14-17 .12 18 4.6 29 4.6 10 15 17 10 6 27 7.1l.85 4.5h-97l.98-4.5q22 0 35-13 12-13 12-39-5.5 12-14 17-8.1 5.7-18 5.7-11 0-19-7.9-7.8-7.9-7.8-19 0-8.9 4-16 5.5-10 18-20t18-17q8.9-10 13-18 4.2-7.9 6.5-19zM545 925q3.2-13 9.8-24 6.6-10 23-26 17-15 21-23t4.5-17q0-12-7.8-20t-19-7.8q-9.5 0-17 5.9-7.7 6-14 17 .12-18 4.6-29 4.6-10 15-17 10-6 27-7.1l.85-4.5h-97l.98 4.5q22 0 35 13 12 13 12 39-5.5-12-14-17-8.1-5.7-18-5.7-11 0-19 7.9-7.8 7.9-7.8 19 0 8.9 4 16 5.5 10 18 20t18 17q8.9 10 13 18 4.2 7.9 6.5 19z"/><path id="z" d="M310 316l129-12c10 2.1 5 12 9.4 21 43 80 170 157 172 185l-498 .12c22-32 97-102 187-165v-29z" stroke="#000"/><path d="M325 223c-3 9.3-2.6 18-3.4 26 0 1.8-6.9 22-6.9 22l.058 2.8c-.044.33 3 3.6 6 3.9l-1.3 14c-1.1.77 5.8-.96 5.8.3 0 1.4-6.4 4-6.4 4 0 6.8-4.3 16-.79 20 4.2 4.2 41-.065 41-.065 48 0 49-35 49-35 0-40-2.6-66-2.6-66-2.5-.014-18-2.8-35-1.1-19 1.9-30 4.2-45 9z" fill="#ddbdd0" stroke="#ddbdd0"/><path d="M378 209l9 140 64-13-9.3-114z" fill="#b2b2b2" stroke="#000"/><path d="M329 238c8.1-1.2 14 .35 21 6.2" fill="none" stroke-linecap="round" stroke-linejoin="round" stroke-width="4" stroke="#000"/><path id="a" d="M384 214l10 161" fill="none" stroke="#000"/><use id="b" transform="translate(8 2.9)" width="747.347" height="1046.286" xlink:href="#a"/><use id="c" transform="translate(8 2.9)" width="747.347" height="1046.286" xlink:href="#b"/><use id="d" transform="translate(8 2.4)" width="747.347" height="1046.286" xlink:href="#c"/><use id="e" transform="translate(8 5.3)" width="747.347" height="1046.286" xlink:href="#d"/><use id="f" transform="translate(8 .93)" width="747.347" height="1046.286" xlink:href="#e"/><use transform="translate(8 10)" width="747.347" height="1046.286" xlink:href="#f"/><path d="M334 244c4.2.89 4.6 1.1 8.1 5.1-3.7 1.5-5 1.7-8.9 1.4-7.8-1.3-5.6-7.4.75-6.5z" fill="#fff" stroke-width=".5" stroke="#000"/><path d="M337 247a3.1 2.9 0 01-3.1 2.9 3.1 2.9 0 01-3.1-2.9 3.1 2.9 0 013.1-2.9 3.1 2.9 0 013.1 2.9z" fill="#165044" stroke-linecap="round" stroke-linejoin="round" stroke-width=".5" stroke="#000"/><path d="M334 247a.76.69 0 01-.76.69.76.69 0 01-.76-.69.76.69 0 01.76-.69.76.69 0 01.76.69z" stroke-linecap="round" stroke-linejoin="round" stroke-width=".5" stroke="#000"/><path id="g" d="M318 306l-2.8 6.7" fill="none" stroke="#5a5a5a"/><use id="h" transform="translate(2)" width="747.347" height="1046.286" xlink:href="#g"/><use id="i" transform="translate(2)" width="747.347" height="1046.286" xlink:href="#h"/><use id="j" transform="translate(2)" width="747.347" height="1046.286" xlink:href="#i"/><use id="k" transform="translate(2)" width="747.347" height="1046.286" xlink:href="#j"/><use id="l" transform="translate(2)" width="747.347" height="1046.286" xlink:href="#k"/><use id="m" transform="translate(2)" width="747.347" height="1046.286" xlink:href="#l"/><use id="n" transform="translate(2)" width="747.347" height="1046.286" xlink:href="#m"/><use id="o" transform="translate(2)" width="747.347" height="1046.286" xlink:href="#n"/><use transform="translate(2.2)" width="747.347" height="1046.286" xlink:href="#o"/><use id="p" transform="translate(.8 7.3)" width="747.347" height="1046.286" xlink:href="#g"/><use id="q" transform="translate(2)" width="747.347" height="1046.286" xlink:href="#p"/><use id="r" transform="translate(2)" width="747.347" height="1046.286" xlink:href="#q"/><use id="s" transform="translate(2)" width="747.347" height="1046.286" xlink:href="#r"/><use id="t" transform="translate(2)" width="747.347" height="1046.286" xlink:href="#s"/><use id="u" transform="translate(2)" width="747.347" height="1046.286" xlink:href="#t"/><use id="v" transform="translate(2)" width="747.347" height="1046.286" xlink:href="#u"/><use id="w" transform="translate(2)" width="747.347" height="1046.286" xlink:href="#v"/><use id="x" transform="translate(2)" width="747.347" height="1046.286" xlink:href="#w"/><use id="y" transform="translate(2)" width="747.347" height="1046.286" xlink:href="#x"/><use transform="translate(2)" width="747.347" height="1046.286" xlink:href="#y"/><path d="M336 289c.12-.095.28.034.33.14.14.31-.15.63-.44.71-.61.17-1.1-.36-1.3-.92-.2-1 .68-1.9 1.6-2 1.5-.21 2.8 1.1 2.9 2.6.21 2.2-1.7 3.9-3.8 4.1-2 .14-9.4-2.3-12-3.4" fill="none" stroke-linecap="round" stroke="#484848"/><path d="M321 226l126 16 2-42-10-38-20 35-9.7-36-19 32-9.3-35-18 31-8.8-33-20 34v-35l-8.4 31z" fill="#bbb700" stroke-linejoin="round" stroke="#000"/><use transform="rotate(180 371.5 500)" width="747.347" height="1046.286" xlink:href="#z"/><path d="M418 795c3-9.3 2.6-18 3.4-26 0-1.8 6.9-22 6.9-22l-.058-2.8c.044-.33-3-3.6-6-3.9l1.3-14c1.1-.77-5.8.96-5.8-.3 0-1.4 6.4-4 6.4-4 0-6.8 4.3-16 .79-20-4.2-4.2-41 .065-41 .065-48 0-49 35-49 35 0 40 2.6 66 2.6 66 2.5.014 18 2.8 35 1.1 19-1.9 30-4.2 45-9z" fill="#ddbdd0" stroke="#ddbdd0"/><path d="M365 809l-9-140-64 13 9.3 114z" fill="#b2b2b2" stroke="#000"/><path d="M415 781c-8.1 1.2-14-.35-21-6.2" fill="none" stroke-linecap="round" stroke-linejoin="round" stroke-width="4" stroke="#000"/><path d="M359 805l-10-161" fill="none" stroke="#000"/><use transform="rotate(180 368 508)" width="747.347" height="1046.286" xlink:href="#a"/><use transform="rotate(180 368 508)" width="747.347" height="1046.286" xlink:href="#b"/><use transform="rotate(180 368 508)" width="747.347" height="1046.286" xlink:href="#c"/><use transform="rotate(180 368 507)" width="747.347" height="1046.286" xlink:href="#d"/><use transform="rotate(180 368 509)" width="747.347" height="1046.286" xlink:href="#e"/><use transform="rotate(180 368 504)" width="747.347" height="1046.286" xlink:href="#f"/><path d="M409 775c-4.2-.89-4.6-1.1-8.1-5.1 3.7-1.5 5-1.7 8.9-1.4 7.8 1.3 5.6 7.4-.75 6.5z" fill="#fff" stroke-width=".5" stroke="#000"/><path d="M407 772a2.9 3.1 90 013.1-2.9 2.9 3.1 90 013.1 2.9 2.9 3.1 90 01-3.1 2.9 2.9 3.1 90 01-3.1-2.9z" fill="#165044" stroke-linecap="round" stroke-linejoin="round" stroke-width=".5" stroke="#000"/><path d="M409 772a.69.76 90 01.76-.69.69.76 90 01.76.69.69.76 90 01-.76.69.69.76 90 01-.76-.69z" stroke-linecap="round" stroke-linejoin="round" stroke-width=".5" stroke="#000"/><path d="M426 713l2.8-6.7" fill="none" stroke="#5a5a5a"/><use transform="rotate(180 371 509)" width="747.347" height="1046.286" xlink:href="#g"/><use transform="rotate(180 371 509)" width="747.347" height="1046.286" xlink:href="#h"/><use transform="rotate(180 371 509)" width="747.347" height="1046.286" xlink:href="#i"/><use transform="rotate(180 371 509)" width="747.347" height="1046.286" xlink:href="#j"/><use transform="rotate(180 371 509)" width="747.347" height="1046.286" xlink:href="#k"/><use transform="rotate(180 371 509)" width="747.347" height="1046.286" xlink:href="#l"/><use transform="rotate(180 371 509)" width="747.347" height="1046.286" xlink:href="#m"/><use transform="rotate(180 371 509)" width="747.347" height="1046.286" xlink:href="#n"/><use transform="rotate(180 371 509)" width="747.347" height="1046.286" xlink:href="#o"/><use transform="rotate(180 371 506)" width="747.347" height="1046.286" xlink:href="#g"/><use transform="rotate(180 371 509)" width="747.347" height="1046.286" xlink:href="#p"/><use transform="rotate(180 371 509)" width="747.347" height="1046.286" xlink:href="#q"/><use transform="rotate(180 371 509)" width="747.347" height="1046.286" xlink:href="#r"/><use transform="rotate(180 371 509)" width="747.347" height="1046.286" xlink:href="#s"/><use transform="rotate(180 371 509)" width="747.347" height="1046.286" xlink:href="#t"/><use transform="rotate(180 371 509)" width="747.347" height="1046.286" xlink:href="#u"/><use transform="rotate(180 371 509)" width="747.347" height="1046.286" xlink:href="#v"/><use transform="rotate(180 371 509)" width="747.347" height="1046.286" xlink:href="#w"/><use transform="rotate(180 371 509)" width="747.347" height="1046.286" xlink:href="#x"/><use transform="rotate(180 371 509)" width="747.347" height="1046.286" xlink:href="#y"/><path d="M407 730c-.12.095-.28-.034-.33-.14-.14-.31.15-.63.44-.71.61-.17 1.1.36 1.3.92.2 1-.68 1.9-1.6 2-1.5.21-2.8-1.1-2.9-2.6-.21-2.2 1.7-3.9 3.8-4.1 2-.14 9.4 2.3 12 3.4" fill="none" stroke-linecap="round" stroke="#484848"/><path d="M423 792l-126-16-2 42 10 38 20-35 9.7 36 19-32 9.3 35 18-31 8.8 33 20-34v35l8.4-31z" fill="#bbb700" stroke-linejoin="round" stroke="#000"/><path id="A" d="M560 165v195h1V165l-.5-1.2-.5 1.2z" fill="#727272"/><use transform="rotate(180 368 500)" width="747.347" height="1046.286" xlink:href="#A"/></g></svg>