<svg version="1.0" viewBox="0 0 747 1000" xmlns="http://www.w3.org/2000/svg"><g fill="red"><path d="M27.2 41.35h68v6l-38 99h-15l36-93h-50zM66.2 181.35l35 46q4.9 6 4.9 6.9l-40 52q-.84-.56-40-52 0-.98 7.8-11zM720.2 999.35h-68v-6l38-99h15l-36 93h50zM681.2 864.35l-35-46q-4.9-6-4.9-6.9l40-52q.84.56 40 52 0 .98-7.8 11zM233.2 148.35q11 18 27 40 18 24 30 37-9 9.5-30 37-17 22-27 40-3.3-6.3-9-15-9.9-15-25-34-3.2-4.3-22-28 12-14 32-40 14-19 24-36zM233.2 898.35q11-18 27-40 18-24 30-37-9-9.5-30-37-17-22-27-40-3.3 6.3-9 15-9.9 15-25 34-3.2 4.3-22 28 12 14 32 40 14 19 24 36zM233.2 448.35q11 18 27 40 18 24 30 37-9 9.5-30 37-17 22-27 40-3.3-6.3-9-15-9.9-15-25-34-3.2-4.3-22-28 12-14 32-40 14-19 24-36zM513.2 148.35q11 18 27 40 18 24 30 37-9 9.5-30 37-17 22-27 40-3.3-6.3-9-15-9.9-15-25-34-3.2-4.3-22-28 12-14 32-40 14-19 24-36zM513.2 898.35q11-18 27-40 18-24 30-37-9-9.5-30-37-17-22-27-40-3.3 6.3-9 15-9.9 15-25 34-3.2 4.3-22 28 12 14 32 40 14 19 24 36zM513.2 448.35q11 18 27 40 18 24 30 37-9 9.5-30 37-17 22-27 40-3.3-6.3-9-15-9.9-15-25-34-3.2-4.3-22-28 12-14 32-40 14-19 24-36zM373.2 308.35q11 18 27 40 18 24 30 37-9 9.5-30 37-17 22-27 40-3.3-6.3-9-15-9.9-15-25-34-3.2-4.3-22-28 12-14 32-40 14-19 24-36z"/></g></svg>