<?xml version="1.0" encoding="UTF-8" standalone="no"?>
<!-- Created with Inkscape (http://www.inkscape.org/) -->

<svg
   xmlns:dc="http://purl.org/dc/elements/1.1/"
   xmlns:cc="http://creativecommons.org/ns#"
   xmlns:rdf="http://www.w3.org/1999/02/22-rdf-syntax-ns#"
   xmlns:svg="http://www.w3.org/2000/svg"
   xmlns="http://www.w3.org/2000/svg"
   xmlns:sodipodi="http://sodipodi.sourceforge.net/DTD/sodipodi-0.dtd"
   xmlns:inkscape="http://www.inkscape.org/namespaces/inkscape"
   width="747.34698"
   height="1046.2856"
   id="svg2"
   sodipodi:version="0.32"
   inkscape:version="0.92.4 (5da689c313, 2019-01-14)"
   version="1.0"
   sodipodi:docname="Cards-10-Diamond.svg"
   inkscape:output_extension="org.inkscape.output.svg.inkscape">
  <defs
     id="defs4">
    <inkscape:perspective
       sodipodi:type="inkscape:persp3d"
       inkscape:vp_x="0 : 526.18109 : 1"
       inkscape:vp_y="0 : 1000 : 0"
       inkscape:vp_z="744.09448 : 526.18109 : 1"
       inkscape:persp3d-origin="372.04724 : 350.78739 : 1"
       id="perspective10" />
    <inkscape:perspective
       id="perspective2390"
       inkscape:persp3d-origin="372.04724 : 350.78739 : 1"
       inkscape:vp_z="744.09448 : 526.18109 : 1"
       inkscape:vp_y="0 : 1000 : 0"
       inkscape:vp_x="0 : 526.18109 : 1"
       sodipodi:type="inkscape:persp3d" />
  </defs>
  <sodipodi:namedview
     id="base"
     pagecolor="#ffffff"
     bordercolor="#666666"
     borderopacity="1.0"
     gridtolerance="10000"
     guidetolerance="10"
     objecttolerance="10"
     inkscape:pageopacity="0.0"
     inkscape:pageshadow="2"
     inkscape:zoom="0.35"
     inkscape:cx="-416.0281"
     inkscape:cy="886.20915"
     inkscape:document-units="px"
     inkscape:current-layer="g2797"
     showgrid="false"
     showguides="true"
     inkscape:guide-bbox="true"
     inkscape:window-width="3840"
     inkscape:window-height="2066"
     inkscape:window-x="-11"
     inkscape:window-y="-11"
     inkscape:window-maximized="1" />
  <metadata
     id="metadata7">
    <rdf:RDF>
      <cc:Work
         rdf:about="">
        <dc:format>image/svg+xml</dc:format>
        <dc:type
           rdf:resource="http://purl.org/dc/dcmitype/StillImage" />
      </cc:Work>
    </rdf:RDF>
  </metadata>
  <g
     inkscape:label="Layer 1"
     inkscape:groupmode="layer"
     id="layer1"
     transform="translate(2.2448993,-0.6479052)">
    <g
       id="g2775"
       transform="translate(-2.0407968,-11.714273)">
      <g
         id="g2797">
        <path
           d="M 5.6061135,147.09093 H 28.809239 V 67.004988 l -25.2421879,5.0625 v -12.9375 l 25.1015629,-5.0625 h 14.203125 v 93.023442 h 23.203125 v 11.95312 H 5.6061135 Z"
           style="font-style:normal;font-variant:normal;font-weight:normal;font-stretch:normal;font-size:144px;line-height:1.25;font-family:'Arial Narrow';-inkscape-font-specification:'Arial Narrow';text-align:center;text-anchor:middle;fill:#ff0000;fill-opacity:1;stroke:none;stroke-width:1px;stroke-linecap:butt;stroke-linejoin:miter;stroke-opacity:1"
           id="path893"
           inkscape:connector-curvature="0" />
        <path
           d="m 125.20768,63.419051 q -10.96875,0 -16.52344,10.828125 -5.48438,10.757812 -5.48438,32.414064 0,21.58594 5.48438,32.41406 5.55469,10.75781 16.52344,10.75781 11.03906,0 16.52343,-10.75781 5.55469,-10.82812 5.55469,-32.41406 0,-21.656252 -5.55469,-32.414064 -5.48437,-10.828125 -16.52343,-10.828125 z m 0,-11.25 q 17.64843,0 26.92968,13.992187 9.35157,13.921875 9.35157,40.500002 0,26.50781 -9.35157,40.5 -9.28125,13.92187 -26.92968,13.92187 -17.64844,0 -27.000004,-13.92187 -9.28125,-13.99219 -9.28125,-40.5 0,-26.578127 9.28125,-40.500002 9.351564,-13.992187 27.000004,-13.992187 z"
           style="font-style:normal;font-variant:normal;font-weight:normal;font-stretch:normal;font-size:144px;line-height:1.25;font-family:'Arial Narrow';-inkscape-font-specification:'Arial Narrow';text-align:center;text-anchor:middle;fill:#ff0000;fill-opacity:1;stroke:none;stroke-width:1px;stroke-linecap:butt;stroke-linejoin:miter;stroke-opacity:1"
           id="path895"
           inkscape:connector-curvature="0" />
        <path
           d="m 69.20377,194.1378 35.36719,45.91406 q 4.85156,5.97657 4.85156,6.89063 l -40.21875,52.10156 q -0.84375,-0.5625 -40.359375,-52.10156 0,-0.98438 7.804688,-10.6875 z"
           style="font-style:normal;font-variant:normal;font-weight:normal;font-stretch:normal;font-size:144px;line-height:1.25;font-family:'Arial Narrow';-inkscape-font-specification:'Arial Narrow';text-align:center;text-anchor:middle;fill:#ff0000;fill-opacity:1;stroke:none;stroke-width:1px;stroke-linecap:butt;stroke-linejoin:miter;stroke-opacity:1"
           id="path898"
           inkscape:connector-curvature="0" />
        <path
           inkscape:connector-curvature="0"
           id="path951"
           style="font-style:normal;font-variant:normal;font-weight:normal;font-stretch:normal;font-size:144px;line-height:1.25;font-family:'Arial Narrow';-inkscape-font-specification:'Arial Narrow';text-align:center;text-anchor:middle;fill:#ff0000;fill-opacity:1;stroke:none;stroke-width:1px;stroke-linecap:butt;stroke-linejoin:miter;stroke-opacity:1"
           d="m 741.33268,923.91908 h -23.20313 v 80.08592 l 25.24219,-5.06248 V 1011.88 l -25.10156,5.0625 -14.20313,0 v -93.02342 h -23.20312 v -11.95312 h 60.46875 z" />
        <path
           inkscape:connector-curvature="0"
           id="path953"
           style="font-style:normal;font-variant:normal;font-weight:normal;font-stretch:normal;font-size:144px;line-height:1.25;font-family:'Arial Narrow';-inkscape-font-specification:'Arial Narrow';text-align:center;text-anchor:middle;fill:#ff0000;fill-opacity:1;stroke:none;stroke-width:1px;stroke-linecap:butt;stroke-linejoin:miter;stroke-opacity:1"
           d="m 621.73111,1007.591 q 10.96875,0 16.52344,-10.82817 5.48438,-10.75781 5.48438,-32.41406 0,-21.58594 -5.48438,-32.41406 -5.55469,-10.75781 -16.52344,-10.75781 -11.03906,0 -16.52343,10.75781 -5.55469,10.82812 -5.55469,32.41406 0,21.65625 5.55469,32.41406 5.48437,10.82817 16.52343,10.82817 z m 0,11.25 q -17.64843,0 -26.92968,-13.9922 -9.35157,-13.9219 -9.35157,-40.50003 0,-26.50781 9.35157,-40.5 9.28125,-13.92187 26.92968,-13.92187 17.64844,0 27,13.92187 9.28125,13.99219 9.28125,40.5 0,26.57813 -9.28125,40.50003 -9.35156,13.9922 -27,13.9922 z" />
        <path
           inkscape:connector-curvature="0"
           id="path955"
           style="font-style:normal;font-variant:normal;font-weight:normal;font-stretch:normal;font-size:144px;line-height:1.25;font-family:'Arial Narrow';-inkscape-font-specification:'Arial Narrow';text-align:center;text-anchor:middle;fill:#ff0000;fill-opacity:1;stroke:none;stroke-width:1px;stroke-linecap:butt;stroke-linejoin:miter;stroke-opacity:1"
           d="m 677.73502,876.87221 -35.36719,-45.91406 q -4.85156,-5.97657 -4.85156,-6.89063 l 40.21875,-52.10156 q 0.84375,0.5625 40.35937,52.10156 0,0.98438 -7.80468,10.6875 z" />
      </g>
    </g>
    <path
       inkscape:connector-curvature="0"
       id="path904"
       style="font-style:normal;font-weight:normal;font-size:250px;line-height:1.25;font-family:Arial;text-align:center;text-anchor:middle;fill:#ff0000;fill-opacity:1;stroke:none;stroke-width:1px;stroke-linecap:butt;stroke-linejoin:miter;stroke-opacity:1"
       d="m 231.18445,108.65646 q 10.86426,18.43262 26.7334,39.55078 18.31054,24.41407 29.54101,36.98731 -9.0332,9.52148 -29.54101,36.86523 -16.60157,22.2168 -26.61133,39.79493 -3.2959,-6.34766 -9.0332,-14.77051 -9.8877,-14.64844 -24.53614,-34.05762 -3.17383,-4.27246 -22.33886,-27.83203 12.3291,-14.03809 31.73828,-40.03906 14.40429,-19.28711 24.04785,-36.49903 z" />
    <path
       inkscape:connector-curvature="0"
       d="m 231.18445,938.92494 q 10.86426,-18.43262 26.7334,-39.55078 18.31054,-24.41407 29.54101,-36.98731 -9.0332,-9.52148 -29.54101,-36.86523 -16.60157,-22.2168 -26.61133,-39.79493 -3.2959,6.34766 -9.0332,14.77051 -9.8877,14.64844 -24.53614,34.05762 -3.17383,4.27246 -22.33886,27.83203 12.3291,14.03809 31.73828,40.03906 14.40429,19.28711 24.04785,36.49903 z"
       style="font-style:normal;font-weight:normal;font-size:250px;line-height:1.25;font-family:Arial;text-align:center;text-anchor:middle;fill:#ff0000;fill-opacity:1;stroke:none;stroke-width:1px;stroke-linecap:butt;stroke-linejoin:miter;stroke-opacity:1"
       id="path926" />
    <path
       inkscape:connector-curvature="0"
       d="m 231.18445,328.65646 q 10.86426,18.43262 26.7334,39.55078 18.31054,24.41407 29.54101,36.98731 -9.0332,9.52148 -29.54101,36.86523 -16.60157,22.2168 -26.61133,39.79493 -3.2959,-6.34766 -9.0332,-14.77051 -9.8877,-14.64844 -24.53614,-34.05762 -3.17383,-4.27246 -22.33886,-27.83203 12.3291,-14.03809 31.73828,-40.03906 14.40429,-19.28711 24.04785,-36.49903 z"
       style="font-style:normal;font-weight:normal;font-size:250px;line-height:1.25;font-family:Arial;text-align:center;text-anchor:middle;fill:#ff0000;fill-opacity:1;stroke:none;stroke-width:1px;stroke-linecap:butt;stroke-linejoin:miter;stroke-opacity:1"
       id="path930" />
    <path
       inkscape:connector-curvature="0"
       d="m 231.18445,718.92494 q 10.86426,-18.43262 26.7334,-39.55078 18.31054,-24.41407 29.54101,-36.98731 -9.0332,-9.52148 -29.54101,-36.86523 -16.60157,-22.2168 -26.61133,-39.79493 -3.2959,6.34766 -9.0332,14.77051 -9.8877,14.64844 -24.53614,34.05762 -3.17383,4.27246 -22.33886,27.83203 12.3291,14.03809 31.73828,40.03906 14.40429,19.28711 24.04785,36.49903 z"
       style="font-style:normal;font-weight:normal;font-size:250px;line-height:1.25;font-family:Arial;text-align:center;text-anchor:middle;fill:#ff0000;fill-opacity:1;stroke:none;stroke-width:1px;stroke-linecap:butt;stroke-linejoin:miter;stroke-opacity:1"
       id="path914" />
    <path
       inkscape:connector-curvature="0"
       id="path901"
       style="font-style:normal;font-weight:normal;font-size:250px;line-height:1.25;font-family:Arial;text-align:center;text-anchor:middle;fill:#ff0000;fill-opacity:1;stroke:none;stroke-width:1px;stroke-linecap:butt;stroke-linejoin:miter;stroke-opacity:1"
       d="m 511.18445,108.65646 q 10.86426,18.43262 26.7334,39.55078 18.31054,24.41407 29.54101,36.98731 -9.0332,9.52148 -29.54101,36.86523 -16.60157,22.2168 -26.61133,39.79493 -3.2959,-6.34766 -9.0332,-14.77051 -9.8877,-14.64844 -24.53614,-34.05762 -3.17383,-4.27246 -22.33886,-27.83203 12.3291,-14.03809 31.73828,-40.03906 14.40429,-19.28711 24.04785,-36.49903 z" />
    <path
       inkscape:connector-curvature="0"
       d="m 511.18445,938.92494 q 10.86426,-18.43262 26.7334,-39.55078 18.31054,-24.41407 29.54101,-36.98731 -9.0332,-9.52148 -29.54101,-36.86523 -16.60157,-22.2168 -26.61133,-39.79493 -3.2959,6.34766 -9.0332,14.77051 -9.8877,14.64844 -24.53614,34.05762 -3.17383,4.27246 -22.33886,27.83203 12.3291,14.03809 31.73828,40.03906 14.40429,19.28711 24.04785,36.49903 z"
       style="font-style:normal;font-weight:normal;font-size:250px;line-height:1.25;font-family:Arial;text-align:center;text-anchor:middle;fill:#ff0000;fill-opacity:1;stroke:none;stroke-width:1px;stroke-linecap:butt;stroke-linejoin:miter;stroke-opacity:1"
       id="path922" />
    <path
       inkscape:connector-curvature="0"
       d="m 511.18445,328.65646 q 10.86426,18.43262 26.7334,39.55078 18.31054,24.41407 29.54101,36.98731 -9.0332,9.52148 -29.54101,36.86523 -16.60157,22.2168 -26.61133,39.79493 -3.2959,-6.34766 -9.0332,-14.77051 -9.8877,-14.64844 -24.53614,-34.05762 -3.17383,-4.27246 -22.33886,-27.83203 12.3291,-14.03809 31.73828,-40.03906 14.40429,-19.28711 24.04785,-36.49903 z"
       style="font-style:normal;font-weight:normal;font-size:250px;line-height:1.25;font-family:Arial;text-align:center;text-anchor:middle;fill:#ff0000;fill-opacity:1;stroke:none;stroke-width:1px;stroke-linecap:butt;stroke-linejoin:miter;stroke-opacity:1"
       id="path918" />
    <path
       inkscape:connector-curvature="0"
       d="m 511.18445,718.92494 q 10.86426,-18.43262 26.7334,-39.55078 18.31054,-24.41407 29.54101,-36.98731 -9.0332,-9.52148 -29.54101,-36.86523 -16.60157,-22.2168 -26.61133,-39.79493 -3.2959,6.34766 -9.0332,14.77051 -9.8877,14.64844 -24.53614,34.05762 -3.17383,4.27246 -22.33886,27.83203 12.3291,14.03809 31.73828,40.03906 14.40429,19.28711 24.04785,36.49903 z"
       style="font-style:normal;font-weight:normal;font-size:250px;line-height:1.25;font-family:Arial;text-align:center;text-anchor:middle;fill:#ff0000;fill-opacity:1;stroke:none;stroke-width:1px;stroke-linecap:butt;stroke-linejoin:miter;stroke-opacity:1"
       id="path910" />
    <path
       inkscape:connector-curvature="0"
       id="path907"
       style="font-style:normal;font-weight:normal;font-size:250px;line-height:1.25;font-family:Arial;text-align:center;text-anchor:middle;fill:#ff0000;fill-opacity:1;stroke:none;stroke-width:1px;stroke-linecap:butt;stroke-linejoin:miter;stroke-opacity:1"
       d="m 371.18445,234.65643 q 10.86426,18.43262 26.7334,39.55078 18.31054,24.41407 29.54101,36.98731 -9.0332,9.52148 -29.54101,36.86523 -16.60157,22.2168 -26.61133,39.79493 -3.2959,-6.34766 -9.0332,-14.77051 -9.8877,-14.64844 -24.53614,-34.05762 -3.17383,-4.27246 -22.33886,-27.83203 12.3291,-14.03809 31.73828,-40.03906 14.40429,-19.28711 24.04785,-36.49903 z" />
    <path
       inkscape:connector-curvature="0"
       d="m 371.18445,824.92497 q 10.86426,-18.43262 26.7334,-39.55078 18.31054,-24.41407 29.54101,-36.98731 -9.0332,-9.52148 -29.54101,-36.86523 -16.60157,-22.2168 -26.61133,-39.79493 -3.2959,6.34766 -9.0332,14.77051 -9.8877,14.64844 -24.53614,34.05762 -3.17383,4.27246 -22.33886,27.83203 12.3291,14.03809 31.73828,40.03906 14.40429,19.28711 24.04785,36.49903 z"
       style="font-style:normal;font-weight:normal;font-size:250px;line-height:1.25;font-family:Arial;text-align:center;text-anchor:middle;fill:#ff0000;fill-opacity:1;stroke:none;stroke-width:1px;stroke-linecap:butt;stroke-linejoin:miter;stroke-opacity:1"
       id="path934" />
  </g>
</svg>
