<?xml version="1.0" encoding="UTF-8" standalone="no"?>
<!-- Created with Inkscape (http://www.inkscape.org/) -->

<svg
   xmlns:dc="http://purl.org/dc/elements/1.1/"
   xmlns:cc="http://creativecommons.org/ns#"
   xmlns:rdf="http://www.w3.org/1999/02/22-rdf-syntax-ns#"
   xmlns:svg="http://www.w3.org/2000/svg"
   xmlns="http://www.w3.org/2000/svg"
   xmlns:sodipodi="http://sodipodi.sourceforge.net/DTD/sodipodi-0.dtd"
   xmlns:inkscape="http://www.inkscape.org/namespaces/inkscape"
   width="747.34698"
   height="1046.2856"
   id="svg2"
   sodipodi:version="0.32"
   inkscape:version="0.92.4 (5da689c313, 2019-01-14)"
   version="1.0"
   sodipodi:docname="Cards-9-Heart.svg"
   inkscape:output_extension="org.inkscape.output.svg.inkscape">
  <defs
     id="defs4">
    <inkscape:perspective
       sodipodi:type="inkscape:persp3d"
       inkscape:vp_x="0 : 526.18109 : 1"
       inkscape:vp_y="0 : 1000 : 0"
       inkscape:vp_z="744.09448 : 526.18109 : 1"
       inkscape:persp3d-origin="372.04724 : 350.78739 : 1"
       id="perspective10" />
    <inkscape:perspective
       id="perspective2390"
       inkscape:persp3d-origin="372.04724 : 350.78739 : 1"
       inkscape:vp_z="744.09448 : 526.18109 : 1"
       inkscape:vp_y="0 : 1000 : 0"
       inkscape:vp_x="0 : 526.18109 : 1"
       sodipodi:type="inkscape:persp3d" />
  </defs>
  <sodipodi:namedview
     id="base"
     pagecolor="#ffffff"
     bordercolor="#666666"
     borderopacity="1.0"
     gridtolerance="10000"
     guidetolerance="10"
     objecttolerance="10"
     inkscape:pageopacity="0.0"
     inkscape:pageshadow="2"
     inkscape:zoom="0.35000001"
     inkscape:cx="-1275.2104"
     inkscape:cy="124.48314"
     inkscape:document-units="px"
     inkscape:current-layer="g2415"
     showgrid="false"
     showguides="true"
     inkscape:guide-bbox="true"
     inkscape:window-width="3840"
     inkscape:window-height="2066"
     inkscape:window-x="-11"
     inkscape:window-y="-11"
     inkscape:window-maximized="1" />
  <metadata
     id="metadata7">
    <rdf:RDF>
      <cc:Work
         rdf:about="">
        <dc:format>image/svg+xml</dc:format>
        <dc:type
           rdf:resource="http://purl.org/dc/dcmitype/StillImage" />
      </cc:Work>
    </rdf:RDF>
  </metadata>
  <g
     inkscape:label="Layer 1"
     inkscape:groupmode="layer"
     id="layer1"
     transform="translate(2.2448993,-0.6479052)">
    <path
       inkscape:connector-curvature="0"
       id="path876"
       style="font-style:normal;font-variant:normal;font-weight:normal;font-stretch:normal;font-size:144px;line-height:1.25;font-family:'Arial Narrow';-inkscape-font-specification:'Arial Narrow';text-align:center;text-anchor:middle;fill:#ff0000;fill-opacity:1;stroke:none;stroke-width:1px;stroke-linecap:butt;stroke-linejoin:miter;stroke-opacity:1"
       d="m 29.440311,145.15009 v -12.9375 q 5.34375,2.53125 10.828125,3.86718 5.484375,1.33594 10.757813,1.33594 14.0625,0 21.445312,-9.42187 7.453125,-9.49219 8.507813,-28.757817 -4.078125,6.046877 -10.335938,9.281247 -6.257812,3.23438 -13.851562,3.23438 -15.75,0 -24.960938,-9.49219 -9.140625,-9.5625 -9.140625,-26.085937 0,-16.171875 9.5625,-25.945313 9.5625,-9.773437 25.453125,-9.773437 18.210938,0 27.773438,13.992187 9.632812,13.921875 9.632812,40.5 0,24.82031 -11.8125,39.65625 -11.742187,14.76563 -31.640625,14.76563 -5.34375,0 -10.828125,-1.05469 -5.484375,-1.05469 -11.390625,-3.16406 z m 28.265625,-44.50782 q 9.5625,0 15.117188,-6.53906 5.625,-6.539062 5.625,-17.929687 0,-11.320313 -5.625,-17.859375 -5.554688,-6.609375 -15.117188,-6.609375 -9.5625,0 -15.1875,6.609375 -5.554687,6.539062 -5.554687,17.859375 0,11.390625 5.554687,17.929687 5.625,6.53906 15.1875,6.53906 z" />
    <path
       inkscape:connector-curvature="0"
       id="path879"
       style="font-style:normal;font-variant:normal;font-weight:normal;font-stretch:normal;font-size:144px;line-height:1.25;font-family:'Arial Narrow';-inkscape-font-specification:'Arial Narrow';text-align:center;text-anchor:middle;fill:#ff0000;fill-opacity:1;stroke:none;stroke-width:1px;stroke-linecap:butt;stroke-linejoin:miter;stroke-opacity:1"
       d="m 37.772343,182.42352 q 14.273437,0 22.429687,16.52344 2.953125,6.53906 3.09375,9.98438 h 0.210938 q 2.460937,-11.39063 8.929687,-18.91407 7.59375,-7.59375 17.085938,-7.59375 14.695317,0 23.554687,15.75 2.25,5.83594 2.25,10.96875 0,17.57813 -14.625,33.53907 L 63.506718,287.32977 H 63.084843 L 23.569218,238.88446 q -11.8125,-14.41406 -11.8125,-29.74219 0,-14.83593 13.992187,-23.55468 5.90625,-3.16407 12.023438,-3.16407 z" />
    <path
       inkscape:connector-curvature="0"
       id="path873"
       style="font-style:normal;font-variant:normal;font-weight:normal;font-stretch:normal;font-size:144px;line-height:1.25;font-family:'Arial Narrow';-inkscape-font-specification:'Arial Narrow';text-align:center;text-anchor:middle;fill:#ff0000;fill-opacity:1;stroke:none;stroke-width:1px;stroke-linecap:butt;stroke-linejoin:miter;stroke-opacity:1"
       d="m 713.41687,902.43134 v 12.9375 q -5.34375,-2.53125 -10.82812,-3.86719 -5.48438,-1.33594 -10.75782,-1.33594 -14.0625,0 -21.44531,9.42188 -7.45312,9.49218 -8.50781,28.75781 4.07812,-6.04688 10.33594,-9.28125 6.25781,-3.23438 13.85156,-3.23438 15.75,0 24.96094,9.49219 9.14062,9.5625 9.14062,26.08594 0,16.17187 -9.5625,25.94531 -9.5625,9.77339 -25.45312,9.77339 -18.21094,0 -27.77344,-13.99214 -9.63281,-13.92187 -9.63281,-40.5 0,-24.82031 11.8125,-39.65625 11.74218,-14.76562 31.64062,-14.76562 5.34375,0 10.82813,1.05468 5.48437,1.05469 11.39062,3.16407 z m -28.26562,44.50781 q -9.5625,0 -15.11719,6.53906 -5.625,6.53906 -5.625,17.92969 0,11.32031 5.625,17.85937 5.55469,6.60938 15.11719,6.60938 9.5625,0 15.1875,-6.60938 5.55468,-6.53906 5.55468,-17.85937 0,-11.39063 -5.55468,-17.92969 -5.625,-6.53906 -15.1875,-6.53906 z" />
    <path
       inkscape:connector-curvature="0"
       id="path870"
       style="font-style:normal;font-variant:normal;font-weight:normal;font-stretch:normal;font-size:144px;line-height:1.25;font-family:'Arial Narrow';-inkscape-font-specification:'Arial Narrow';text-align:center;text-anchor:middle;fill:#ff0000;fill-opacity:1;stroke:none;stroke-width:1px;stroke-linecap:butt;stroke-linejoin:miter;stroke-opacity:1"
       d="m 705.08484,865.1579 q -14.27344,0 -22.42969,-16.52344 -2.95312,-6.53906 -3.09375,-9.98437 h -0.21094 q -2.46093,11.39062 -8.92968,18.91406 -7.59375,7.59375 -17.08594,7.59375 -14.69531,0 -23.55469,-15.75 -2.25,-5.83594 -2.25,-10.96875 0,-17.57813 14.625,-33.53906 l 37.19531,-44.64844 h 0.42188 l 39.51562,48.44531 q 11.8125,14.41406 11.8125,29.74219 0,14.83594 -13.99218,23.55469 -5.90625,3.16406 -12.02344,3.16406 z" />
    <g
       id="g2432"
       transform="translate(66.406249,0)">
      <g
         id="g2415"
         transform="translate(-2.0407968,-11.714273)">
        <path
           d="m 167.30728,273.56897 q -3.78418,-14.4043 -10.86426,-26.97754 -6.958,-12.69531 -27.09961,-39.30664 -14.7705,-19.53125 -18.18847,-24.78027 -5.61524,-8.54493 -8.17871,-15.625 -2.44141,-7.20215 -2.44141,-14.52637 0,-13.54981 9.0332,-22.70508 9.03321,-9.15527 22.33887,-9.15527 13.42774,0 23.31543,9.52148 7.44629,7.08008 12.08496,21.11817 4.02832,-13.79395 11.35254,-20.9961 10.13184,-9.76562 23.4375,-9.76562 13.18359,0 22.33887,9.15527 9.15527,9.0332 9.15527,21.60645 0,10.98632 -5.37109,22.94922 -5.3711,11.84082 -20.75196,31.12792 -20.01953,25.26856 -29.1748,41.50391 -7.20215,12.81738 -10.98633,26.85547 z"
           style="font-style:normal;font-weight:normal;font-size:250px;line-height:1.25;font-family:Arial;text-align:center;text-anchor:middle;fill:#ff0000;fill-opacity:1;stroke:none;stroke-width:1px;stroke-linecap:butt;stroke-linejoin:miter;stroke-opacity:1"
           id="path867"
           inkscape:connector-curvature="0" />
        <path
           id="path890"
           style="font-style:normal;font-weight:normal;font-size:250px;line-height:1.25;font-family:Arial;text-align:center;text-anchor:middle;fill:#ff0000;fill-opacity:1;stroke:none;stroke-width:1px;stroke-linecap:butt;stroke-linejoin:miter;stroke-opacity:1"
           d="m 167.30728,797.44103 q -3.78418,14.4043 -10.86426,26.97754 -6.958,12.69531 -27.09961,39.30664 -14.7705,19.53125 -18.18847,24.78027 -5.61524,8.54493 -8.17871,15.625 -2.44141,7.20215 -2.44141,14.52637 0,13.54981 9.0332,22.70508 9.03321,9.15527 22.33887,9.15527 13.42774,0 23.31543,-9.52148 7.44629,-7.08008 12.08496,-21.11817 4.02832,13.79395 11.35254,20.9961 10.13184,9.76562 23.4375,9.76562 13.18359,0 22.33887,-9.15527 9.15527,-9.0332 9.15527,-21.60645 0,-10.98632 -5.37109,-22.94922 -5.3711,-11.84082 -20.75196,-31.12792 -20.01953,-25.26856 -29.1748,-41.50391 -7.20215,-12.81738 -10.98633,-26.85547 z"
           inkscape:connector-curvature="0" />
        <path
           id="path886"
           style="font-style:normal;font-weight:normal;font-size:250px;line-height:1.25;font-family:Arial;text-align:center;text-anchor:middle;fill:#ff0000;fill-opacity:1;stroke:none;stroke-width:1px;stroke-linecap:butt;stroke-linejoin:miter;stroke-opacity:1"
           d="m 167.30728,493.56897 q -3.78418,-14.4043 -10.86426,-26.97754 -6.958,-12.69531 -27.09961,-39.30664 -14.7705,-19.53125 -18.18847,-24.78027 -5.61524,-8.54493 -8.17871,-15.625 -2.44141,-7.20215 -2.44141,-14.52637 0,-13.54981 9.0332,-22.70508 9.03321,-9.15527 22.33887,-9.15527 13.42774,0 23.31543,9.52148 7.44629,7.08008 12.08496,21.11817 4.02832,-13.79395 11.35254,-20.9961 10.13184,-9.76562 23.4375,-9.76562 13.18359,0 22.33887,9.15527 9.15527,9.0332 9.15527,21.60645 0,10.98632 -5.37109,22.94922 -5.3711,11.84082 -20.75196,31.12792 -20.01953,25.26856 -29.1748,41.50391 -7.20215,12.81738 -10.98633,26.85547 z"
           inkscape:connector-curvature="0" />
        <path
           id="path882"
           style="font-style:normal;font-weight:normal;font-size:250px;line-height:1.25;font-family:Arial;text-align:center;text-anchor:middle;fill:#ff0000;fill-opacity:1;stroke:none;stroke-width:1px;stroke-linecap:butt;stroke-linejoin:miter;stroke-opacity:1"
           d="m 167.30728,577.44103 q -3.78418,14.4043 -10.86426,26.97754 -6.958,12.69531 -27.09961,39.30664 -14.7705,19.53125 -18.18847,24.78027 -5.61524,8.54493 -8.17871,15.625 -2.44141,7.20215 -2.44141,14.52637 0,13.54981 9.0332,22.70508 9.03321,9.15527 22.33887,9.15527 13.42774,0 23.31543,-9.52148 7.44629,-7.08008 12.08496,-21.11817 4.02832,13.79395 11.35254,20.9961 10.13184,9.76562 23.4375,9.76562 13.18359,0 22.33887,-9.15527 9.15527,-9.0332 9.15527,-21.60645 0,-10.98632 -5.37109,-22.94922 -5.3711,-11.84082 -20.75196,-31.12792 -20.01953,-25.26856 -29.1748,-41.50391 -7.20215,-12.81738 -10.98633,-26.85547 z"
           inkscape:connector-curvature="0" />
        <path
           inkscape:connector-curvature="0"
           id="path903"
           style="font-style:normal;font-weight:normal;font-size:250px;line-height:1.25;font-family:Arial;text-align:center;text-anchor:middle;fill:#ff0000;fill-opacity:1;stroke:none;stroke-width:1px;stroke-linecap:butt;stroke-linejoin:miter;stroke-opacity:1"
           d="m 447.30728,273.56897 q -3.78418,-14.4043 -10.86426,-26.97754 -6.958,-12.69531 -27.09961,-39.30664 -14.7705,-19.53125 -18.18847,-24.78027 -5.61524,-8.54493 -8.17871,-15.625 -2.44141,-7.20215 -2.44141,-14.52637 0,-13.54981 9.0332,-22.70508 9.03321,-9.15527 22.33887,-9.15527 13.42774,0 23.31543,9.52148 7.44629,7.08008 12.08496,21.11817 4.02832,-13.79395 11.35254,-20.9961 10.13184,-9.76562 23.4375,-9.76562 13.18359,0 22.33887,9.15527 9.15527,9.0332 9.15527,21.60645 0,10.98632 -5.37109,22.94922 -5.3711,11.84082 -20.75196,31.12792 -20.01953,25.26856 -29.1748,41.50391 -7.20215,12.81738 -10.98633,26.85547 z" />
        <path
           inkscape:connector-curvature="0"
           d="m 447.30728,797.44103 q -3.78418,14.4043 -10.86426,26.97754 -6.958,12.69531 -27.09961,39.30664 -14.7705,19.53125 -18.18847,24.78027 -5.61524,8.54493 -8.17871,15.625 -2.44141,7.20215 -2.44141,14.52637 0,13.54981 9.0332,22.70508 9.03321,9.15527 22.33887,9.15527 13.42774,0 23.31543,-9.52148 7.44629,-7.08008 12.08496,-21.11817 4.02832,13.79395 11.35254,20.9961 10.13184,9.76562 23.4375,9.76562 13.18359,0 22.33887,-9.15527 9.15527,-9.0332 9.15527,-21.60645 0,-10.98632 -5.37109,-22.94922 -5.3711,-11.84082 -20.75196,-31.12792 -20.01953,-25.26856 -29.1748,-41.50391 -7.20215,-12.81738 -10.98633,-26.85547 z"
           style="font-style:normal;font-weight:normal;font-size:250px;line-height:1.25;font-family:Arial;text-align:center;text-anchor:middle;fill:#ff0000;fill-opacity:1;stroke:none;stroke-width:1px;stroke-linecap:butt;stroke-linejoin:miter;stroke-opacity:1"
           id="path905" />
        <path
           inkscape:connector-curvature="0"
           d="m 447.30728,493.56897 q -3.78418,-14.4043 -10.86426,-26.97754 -6.958,-12.69531 -27.09961,-39.30664 -14.7705,-19.53125 -18.18847,-24.78027 -5.61524,-8.54493 -8.17871,-15.625 -2.44141,-7.20215 -2.44141,-14.52637 0,-13.54981 9.0332,-22.70508 9.03321,-9.15527 22.33887,-9.15527 13.42774,0 23.31543,9.52148 7.44629,7.08008 12.08496,21.11817 4.02832,-13.79395 11.35254,-20.9961 10.13184,-9.76562 23.4375,-9.76562 13.18359,0 22.33887,9.15527 9.15527,9.0332 9.15527,21.60645 0,10.98632 -5.37109,22.94922 -5.3711,11.84082 -20.75196,31.12792 -20.01953,25.26856 -29.1748,41.50391 -7.20215,12.81738 -10.98633,26.85547 z"
           style="font-style:normal;font-weight:normal;font-size:250px;line-height:1.25;font-family:Arial;text-align:center;text-anchor:middle;fill:#ff0000;fill-opacity:1;stroke:none;stroke-width:1px;stroke-linecap:butt;stroke-linejoin:miter;stroke-opacity:1"
           id="path907" />
        <path
           inkscape:connector-curvature="0"
           d="m 447.30728,577.44103 q -3.78418,14.4043 -10.86426,26.97754 -6.958,12.69531 -27.09961,39.30664 -14.7705,19.53125 -18.18847,24.78027 -5.61524,8.54493 -8.17871,15.625 -2.44141,7.20215 -2.44141,14.52637 0,13.54981 9.0332,22.70508 9.03321,9.15527 22.33887,9.15527 13.42774,0 23.31543,-9.52148 7.44629,-7.08008 12.08496,-21.11817 4.02832,13.79395 11.35254,20.9961 10.13184,9.76562 23.4375,9.76562 13.18359,0 22.33887,-9.15527 9.15527,-9.0332 9.15527,-21.60645 0,-10.98632 -5.37109,-22.94922 -5.3711,-11.84082 -20.75196,-31.12792 -20.01953,-25.26856 -29.1748,-41.50391 -7.20215,-12.81738 -10.98633,-26.85547 z"
           style="font-style:normal;font-weight:normal;font-size:250px;line-height:1.25;font-family:Arial;text-align:center;text-anchor:middle;fill:#ff0000;fill-opacity:1;stroke:none;stroke-width:1px;stroke-linecap:butt;stroke-linejoin:miter;stroke-opacity:1"
           id="path909" />
      </g>
      <path
         inkscape:connector-curvature="0"
         id="path864"
         style="font-style:normal;font-weight:normal;font-size:250px;line-height:1.25;font-family:Arial;text-align:center;text-anchor:middle;fill:#ff0000;fill-opacity:1;stroke:none;stroke-width:1px;stroke-linecap:butt;stroke-linejoin:miter;stroke-opacity:1"
         d="m 305.26648,387.85468 q -3.78418,-14.4043 -10.86426,-26.97754 -6.95801,-12.69532 -27.09961,-39.30664 -14.77051,-19.53125 -18.18847,-24.78028 -5.61524,-8.54492 -8.17872,-15.625 -2.4414,-7.20215 -2.4414,-14.52637 0,-13.5498 9.0332,-22.70507 9.0332,-9.15528 22.33887,-9.15528 13.42773,0 23.31543,9.52149 7.44629,7.08008 12.08496,21.11816 4.02832,-13.79394 11.35254,-20.99609 10.13183,-9.76563 23.4375,-9.76563 13.18359,0 22.33887,9.15528 9.15527,9.0332 9.15527,21.60644 0,10.98633 -5.37109,22.94922 -5.3711,11.84082 -20.75196,31.12793 -20.01953,25.26855 -29.1748,41.50391 -7.20215,12.81738 -10.98633,26.85547 z" />
    </g>
  </g>
</svg>
