<svg version="1.0" viewBox="0 0 747 1000" xmlns="http://www.w3.org/2000/svg" xmlns:xlink="http://www.w3.org/1999/xlink"><g transform="translate(2.2 -.65)"><path d="M549 369V192l12-30 12 30v177" fill="#bfbfbf" stroke="#000"/><path d="M550 377h-27s-8.2-5.1-8.1-8.7c.044-3.6 8.5-8.7 8.5-8.7h74s8.5 5.1 8.5 8.7c.044 3.6-8.1 8.7-8.1 8.7h-27l.11 82c0 6.4-21 6.1-21 0z" fill="#bbb700" stroke="#000"/><path d="M187 640v177l-12 30-12-30V640" fill="#bfbfbf" stroke="#000"/><path d="M186 632h27s8.2 5.1 8.1 8.7c-.044 3.6-8.5 8.7-8.5 8.7h-74s-8.5-5.1-8.5-8.7c-.044-3.6 8.1-8.7 8.1-8.7h27l-.11-82c0-6.4 21-6.1 21 0z" fill="#bbb700" stroke="#000"/><g transform="translate(-2 -12)"><g id="a" fill="red"><path d="M16 53h14v44l47-44h18l-52 49 56 56H80l-50-51v51H16zM33 193q14 0 22 17 3 6.5 3.1 10h.21q2.5-11 8.9-19 7.6-7.6 17-7.6 15 0 24 16 2.2 5.8 2.2 11 0 18-15 34l-37 45h-.42l-40-48q-12-14-12-30 0-15 14-24 5.9-3.2 12-3.2z" transform="translate(2.8 .68)"/></g><use transform="rotate(180 373.5 535.5)" width="747.347" height="1046.286" xlink:href="#a"/><path d="M119 104h509v863H119z" fill="none" opacity=".78" stroke-linecap="square" stroke-width="8.5" stroke="#000"/></g><path d="M199 268q-3.8-14-11-27-7-13-27-39-15-20-18-25-5.6-8.5-8.2-16-2.4-7.2-2.4-15 0-14 9-23 9-9.2 22-9.2t23 9.5q7.4 7.1 12 21 4-14 11-21 10-9.8 23-9.8t22 9.2q9.2 9 9.2 22 0 11-5.4 23t-21 31q-20 25-29 42-7.2 13-11 27zM541 772q-3.8 14-11 27-7 13-27 39-15 20-18 25-5.6 8.5-8.2 16-2.4 7.2-2.4 15 0 14 9 23 9 9.2 22 9.2t23-9.5q7.4-7.1 12-21 4 14 11 21 10 9.8 23 9.8t22-9.2q9.2-9 9.2-22 0-11-5.4-23t-21-31q-20-25-29-42-7.2-13-11-27z" fill="red"/><path id="A" d="M310 316l129-12c10 2.1 5 12 9.4 21 43 80 170 157 172 185l-498 .12c22-32 97-102 187-165v-29z" fill="red" stroke="red"/><path d="M325 223c-3 9.3-2.6 18-3.4 26 0 1.8-6.9 22-6.9 22l.058 2.8c-.044.33 3 3.6 6 3.9l-1.3 14c-1.1.77 5.8-.96 5.8.3 0 1.4-6.4 4-6.4 4 0 6.8-4.3 16-.79 20 4.2 4.2 41-.065 41-.065 48 0 49-35 49-35 0-40-2.6-66-2.6-66-2.5-.014-18-2.8-35-1.1-19 1.9-30 4.2-45 9z" fill="#ddbdd0" stroke="#ddbdd0"/><path d="M378 209l9 140 64-13-9.3-114z" fill="#b2b2b2" stroke="#000"/><path d="M329 238c8.1-1.2 14 .35 21 6.2" fill="none" stroke-linecap="round" stroke-linejoin="round" stroke-width="4" stroke="#000"/><path id="b" d="M384 214l9 135" fill="none" stroke="#000"/><use id="c" transform="translate(8 -1.1)" width="747.347" height="1046.286" xlink:href="#b"/><use id="d" transform="translate(8 -1.7)" width="747.347" height="1046.286" xlink:href="#c"/><use id="e" transform="translate(8 -1.7)" width="747.347" height="1046.286" xlink:href="#d"/><use id="f" transform="translate(8 -2.1)" width="747.347" height="1046.286" xlink:href="#e"/><use id="g" transform="translate(8 -1.2)" width="747.347" height="1046.286" xlink:href="#f"/><use transform="translate(8 -1.8)" width="747.347" height="1046.286" xlink:href="#g"/><path d="M334 244c4.2.89 4.6 1.1 8.1 5.1-3.7 1.5-5 1.7-8.9 1.4-7.8-1.3-5.6-7.4.75-6.5z" fill="#fff" stroke-width=".5" stroke="#000"/><path d="M337 247a3.1 2.9 0 01-3.1 2.9 3.1 2.9 0 01-3.1-2.9 3.1 2.9 0 013.1-2.9 3.1 2.9 0 013.1 2.9z" fill="#165044" stroke-linecap="round" stroke-linejoin="round" stroke-width=".5" stroke="#000"/><path d="M334 247a.76.69 0 01-.76.69.76.69 0 01-.76-.69.76.69 0 01.76-.69.76.69 0 01.76.69z" stroke-linecap="round" stroke-linejoin="round" stroke-width=".5" stroke="#000"/><path id="h" d="M318 306l-2.8 6.7" fill="none" stroke="#5a5a5a"/><use id="i" transform="translate(2)" width="747.347" height="1046.286" xlink:href="#h"/><use id="j" transform="translate(2)" width="747.347" height="1046.286" xlink:href="#i"/><use id="k" transform="translate(2)" width="747.347" height="1046.286" xlink:href="#j"/><use id="l" transform="translate(2)" width="747.347" height="1046.286" xlink:href="#k"/><use id="m" transform="translate(2)" width="747.347" height="1046.286" xlink:href="#l"/><use id="n" transform="translate(2)" width="747.347" height="1046.286" xlink:href="#m"/><use id="o" transform="translate(2)" width="747.347" height="1046.286" xlink:href="#n"/><use id="p" transform="translate(2)" width="747.347" height="1046.286" xlink:href="#o"/><use transform="translate(2.2)" width="747.347" height="1046.286" xlink:href="#p"/><use id="q" transform="translate(.8 7.3)" width="747.347" height="1046.286" xlink:href="#h"/><use id="r" transform="translate(2)" width="747.347" height="1046.286" xlink:href="#q"/><use id="s" transform="translate(2)" width="747.347" height="1046.286" xlink:href="#r"/><use id="t" transform="translate(2)" width="747.347" height="1046.286" xlink:href="#s"/><use id="u" transform="translate(2)" width="747.347" height="1046.286" xlink:href="#t"/><use id="v" transform="translate(2)" width="747.347" height="1046.286" xlink:href="#u"/><use id="w" transform="translate(2)" width="747.347" height="1046.286" xlink:href="#v"/><use id="x" transform="translate(2)" width="747.347" height="1046.286" xlink:href="#w"/><use id="y" transform="translate(2)" width="747.347" height="1046.286" xlink:href="#x"/><use id="z" transform="translate(2)" width="747.347" height="1046.286" xlink:href="#y"/><use transform="translate(2)" width="747.347" height="1046.286" xlink:href="#z"/><path d="M336 289c.12-.095.28.034.33.14.14.31-.15.63-.44.71-.61.17-1.1-.36-1.3-.92-.2-1 .68-1.9 1.6-2 1.5-.21 2.8 1.1 2.9 2.6.21 2.2-1.7 3.9-3.8 4.1-2 .14-9.4-2.3-12-3.4" fill="none" stroke-linecap="round" stroke="#484848"/><path d="M321 226l126 16 2-42-10-38-20 35-9.7-36-19 32-9.3-35-18 31-8.8-33-20 34v-35l-8.4 31z" fill="#bbb700" stroke-linejoin="round" stroke="#000"/><use transform="rotate(180 371.5 500)" width="747.347" height="1046.286" xlink:href="#A"/><path d="M418 795c3-9.3 2.6-18 3.4-26 0-1.8 6.9-22 6.9-22l-.058-2.8c.044-.33-3-3.6-6-3.9l1.3-14c1.1-.77-5.8.96-5.8-.3 0-1.4 6.4-4 6.4-4 0-6.8 4.3-16 .79-20-4.2-4.2-41 .065-41 .065-48 0-49 35-49 35 0 40 2.6 66 2.6 66 2.5.014 18 2.8 35 1.1 19-1.9 30-4.2 45-9z" fill="#ddbdd0" stroke="#ddbdd0"/><path d="M365 809l-9-140-64 13 9.3 114z" fill="#b2b2b2" stroke="#000"/><path d="M415 781c-8.1 1.2-14-.35-21-6.2" fill="none" stroke-linecap="round" stroke-linejoin="round" stroke-width="4" stroke="#000"/><path d="M359 805l-9-135" fill="none" stroke="#000"/><use transform="rotate(180 368 510)" width="747.347" height="1046.286" xlink:href="#b"/><use transform="rotate(180 368 510)" width="747.347" height="1046.286" xlink:href="#c"/><use transform="rotate(180 368 510)" width="747.347" height="1046.286" xlink:href="#d"/><use transform="rotate(180 368 510)" width="747.347" height="1046.286" xlink:href="#e"/><use transform="rotate(180 368 510)" width="747.347" height="1046.286" xlink:href="#f"/><use transform="rotate(180 368 510)" width="747.347" height="1046.286" xlink:href="#g"/><path d="M409 775c-4.2-.89-4.6-1.1-8.1-5.1 3.7-1.5 5-1.7 8.9-1.4 7.8 1.3 5.6 7.4-.75 6.5z" fill="#fff" stroke-width=".5" stroke="#000"/><path d="M407 772a2.9 3.1 90 013.1-2.9 2.9 3.1 90 013.1 2.9 2.9 3.1 90 01-3.1 2.9 2.9 3.1 90 01-3.1-2.9z" fill="#165044" stroke-linecap="round" stroke-linejoin="round" stroke-width=".5" stroke="#000"/><path d="M409 772a.69.76 90 01.76-.69.69.76 90 01.76.69.69.76 90 01-.76.69.69.76 90 01-.76-.69z" stroke-linecap="round" stroke-linejoin="round" stroke-width=".5" stroke="#000"/><path d="M426 713l2.8-6.7" fill="none" stroke="#5a5a5a"/><use transform="rotate(180 371 509)" width="747.347" height="1046.286" xlink:href="#h"/><use transform="rotate(180 371 509)" width="747.347" height="1046.286" xlink:href="#i"/><use transform="rotate(180 371 509)" width="747.347" height="1046.286" xlink:href="#j"/><use transform="rotate(180 371 509)" width="747.347" height="1046.286" xlink:href="#k"/><use transform="rotate(180 371 509)" width="747.347" height="1046.286" xlink:href="#l"/><use transform="rotate(180 371 509)" width="747.347" height="1046.286" xlink:href="#m"/><use transform="rotate(180 371 509)" width="747.347" height="1046.286" xlink:href="#n"/><use transform="rotate(180 371 509)" width="747.347" height="1046.286" xlink:href="#o"/><use transform="rotate(180 371 509)" width="747.347" height="1046.286" xlink:href="#p"/><use transform="rotate(180 371 506)" width="747.347" height="1046.286" xlink:href="#h"/><use transform="rotate(180 371 509)" width="747.347" height="1046.286" xlink:href="#q"/><use transform="rotate(180 371 509)" width="747.347" height="1046.286" xlink:href="#r"/><use transform="rotate(180 371 509)" width="747.347" height="1046.286" xlink:href="#s"/><use transform="rotate(180 371 509)" width="747.347" height="1046.286" xlink:href="#t"/><use transform="rotate(180 371 509)" width="747.347" height="1046.286" xlink:href="#u"/><use transform="rotate(180 371 509)" width="747.347" height="1046.286" xlink:href="#v"/><use transform="rotate(180 371 509)" width="747.347" height="1046.286" xlink:href="#w"/><use transform="rotate(180 371 509)" width="747.347" height="1046.286" xlink:href="#x"/><use transform="rotate(180 371 509)" width="747.347" height="1046.286" xlink:href="#y"/><use transform="rotate(180 371 509)" width="747.347" height="1046.286" xlink:href="#z"/><path d="M407 730c-.12.095-.28-.034-.33-.14-.14-.31.15-.63.44-.71.61-.17 1.1.36 1.3.92.2 1-.68 1.9-1.6 2-1.5.21-2.8-1.1-2.9-2.6-.21-2.2 1.7-3.9 3.8-4.1 2-.14 9.4 2.3 12 3.4" fill="none" stroke-linecap="round" stroke="#484848"/><path d="M423 792l-126-16-2 42 10 38 20-35 9.7 36 19-32 9.3 35 18-31 8.8 33 20-34v35l8.4-31z" fill="#bbb700" stroke-linejoin="round" stroke="#000"/><path id="B" d="M560 165v195h1V165l-.5-1.2-.5 1.2z" fill="#727272"/><use transform="rotate(180 368 500)" width="747.347" height="1046.286" xlink:href="#B"/></g></svg>