<svg version="1.0" viewBox="0 0 747 1000" xmlns="http://www.w3.org/2000/svg" xmlns:xlink="http://www.w3.org/1999/xlink"><g transform="translate(2.2 -.65)"><path d="M529 401v-75h15v102" fill="#0b3400" stroke="#0b3400"/><path d="M537 329c6.7 0 14 17 29 2.3 14-14-3.6-22-3.6-29 0-6.5 18-14 3.6-29-15-15-22 2.3-29 2.3-6.3 0-14-17-29-2.3-14 14 3.6 22 3.6 29s-18 14-3.6 29c15 15 22-2.3 29-2.3z" fill="red" stroke-linecap="round" stroke-linejoin="round" stroke-width="1.6" stroke="red"/><path d="M545 302a7.7 7.7 0 01-7.7 7.7 7.7 7.7 0 01-7.7-7.7 7.7 7.7 0 017.7-7.7 7.7 7.7 0 017.7 7.7z" fill="#f7fa00" stroke-linecap="round" stroke-linejoin="round" stroke-width="1.6" stroke="#f7fa00"/><path d="M241 654v75h-15V627" fill="#0b3400" stroke="#0b3400"/><path d="M233 726c-6.7 0-14-17-29-2.3-14 14 3.6 22 3.6 29 0 6.5-18 14-3.6 29 15 15 22-2.3 29-2.3 6.3 0 14 17 29 2.3 14-14-3.6-22-3.6-29s18-14 3.6-29c-15-15-22 2.3-29 2.3z" fill="red" stroke-linecap="round" stroke-linejoin="round" stroke-width="1.6" stroke="red"/><path d="M225 753a7.7 7.7 0 017.7-7.7 7.7 7.7 0 017.7 7.7 7.7 7.7 0 01-7.7 7.7 7.7 7.7 0 01-7.7-7.7z" fill="#f7fa00" stroke-linecap="round" stroke-linejoin="round" stroke-width="1.6" stroke="#f7fa00"/><path d="M54 52q-15 0-25 12-9.1 12-9.1 31 0 20 9.1 31 9.1 12 25 12t24-12q9.1-12 9.1-31 0-20-9.1-31-9-12-24-12zm20 93l19 20H76l-16-17q-2.3.14-3.6.21-1.2.07-2.3.07-22 0-35-15t-13-40q0-25 13-40t35-15q22 0 35 15t13 40q0 18-7.4 31-7.3 13-21 19zM33 182q14 0 22 17 3 6.5 3.1 10h.21q2.5-11 8.9-19 7.6-7.6 17-7.6 15 0 24 16 2.2 5.8 2.2 11 0 18-15 34l-37 45h-.42l-40-48q-12-14-12-30 0-15 14-24 5.9-3.2 12-3.2zM689 996q15 0 25-12 9.1-12 9.1-31 0-20-9.1-31-9.1-12-25-12t-24 12q-9.1 12-9.1 31 0 20 9.1 31 9 12 24 12zm-20-93l-19-20h17l16 17q2.3-.14 3.6-.21 1.2-.07 2.3-.07 22 0 35 15t13 40q0 25-13 40t-35 15q-22 0-35-15t-13-40q0-18 7.4-31 7.3-13 21-19zM709 865q-14 0-22-17-3-6.5-3.1-10h-.21q-2.5 11-8.9 19-7.6 7.6-17 7.6-15 0-24-16-2.2-5.8-2.2-11 0-18 15-34l37-45h.42l40 48q12 14 12 30 0 15-14 24-5.9 3.2-12 3.2z" fill="red"/><path d="M117 92h509v863H117z" fill="none" opacity=".78" stroke-linecap="square" stroke-width="8.5" stroke="#000"/><path d="M201 268q-3.8-14-11-27-7-13-27-39-15-20-18-25-5.6-8.5-8.2-16-2.4-7.2-2.4-15 0-14 9-23 9-9.2 22-9.2t23 9.5q7.4 7.1 12 21 4-14 11-21 10-9.8 23-9.8t22 9.2q9.2 9 9.2 22 0 11-5.4 23t-21 31q-20 25-29 42-7.2 13-11 27zM537 772q-3.8 14-11 27-7 13-27 39-15 20-18 25-5.6 8.5-8.2 16-2.4 7.2-2.4 15 0 14 9 23 9 9.2 22 9.2t23-9.5q7.4-7.1 12-21 4 14 11 21 10 9.8 23 9.8t22-9.2q9.2-9 9.2-22 0-11-5.4-23t-21-31q-20-25-29-42-7.2-13-11-27z" fill="red"/><path id="l" d="M330 328l11-11 98-14c10 2.1.75 17 9.4 21 90 37 107 148 172 185l-498 .12c148-30 97-102 187-165l20-16z" fill="red" stroke="red"/><use transform="translate(.18 -13)" width="747.347" height="1046.286" xlink:href="#a"/><path id="b" d="M390 320a7 7 0 01-7 7 7 7 0 01-7-7 7 7 0 017-7 7 7 0 017 7z" fill="#ccc"/><use id="c" transform="translate(-11 7.9)" width="747.347" height="1046.286" xlink:href="#b"/><use id="d" transform="translate(-9.2 9.7)" width="747.347" height="1046.286" xlink:href="#c"/><use id="e" transform="translate(-12 6.1)" width="747.347" height="1046.286" xlink:href="#d"/><use id="a" transform="translate(-12 -7)" width="747.347" height="1046.286" xlink:href="#e"/><path d="M325 223c-3 9.3-2.6 18-3.4 26 0 1.8-6.9 22-6.9 22l.058 2.8c-.044.33 3 3.6 6 3.9l-1.3 14c-1.1.77 5.8-.96 5.8.3 0 1.4-6.4 4-6.4 4 0 6.8-4.3 16-.79 20 4.2 4.2 41-.065 41-.065 48 0 49-35 49-35 0-40-2.6-66-2.6-66-2.5-.014-18-2.8-35-1.1-19 1.9-30 4.2-45 9z" fill="#ddbdd0" stroke="#ddbdd0"/><path d="M378 209l9 160 64 27-9.3-174z" fill="#999" stroke="#000"/><path d="M329 238c8.1-1.2 14 .35 21 6.2" fill="none" stroke-linecap="round" stroke-linejoin="round" stroke-width="4" stroke="#000"/><path id="f" d="M384 214l10 161" fill="none" stroke="#000"/><use id="g" transform="translate(8 2.9)" width="747.347" height="1046.286" xlink:href="#f"/><use id="h" transform="translate(8 2.9)" width="747.347" height="1046.286" xlink:href="#g"/><use id="i" transform="translate(8 2.4)" width="747.347" height="1046.286" xlink:href="#h"/><use id="j" transform="translate(8 5.3)" width="747.347" height="1046.286" xlink:href="#i"/><use id="k" transform="translate(8 .93)" width="747.347" height="1046.286" xlink:href="#j"/><use transform="translate(8 10)" width="747.347" height="1046.286" xlink:href="#k"/><path d="M334 244c4.2.89 4.6 1.1 8.1 5.1-3.7 1.5-5 1.7-8.9 1.4-7.8-1.3-5.6-7.4.75-6.5z" fill="#fff" stroke-width=".5" stroke="#000"/><path d="M337 247a3.1 2.9 0 01-3.1 2.9 3.1 2.9 0 01-3.1-2.9 3.1 2.9 0 013.1-2.9 3.1 2.9 0 013.1 2.9z" fill="#502d16" stroke-linecap="round" stroke-linejoin="round" stroke-width=".5" stroke="#000"/><path d="M334 247a.76.69 0 01-.76.69.76.69 0 01-.76-.69.76.69 0 01.76-.69.76.69 0 01.76.69z" stroke-linecap="round" stroke-linejoin="round" stroke-width=".5" stroke="#000"/><path d="M325 223s23-71 57-86c32-21 88 138 78 197-7.1-6.6-23 .35-26-6.6-12-31-15-72-34-89-26-24-67-19-75-15z" fill="red" stroke="red"/><use transform="rotate(180 371.5 500)" width="747.347" height="1046.286" xlink:href="#l"/><use transform="rotate(180 372 516)" width="747.347" height="1046.286" xlink:href="#a"/><path d="M353 699a7 7 0 017-7 7 7 0 017 7 7 7 0 01-7 7 7 7 0 01-7-7z" fill="#ccc"/><use transform="rotate(180 377 506)" width="747.347" height="1046.286" xlink:href="#b"/><use transform="rotate(180 376 505)" width="747.347" height="1046.286" xlink:href="#c"/><use transform="rotate(180 378 506)" width="747.347" height="1046.286" xlink:href="#d"/><use transform="rotate(180 377 513)" width="747.347" height="1046.286" xlink:href="#e"/><path d="M418 795c3-9.3 2.6-18 3.4-26 0-1.8 6.9-22 6.9-22l-.058-2.8c.044-.33-3-3.6-6-3.9l1.3-14c1.1-.77-5.8.96-5.8-.3 0-1.4 6.4-4 6.4-4 0-6.8 4.3-16 .79-20-4.2-4.2-41 .065-41 .065-48 0-49 35-49 35 0 40 2.6 66 2.6 66 2.5.014 18 2.8 35 1.1 19-1.9 30-4.2 45-9z" fill="#ddbdd0" stroke="#ddbdd0"/><path d="M365 809l-9-160-64-27 9.3 174z" fill="#999" stroke="#000"/><path d="M415 781c-8.1 1.2-14-.35-21-6.2" fill="none" stroke-linecap="round" stroke-linejoin="round" stroke-width="4" stroke="#000"/><path d="M359 805l-10-161" fill="none" stroke="#000"/><use transform="rotate(180 368 508)" width="747.347" height="1046.286" xlink:href="#f"/><use transform="rotate(180 368 508)" width="747.347" height="1046.286" xlink:href="#g"/><use transform="rotate(180 368 508)" width="747.347" height="1046.286" xlink:href="#h"/><use transform="rotate(180 368 507)" width="747.347" height="1046.286" xlink:href="#i"/><use transform="rotate(180 368 509)" width="747.347" height="1046.286" xlink:href="#j"/><use transform="rotate(180 368 504)" width="747.347" height="1046.286" xlink:href="#k"/><path d="M409 775c-4.2-.89-4.6-1.1-8.1-5.1 3.7-1.5 5-1.7 8.9-1.4 7.8 1.3 5.6 7.4-.75 6.5z" fill="#fff" stroke-width=".5" stroke="#000"/><path d="M407 772a2.9 3.1 90 013.1-2.9 2.9 3.1 90 013.1 2.9 2.9 3.1 90 01-3.1 2.9 2.9 3.1 90 01-3.1-2.9z" fill="#502d16" stroke-linecap="round" stroke-linejoin="round" stroke-width=".5" stroke="#000"/><path d="M409 772a.69.76 90 01.76-.69.69.76 90 01.76.69.69.76 90 01-.76.69.69.76 90 01-.76-.69z" stroke-linecap="round" stroke-linejoin="round" stroke-width=".5" stroke="#000"/><path d="M418 795s-23 71-57 86c-32 21-88-138-78-197 7.1 6.6 23-.35 26 6.6 12 31 15 72 34 89 26 24 67 19 75 15z" fill="red" stroke="red"/></g></svg>