<svg version="1.0" viewBox="0 0 747 1000" xmlns="http://www.w3.org/2000/svg"><g fill="red"><path d="M27.2 41.35h68v6l-38 99h-15l36-93h-50zM40.2 181.35q14 0 22 17 3 6.5 3.1 10h.21q2.5-11 8.9-19 7.6-7.6 17-7.6 15 0 24 16 2.2 5.8 2.2 11 0 18-15 34l-37 45h-.42l-40-48q-12-14-12-30 0-15 14-24 5.9-3.2 12-3.2zM720.2 987.35h-68v-6l38-99h15l-36 93h50zM707.2 864.35q-14 0-22-17-3-6.5-3.1-10h-.21q-2.5 11-8.9 19-7.6 7.6-17 7.6-15 0-24-16-2.2-5.8-2.2-11 0-18 15-34l37-45h.42l40 48q12 14 12 30 0 15-14 24-5.9 3.2-12 3.2zM234.2 301.35q-3.8-14-11-27-7-13-27-39-15-20-18-25-5.6-8.5-8.2-16-2.4-7.2-2.4-15 0-14 9-23 9-9.2 22-9.2t23 9.5q7.4 7.1 12 21 4-14 11-21 10-9.8 23-9.8t22 9.2q9.2 9 9.2 22 0 11-5.4 23t-21 31q-20 25-29 42-7.2 13-11 27zM234.2 745.35q-3.8 14-11 27-7 13-27 39-15 20-18 25-5.6 8.5-8.2 16-2.4 7.2-2.4 15 0 14 9 23 9 9.2 22 9.2t23-9.5q7.4-7.1 12-21 4 14 11 21 10 9.8 23 9.8t22-9.2q9.2-9 9.2-22 0-11-5.4-23t-21-31q-20-25-29-42-7.2-13-11-27zM234.2 601.35q-3.8-14-11-27-7-13-27-39-15-20-18-25-5.6-8.5-8.2-16-2.4-7.2-2.4-15 0-14 9-23 9-9.2 22-9.2t23 9.5q7.4 7.1 12 21 4-14 11-21 10-9.8 23-9.8t22 9.2q9.2 9 9.2 22 0 11-5.4 23t-21 31q-20 25-29 42-7.2 13-11 27zM514.2 301.35q-3.8-14-11-27-7-13-27-39-15-20-18-25-5.6-8.5-8.2-16-2.4-7.2-2.4-15 0-14 9-23 9-9.2 22-9.2t23 9.5q7.4 7.1 12 21 4-14 11-21 10-9.8 23-9.8t22 9.2q9.2 9 9.2 22 0 11-5.4 23t-21 31q-20 25-29 42-7.2 13-11 27zM514.2 745.35q-3.8 14-11 27-7 13-27 39-15 20-18 25-5.6 8.5-8.2 16-2.4 7.2-2.4 15 0 14 9 23 9 9.2 22 9.2t23-9.5q7.4-7.1 12-21 4 14 11 21 10 9.8 23 9.8t22-9.2q9.2-9 9.2-22 0-11-5.4-23t-21-31q-20-25-29-42-7.2-13-11-27zM514.2 601.35q-3.8-14-11-27-7-13-27-39-15-20-18-25-5.6-8.5-8.2-16-2.4-7.2-2.4-15 0-14 9-23 9-9.2 22-9.2t23 9.5q7.4 7.1 12 21 4-14 11-21 10-9.8 23-9.8t22 9.2q9.2 9 9.2 22 0 11-5.4 23t-21 31q-20 25-29 42-7.2 13-11 27zM374.2 461.35q-3.8-14-11-27-7-13-27-39-15-20-18-25-5.6-8.5-8.2-16-2.4-7.2-2.4-15 0-14 9-23 9-9.2 22-9.2t23 9.5q7.4 7.1 12 21 4-14 11-21 10-9.8 23-9.8t22 9.2q9.2 9 9.2 22 0 11-5.4 23t-21 31q-20 25-29 42-7.2 13-11 27z"/></g></svg>