<svg version="1.0" viewBox="0 0 747 1000" xmlns="http://www.w3.org/2000/svg"><path d="M31 42h56v12H44v26q3.1-1.1 6.2-1.5 3.1-.56 6.2-.56 18 0 28 9.6t10 26q0 17-11 26-11 9.4-30 9.4-6.6 0-14-1.1-6.8-1.1-14-3.4v-14q6.3 3.4 13 5.1t14 1.7q12 0 19-6.4 7.1-6.4 7.1-17t-7.1-17q-7.1-6.4-19-6.4-5.7 0-11 1.3-5.6 1.3-12 3.9zM66 182q6.6 12 22 31 17 20 17 24 2.7 6 2.7 12v2.8q0 12-11 18-3.7 1.5-8.2 1.5-11 0-18-16h-3v.84q0 20 5.8 30h-15v-.42q6-11 6-31l-.21-.21h-2.7l-3.3 6.2q-6 9.4-15 9.4-13 0-18-15l-.63-5.1v-3.2q0-13 13-27 22-27 28-39l.21-.21zM716 1000h-56v-12h43v-26q-3.1 1.1-6.2 1.5-3.1.56-6.2.56-18 0-28-9.6t-10-26q0-17 11-26 11-9.4 30-9.4 6.6 0 14 1.1 6.8 1.1 14 3.4v14q-6.3-3.4-13-5.1t-14-1.7q-12 0-19 6.4t-7.1 17 7.1 17q7.1 6.4 19 6.4 5.7 0 11-1.3 5.6-1.3 12-3.9zM681 865q-6.6-12-22-31-17-20-17-24-2.7-6-2.7-12v-2.8q0-12 11-18 3.7-1.5 8.2-1.5 11 0 18 16h3v-.84q0-20-5.8-30h15v.42q-6 11-6 31l.21.21h2.7l3.3-6.2q6-9.4 15-9.4 13 0 18 15l.63 5.1v3.2q0 13-13 27-22 27-28 39l-.21.21zM234 148q3.2 13 9.8 24 6.6 10 23 26 17 15 21 23t4.5 17q0 12-7.8 20t-19 7.8q-9.5 0-17-5.9-7.7-6-14-17 .12 18 4.6 29 4.6 10 15 17 10 6 27 7.1l.85 4.5h-97l.98-4.5q22 0 35-13 12-13 12-39-5.5 12-14 17-8.1 5.7-18 5.7-11 0-19-7.9-7.8-7.9-7.8-19 0-8.9 4-16 5.5-10 18-20 12-10 18-17 8.9-10 13-18 4.2-7.9 6.5-19zM234 898q3.2-13 9.8-24 6.6-10 23-26 17-15 21-23t4.5-17q0-12-7.8-20t-19-7.8q-9.5 0-17 5.9-7.7 6-14 17 .12-18 4.6-29 4.6-10 15-17 10-6 27-7.1l.85-4.5h-97l.98 4.5q22 0 35 13 12 13 12 39-5.5-12-14-17-8.1-5.7-18-5.7-11 0-19 7.9-7.8 7.9-7.8 19 0 8.9 4 16 5.5 10 18 20 12 10 18 17 8.9 10 13 18 4.2 7.9 6.5 19zM514 148q3.2 13 9.8 24 6.6 10 23 26 17 15 21 23t4.5 17q0 12-7.8 20t-19 7.8q-9.5 0-17-5.9-7.7-6-14-17 .12 18 4.6 29 4.6 10 15 17 10 6 27 7.1l.85 4.5h-97l.98-4.5q22 0 35-13 12-13 12-39-5.5 12-14 17-8.1 5.7-18 5.7-11 0-19-7.9-7.8-7.9-7.8-19 0-8.9 4-16 5.5-10 18-20 12-10 18-17 8.9-10 13-18 4.2-7.9 6.5-19zM514 898q3.2-13 9.8-24 6.6-10 23-26 17-15 21-23t4.5-17q0-12-7.8-20t-19-7.8q-9.5 0-17 5.9-7.7 6-14 17 .12-18 4.6-29 4.6-10 15-17 10-6 27-7.1l.85-4.5h-97l.98 4.5q22 0 35 13 12 13 12 39-5.5-12-14-17-8.1-5.7-18-5.7-11 0-19 7.9-7.8 7.9-7.8 19 0 8.9 4 16 5.5 10 18 20 12 10 18 17 8.9 10 13 18 4.2 7.9 6.5 19zM374 448q3.2 13 9.8 24 6.6 10 23 26 17 15 21 23t4.5 17q0 12-7.8 20t-19 7.8q-9.5 0-17-5.9-7.7-6-14-17 .12 18 4.6 29 4.6 10 15 17 10 6 27 7.1l.85 4.5h-97l.98-4.5q22 0 35-13 12-13 12-39-5.5 12-14 17-8.1 5.7-18 5.7-11 0-19-7.9-7.8-7.9-7.8-19 0-8.9 4-16 5.5-10 18-20 12-10 18-17 8.9-10 13-18 4.2-7.9 6.5-19z"/></svg>