<svg version="1.0" viewBox="0 0 747 1000" xmlns="http://www.w3.org/2000/svg"><g fill="red"><path d="M74.2 89.35q10 2.2 16 9.1 5.8 6.9 5.8 17 0 16-11 24t-30 8.5q-6.6 0-14-1.3-7-1.3-14-3.9v-14q5.9 3.4 13 5.2 7 1.8 15 1.8 13 0 20-5.3t7-15q0-9.3-6.5-14-6.5-5.3-18-5.3h-12v-12h13q10 0 16-4.1 5.6-4.2 5.6-12 0-8.1-5.8-12-5.7-4.4-16-4.4-5.8 0-13 1.3-6.7 1.3-15 3.9v-13q8.1-2.2 15-3.4 7.1-1.1 13-1.1 16 0 26 7.4 9.4 7.3 9.4 20 0 8.7-5 15-5 6-14 8.3zM40.2 181.35q14 0 22 17 3 6.5 3.1 10h.21q2.5-11 8.9-19 7.6-7.6 17-7.6 15 0 24 16 2.2 5.8 2.2 11 0 18-15 34l-37 45h-.42l-40-48q-12-14-12-30 0-15 14-24 5.9-3.2 12-3.2zM673.2 956.35q-10-2.2-16-9.1-5.8-6.9-5.8-17 0-16 11-24t30-8.5q6.6 0 14 1.3 7 1.3 14 3.9v14q-5.9-3.4-13-5.2-7-1.8-15-1.8-13 0-20 5.3t-7 15q0 9.3 6.5 14 6.5 5.3 18 5.3h12v12h-13q-10 0-16 4.1-5.6 4.2-5.6 12 0 8.1 5.8 12 5.7 4.4 16 4.4 5.8 0 13-1.3t15-3.9v13q-8.1 2.2-15 3.4-7.1 1.1-13 1.1-16 0-26-7.4-9.4-7.3-9.4-20 0-8.7 5-15 5-6 14-8.3zM707.2 864.35q-14 0-22-17-3-6.5-3.1-10h-.21q-2.5 11-8.9 19-7.6 7.6-17 7.6-15 0-24-16-2.2-5.8-2.2-11 0-18 15-34l37-45h.42l40 48q12 14 12 30 0 15-14 24-5.9 3.2-12 3.2zM374.2 301.35q-3.8-14-11-27-7-13-27-39-15-20-18-25-5.6-8.5-8.2-16-2.4-7.2-2.4-15 0-14 9-23 9-9.2 22-9.2t23 9.5q7.4 7.1 12 21 4-14 11-21 10-9.8 23-9.8t22 9.2q9.2 9 9.2 22 0 11-5.4 23t-21 31q-20 25-29 42-7.2 13-11 27zM374.2 744.35q-3.8 14-11 27-7 13-27 39-15 20-18 25-5.6 8.5-8.2 16-2.4 7.2-2.4 15 0 14 9 23 9 9.2 22 9.2t23-9.5q7.4-7.1 12-21 4 14 11 21 10 9.8 23 9.8t22-9.2q9.2-9 9.2-22 0-11-5.4-23t-21-31q-20-25-29-42-7.2-13-11-27zM374.2 601.35q-3.8-14-11-27-7-13-27-39-15-20-18-25-5.6-8.5-8.2-16-2.4-7.2-2.4-15 0-14 9-23 9-9.2 22-9.2t23 9.5q7.4 7.1 12 21 4-14 11-21 10-9.8 23-9.8t22 9.2q9.2 9 9.2 22 0 11-5.4 23t-21 31q-20 25-29 42-7.2 13-11 27z"/></g></svg>