<?xml version="1.0" encoding="UTF-8" standalone="no"?>
<!-- Created with Inkscape (http://www.inkscape.org/) -->

<svg
   xmlns:dc="http://purl.org/dc/elements/1.1/"
   xmlns:cc="http://creativecommons.org/ns#"
   xmlns:rdf="http://www.w3.org/1999/02/22-rdf-syntax-ns#"
   xmlns:svg="http://www.w3.org/2000/svg"
   xmlns="http://www.w3.org/2000/svg"
   xmlns:sodipodi="http://sodipodi.sourceforge.net/DTD/sodipodi-0.dtd"
   xmlns:inkscape="http://www.inkscape.org/namespaces/inkscape"
   width="747.34698"
   height="1046.2856"
   id="svg2"
   sodipodi:version="0.32"
   inkscape:version="0.92.4 (5da689c313, 2019-01-14)"
   version="1.0"
   sodipodi:docname="Cards-10-Heart.svg"
   inkscape:output_extension="org.inkscape.output.svg.inkscape">
  <defs
     id="defs4">
    <inkscape:perspective
       sodipodi:type="inkscape:persp3d"
       inkscape:vp_x="0 : 526.18109 : 1"
       inkscape:vp_y="0 : 1000 : 0"
       inkscape:vp_z="744.09448 : 526.18109 : 1"
       inkscape:persp3d-origin="372.04724 : 350.78739 : 1"
       id="perspective10" />
    <inkscape:perspective
       id="perspective2390"
       inkscape:persp3d-origin="372.04724 : 350.78739 : 1"
       inkscape:vp_z="744.09448 : 526.18109 : 1"
       inkscape:vp_y="0 : 1000 : 0"
       inkscape:vp_x="0 : 526.18109 : 1"
       sodipodi:type="inkscape:persp3d" />
  </defs>
  <sodipodi:namedview
     id="base"
     pagecolor="#ffffff"
     bordercolor="#666666"
     borderopacity="1.0"
     gridtolerance="10000"
     guidetolerance="10"
     objecttolerance="10"
     inkscape:pageopacity="0.0"
     inkscape:pageshadow="2"
     inkscape:zoom="0.49497475"
     inkscape:cx="-446.83805"
     inkscape:cy="601.83843"
     inkscape:document-units="px"
     inkscape:current-layer="layer1"
     showgrid="false"
     showguides="true"
     inkscape:guide-bbox="true"
     inkscape:window-width="3840"
     inkscape:window-height="2066"
     inkscape:window-x="-11"
     inkscape:window-y="-11"
     inkscape:window-maximized="1" />
  <metadata
     id="metadata7">
    <rdf:RDF>
      <cc:Work
         rdf:about="">
        <dc:format>image/svg+xml</dc:format>
        <dc:type
           rdf:resource="http://purl.org/dc/dcmitype/StillImage" />
      </cc:Work>
    </rdf:RDF>
  </metadata>
  <g
     inkscape:label="Layer 1"
     inkscape:groupmode="layer"
     id="layer1"
     transform="translate(2.2448993,-0.6479052)">
    <path
       inkscape:connector-curvature="0"
       id="path966"
       style="font-style:normal;font-variant:normal;font-weight:normal;font-stretch:normal;font-size:144px;line-height:1.25;font-family:'Arial Narrow';-inkscape-font-specification:'Arial Narrow';text-align:center;text-anchor:middle;fill:#ff0000;fill-opacity:1;stroke:none;stroke-width:1px;stroke-linecap:butt;stroke-linejoin:miter;stroke-opacity:1"
       d="M 1.5653152,135.37665 H 24.76844 V 55.29071 l -25.24218725,5.0625 V 47.41571 L 24.627815,42.35321 H 38.83094 v 93.02344 h 23.203125 v 11.95312 H 1.5653152 Z" />
    <path
       inkscape:connector-curvature="0"
       id="path968"
       style="font-style:normal;font-variant:normal;font-weight:normal;font-stretch:normal;font-size:144px;line-height:1.25;font-family:'Arial Narrow';-inkscape-font-specification:'Arial Narrow';text-align:center;text-anchor:middle;fill:#ff0000;fill-opacity:1;stroke:none;stroke-width:1px;stroke-linecap:butt;stroke-linejoin:miter;stroke-opacity:1"
       d="m 121.16688,51.704773 q -10.96875,0 -16.52344,10.828125 -5.484375,10.757812 -5.484375,32.414062 0,21.58594 5.484375,32.41406 5.55469,10.75782 16.52344,10.75782 11.03906,0 16.52344,-10.75782 5.55468,-10.82812 5.55468,-32.41406 0,-21.65625 -5.55468,-32.414062 -5.48438,-10.828125 -16.52344,-10.828125 z m 0,-11.25 q 17.64844,0 26.92969,13.992187 9.35156,13.921875 9.35156,40.5 0,26.50781 -9.35156,40.5 -9.28125,13.92188 -26.92969,13.92188 -17.64844,0 -27.000002,-13.92188 -9.28125,-13.99219 -9.28125,-40.5 0,-26.578125 9.28125,-40.5 9.351562,-13.992187 27.000002,-13.992187 z" />
    <path
       inkscape:connector-curvature="0"
       id="path971"
       style="font-style:normal;font-variant:normal;font-weight:normal;font-stretch:normal;font-size:144px;line-height:1.25;font-family:'Arial Narrow';-inkscape-font-specification:'Arial Narrow';text-align:center;text-anchor:middle;fill:#ff0000;fill-opacity:1;stroke:none;stroke-width:1px;stroke-linecap:butt;stroke-linejoin:miter;stroke-opacity:1"
       d="m 41.428596,182.42352 q 14.273438,0 22.429688,16.52344 2.953125,6.53906 3.09375,9.98438 h 0.210937 q 2.460938,-11.39063 8.929688,-18.91407 7.59375,-7.59375 17.085937,-7.59375 14.695314,0 23.554684,15.75 2.25,5.83594 2.25,10.96875 0,17.57813 -14.625,33.53907 L 67.162971,287.32977 H 66.741096 L 27.225471,238.88446 q -11.8125,-14.41406 -11.8125,-29.74219 0,-14.83593 13.992188,-23.55468 5.90625,-3.16407 12.023437,-3.16407 z" />
    <path
       inkscape:connector-curvature="0"
       id="path961"
       style="font-style:normal;font-variant:normal;font-weight:normal;font-stretch:normal;font-size:144px;line-height:1.25;font-family:'Arial Narrow';-inkscape-font-specification:'Arial Narrow';text-align:center;text-anchor:middle;fill:#ff0000;fill-opacity:1;stroke:none;stroke-width:1px;stroke-linecap:butt;stroke-linejoin:miter;stroke-opacity:1"
       d="m 741.29187,912.20477 h -23.20312 v 80.08594 l 25.24218,-5.0625 v 12.93749 l -25.10156,5.0625 h -14.20312 v -93.02343 h -23.20313 v -11.95312 h 60.46875 z" />
    <path
       inkscape:connector-curvature="0"
       id="path963"
       style="font-style:normal;font-variant:normal;font-weight:normal;font-stretch:normal;font-size:144px;line-height:1.25;font-family:'Arial Narrow';-inkscape-font-specification:'Arial Narrow';text-align:center;text-anchor:middle;fill:#ff0000;fill-opacity:1;stroke:none;stroke-width:1px;stroke-linecap:butt;stroke-linejoin:miter;stroke-opacity:1"
       d="m 621.69031,995.87665 q 10.96875,0 16.52344,-10.82813 5.48437,-10.75781 5.48437,-32.41406 0,-21.58594 -5.48437,-32.41406 -5.55469,-10.75781 -16.52344,-10.75781 -11.03906,0 -16.52344,10.75781 -5.55469,10.82812 -5.55469,32.41406 0,21.65625 5.55469,32.41406 5.48438,10.82813 16.52344,10.82813 z m 0,11.24995 q -17.64844,0 -26.92969,-13.99214 -9.35156,-13.92187 -9.35156,-40.5 0,-26.50781 9.35156,-40.5 9.28125,-13.92187 26.92969,-13.92187 17.64844,0 27,13.92187 9.28125,13.99219 9.28125,40.5 0,26.57813 -9.28125,40.5 -9.35156,13.99214 -27,13.99214 z" />
    <path
       inkscape:connector-curvature="0"
       id="path958"
       style="font-style:normal;font-variant:normal;font-weight:normal;font-stretch:normal;font-size:144px;line-height:1.25;font-family:'Arial Narrow';-inkscape-font-specification:'Arial Narrow';text-align:center;text-anchor:middle;fill:#ff0000;fill-opacity:1;stroke:none;stroke-width:1px;stroke-linecap:butt;stroke-linejoin:miter;stroke-opacity:1"
       d="m 701.42859,865.1579 q -14.27344,0 -22.42969,-16.52344 -2.95312,-6.53906 -3.09375,-9.98437 h -0.21094 q -2.46093,11.39062 -8.92968,18.91406 -7.59375,7.59375 -17.08594,7.59375 -14.69531,0 -23.55469,-15.75 -2.25,-5.83594 -2.25,-10.96875 0,-17.57813 14.625,-33.53906 l 37.19531,-44.64844 h 0.42188 l 39.51562,48.44531 q 11.8125,14.41406 11.8125,29.74219 0,14.83594 -13.99218,23.55469 -5.90625,3.16406 -12.02344,3.16406 z" />
    <path
       inkscape:connector-curvature="0"
       id="path952"
       style="font-style:normal;font-weight:normal;font-size:250px;line-height:1.25;font-family:Arial;text-align:center;text-anchor:middle;fill:#ff0000;fill-opacity:1;stroke:none;stroke-width:1px;stroke-linecap:butt;stroke-linejoin:miter;stroke-opacity:1"
       d="m 231.67273,261.85471 q -3.78418,-14.4043 -10.86426,-26.97754 -6.95801,-12.69532 -27.09961,-39.30664 -14.77051,-19.53125 -18.18847,-24.78028 -5.61524,-8.54492 -8.17872,-15.625 -2.4414,-7.20215 -2.4414,-14.52636 0,-13.54981 9.0332,-22.70508 9.0332,-9.15528 22.33887,-9.15528 13.42773,0 23.31543,9.52149 7.44629,7.08008 12.08496,21.11816 4.02832,-13.79394 11.35254,-20.99609 10.13183,-9.76563 23.4375,-9.76563 13.18359,0 22.33887,9.15528 9.15527,9.0332 9.15527,21.60644 0,10.98633 -5.37109,22.94922 -5.3711,11.84082 -20.75196,31.12793 -20.01953,25.26856 -29.1748,41.50391 -7.20215,12.81738 -10.98633,26.85547 z" />
    <path
       inkscape:connector-curvature="0"
       d="m 231.67273,785.72669 q -3.78418,14.4043 -10.86426,26.97754 -6.95801,12.69532 -27.09961,39.30664 -14.77051,19.53125 -18.18847,24.78028 -5.61524,8.54492 -8.17872,15.625 -2.4414,7.20215 -2.4414,14.52636 0,13.54981 9.0332,22.70508 9.0332,9.15528 22.33887,9.15528 13.42773,0 23.31543,-9.52149 7.44629,-7.08008 12.08496,-21.11816 4.02832,13.79394 11.35254,20.99609 10.13183,9.76563 23.4375,9.76563 13.18359,0 22.33887,-9.15528 9.15527,-9.0332 9.15527,-21.60644 0,-10.98633 -5.37109,-22.94922 -5.3711,-11.84082 -20.75196,-31.12793 -20.01953,-25.26856 -29.1748,-41.50391 -7.20215,-12.81738 -10.98633,-26.85547 z"
       style="font-style:normal;font-weight:normal;font-size:250px;line-height:1.25;font-family:Arial;text-align:center;text-anchor:middle;fill:#ff0000;fill-opacity:1;stroke:none;stroke-width:1px;stroke-linecap:butt;stroke-linejoin:miter;stroke-opacity:1"
       id="path990" />
    <path
       inkscape:connector-curvature="0"
       d="m 231.67273,481.85471 q -3.78418,-14.4043 -10.86426,-26.97754 -6.95801,-12.69532 -27.09961,-39.30664 -14.77051,-19.53125 -18.18847,-24.78028 -5.61524,-8.54492 -8.17872,-15.625 -2.4414,-7.20215 -2.4414,-14.52636 0,-13.54981 9.0332,-22.70508 9.0332,-9.15528 22.33887,-9.15528 13.42773,0 23.31543,9.52149 7.44629,7.08008 12.08496,21.11816 4.02832,-13.79394 11.35254,-20.99609 10.13183,-9.76563 23.4375,-9.76563 13.18359,0 22.33887,9.15528 9.15527,9.0332 9.15527,21.60644 0,10.98633 -5.37109,22.94922 -5.3711,11.84082 -20.75196,31.12793 -20.01953,25.26856 -29.1748,41.50391 -7.20215,12.81738 -10.98633,26.85547 z"
       style="font-style:normal;font-weight:normal;font-size:250px;line-height:1.25;font-family:Arial;text-align:center;text-anchor:middle;fill:#ff0000;fill-opacity:1;stroke:none;stroke-width:1px;stroke-linecap:butt;stroke-linejoin:miter;stroke-opacity:1"
       id="path994" />
    <path
       inkscape:connector-curvature="0"
       d="m 231.67273,565.72669 q -3.78418,14.4043 -10.86426,26.97754 -6.95801,12.69532 -27.09961,39.30664 -14.77051,19.53125 -18.18847,24.78028 -5.61524,8.54492 -8.17872,15.625 -2.4414,7.20215 -2.4414,14.52636 0,13.54981 9.0332,22.70508 9.0332,9.15528 22.33887,9.15528 13.42773,0 23.31543,-9.52149 7.44629,-7.08008 12.08496,-21.11816 4.02832,13.79394 11.35254,20.99609 10.13183,9.76563 23.4375,9.76563 13.18359,0 22.33887,-9.15528 9.15527,-9.0332 9.15527,-21.60644 0,-10.98633 -5.37109,-22.94922 -5.3711,-11.84082 -20.75196,-31.12793 -20.01953,-25.26856 -29.1748,-41.50391 -7.20215,-12.81738 -10.98633,-26.85547 z"
       style="font-style:normal;font-weight:normal;font-size:250px;line-height:1.25;font-family:Arial;text-align:center;text-anchor:middle;fill:#ff0000;fill-opacity:1;stroke:none;stroke-width:1px;stroke-linecap:butt;stroke-linejoin:miter;stroke-opacity:1"
       id="path978" />
    <path
       inkscape:connector-curvature="0"
       id="path949"
       style="font-style:normal;font-weight:normal;font-size:250px;line-height:1.25;font-family:Arial;text-align:center;text-anchor:middle;fill:#ff0000;fill-opacity:1;stroke:none;stroke-width:1px;stroke-linecap:butt;stroke-linejoin:miter;stroke-opacity:1"
       d="m 511.67273,261.85471 q -3.78418,-14.4043 -10.86426,-26.97754 -6.95801,-12.69532 -27.09961,-39.30664 -14.77051,-19.53125 -18.18847,-24.78028 -5.61524,-8.54492 -8.17872,-15.625 -2.4414,-7.20215 -2.4414,-14.52636 0,-13.54981 9.0332,-22.70508 9.0332,-9.15528 22.33887,-9.15528 13.42773,0 23.31543,9.52149 7.44629,7.08008 12.08496,21.11816 4.02832,-13.79394 11.35254,-20.99609 10.13183,-9.76563 23.4375,-9.76563 13.18359,0 22.33887,9.15528 9.15527,9.0332 9.15527,21.60644 0,10.98633 -5.37109,22.94922 -5.3711,11.84082 -20.75196,31.12793 -20.01953,25.26856 -29.1748,41.50391 -7.20215,12.81738 -10.98633,26.85547 z" />
    <path
       inkscape:connector-curvature="0"
       d="m 511.67273,785.72669 q -3.78418,14.4043 -10.86426,26.97754 -6.95801,12.69532 -27.09961,39.30664 -14.77051,19.53125 -18.18847,24.78028 -5.61524,8.54492 -8.17872,15.625 -2.4414,7.20215 -2.4414,14.52636 0,13.54981 9.0332,22.70508 9.0332,9.15528 22.33887,9.15528 13.42773,0 23.31543,-9.52149 7.44629,-7.08008 12.08496,-21.11816 4.02832,13.79394 11.35254,20.99609 10.13183,9.76563 23.4375,9.76563 13.18359,0 22.33887,-9.15528 9.15527,-9.0332 9.15527,-21.60644 0,-10.98633 -5.37109,-22.94922 -5.3711,-11.84082 -20.75196,-31.12793 -20.01953,-25.26856 -29.1748,-41.50391 -7.20215,-12.81738 -10.98633,-26.85547 z"
       style="font-style:normal;font-weight:normal;font-size:250px;line-height:1.25;font-family:Arial;text-align:center;text-anchor:middle;fill:#ff0000;fill-opacity:1;stroke:none;stroke-width:1px;stroke-linecap:butt;stroke-linejoin:miter;stroke-opacity:1"
       id="path986" />
    <path
       inkscape:connector-curvature="0"
       d="m 511.67273,481.85471 q -3.78418,-14.4043 -10.86426,-26.97754 -6.95801,-12.69532 -27.09961,-39.30664 -14.77051,-19.53125 -18.18847,-24.78028 -5.61524,-8.54492 -8.17872,-15.625 -2.4414,-7.20215 -2.4414,-14.52636 0,-13.54981 9.0332,-22.70508 9.0332,-9.15528 22.33887,-9.15528 13.42773,0 23.31543,9.52149 7.44629,7.08008 12.08496,21.11816 4.02832,-13.79394 11.35254,-20.99609 10.13183,-9.76563 23.4375,-9.76563 13.18359,0 22.33887,9.15528 9.15527,9.0332 9.15527,21.60644 0,10.98633 -5.37109,22.94922 -5.3711,11.84082 -20.75196,31.12793 -20.01953,25.26856 -29.1748,41.50391 -7.20215,12.81738 -10.98633,26.85547 z"
       style="font-style:normal;font-weight:normal;font-size:250px;line-height:1.25;font-family:Arial;text-align:center;text-anchor:middle;fill:#ff0000;fill-opacity:1;stroke:none;stroke-width:1px;stroke-linecap:butt;stroke-linejoin:miter;stroke-opacity:1"
       id="path982" />
    <path
       inkscape:connector-curvature="0"
       d="m 511.67273,565.72669 q -3.78418,14.4043 -10.86426,26.97754 -6.95801,12.69532 -27.09961,39.30664 -14.77051,19.53125 -18.18847,24.78028 -5.61524,8.54492 -8.17872,15.625 -2.4414,7.20215 -2.4414,14.52636 0,13.54981 9.0332,22.70508 9.0332,9.15528 22.33887,9.15528 13.42773,0 23.31543,-9.52149 7.44629,-7.08008 12.08496,-21.11816 4.02832,13.79394 11.35254,20.99609 10.13183,9.76563 23.4375,9.76563 13.18359,0 22.33887,-9.15528 9.15527,-9.0332 9.15527,-21.60644 0,-10.98633 -5.37109,-22.94922 -5.3711,-11.84082 -20.75196,-31.12793 -20.01953,-25.26856 -29.1748,-41.50391 -7.20215,-12.81738 -10.98633,-26.85547 z"
       style="font-style:normal;font-weight:normal;font-size:250px;line-height:1.25;font-family:Arial;text-align:center;text-anchor:middle;fill:#ff0000;fill-opacity:1;stroke:none;stroke-width:1px;stroke-linecap:butt;stroke-linejoin:miter;stroke-opacity:1"
       id="path974" />
    <path
       inkscape:connector-curvature="0"
       id="path955"
       style="font-style:normal;font-weight:normal;font-size:250px;line-height:1.25;font-family:Arial;text-align:center;text-anchor:middle;fill:#ff0000;fill-opacity:1;stroke:none;stroke-width:1px;stroke-linecap:butt;stroke-linejoin:miter;stroke-opacity:1"
       d="m 371.67273,387.85468 q -3.78418,-14.4043 -10.86426,-26.97754 -6.95801,-12.69532 -27.09961,-39.30664 -14.77051,-19.53125 -18.18847,-24.78028 -5.61524,-8.54492 -8.17872,-15.625 -2.4414,-7.20215 -2.4414,-14.52637 0,-13.5498 9.0332,-22.70507 9.0332,-9.15528 22.33887,-9.15528 13.42773,0 23.31543,9.52149 7.44629,7.08008 12.08496,21.11816 4.02832,-13.79394 11.35254,-20.99609 10.13183,-9.76563 23.4375,-9.76563 13.18359,0 22.33887,9.15528 9.15527,9.0332 9.15527,21.60644 0,10.98633 -5.37109,22.94922 -5.3711,11.84082 -20.75196,31.12793 -20.01953,25.26855 -29.1748,41.50391 -7.20215,12.81738 -10.98633,26.85547 z" />
    <path
       inkscape:connector-curvature="0"
       d="m 371.67273,671.72672 q -3.78418,14.4043 -10.86426,26.97754 -6.95801,12.69532 -27.09961,39.30664 -14.77051,19.53125 -18.18847,24.78028 -5.61524,8.54492 -8.17872,15.625 -2.4414,7.20215 -2.4414,14.52637 0,13.5498 9.0332,22.70507 9.0332,9.15528 22.33887,9.15528 13.42773,0 23.31543,-9.52149 7.44629,-7.08008 12.08496,-21.11816 4.02832,13.79394 11.35254,20.99609 10.13183,9.76563 23.4375,9.76563 13.18359,0 22.33887,-9.15528 9.15527,-9.0332 9.15527,-21.60644 0,-10.98633 -5.37109,-22.94922 -5.3711,-11.84082 -20.75196,-31.12793 -20.01953,-25.26855 -29.1748,-41.50391 -7.20215,-12.81738 -10.98633,-26.85547 z"
       style="font-style:normal;font-weight:normal;font-size:250px;line-height:1.25;font-family:Arial;text-align:center;text-anchor:middle;fill:#ff0000;fill-opacity:1;stroke:none;stroke-width:1px;stroke-linecap:butt;stroke-linejoin:miter;stroke-opacity:1"
       id="path998" />
  </g>
</svg>
