<?xml version="1.0" encoding="UTF-8" standalone="no"?>
<!-- Created with Inkscape (http://www.inkscape.org/) -->

<svg
   xmlns:dc="http://purl.org/dc/elements/1.1/"
   xmlns:cc="http://creativecommons.org/ns#"
   xmlns:rdf="http://www.w3.org/1999/02/22-rdf-syntax-ns#"
   xmlns:svg="http://www.w3.org/2000/svg"
   xmlns="http://www.w3.org/2000/svg"
   xmlns:sodipodi="http://sodipodi.sourceforge.net/DTD/sodipodi-0.dtd"
   xmlns:inkscape="http://www.inkscape.org/namespaces/inkscape"
   version="1.0"
   width="747.34698"
   height="1046.2856"
   id="svg2"
   sodipodi:version="0.32"
   inkscape:version="0.92.4 (5da689c313, 2019-01-14)"
   sodipodi:docname="Cards-A-Spade.svg"
   inkscape:output_extension="org.inkscape.output.svg.inkscape">
  <metadata
     id="metadata20">
    <rdf:RDF>
      <cc:Work
         rdf:about="">
        <dc:format>image/svg+xml</dc:format>
        <dc:type
           rdf:resource="http://purl.org/dc/dcmitype/StillImage" />
      </cc:Work>
    </rdf:RDF>
  </metadata>
  <sodipodi:namedview
     inkscape:window-height="2066"
     inkscape:window-width="3840"
     inkscape:pageshadow="2"
     inkscape:pageopacity="0.0"
     guidetolerance="10.0"
     gridtolerance="10.0"
     objecttolerance="10.0"
     borderopacity="1.0"
     bordercolor="#666666"
     pagecolor="#ffffff"
     id="base"
     showgrid="false"
     inkscape:zoom="0.44156202"
     inkscape:cx="373.67349"
     inkscape:cy="523.14282"
     inkscape:window-x="-11"
     inkscape:window-y="-11"
     inkscape:current-layer="use2757"
     inkscape:window-maximized="1" />
  <defs
     id="defs4">
    <inkscape:perspective
       sodipodi:type="inkscape:persp3d"
       inkscape:vp_x="0 : 523.14282 : 1"
       inkscape:vp_y="0 : 1000 : 0"
       inkscape:vp_z="747.34698 : 523.14282 : 1"
       inkscape:persp3d-origin="373.67349 : 348.76188 : 1"
       id="perspective22" />
  </defs>
  <g
     transform="translate(2.2448993,-0.6479052)"
     id="layer1">
    <g
       transform="translate(-2.0407968,-11.714273)"
       id="g2775">
      <g
         id="g2430">
        <g
           id="g2443">
          <path
             inkscape:connector-curvature="0"
             id="path839"
             style="font-style:normal;font-variant:normal;font-weight:normal;font-stretch:normal;font-size:144px;line-height:0%;font-family:'Arial Narrow';-inkscape-font-specification:'Arial Narrow';text-align:center;text-anchor:middle;fill:#000000;fill-opacity:1;stroke:none;stroke-width:1px;stroke-linecap:butt;stroke-linejoin:miter;stroke-opacity:1"
             d="M 61.434235,68.059677 42.16861,120.30186 H 80.770172 Z M 53.41861,54.06749 H 69.520172 L 109.52798,159.04405 H 94.76236 l -9.5625,-26.92969 H 37.879547 l -9.5625,26.92969 H 13.340485 Z" />
          <path
             inkscape:connector-curvature="0"
             id="path836"
             style="font-style:normal;font-variant:normal;font-weight:normal;font-stretch:normal;font-size:144px;line-height:0%;font-family:'Arial Narrow';-inkscape-font-specification:'Arial Narrow';text-align:center;text-anchor:middle;fill:#000000;fill-opacity:1;stroke:none;stroke-width:1px;stroke-linecap:butt;stroke-linejoin:miter;stroke-opacity:1"
             d="m 65.688141,194.13779 q 6.609375,11.74218 21.796875,31.14843 16.664064,19.54688 17.085934,23.55469 2.74219,5.97656 2.74219,11.60156 v 2.8125 q 0,11.74219 -11.390624,18.49219 -3.726563,1.54688 -8.226563,1.54688 -10.828125,0 -17.507812,-15.53907 h -2.953125 v 0.84375 q 0,19.89844 5.835937,30.44532 H 57.953766 v -0.42188 q 5.976562,-10.61719 5.976562,-30.65625 l -0.210937,-0.21094 h -2.671875 l -3.304688,6.1875 q -5.976562,9.35157 -14.90625,9.35157 -13.148437,0 -18.492187,-14.69532 l -0.632813,-5.13281 v -3.23437 q 0,-12.86719 13.148438,-27.14063 22.148437,-27.14062 28.40625,-38.74219 l 0.210937,-0.21093 z" />
          <g
             transform="matrix(-1,0,0,-1,744.17051,1070.3281)"
             id="use2757">
            <path
               inkscape:connector-curvature="0"
               id="path833"
               style="font-style:normal;font-variant:normal;font-weight:normal;font-stretch:normal;font-size:144px;line-height:0%;font-family:'Arial Narrow';-inkscape-font-specification:'Arial Narrow';text-align:center;text-anchor:middle;fill:#000000;fill-opacity:1;stroke:none;stroke-width:1px;stroke-linecap:butt;stroke-linejoin:miter;stroke-opacity:1"
               d="M 58.665966,67.377747 39.400341,119.61993 H 78.001904 Z M 50.650341,53.385559 H 66.751904 L 106.75972,158.36212 H 91.994091 l -9.5625,-26.92969 H 35.111279 l -9.5625,26.92969 H 10.572216 Z" />
            <path
               inkscape:connector-curvature="0"
               id="path830"
               style="font-style:normal;font-variant:normal;font-weight:normal;font-stretch:normal;font-size:144px;line-height:0%;font-family:'Arial Narrow';-inkscape-font-specification:'Arial Narrow';text-align:center;text-anchor:middle;fill:#000000;fill-opacity:1;stroke:none;stroke-width:1px;stroke-linecap:butt;stroke-linejoin:miter;stroke-opacity:1"
               d="m 62.919872,193.45587 q 6.609375,11.74219 21.796875,31.14844 16.664063,19.54687 17.085933,23.55469 2.74219,5.97656 2.74219,11.60156 v 2.8125 q 0,11.74219 -11.390623,18.49219 -3.726562,1.54687 -8.226562,1.54687 -10.828125,0 -17.507813,-15.53906 h -2.953125 v 0.84375 q 0,19.89844 5.835938,30.44531 H 55.185497 v -0.42187 Q 61.16206,287.32306 61.16206,267.284 l -0.210938,-0.21094 h -2.671875 l -3.304687,6.1875 q -5.976563,9.35156 -14.90625,9.35156 -13.148438,0 -18.492188,-14.69531 L 20.94331,262.784 v -3.23438 q 0,-12.86719 13.148437,-27.14062 22.148438,-27.14063 28.40625,-38.74219 l 0.210938,-0.21094 z" />
          </g>
        </g>
        <path
           inkscape:connector-curvature="0"
           id="path827"
           style="font-style:normal;font-weight:normal;font-size:500px;line-height:0%;font-family:Arial;text-align:center;text-anchor:middle;fill:#000000;fill-opacity:1;stroke:none;stroke-width:1px;stroke-linecap:butt;stroke-linejoin:miter;stroke-opacity:1"
           d="m 373.71353,385.23645 q 6.34766,26.36719 19.53125,47.11914 13.1836,20.75195 46.875,51.51367 33.93555,30.51758 42.96875,46.875 9.0332,16.35742 9.0332,33.20313 0,23.4375 -15.625,39.0625 -15.625,15.625 -38.08593,15.625 -19.04297,0 -34.66797,-11.71875 -15.38086,-11.96289 -27.34375,-34.66797 0.24414,35.88867 9.27734,57.12891 9.27735,20.99609 29.29688,33.20312 20.26367,11.96289 53.71093,14.16016 l 1.70899,9.0332 H 276.7897 l 1.95313,-9.0332 q 44.92187,0 69.58008,-26.12305 24.90234,-26.36719 23.92578,-78.36914 -10.98633,23.19336 -27.34375,34.91211 -16.11328,11.47461 -36.6211,11.47461 -21.97265,0 -37.84179,-15.86914 -15.625,-15.86914 -15.625,-38.08594 0,-17.82227 8.05664,-32.22656 10.98633,-20.01953 35.64453,-40.28321 24.6582,-20.26367 36.37695,-33.44726 17.82227,-20.26367 25.87891,-36.13281 8.30078,-15.86914 12.93945,-37.35352 z" />
      </g>
    </g>
  </g>
</svg>
