<svg version="1.0" viewBox="0 0 747 1000" xmlns="http://www.w3.org/2000/svg"><g fill="red"><path d="M31.2 41.35h56v12h-43v26q3.1-1.1 6.2-1.5 3.1-.56 6.2-.56 18 0 28 9.6t10 26q0 17-11 26-11 9.4-30 9.4-6.6 0-14-1.1-6.8-1.1-14-3.4v-14q6.3 3.4 13 5.1t14 1.7q12 0 19-6.4 7.1-6.4 7.1-17t-7.1-17q-7.1-6.4-19-6.4-5.7 0-11 1.3-5.6 1.3-12 3.9zM66.2 181.35l35 46q4.9 6 4.9 6.9l-40 52q-.84-.56-40-52 0-.98 7.8-11zM716.2 987.35h-56v-12h43v-26q-3.1 1.1-6.2 1.5-3.1.56-6.2.56-18 0-28-9.6t-10-26q0-17 11-26 11-9.4 30-9.4 6.6 0 14 1.1 6.8 1.1 14 3.4v14q-6.3-3.4-13-5.1t-14-1.7q-12 0-19 6.4t-7.1 17 7.1 17q7.1 6.4 19 6.4 5.7 0 11-1.3 5.6-1.3 12-3.9zM681.2 864.35l-35-46q-4.9-6-4.9-6.9l40-52q.84.56 40 52 0 .98-7.8 11zM233.2 147.35q11 18 27 40 18 24 30 37-9 9.5-30 37-17 22-27 40-3.3-6.3-9-15-9.9-15-25-34-3.2-4.3-22-28 12-14 32-40 14-19 24-36zM233.2 898.35q11-18 27-40 18-24 30-37-9-9.5-30-37-17-22-27-40-3.3 6.3-9 15-9.9 15-25 34-3.2 4.3-22 28 12 14 32 40 14 19 24 36zM513.2 147.35q11 18 27 40 18 24 30 37-9 9.5-30 37-17 22-27 40-3.3-6.3-9-15-9.9-15-25-34-3.2-4.3-22-28 12-14 32-40 14-19 24-36zM513.2 898.35q11-18 27-40 18-24 30-37-9-9.5-30-37-17-22-27-40-3.3 6.3-9 15-9.9 15-25 34-3.2 4.3-22 28 12 14 32 40 14 19 24 36zM373.2 447.35q11 18 27 40 18 24 30 37-9 9.5-30 37-17 22-27 40-3.3-6.3-9-15-9.9-15-25-34-3.2-4.3-22-28 12-14 32-40 14-19 24-36z"/></g></svg>