<?xml version="1.0" encoding="UTF-8" standalone="no"?>
<!-- Created with Inkscape (http://www.inkscape.org/) -->

<svg
   xmlns:dc="http://purl.org/dc/elements/1.1/"
   xmlns:cc="http://creativecommons.org/ns#"
   xmlns:rdf="http://www.w3.org/1999/02/22-rdf-syntax-ns#"
   xmlns:svg="http://www.w3.org/2000/svg"
   xmlns="http://www.w3.org/2000/svg"
   xmlns:sodipodi="http://sodipodi.sourceforge.net/DTD/sodipodi-0.dtd"
   xmlns:inkscape="http://www.inkscape.org/namespaces/inkscape"
   width="747.34698"
   height="1046.2856"
   id="svg2"
   sodipodi:version="0.32"
   inkscape:version="0.92.4 (5da689c313, 2019-01-14)"
   version="1.0"
   sodipodi:docname="Cards-3-Diamond.svg"
   inkscape:output_extension="org.inkscape.output.svg.inkscape">
  <defs
     id="defs4">
    <inkscape:perspective
       sodipodi:type="inkscape:persp3d"
       inkscape:vp_x="0 : 526.18109 : 1"
       inkscape:vp_y="0 : 1000 : 0"
       inkscape:vp_z="744.09448 : 526.18109 : 1"
       inkscape:persp3d-origin="372.04724 : 350.78739 : 1"
       id="perspective10" />
    <inkscape:perspective
       id="perspective2390"
       inkscape:persp3d-origin="372.04724 : 350.78739 : 1"
       inkscape:vp_z="744.09448 : 526.18109 : 1"
       inkscape:vp_y="0 : 1000 : 0"
       inkscape:vp_x="0 : 526.18109 : 1"
       sodipodi:type="inkscape:persp3d" />
  </defs>
  <sodipodi:namedview
     id="base"
     pagecolor="#ffffff"
     bordercolor="#666666"
     borderopacity="1.0"
     gridtolerance="10000"
     guidetolerance="10"
     objecttolerance="10"
     inkscape:pageopacity="0.0"
     inkscape:pageshadow="2"
     inkscape:zoom="0.35"
     inkscape:cx="-947.24949"
     inkscape:cy="329.32487"
     inkscape:document-units="px"
     inkscape:current-layer="g2775"
     showgrid="false"
     showguides="true"
     inkscape:guide-bbox="true"
     inkscape:window-width="3840"
     inkscape:window-height="2066"
     inkscape:window-x="-11"
     inkscape:window-y="-11"
     inkscape:window-maximized="1" />
  <metadata
     id="metadata7">
    <rdf:RDF>
      <cc:Work
         rdf:about="">
        <dc:format>image/svg+xml</dc:format>
        <dc:type
           rdf:resource="http://purl.org/dc/dcmitype/StillImage" />
      </cc:Work>
    </rdf:RDF>
  </metadata>
  <g
     inkscape:label="Layer 1"
     inkscape:groupmode="layer"
     id="layer1"
     transform="translate(2.2448993,-0.6479052)">
    <g
       id="g2775"
       transform="translate(-2.0407968,-11.714273)">
      <path
         inkscape:connector-curvature="0"
         id="path830"
         style="font-style:normal;font-variant:normal;font-weight:normal;font-stretch:normal;font-size:144px;line-height:1.25;font-family:'Arial Narrow';-inkscape-font-specification:'Arial Narrow';text-align:center;text-anchor:middle;fill:#ff0000;fill-opacity:1;stroke:none;stroke-width:1px;stroke-linecap:butt;stroke-linejoin:miter;stroke-opacity:1"
         d="m 74.160798,102.44249 q 10.195312,2.17969 15.890625,9.07031 5.765625,6.89063 5.765625,17.01563 0,15.53906 -10.6875,24.04687 -10.6875,8.50781 -30.375,8.50781 -6.609375,0 -13.640625,-1.33593 -6.960938,-1.26563 -14.414063,-3.86719 v -13.71094 q 5.90625,3.44531 12.9375,5.20313 7.03125,1.75781 14.695313,1.75781 13.359375,0 20.320312,-5.27344 7.03125,-5.27344 7.03125,-15.32812 0,-9.28125 -6.539062,-14.48438 -6.46875,-5.27344 -18.070313,-5.27344 H 44.840485 V 97.098738 H 57.63736 q 10.476563,0 16.03125,-4.148437 5.554688,-4.21875 5.554688,-12.09375 0,-8.085938 -5.765625,-12.375 -5.695313,-4.359375 -16.382813,-4.359375 -5.835937,0 -12.515625,1.265625 -6.679687,1.265625 -14.695312,3.9375 v -12.65625 q 8.085937,-2.25 15.117187,-3.375 7.101563,-1.125 13.359375,-1.125 16.171875,0 25.59375,7.382812 9.421875,7.3125 9.421875,19.828125 0,8.71875 -4.992187,14.765625 -4.992188,5.976567 -14.203125,8.296877 z" />
      <path
         inkscape:connector-curvature="0"
         id="path833"
         style="font-style:normal;font-variant:normal;font-weight:normal;font-stretch:normal;font-size:144px;line-height:1.25;font-family:'Arial Narrow';-inkscape-font-specification:'Arial Narrow';text-align:center;text-anchor:middle;fill:#ff0000;fill-opacity:1;stroke:none;stroke-width:1px;stroke-linecap:butt;stroke-linejoin:miter;stroke-opacity:1"
         d="m 65.547516,194.1378 35.367184,45.91406 q 4.85157,5.97657 4.85157,6.89063 l -40.218754,52.10156 q -0.84375,-0.5625 -40.359375,-52.10156 0,-0.98438 7.804688,-10.6875 z" />
      <path
         d="m 672.77799,968.56752 q -10.19531,-2.17969 -15.89062,-9.07031 -5.76563,-6.89063 -5.76563,-17.01563 0,-15.53906 10.6875,-24.04687 10.6875,-8.50781 30.375,-8.50781 6.60938,0 13.64063,1.33593 6.96093,1.26563 14.41406,3.86719 v 13.71094 q -5.90625,-3.44531 -12.9375,-5.20313 -7.03125,-1.75781 -14.69531,-1.75781 -13.35938,0 -20.32032,5.27344 -7.03125,5.27344 -7.03125,15.32812 0,9.28125 6.53907,14.48438 6.46875,5.27344 18.07031,5.27344 h 12.23437 v 11.67187 h -12.79687 q -10.47656,0 -16.03125,4.14844 -5.55469,4.21875 -5.55469,12.09375 0,8.08594 5.76563,12.37504 5.69531,4.3593 16.38281,4.3593 5.83594,0 12.51562,-1.2656 6.67969,-1.2656 14.69532,-3.9375 v 12.6563 q -8.08594,2.25 -15.11719,3.375 -7.10156,1.125 -13.35938,1.125 -16.17187,0 -25.59375,-7.3829 -9.42187,-7.3125 -9.42187,-19.82808 0,-8.71875 4.99219,-14.76562 4.99218,-5.97657 14.20312,-8.29688 z"
         style="font-style:normal;font-variant:normal;font-weight:normal;font-stretch:normal;font-size:144px;line-height:1.25;font-family:'Arial Narrow';-inkscape-font-specification:'Arial Narrow';text-align:center;text-anchor:middle;fill:#ff0000;fill-opacity:1;stroke:none;stroke-width:1px;stroke-linecap:butt;stroke-linejoin:miter;stroke-opacity:1"
         id="path846"
         inkscape:connector-curvature="0" />
      <path
         d="m 681.39127,876.87221 -35.36718,-45.91406 q -4.85157,-5.97657 -4.85157,-6.89063 l 40.21875,-52.10156 q 0.84375,0.5625 40.35938,52.10156 0,0.98438 -7.80469,10.6875 z"
         style="font-style:normal;font-variant:normal;font-weight:normal;font-stretch:normal;font-size:144px;line-height:1.25;font-family:'Arial Narrow';-inkscape-font-specification:'Arial Narrow';text-align:center;text-anchor:middle;fill:#ff0000;fill-opacity:1;stroke:none;stroke-width:1px;stroke-linecap:butt;stroke-linejoin:miter;stroke-opacity:1"
         id="path850"
         inkscape:connector-curvature="0" />
      <path
         d="m 373.22525,160.37073 q 10.86425,18.43261 26.73339,39.55078 18.31055,24.41406 29.54102,36.9873 -9.0332,9.52149 -29.54102,36.86524 -16.60156,22.21679 -26.61132,39.79492 -3.2959,-6.34766 -9.03321,-14.77051 -9.88769,-14.64844 -24.53613,-34.05762 -3.17383,-4.27246 -22.33887,-27.83203 12.3291,-14.03808 31.73828,-40.03906 14.4043,-19.28711 24.04786,-36.49902 z"
         style="font-style:normal;font-weight:normal;font-size:250px;line-height:1.25;font-family:Arial;text-align:center;text-anchor:middle;fill:#ff0000;fill-opacity:1;stroke:none;stroke-width:1px;stroke-linecap:butt;stroke-linejoin:miter;stroke-opacity:1"
         id="path827"
         inkscape:connector-curvature="0" />
      <path
         inkscape:connector-curvature="0"
         id="path856"
         style="font-style:normal;font-weight:normal;font-size:250px;line-height:1.25;font-family:Arial;text-align:center;text-anchor:middle;fill:#ff0000;fill-opacity:1;stroke:none;stroke-width:1px;stroke-linecap:butt;stroke-linejoin:miter;stroke-opacity:1"
         d="m 373.22525,910.63927 q 10.86425,-18.43261 26.73339,-39.55078 18.31055,-24.41406 29.54102,-36.9873 -9.0332,-9.52149 -29.54102,-36.86524 -16.60156,-22.21679 -26.61132,-39.79492 -3.2959,6.34766 -9.03321,14.77051 -9.88769,14.64844 -24.53613,34.05762 -3.17383,4.27246 -22.33887,27.83203 12.3291,14.03808 31.73828,40.03906 14.4043,19.28711 24.04786,36.49902 z" />
      <path
         inkscape:connector-curvature="0"
         id="path860"
         style="font-style:normal;font-weight:normal;font-size:250px;line-height:1.25;font-family:Arial;text-align:center;text-anchor:middle;fill:#ff0000;fill-opacity:1;stroke:none;stroke-width:1px;stroke-linecap:butt;stroke-linejoin:miter;stroke-opacity:1"
         d="m 373.22525,460.37073 q 10.86425,18.43261 26.73339,39.55078 18.31055,24.41406 29.54102,36.9873 -9.0332,9.52149 -29.54102,36.86524 -16.60156,22.21679 -26.61132,39.79492 -3.2959,-6.34766 -9.03321,-14.77051 -9.88769,-14.64844 -24.53613,-34.05762 -3.17383,-4.27246 -22.33887,-27.83203 12.3291,-14.03808 31.73828,-40.03906 14.4043,-19.28711 24.04786,-36.49902 z" />
    </g>
  </g>
</svg>
