<?xml version="1.0" encoding="UTF-8" standalone="no"?>
<!-- Created with Inkscape (http://www.inkscape.org/) -->

<svg
   xmlns:dc="http://purl.org/dc/elements/1.1/"
   xmlns:cc="http://creativecommons.org/ns#"
   xmlns:rdf="http://www.w3.org/1999/02/22-rdf-syntax-ns#"
   xmlns:svg="http://www.w3.org/2000/svg"
   xmlns="http://www.w3.org/2000/svg"
   xmlns:xlink="http://www.w3.org/1999/xlink"
   xmlns:sodipodi="http://sodipodi.sourceforge.net/DTD/sodipodi-0.dtd"
   xmlns:inkscape="http://www.inkscape.org/namespaces/inkscape"
   width="747.34698"
   height="1046.2856"
   id="svg2"
   sodipodi:version="0.32"
   inkscape:version="0.92.4 (5da689c313, 2019-01-14)"
   version="1.0"
   sodipodi:docname="Cards-J-Club.svg"
   inkscape:output_extension="org.inkscape.output.svg.inkscape">
  <defs
     id="defs4">
    <inkscape:perspective
       sodipodi:type="inkscape:persp3d"
       inkscape:vp_x="0 : 526.18109 : 1"
       inkscape:vp_y="0 : 1000 : 0"
       inkscape:vp_z="744.09448 : 526.18109 : 1"
       inkscape:persp3d-origin="372.04724 : 350.78739 : 1"
       id="perspective10" />
    <inkscape:perspective
       id="perspective2390"
       inkscape:persp3d-origin="372.04724 : 350.78739 : 1"
       inkscape:vp_z="744.09448 : 526.18109 : 1"
       inkscape:vp_y="0 : 1000 : 0"
       inkscape:vp_x="0 : 526.18109 : 1"
       sodipodi:type="inkscape:persp3d" />
  </defs>
  <sodipodi:namedview
     id="base"
     pagecolor="#ffffff"
     bordercolor="#666666"
     borderopacity="1.0"
     gridtolerance="10000"
     guidetolerance="10"
     objecttolerance="10"
     inkscape:pageopacity="0.0"
     inkscape:pageshadow="2"
     inkscape:zoom="0.49497475"
     inkscape:cx="-217.09815"
     inkscape:cy="534.19261"
     inkscape:document-units="px"
     inkscape:current-layer="g2797"
     showgrid="false"
     showguides="true"
     inkscape:guide-bbox="true"
     inkscape:window-width="3840"
     inkscape:window-height="2066"
     inkscape:window-x="-11"
     inkscape:window-y="-11"
     inkscape:window-maximized="1" />
  <metadata
     id="metadata7">
    <rdf:RDF>
      <cc:Work
         rdf:about="">
        <dc:format>image/svg+xml</dc:format>
        <dc:type
           rdf:resource="http://purl.org/dc/dcmitype/StillImage" />
      </cc:Work>
    </rdf:RDF>
  </metadata>
  <g
     inkscape:label="Layer 1"
     inkscape:groupmode="layer"
     id="layer1"
     transform="translate(2.2448993,-0.6479052)">
    <g
       id="g2775"
       transform="translate(-2.0407968,-11.714273)">
      <g
         id="g2797">
        <path
           inkscape:connector-curvature="0"
           id="path963"
           style="font-style:normal;font-variant:normal;font-weight:normal;font-stretch:normal;font-size:144px;line-height:1.25;font-family:'Arial Narrow';-inkscape-font-specification:'Arial Narrow';text-align:center;text-anchor:middle;fill:#000000;fill-opacity:1;stroke:none;stroke-width:1px;stroke-linecap:butt;stroke-linejoin:miter;stroke-opacity:1"
           d="m 53.539707,54.06749 h 14.203125 v 97.66406 q 0,18.98438 -7.242187,27.5625 -7.171875,8.57813 -23.132813,8.57813 H 31.95377 v -11.95313 h 4.429687 q 9.421875,0 13.289063,-5.27344 3.867187,-5.27343 3.867187,-18.91406 z" />
        <path
           inkscape:connector-curvature="0"
           id="path966"
           style="font-style:normal;font-variant:normal;font-weight:normal;font-stretch:normal;font-size:144px;line-height:1.25;font-family:'Arial Narrow';-inkscape-font-specification:'Arial Narrow';text-align:center;text-anchor:middle;fill:#000000;fill-opacity:1;stroke:none;stroke-width:1px;stroke-linecap:butt;stroke-linejoin:miter;stroke-opacity:1"
           d="m 57.617828,194.13779 q 15.046875,0 22.148438,15.96093 0.914062,3.65625 1.125,7.59375 0,8.22657 -8.4375,19.47657 l -4.21875,4.21875 h 0.210937 q 5.203125,-1.96875 11.109375,-1.96875 h 1.335938 q 16.734375,0 23.484374,14.20312 1.61719,4.64063 1.61719,8.85938 0,14.41406 -14.695314,21.72656 -2.8125,0.84375 -7.804688,1.26562 -17.015625,0 -24.117187,-19.26562 h -0.210938 v 0.63281 q 0,24.11719 5.765625,31.78125 v 0.42188 h -14.625 l -0.421875,-0.42188 q 5.976563,-9 5.976563,-32.41406 v -0.21094 h -0.210938 q -7.03125,19.47656 -24.257812,19.47656 -13.429688,0 -20.601563,-14.13281 -1.7578121,-4.78125 -1.7578121,-8.85937 0,-16.38282 17.2968751,-22.21875 4.640625,-0.84375 8.226562,-0.84375 h 0.632813 q 6.046875,0 11.53125,1.96875 h 0.210937 v -0.21094 q -5.90625,-4.99219 -7.945312,-9.84375 -4.21875,-7.73438 -4.21875,-13.42969 v -0.98437 q 0,-14.13282 15.117187,-21.44532 4.992188,-1.33593 7.734375,-1.33593 z" />
        <path
           inkscape:connector-curvature="0"
           id="path960"
           style="font-style:normal;font-variant:normal;font-weight:normal;font-stretch:normal;font-size:144px;line-height:1.25;font-family:'Arial Narrow';-inkscape-font-specification:'Arial Narrow';text-align:center;text-anchor:middle;fill:#000000;fill-opacity:1;stroke:none;stroke-width:1px;stroke-linecap:butt;stroke-linejoin:miter;stroke-opacity:1"
           d="m 693.39911,1016.9425 h -14.20313 v -97.66406 q 0,-18.98437 7.24219,-27.5625 7.17188,-8.57812 23.13281,-8.57812 h 5.41407 v 11.95312 h -4.42969 q -9.42188,0 -13.28906,5.27344 -3.86719,5.27344 -3.86719,18.91406 z" />
        <path
           inkscape:connector-curvature="0"
           id="path957"
           style="font-style:normal;font-variant:normal;font-weight:normal;font-stretch:normal;font-size:144px;line-height:1.25;font-family:'Arial Narrow';-inkscape-font-specification:'Arial Narrow';text-align:center;text-anchor:middle;fill:#000000;fill-opacity:1;stroke:none;stroke-width:1px;stroke-linecap:butt;stroke-linejoin:miter;stroke-opacity:1"
           d="m 689.32098,876.87219 q -15.04687,0 -22.14843,-15.96094 -0.91407,-3.65625 -1.125,-7.59375 0,-8.22656 8.4375,-19.47656 l 4.21875,-4.21875 h -0.21094 q -5.20313,1.96875 -11.10938,1.96875 h -1.33593 q -16.73438,0 -23.48438,-14.20312 -1.61719,-4.64063 -1.61719,-8.85938 0,-14.41406 14.69532,-21.72656 2.8125,-0.84375 7.80468,-1.26563 17.01563,0 24.11719,19.26563 h 0.21094 v -0.63281 q 0,-24.11719 -5.76563,-31.78125 v -0.42188 h 14.625 l 0.42188,0.42188 q -5.97656,9 -5.97656,32.41406 v 0.21094 h 0.21093 q 7.03125,-19.47657 24.25782,-19.47657 13.42968,0 20.60156,14.13282 1.75781,4.78125 1.75781,8.85937 0,16.38281 -17.29687,22.21875 -4.64063,0.84375 -8.22657,0.84375 h -0.63281 q -6.04687,0 -11.53125,-1.96875 h -0.21094 v 0.21094 q 5.90625,4.99219 7.94532,9.84375 4.21875,7.73437 4.21875,13.42969 v 0.98437 q 0,14.13281 -15.11719,21.44531 -4.99219,1.33594 -7.73438,1.33594 z" />
      </g>
      <path
         style="opacity:0.77520004;fill:none;fill-opacity:1;stroke:#000000;stroke-width:8.5;stroke-linecap:square;stroke-linejoin:miter;stroke-miterlimit:4;stroke-dasharray:none;stroke-opacity:1"
         d="M 119.18367,104.07644 H 627.75511 V 966.93356 H 119.18367 Z"
         id="rect3077" />
    </g>
    <path
       sodipodi:nodetypes="ccscccc"
       id="path3918"
       d="M 309.89796,316.21927 L 438.82653,304.07641 C 448.85157,306.15365 439.57428,321.15705 448.22049,324.68528 C 538.64583,361.58486 576.77443,459.37246 620.39287,510.09943 L 122.46938,510.21927 C 146.21086,403.46884 219.14627,408.24124 309.89796,344.7907 L 309.89796,316.21927 z"
       style="fill:#000000;fill-opacity:1;fill-rule:nonzero;stroke:#000000;stroke-width:1;stroke-linecap:butt;stroke-linejoin:miter;marker:none;marker-start:none;marker-mid:none;marker-end:none;stroke-miterlimit:4;stroke-dasharray:none;stroke-dashoffset:0;stroke-opacity:1;visibility:visible;display:inline;overflow:visible;enable-background:accumulate" />
    <path
       inkscape:connector-curvature="0"
       id="path953"
       style="font-style:normal;font-weight:normal;font-size:250px;line-height:1.25;font-family:Arial;text-align:center;text-anchor:middle;fill:#000000;fill-opacity:1;stroke:none;stroke-width:1px;stroke-linecap:butt;stroke-linejoin:miter;stroke-opacity:1"
       d="M 261.02429,264.92499 H 157.50867 l 0.97656,-4.15039 q 20.1416,-4.27246 26.7334,-8.42285 9.88769,-6.22559 16.11328,-18.43262 6.34766,-12.20703 6.34766,-25.75684 0,-1.95312 -0.12207,-5.61523 -7.44629,15.13672 -18.18848,22.09472 -10.62012,6.95801 -21.72852,6.95801 -14.16015,0 -24.04785,-9.88769 -9.88769,-9.8877 -9.88769,-24.292 0,-14.16015 9.0332,-23.80371 9.0332,-9.76562 20.50781,-9.76562 7.32422,0 19.89746,6.22558 -5.12695,-8.54492 -6.71386,-12.81738 -1.46485,-4.39453 -1.46485,-9.39941 0,-13.91602 9.64356,-23.55957 9.64355,-9.64356 24.04785,-9.64356 14.40429,0 24.16992,9.64356 9.8877,9.64355 9.8877,22.94922 0,10.86425 -8.42286,22.82714 10.25391,-4.88281 12.32911,-5.49316 3.29589,-0.97656 7.44628,-0.97656 12.20704,0 21.11817,9.64355 9.0332,9.52149 9.0332,23.68164 0,14.64844 -9.88769,24.65821 -9.76563,9.88769 -23.55957,9.88769 -7.69043,0 -15.86914,-3.66211 -8.05665,-3.78418 -14.03809,-10.00976 -4.27246,-4.5166 -10.62012,-15.25879 0.48828,19.40918 5.85938,30.76172 5.49316,11.23047 16.72363,18.67675 7.56836,5.00489 27.22168,8.78907 z" />
    <path
       inkscape:connector-curvature="0"
       d="M 587.02429,774.65641 H 483.50867 l 0.97656,4.15039 q 20.1416,4.27246 26.7334,8.42285 9.88769,6.22559 16.11328,18.43262 6.34766,12.20703 6.34766,25.75684 0,1.95312 -0.12207,5.61523 -7.44629,-15.13672 -18.18848,-22.09472 -10.62012,-6.95801 -21.72852,-6.95801 -14.16015,0 -24.04785,9.88769 -9.88769,9.8877 -9.88769,24.292 0,14.16015 9.0332,23.80371 9.0332,9.76562 20.50781,9.76562 7.32422,0 19.89746,-6.22558 -5.12695,8.54492 -6.71386,12.81738 -1.46485,4.39453 -1.46485,9.39941 0,13.91602 9.64356,23.55957 9.64355,9.64356 24.04785,9.64356 14.40429,0 24.16992,-9.64356 9.8877,-9.64355 9.8877,-22.94922 0,-10.86425 -8.42286,-22.82714 10.25391,4.88281 12.32911,5.49316 3.29589,0.97656 7.44628,0.97656 12.20704,0 21.11817,-9.64355 9.0332,-9.52149 9.0332,-23.68164 0,-14.64844 -9.88769,-24.65821 -9.76563,-9.88769 -23.55957,-9.88769 -7.69043,0 -15.86914,3.66211 -8.05665,3.78418 -14.03809,10.00976 -4.27246,4.5166 -10.62012,15.25879 0.48828,-19.40918 5.85938,-30.76172 5.49316,-11.23047 16.72363,-18.67675 7.56836,-5.00489 27.22168,-8.78907 z"
       style="font-style:normal;font-weight:normal;font-size:250px;line-height:1.25;font-family:Arial;text-align:center;text-anchor:middle;fill:#000000;fill-opacity:1;stroke:none;stroke-width:1px;stroke-linecap:butt;stroke-linejoin:miter;stroke-opacity:1"
       id="path969" />
    <path
       inkscape:connector-curvature="0"
       style="display:inline;overflow:visible;visibility:visible;opacity:1;fill:#ddbdd0;fill-opacity:1;fill-rule:nonzero;stroke:#ddbdd0;stroke-width:1;stroke-linecap:butt;stroke-linejoin:miter;stroke-miterlimit:4;stroke-dasharray:none;stroke-dashoffset:0;stroke-opacity:1;marker:none;marker-start:none;marker-mid:none;marker-end:none;enable-background:accumulate"
       d="m 325.40167,223.00622 c -3.00753,9.27436 -4.65171,18.36153 -3.42248,26.24693 l -6.86077,21.8498 0.0584,2.84285 c -0.0445,0.33365 2.96779,3.57095 6.04854,3.90465 l -1.32381,14.20065 c -1.11164,0.76664 1.78559,1.03724 1.78559,2.29993 0,1.42087 -2.38602,2.03466 -2.38602,2.03466 1.77593,6.62785 -7.2331,13.38247 -0.78843,19.82714 4.1688,4.16879 41.29596,-0.065 41.29596,-0.065 47.99288,0 48.57143,-35 48.57143,-35 0,-40.40926 -2.5823,-66.014 -2.5823,-66.014 -2.48201,-0.0144 -18.08525,-2.82071 -34.9718,-1.10924 -18.54827,1.87988 -29.64383,4.19936 -45.42433,8.98162 z"
       id="path3867"
       sodipodi:nodetypes="ccccccccccccsc" />
    <path
       inkscape:connector-curvature="0"
       style="display:inline;overflow:visible;visibility:visible;opacity:1;fill:#ff0000;fill-opacity:1;fill-rule:nonzero;stroke:#ff0000;stroke-width:1;stroke-linecap:butt;stroke-linejoin:miter;stroke-miterlimit:4;stroke-dasharray:none;stroke-dashoffset:0;stroke-opacity:1;marker:none;marker-start:none;marker-mid:none;marker-end:none;enable-background:accumulate"
       d="m 293.68918,131.62964 23.79523,68.68627 c 104.19463,-13.73239 94.25455,-3.9311 127.79523,0 l 19.79522,-68.68627 c -43.06005,-15.41361 -99.13676,-19.54925 -171.38568,0 z"
       id="path3854"
       sodipodi:nodetypes="ccccc" />
    <path
       inkscape:connector-curvature="0"
       style="display:inline;overflow:visible;visibility:visible;opacity:1;fill:#c6c801;fill-opacity:1;fill-rule:nonzero;stroke:#000000;stroke-width:1;stroke-linecap:butt;stroke-linejoin:miter;stroke-miterlimit:4;stroke-dasharray:none;stroke-dashoffset:0;stroke-opacity:1;marker:none;marker-start:none;marker-mid:none;marker-end:none;enable-background:accumulate"
       d="m 377.98283,209.45395 9.02082,120.45622 63.6011,-9.30155 -9.29989,-97.98469 z"
       id="path3871"
       sodipodi:nodetypes="ccccc" />
    <path
       inkscape:connector-curvature="0"
       id="path3858"
       style="display:inline;overflow:visible;visibility:visible;opacity:1;fill:#000000;fill-opacity:1;fill-rule:nonzero;stroke:#000000;stroke-width:1;stroke-linecap:butt;stroke-linejoin:miter;stroke-miterlimit:4;stroke-dasharray:none;stroke-dashoffset:0;stroke-opacity:1;marker:none;marker-start:none;marker-mid:none;marker-end:none;enable-background:accumulate"
       d="m 441.27964,222.31591 4,-22 c -33.54068,-3.9311 -23.6006,-13.73239 -127.79523,0 l 8,22 c 65.30376,-10.19686 69.62764,-11.00217 115.79523,0 z"
       sodipodi:nodetypes="ccccc" />
    <path
       inkscape:connector-curvature="0"
       style="display:inline;overflow:visible;visibility:visible;opacity:1;fill:none;fill-opacity:0.70348834;fill-rule:nonzero;stroke:#000000;stroke-width:4;stroke-linecap:round;stroke-linejoin:round;stroke-miterlimit:4;stroke-dasharray:none;stroke-dashoffset:0;stroke-opacity:1;marker:none;marker-start:none;marker-mid:none;marker-end:none;enable-background:accumulate"
       d="m 328.77304,237.5561 c 8.08859,-1.16138 14.27507,0.3491 21.48614,6.17974"
       id="path3875"
       sodipodi:nodetypes="cc" />
    <path
       inkscape:connector-curvature="0"
       style="display:inline;overflow:visible;visibility:visible;opacity:1;fill:none;fill-opacity:0.70348834;fill-rule:nonzero;stroke:#000000;stroke-width:1;stroke-linecap:butt;stroke-linejoin:miter;stroke-miterlimit:4;stroke-dasharray:none;stroke-dashoffset:0;stroke-opacity:1;marker:none;marker-start:none;marker-mid:none;marker-end:none;enable-background:accumulate"
       d="m 384.45153,213.5407 10.08929,115.35714"
       id="path3902" />
    <use
       x="0"
       y="0"
       xlink:href="#path3902"
       id="use3904"
       width="747.34698"
       height="1046.2856"
       transform="translate(8.0000047,-1.0714284)" />
    <use
       x="0"
       y="0"
       xlink:href="#use3904"
       id="use3906"
       width="747.34698"
       height="1046.2856"
       transform="translate(8.0000047,-1.0714284)" />
    <use
       x="0"
       y="0"
       xlink:href="#use3906"
       id="use3908"
       transform="translate(8.0000047,-1.6428572)"
       width="747.34698"
       height="1046.2856" />
    <use
       x="0"
       y="0"
       xlink:href="#use3908"
       id="use3910"
       width="747.34698"
       height="1046.2856"
       transform="translate(8.0000047,-0.7142856)" />
    <use
       x="0"
       y="0"
       xlink:href="#use3910"
       id="use3912"
       transform="translate(8.0000047,-1.0714284)"
       width="747.34698"
       height="1046.2856" />
    <use
       x="0"
       y="0"
       xlink:href="#use3912"
       id="use3914"
       width="747.34698"
       height="1046.2856"
       transform="translate(8.0000047,-2)" />
    <path
       inkscape:connector-curvature="0"
       style="display:inline;overflow:visible;visibility:visible;opacity:1;fill:#ffffff;fill-opacity:1;fill-rule:nonzero;stroke:#000000;stroke-width:0.5;stroke-linecap:butt;stroke-linejoin:miter;stroke-miterlimit:4;stroke-dasharray:none;stroke-dashoffset:0;stroke-opacity:1;marker:none;marker-start:none;marker-mid:none;marker-end:none;enable-background:accumulate"
       d="m 334.32544,243.64262 c 4.21184,0.8881 4.63962,1.05126 8.1246,5.12634 -3.66828,1.53734 -5.01132,1.66092 -8.87234,1.3605 -7.82105,-1.30025 -5.56827,-7.36846 0.74774,-6.48684 z"
       id="path3877"
       sodipodi:nodetypes="cccc" />
    <path
       style="opacity:1;fill:#6c5353;fill-opacity:1;stroke:#000000;stroke-width:0.50000006;stroke-linecap:round;stroke-linejoin:round;stroke-miterlimit:4;stroke-dasharray:none;stroke-opacity:1"
       d="m 336.62386,246.76646 a 3.1192534,2.9081445 0 0 1 -3.11925,2.90815 3.1192534,2.9081445 0 0 1 -3.11926,-2.90815 3.1192534,2.9081445 0 0 1 3.11926,-2.90814 3.1192534,2.9081445 0 0 1 3.11925,2.90814 z"
       id="path3885" />
    <path
       style="opacity:1;fill:#000000;fill-opacity:1;stroke:#000000;stroke-width:0.5;stroke-linecap:round;stroke-linejoin:round;stroke-miterlimit:4;stroke-dasharray:none;stroke-opacity:1"
       d="m 334.07277,246.89273 a 0.75761443,0.69447988 0 0 1 -0.75761,0.69448 0.75761443,0.69447988 0 0 1 -0.75762,-0.69448 0.75761443,0.69447988 0 0 1 0.75762,-0.69448 0.75761443,0.69447988 0 0 1 0.75761,0.69448 z"
       id="path3887" />
    <path
       inkscape:connector-curvature="0"
       style="fill:none;fill-rule:evenodd;stroke:#000000;stroke-width:1.60000002;stroke-linecap:round;stroke-linejoin:miter;stroke-miterlimit:4;stroke-dasharray:none;stroke-opacity:1"
       d="m 334.72747,289.43472 c 0.1147,-0.11061 0.4181,0.74832 0.47972,0.85755 0.17537,0.31091 -0.35936,0.64875 -0.64768,0.76227 -0.61218,0.24103 -1.52779,-0.70067 -1.69871,-1.27155 -0.30784,-1.02814 0.52031,-2.0002 1.48758,-2.23186 1.56724,-0.37536 2.9966,0.88438 3.29095,2.3704 0.44305,2.23679 -1.35535,4.24781 -3.4927,4.58819 -1.11048,0.17685 -3.76655,-0.68053 -7.27265,-1.52981 -3.4485,-0.83532 -5.63456,-1.68595 -6.7735,-2.25796"
       id="path3895"
       sodipodi:nodetypes="csssssssc" />
    <use
       x="0"
       y="0"
       xlink:href="#path3918"
       id="use3954"
       transform="matrix(-1,0,0,-1,743.36733,1018.4066)"
       width="747.34698"
       height="1046.2856" />
    <path
       inkscape:connector-curvature="0"
       sodipodi:nodetypes="ccccccccccccsc"
       id="path861"
       d="m 417.96567,795.40039 c 3.00753,-9.27436 4.65171,-18.36153 3.42248,-26.24693 l 6.86077,-21.8498 -0.0584,-2.84285 c 0.0445,-0.33365 -2.96779,-3.57095 -6.04854,-3.90465 l 1.32381,-14.20065 c 1.11164,-0.76664 -1.78559,-1.03724 -1.78559,-2.29993 0,-1.42087 2.38602,-2.03466 2.38602,-2.03466 -1.77593,-6.62785 7.2331,-13.38247 0.78843,-19.82714 -4.1688,-4.16879 -41.29596,0.065 -41.29596,0.065 -47.99288,0 -48.57143,35 -48.57143,35 0,40.40926 2.5823,66.014 2.5823,66.014 2.48201,0.0144 18.08525,2.82071 34.9718,1.10924 18.54827,-1.87988 29.64383,-4.19936 45.42433,-8.98162 z"
       style="display:inline;overflow:visible;visibility:visible;opacity:1;fill:#ddbdd0;fill-opacity:1;fill-rule:nonzero;stroke:#ddbdd0;stroke-width:1;stroke-linecap:butt;stroke-linejoin:miter;stroke-miterlimit:4;stroke-dasharray:none;stroke-dashoffset:0;stroke-opacity:1;marker:none;marker-start:none;marker-mid:none;marker-end:none;enable-background:accumulate" />
    <path
       inkscape:connector-curvature="0"
       sodipodi:nodetypes="ccccc"
       id="path863"
       d="M 449.67816,886.77697 425.88293,818.0907 c -104.19463,13.73239 -94.25455,3.9311 -127.79523,0 l -19.79522,68.68627 c 43.06005,15.41361 99.13676,19.54925 171.38568,0 z"
       style="display:inline;overflow:visible;visibility:visible;opacity:1;fill:#ff0000;fill-opacity:1;fill-rule:nonzero;stroke:#ff0000;stroke-width:1;stroke-linecap:butt;stroke-linejoin:miter;stroke-miterlimit:4;stroke-dasharray:none;stroke-dashoffset:0;stroke-opacity:1;marker:none;marker-start:none;marker-mid:none;marker-end:none;enable-background:accumulate" />
    <path
       inkscape:connector-curvature="0"
       sodipodi:nodetypes="ccccc"
       id="path865"
       d="m 365.38451,808.95266 -9.02082,-120.45622 -63.6011,9.30155 9.29989,97.98469 z"
       style="display:inline;overflow:visible;visibility:visible;opacity:1;fill:#c6c801;fill-opacity:1;fill-rule:nonzero;stroke:#000000;stroke-width:1;stroke-linecap:butt;stroke-linejoin:miter;stroke-miterlimit:4;stroke-dasharray:none;stroke-dashoffset:0;stroke-opacity:1;marker:none;marker-start:none;marker-mid:none;marker-end:none;enable-background:accumulate" />
    <path
       inkscape:connector-curvature="0"
       sodipodi:nodetypes="ccccc"
       d="m 302.0877,796.09069 -4,22 c 33.54068,3.9311 23.6006,13.73239 127.79523,0 l -8,-22 c -65.30376,10.19686 -69.62764,11.00217 -115.79523,0 z"
       style="display:inline;overflow:visible;visibility:visible;opacity:1;fill:#000000;fill-opacity:1;fill-rule:nonzero;stroke:#000000;stroke-width:1;stroke-linecap:butt;stroke-linejoin:miter;stroke-miterlimit:4;stroke-dasharray:none;stroke-dashoffset:0;stroke-opacity:1;marker:none;marker-start:none;marker-mid:none;marker-end:none;enable-background:accumulate"
       id="path867" />
    <path
       inkscape:connector-curvature="0"
       sodipodi:nodetypes="cc"
       id="path869"
       d="m 414.5943,780.8505 c -8.08859,1.16138 -14.27507,-0.3491 -21.48614,-6.17974"
       style="display:inline;overflow:visible;visibility:visible;opacity:1;fill:none;fill-opacity:0.70348834;fill-rule:nonzero;stroke:#000000;stroke-width:4;stroke-linecap:round;stroke-linejoin:round;stroke-miterlimit:4;stroke-dasharray:none;stroke-dashoffset:0;stroke-opacity:1;marker:none;marker-start:none;marker-mid:none;marker-end:none;enable-background:accumulate" />
    <path
       inkscape:connector-curvature="0"
       id="path871"
       d="M 358.91581,804.86591 348.82652,689.50877"
       style="display:inline;overflow:visible;visibility:visible;opacity:1;fill:none;fill-opacity:0.70348834;fill-rule:nonzero;stroke:#000000;stroke-width:1;stroke-linecap:butt;stroke-linejoin:miter;stroke-miterlimit:4;stroke-dasharray:none;stroke-dashoffset:0;stroke-opacity:1;marker:none;marker-start:none;marker-mid:none;marker-end:none;enable-background:accumulate" />
    <use
       transform="rotate(180,367.68367,509.73901)"
       height="1046.2856"
       width="747.34698"
       id="use873"
       xlink:href="#path3902"
       y="0"
       x="0" />
    <use
       transform="rotate(180,367.68367,509.73901)"
       height="1046.2856"
       width="747.34698"
       id="use875"
       xlink:href="#use3904"
       y="0"
       x="0" />
    <use
       height="1046.2856"
       width="747.34698"
       transform="rotate(180,367.68367,510.02473)"
       id="use877"
       xlink:href="#use3906"
       y="0"
       x="0" />
    <use
       transform="rotate(180,367.68367,509.56044)"
       height="1046.2856"
       width="747.34698"
       id="use879"
       xlink:href="#use3908"
       y="0"
       x="0" />
    <use
       height="1046.2856"
       width="747.34698"
       transform="rotate(180,367.68367,509.73901)"
       id="use881"
       xlink:href="#use3910"
       y="0"
       x="0" />
    <use
       transform="rotate(180,367.68367,510.2033)"
       height="1046.2856"
       width="747.34698"
       id="use883"
       xlink:href="#use3912"
       y="0"
       x="0" />
    <path
       inkscape:connector-curvature="0"
       sodipodi:nodetypes="cccc"
       id="path885"
       d="m 409.0419,774.76398 c -4.21184,-0.8881 -4.63962,-1.05126 -8.1246,-5.12634 3.66828,-1.53734 5.01132,-1.66092 8.87234,-1.3605 7.82105,1.30025 5.56827,7.36846 -0.74774,6.48684 z"
       style="display:inline;overflow:visible;visibility:visible;opacity:1;fill:#ffffff;fill-opacity:1;fill-rule:nonzero;stroke:#000000;stroke-width:0.5;stroke-linecap:butt;stroke-linejoin:miter;stroke-miterlimit:4;stroke-dasharray:none;stroke-dashoffset:0;stroke-opacity:1;marker:none;marker-start:none;marker-mid:none;marker-end:none;enable-background:accumulate" />
    <path
       transform="scale(-1)"
       style="opacity:1;fill:#6c5353;fill-opacity:1;stroke:#000000;stroke-width:0.50000006;stroke-linecap:round;stroke-linejoin:round;stroke-miterlimit:4;stroke-dasharray:none;stroke-opacity:1"
       d="m -406.74345,-771.64014 a 3.1192534,2.9081445 0 0 1 -3.11925,2.90815 3.1192534,2.9081445 0 0 1 -3.11925,-2.90815 3.1192534,2.9081445 0 0 1 3.11925,-2.90814 3.1192534,2.9081445 0 0 1 3.11925,2.90814 z"
       id="path887" />
    <path
       transform="scale(-1)"
       style="opacity:1;fill:#000000;fill-opacity:1;stroke:#000000;stroke-width:0.5;stroke-linecap:round;stroke-linejoin:round;stroke-miterlimit:4;stroke-dasharray:none;stroke-opacity:1"
       d="m -409.29457,-771.51385 a 0.75761443,0.69447988 0 0 1 -0.75762,0.69447 0.75761443,0.69447988 0 0 1 -0.75761,-0.69447 0.75761443,0.69447988 0 0 1 0.75761,-0.69448 0.75761443,0.69447988 0 0 1 0.75762,0.69448 z"
       id="path889" />
    <path
       inkscape:connector-curvature="0"
       sodipodi:nodetypes="csssssssc"
       id="path891"
       d="m 408.63987,728.97189 c -0.1147,0.11061 -0.4181,-0.74832 -0.47972,-0.85755 -0.17537,-0.31091 0.35936,-0.64875 0.64768,-0.76227 0.61218,-0.24103 1.52779,0.70067 1.69871,1.27155 0.30784,1.02814 -0.52031,2.0002 -1.48758,2.23186 -1.56724,0.37536 -2.9966,-0.88438 -3.29095,-2.3704 -0.44305,-2.23679 1.35535,-4.24781 3.4927,-4.58819 1.11048,-0.17685 3.76655,0.68053 7.27265,1.52981 3.4485,0.83532 5.63456,1.68595 6.7735,2.25796"
       style="fill:none;fill-rule:evenodd;stroke:#000000;stroke-width:1.60000002;stroke-linecap:round;stroke-linejoin:miter;stroke-miterlimit:4;stroke-dasharray:none;stroke-opacity:1" />
    <path
       inkscape:connector-curvature="0"
       style="display:inline;overflow:visible;visibility:visible;opacity:1;fill:#c4c4c4;fill-opacity:1;fill-rule:nonzero;stroke:#000000;stroke-width:1;stroke-linecap:butt;stroke-linejoin:miter;stroke-miterlimit:4;stroke-dasharray:none;stroke-dashoffset:0;stroke-opacity:1;marker:none;marker-start:none;marker-mid:none;marker-end:none;enable-background:accumulate"
       d="m 594.39796,203.00498 -77.32085,-26.07704 v 135.7199 l 77.73554,-26.18816"
       id="path3980"
       sodipodi:nodetypes="cccc" />
    <path
       inkscape:connector-curvature="0"
       style="display:inline;overflow:visible;visibility:visible;opacity:1;fill:#808000;fill-opacity:1;fill-rule:nonzero;stroke:#000000;stroke-width:1;stroke-linecap:butt;stroke-linejoin:miter;stroke-miterlimit:4;stroke-dasharray:none;stroke-dashoffset:0;stroke-opacity:1;marker:none;marker-start:none;marker-mid:none;marker-end:none;enable-background:accumulate"
       d="m 593.24001,481.20752 c -2.0203,-6.06092 0,-279.81226 0,-279.81226 l 16.16245,-23.2335 h 12.12183 v 334.36049 z"
       id="path3978" />
    <path
       inkscape:connector-curvature="0"
       sodipodi:nodetypes="cccc"
       id="path3988"
       d="m 621.32653,178.36212 -14.64286,26.42858 v 292.32142 l 14.64286,14.82143"
       style="display:inline;overflow:visible;visibility:visible;opacity:1;fill:#000000;fill-opacity:1;fill-rule:nonzero;stroke:#000000;stroke-width:1;stroke-linecap:butt;stroke-linejoin:miter;stroke-miterlimit:4;stroke-dasharray:none;stroke-dashoffset:0;stroke-opacity:1;marker:none;marker-start:none;marker-mid:none;marker-end:none;enable-background:accumulate" />
    <path
       inkscape:connector-curvature="0"
       sodipodi:nodetypes="cccc"
       id="path895"
       d="m 148.20344,816.44523 77.32085,26.07704 v -135.7199 l -77.73554,26.18816"
       style="display:inline;overflow:visible;visibility:visible;opacity:1;fill:#c4c4c4;fill-opacity:1;fill-rule:nonzero;stroke:#000000;stroke-width:1;stroke-linecap:butt;stroke-linejoin:miter;stroke-miterlimit:4;stroke-dasharray:none;stroke-dashoffset:0;stroke-opacity:1;marker:none;marker-start:none;marker-mid:none;marker-end:none;enable-background:accumulate" />
    <path
       inkscape:connector-curvature="0"
       id="path897"
       d="m 149.36139,538.24268 c 2.0203,6.06092 0,279.81226 0,279.81226 l -16.16245,23.2335 h -12.12183 l 0,-334.36049 z"
       style="display:inline;overflow:visible;visibility:visible;opacity:1;fill:#808000;fill-opacity:1;fill-rule:nonzero;stroke:#000000;stroke-width:1;stroke-linecap:butt;stroke-linejoin:miter;stroke-miterlimit:4;stroke-dasharray:none;stroke-dashoffset:0;stroke-opacity:1;marker:none;marker-start:none;marker-mid:none;marker-end:none;enable-background:accumulate" />
    <path
       inkscape:connector-curvature="0"
       style="display:inline;overflow:visible;visibility:visible;opacity:1;fill:#000000;fill-opacity:1;fill-rule:nonzero;stroke:#000000;stroke-width:1;stroke-linecap:butt;stroke-linejoin:miter;stroke-miterlimit:4;stroke-dasharray:none;stroke-dashoffset:0;stroke-opacity:1;marker:none;marker-start:none;marker-mid:none;marker-end:none;enable-background:accumulate"
       d="m 121.27487,841.08809 14.64286,-26.42858 0,-292.32142 -14.64286,-14.82143"
       id="path899"
       sodipodi:nodetypes="cccc" />
  </g>
</svg>
