<?xml version="1.0" encoding="UTF-8" standalone="no"?>
<!-- Created with Inkscape (http://www.inkscape.org/) -->

<svg
   xmlns:dc="http://purl.org/dc/elements/1.1/"
   xmlns:cc="http://creativecommons.org/ns#"
   xmlns:rdf="http://www.w3.org/1999/02/22-rdf-syntax-ns#"
   xmlns:svg="http://www.w3.org/2000/svg"
   xmlns="http://www.w3.org/2000/svg"
   xmlns:sodipodi="http://sodipodi.sourceforge.net/DTD/sodipodi-0.dtd"
   xmlns:inkscape="http://www.inkscape.org/namespaces/inkscape"
   width="747.34698"
   height="1046.2856"
   id="svg2"
   sodipodi:version="0.32"
   inkscape:version="0.92.4 (5da689c313, 2019-01-14)"
   version="1.0"
   sodipodi:docname="Cards-3-Heart.svg"
   inkscape:output_extension="org.inkscape.output.svg.inkscape">
  <defs
     id="defs4">
    <inkscape:perspective
       sodipodi:type="inkscape:persp3d"
       inkscape:vp_x="0 : 526.18109 : 1"
       inkscape:vp_y="0 : 1000 : 0"
       inkscape:vp_z="744.09448 : 526.18109 : 1"
       inkscape:persp3d-origin="372.04724 : 350.78739 : 1"
       id="perspective10" />
    <inkscape:perspective
       id="perspective2390"
       inkscape:persp3d-origin="372.04724 : 350.78739 : 1"
       inkscape:vp_z="744.09448 : 526.18109 : 1"
       inkscape:vp_y="0 : 1000 : 0"
       inkscape:vp_x="0 : 526.18109 : 1"
       sodipodi:type="inkscape:persp3d" />
  </defs>
  <sodipodi:namedview
     id="base"
     pagecolor="#ffffff"
     bordercolor="#666666"
     borderopacity="1.0"
     gridtolerance="10000"
     guidetolerance="10"
     objecttolerance="10"
     inkscape:pageopacity="0.0"
     inkscape:pageshadow="2"
     inkscape:zoom="0.35"
     inkscape:cx="-1220.8638"
     inkscape:cy="300.22072"
     inkscape:document-units="px"
     inkscape:current-layer="g2775"
     showgrid="false"
     showguides="true"
     inkscape:guide-bbox="true"
     inkscape:window-width="3840"
     inkscape:window-height="2066"
     inkscape:window-x="-11"
     inkscape:window-y="-11"
     inkscape:window-maximized="1" />
  <metadata
     id="metadata7">
    <rdf:RDF>
      <cc:Work
         rdf:about="">
        <dc:format>image/svg+xml</dc:format>
        <dc:type
           rdf:resource="http://purl.org/dc/dcmitype/StillImage" />
      </cc:Work>
    </rdf:RDF>
  </metadata>
  <g
     inkscape:label="Layer 1"
     inkscape:groupmode="layer"
     id="layer1"
     transform="translate(2.2448993,-0.6479052)">
    <g
       id="g2775"
       transform="translate(-2.0407968,-11.714273)">
      <path
         inkscape:connector-curvature="0"
         id="path861"
         style="font-style:normal;font-variant:normal;font-weight:normal;font-stretch:normal;font-size:144px;line-height:1.25;font-family:'Arial Narrow';-inkscape-font-specification:'Arial Narrow';text-align:center;text-anchor:middle;fill:#ff0000;fill-opacity:1;stroke:none;stroke-width:1px;stroke-linecap:butt;stroke-linejoin:miter;stroke-opacity:1"
         d="m 74.160797,102.44249 q 10.195313,2.17969 15.890625,9.07031 5.765625,6.89063 5.765625,17.01563 0,15.53906 -10.6875,24.04687 -10.6875,8.50781 -30.375,8.50781 -6.609375,0 -13.640625,-1.33593 -6.960937,-1.26563 -14.414062,-3.86719 v -13.71094 q 5.90625,3.44531 12.9375,5.20313 7.03125,1.75781 14.695312,1.75781 13.359375,0 20.320313,-5.27344 7.03125,-5.27344 7.03125,-15.32812 0,-9.28125 -6.539063,-14.48438 -6.46875,-5.27344 -18.070312,-5.27344 H 44.840485 V 97.09874 H 57.63736 q 10.476562,0 16.03125,-4.148438 5.554687,-4.21875 5.554687,-12.09375 0,-8.085937 -5.765625,-12.375 -5.695312,-4.359375 -16.382812,-4.359375 -5.835938,0 -12.515625,1.265625 -6.679688,1.265625 -14.695313,3.9375 v -12.65625 q 8.085938,-2.25 15.117188,-3.375 7.101562,-1.125 13.359375,-1.125 16.171875,0 25.59375,7.382813 9.421875,7.3125 9.421875,19.828125 0,8.71875 -4.992188,14.765625 -4.992187,5.976565 -14.203125,8.296875 z" />
      <path
         inkscape:connector-curvature="0"
         id="path864"
         style="font-style:normal;font-variant:normal;font-weight:normal;font-stretch:normal;font-size:144px;line-height:1.25;font-family:'Arial Narrow';-inkscape-font-specification:'Arial Narrow';text-align:center;text-anchor:middle;fill:#ff0000;fill-opacity:1;stroke:none;stroke-width:1px;stroke-linecap:butt;stroke-linejoin:miter;stroke-opacity:1"
         d="m 39.813141,194.13779 q 14.273437,0 22.429687,16.52343 2.953125,6.53907 3.09375,9.98438 h 0.210938 q 2.460937,-11.39063 8.929687,-18.91406 7.59375,-7.59375 17.085938,-7.59375 14.695309,0 23.554689,15.75 2.25,5.83593 2.25,10.96875 0,17.57812 -14.625,33.53906 L 65.547516,299.04404 H 65.125641 L 25.610016,250.59872 q -11.8125,-14.41406 -11.8125,-29.74218 0,-14.83594 13.992187,-23.55469 5.90625,-3.16406 12.023438,-3.16406 z" />
      <path
         inkscape:connector-curvature="0"
         id="path858"
         style="font-style:normal;font-variant:normal;font-weight:normal;font-stretch:normal;font-size:144px;line-height:1.25;font-family:'Arial Narrow';-inkscape-font-specification:'Arial Narrow';text-align:center;text-anchor:middle;fill:#ff0000;fill-opacity:1;stroke:none;stroke-width:1px;stroke-linecap:butt;stroke-linejoin:miter;stroke-opacity:1"
         d="m 672.77802,968.5675 q -10.19532,-2.17968 -15.89063,-9.07031 -5.76562,-6.89062 -5.76562,-17.01562 0,-15.53907 10.6875,-24.04688 10.6875,-8.50781 30.375,-8.50781 6.60937,0 13.64062,1.33594 6.96094,1.26562 14.41406,3.86718 v 13.71094 q -5.90625,-3.44531 -12.9375,-5.20312 -7.03125,-1.75782 -14.69531,-1.75782 -13.35937,0 -20.32031,5.27344 -7.03125,5.27344 -7.03125,15.32813 0,9.28125 6.53906,14.48437 6.46875,5.27344 18.07031,5.27344 h 12.23438 v 11.67187 h -12.79688 q -10.47656,0 -16.03125,4.14844 -5.55468,4.21875 -5.55468,12.09375 0,8.08594 5.76562,12.37496 5.69531,4.3594 16.38281,4.3594 5.83594,0 12.51563,-1.2656 6.67969,-1.2656 14.69531,-3.9375 v 12.6562 q -8.08594,2.25 -15.11719,3.375 -7.10156,1.125 -13.35937,1.125 -16.17188,0 -25.59375,-7.3828 -9.42188,-7.3125 -9.42188,-19.8281 0,-8.71875 4.99219,-14.76562 4.99219,-5.97656 14.20313,-8.29688 z" />
      <path
         inkscape:connector-curvature="0"
         id="path855"
         style="font-style:normal;font-variant:normal;font-weight:normal;font-stretch:normal;font-size:144px;line-height:1.25;font-family:'Arial Narrow';-inkscape-font-specification:'Arial Narrow';text-align:center;text-anchor:middle;fill:#ff0000;fill-opacity:1;stroke:none;stroke-width:1px;stroke-linecap:butt;stroke-linejoin:miter;stroke-opacity:1"
         d="m 707.12567,876.87219 q -14.27344,0 -22.42969,-16.52344 -2.95312,-6.53906 -3.09375,-9.98437 h -0.21093 q -2.46094,11.39062 -8.92969,18.91406 -7.59375,7.59375 -17.08594,7.59375 -14.69531,0 -23.55469,-15.75 -2.25,-5.83594 -2.25,-10.96875 0,-17.57812 14.625,-33.53906 l 37.19532,-44.64844 h 0.42187 l 39.51563,48.44531 q 11.8125,14.41407 11.8125,29.74219 0,14.83594 -13.99219,23.55469 -5.90625,3.16406 -12.02344,3.16406 z" />
      <path
         inkscape:connector-curvature="0"
         id="path867"
         style="font-style:normal;font-weight:normal;font-size:250px;line-height:1.25;font-family:Arial;text-align:center;text-anchor:middle;fill:#ff0000;fill-opacity:1;stroke:none;stroke-width:1px;stroke-linecap:butt;stroke-linejoin:miter;stroke-opacity:1"
         d="m 373.71353,313.56897 q -3.78418,-14.4043 -10.86426,-26.97754 -6.958,-12.69531 -27.09961,-39.30664 -14.7705,-19.53125 -18.18847,-24.78027 -5.61524,-8.54493 -8.17871,-15.625 -2.44141,-7.20215 -2.44141,-14.52637 0,-13.54981 9.0332,-22.70508 9.03321,-9.15527 22.33887,-9.15527 13.42774,0 23.31543,9.52148 7.44629,7.08008 12.08496,21.11817 4.02832,-13.79395 11.35254,-20.9961 10.13184,-9.76562 23.4375,-9.76562 13.18359,0 22.33887,9.15527 9.15527,9.0332 9.15527,21.60645 0,10.98632 -5.37109,22.94922 -5.3711,11.84082 -20.75196,31.12792 -20.01953,25.26856 -29.1748,41.50391 -7.20215,12.81738 -10.98633,26.85547 z" />
      <path
         inkscape:connector-curvature="0"
         d="m 373.71353,757.44103 q -3.78418,14.4043 -10.86426,26.97754 -6.958,12.69531 -27.09961,39.30664 -14.7705,19.53125 -18.18847,24.78027 -5.61524,8.54493 -8.17871,15.625 -2.44141,7.20215 -2.44141,14.52637 0,13.54981 9.0332,22.70508 9.03321,9.15527 22.33887,9.15527 13.42774,0 23.31543,-9.52148 7.44629,-7.08008 12.08496,-21.11817 4.02832,13.79395 11.35254,20.9961 10.13184,9.76562 23.4375,9.76562 13.18359,0 22.33887,-9.15527 9.15527,-9.0332 9.15527,-21.60645 0,-10.98632 -5.37109,-22.94922 -5.3711,-11.84082 -20.75196,-31.12792 -20.01953,-25.26856 -29.1748,-41.50391 -7.20215,-12.81738 -10.98633,-26.85547 z"
         style="font-style:normal;font-weight:normal;font-size:250px;line-height:1.25;font-family:Arial;text-align:center;text-anchor:middle;fill:#ff0000;fill-opacity:1;stroke:none;stroke-width:1px;stroke-linecap:butt;stroke-linejoin:miter;stroke-opacity:1"
         id="path874" />
      <path
         inkscape:connector-curvature="0"
         d="m 373.71353,613.56897 q -3.78418,-14.4043 -10.86426,-26.97754 -6.958,-12.69531 -27.09961,-39.30664 -14.7705,-19.53125 -18.18847,-24.78027 -5.61524,-8.54493 -8.17871,-15.625 -2.44141,-7.20215 -2.44141,-14.52637 0,-13.54981 9.0332,-22.70508 9.03321,-9.15527 22.33887,-9.15527 13.42774,0 23.31543,9.52148 7.44629,7.08008 12.08496,21.11817 4.02832,-13.79395 11.35254,-20.9961 10.13184,-9.76562 23.4375,-9.76562 13.18359,0 22.33887,9.15527 9.15527,9.0332 9.15527,21.60645 0,10.98632 -5.37109,22.94922 -5.3711,11.84082 -20.75196,31.12792 -20.01953,25.26856 -29.1748,41.50391 -7.20215,12.81738 -10.98633,26.85547 z"
         style="font-style:normal;font-weight:normal;font-size:250px;line-height:1.25;font-family:Arial;text-align:center;text-anchor:middle;fill:#ff0000;fill-opacity:1;stroke:none;stroke-width:1px;stroke-linecap:butt;stroke-linejoin:miter;stroke-opacity:1"
         id="path870" />
    </g>
  </g>
</svg>
