<?xml version="1.0" encoding="UTF-8" standalone="no"?>
<!-- Created with Inkscape (http://www.inkscape.org/) -->

<svg
   xmlns:dc="http://purl.org/dc/elements/1.1/"
   xmlns:cc="http://creativecommons.org/ns#"
   xmlns:rdf="http://www.w3.org/1999/02/22-rdf-syntax-ns#"
   xmlns:svg="http://www.w3.org/2000/svg"
   xmlns="http://www.w3.org/2000/svg"
   xmlns:sodipodi="http://sodipodi.sourceforge.net/DTD/sodipodi-0.dtd"
   xmlns:inkscape="http://www.inkscape.org/namespaces/inkscape"
   width="747.34698"
   height="1046.2856"
   id="svg2"
   sodipodi:version="0.32"
   inkscape:version="0.92.4 (5da689c313, 2019-01-14)"
   version="1.0"
   sodipodi:docname="Cards-5-Club.svg"
   inkscape:output_extension="org.inkscape.output.svg.inkscape">
  <defs
     id="defs4">
    <inkscape:perspective
       sodipodi:type="inkscape:persp3d"
       inkscape:vp_x="0 : 526.18109 : 1"
       inkscape:vp_y="0 : 1000 : 0"
       inkscape:vp_z="744.09448 : 526.18109 : 1"
       inkscape:persp3d-origin="372.04724 : 350.78739 : 1"
       id="perspective10" />
    <inkscape:perspective
       id="perspective2390"
       inkscape:persp3d-origin="372.04724 : 350.78739 : 1"
       inkscape:vp_z="744.09448 : 526.18109 : 1"
       inkscape:vp_y="0 : 1000 : 0"
       inkscape:vp_x="0 : 526.18109 : 1"
       sodipodi:type="inkscape:persp3d" />
  </defs>
  <sodipodi:namedview
     id="base"
     pagecolor="#ffffff"
     bordercolor="#666666"
     borderopacity="1.0"
     gridtolerance="10000"
     guidetolerance="10"
     objecttolerance="10"
     inkscape:pageopacity="0.0"
     inkscape:pageshadow="2"
     inkscape:zoom="0.7"
     inkscape:cx="-239.6752"
     inkscape:cy="541.78174"
     inkscape:document-units="px"
     inkscape:current-layer="g2396"
     showgrid="false"
     showguides="true"
     inkscape:guide-bbox="true"
     inkscape:window-width="3840"
     inkscape:window-height="2066"
     inkscape:window-x="-11"
     inkscape:window-y="-11"
     inkscape:window-maximized="1" />
  <metadata
     id="metadata7">
    <rdf:RDF>
      <cc:Work
         rdf:about="">
        <dc:format>image/svg+xml</dc:format>
        <dc:type
           rdf:resource="http://purl.org/dc/dcmitype/StillImage" />
      </cc:Work>
    </rdf:RDF>
  </metadata>
  <g
     inkscape:label="Layer 1"
     inkscape:groupmode="layer"
     id="layer1"
     transform="translate(2.2448993,-0.6479052)">
    <g
       id="g2775"
       transform="translate(-2.0407968,-11.714273)">
      <path
         inkscape:connector-curvature="0"
         id="path890"
         style="font-style:normal;font-variant:normal;font-weight:normal;font-stretch:normal;font-size:144px;line-height:1.25;font-family:'Arial Narrow';-inkscape-font-specification:'Arial Narrow';text-align:center;text-anchor:middle;fill:#000000;fill-opacity:1;stroke:none;stroke-width:1px;stroke-linecap:butt;stroke-linejoin:miter;stroke-opacity:1"
         d="m 35.383453,54.06749 h 55.757813 v 11.953125 h -42.75 V 91.75499 q 3.09375,-1.054688 6.1875,-1.546875 3.09375,-0.5625 6.1875,-0.5625 17.578125,0 27.84375,9.632812 10.265625,9.632813 10.265625,26.085933 0,16.94532 -10.546875,26.36719 -10.546875,9.35156 -29.742188,9.35156 -6.609375,0 -13.5,-1.125 -6.820312,-1.125 -14.132812,-3.375 v -14.27343 q 6.328125,3.44531 13.078125,5.13281 6.75,1.6875 14.273437,1.6875 12.164063,0 19.265625,-6.39844 7.101563,-6.39844 7.101563,-17.36719 0,-10.96875 -7.101563,-17.36718 -7.101562,-6.39844 -19.265625,-6.39844 -5.695312,0 -11.390625,1.26562 -5.625,1.26563 -11.53125,3.9375 z" />
      <path
         inkscape:connector-curvature="0"
         id="path887"
         style="font-style:normal;font-variant:normal;font-weight:normal;font-stretch:normal;font-size:144px;line-height:1.25;font-family:'Arial Narrow';-inkscape-font-specification:'Arial Narrow';text-align:center;text-anchor:middle;fill:#000000;fill-opacity:1;stroke:none;stroke-width:1px;stroke-linecap:butt;stroke-linejoin:miter;stroke-opacity:1"
         d="m 65.617828,194.13779 q 15.046875,0 22.148438,15.96093 0.914062,3.65625 1.125,7.59375 0,8.22657 -8.4375,19.47657 l -4.21875,4.21875 h 0.210937 q 5.203125,-1.96875 11.109375,-1.96875 h 1.335938 q 16.734374,0 23.484374,14.20312 1.61719,4.64063 1.61719,8.85938 0,14.41406 -14.695314,21.72656 -2.8125,0.84375 -7.804688,1.26562 -17.015625,0 -24.117187,-19.26562 h -0.210938 v 0.63281 q 0,24.11719 5.765625,31.78125 v 0.42188 h -14.625 l -0.421875,-0.42188 q 5.976563,-9 5.976563,-32.41406 v -0.21094 h -0.210938 q -7.03125,19.47656 -24.257812,19.47656 -13.429688,0 -20.601563,-14.13281 -1.757812,-4.78125 -1.757812,-8.85937 0,-16.38282 17.296875,-22.21875 4.640625,-0.84375 8.226562,-0.84375 h 0.632813 q 6.046875,0 11.53125,1.96875 h 0.210937 v -0.21094 q -5.90625,-4.99219 -7.945312,-9.84375 -4.21875,-7.73438 -4.21875,-13.42969 v -0.98437 q 0,-14.13282 15.117187,-21.44532 4.992188,-1.33593 7.734375,-1.33593 z" />
      <path
         inkscape:connector-curvature="0"
         id="path884"
         style="font-style:normal;font-variant:normal;font-weight:normal;font-stretch:normal;font-size:144px;line-height:1.25;font-family:'Arial Narrow';-inkscape-font-specification:'Arial Narrow';text-align:center;text-anchor:middle;fill:#000000;fill-opacity:1;stroke:none;stroke-width:1px;stroke-linecap:butt;stroke-linejoin:miter;stroke-opacity:1"
         d="m 711.55536,1016.9425 h -55.75781 v -11.9531 h 42.75 V 979.255 q -3.09375,1.05469 -6.1875,1.54688 -3.09375,0.5625 -6.1875,0.5625 -17.57813,0 -27.84375,-9.63281 -10.26563,-9.63282 -10.26563,-26.08594 0,-16.94531 10.54688,-26.36719 10.54687,-9.35156 29.74218,-9.35156 6.60938,0 13.5,1.125 6.82032,1.125 14.13282,3.375 v 14.27344 q -6.32813,-3.44532 -13.07813,-5.13282 -6.75,-1.6875 -14.27344,-1.6875 -12.16406,0 -19.26562,6.39844 -7.10156,6.39844 -7.10156,17.36719 0,10.96875 7.10156,17.36719 7.10156,6.39843 19.26562,6.39843 5.69532,0 11.39063,-1.26562 5.625,-1.26563 11.53125,-3.9375 z" />
      <path
         inkscape:connector-curvature="0"
         id="path881"
         style="font-style:normal;font-variant:normal;font-weight:normal;font-stretch:normal;font-size:144px;line-height:1.25;font-family:'Arial Narrow';-inkscape-font-specification:'Arial Narrow';text-align:center;text-anchor:middle;fill:#000000;fill-opacity:1;stroke:none;stroke-width:1px;stroke-linecap:butt;stroke-linejoin:miter;stroke-opacity:1"
         d="m 681.32098,876.87219 q -15.04687,0 -22.14843,-15.96094 -0.91407,-3.65625 -1.125,-7.59375 0,-8.22656 8.4375,-19.47656 l 4.21875,-4.21875 h -0.21094 q -5.20313,1.96875 -11.10938,1.96875 h -1.33593 q -16.73438,0 -23.48438,-14.20312 -1.61719,-4.64063 -1.61719,-8.85938 0,-14.41406 14.69532,-21.72656 2.8125,-0.84375 7.80468,-1.26563 17.01563,0 24.11719,19.26563 h 0.21094 v -0.63281 q 0,-24.11719 -5.76563,-31.78125 v -0.42188 h 14.625 l 0.42188,0.42188 q -5.97656,9 -5.97656,32.41406 v 0.21094 h 0.21093 q 7.03125,-19.47657 24.25782,-19.47657 13.42968,0 20.60156,14.13282 1.75781,4.78125 1.75781,8.85937 0,16.38281 -17.29687,22.21875 -4.64063,0.84375 -8.22657,0.84375 h -0.63281 q -6.04687,0 -11.53125,-1.96875 h -0.21094 v 0.21094 q 5.90625,4.99219 7.94532,9.84375 4.21875,7.73437 4.21875,13.42969 v 0.98437 q 0,14.13281 -15.11719,21.44531 -4.99219,1.33594 -7.73438,1.33594 z" />
      <g
         id="g2395"
         transform="translate(-15.563966,0)">
        <g
           id="g2396"
           transform="translate(82.03125,0)">
          <path
             inkscape:connector-curvature="0"
             id="path878"
             style="font-style:normal;font-weight:normal;font-size:250px;line-height:1.25;font-family:Arial;text-align:center;text-anchor:middle;fill:#000000;fill-opacity:1;stroke:none;stroke-width:1px;stroke-linecap:butt;stroke-linejoin:miter;stroke-opacity:1"
             d="M 219.06509,310.63928 H 115.54947 l 0.97656,-4.15039 q 20.1416,-4.27246 26.7334,-8.42285 9.8877,-6.22559 16.11328,-18.43262 6.34766,-12.20703 6.34766,-25.75683 0,-1.95313 -0.12207,-5.61524 -7.44629,15.13672 -18.18848,22.09473 -10.62012,6.95801 -21.72852,6.95801 -14.16015,0 -24.04785,-9.8877 -9.887692,-9.88769 -9.887692,-24.29199 0,-14.16016 9.033202,-23.80371 9.0332,-9.76563 20.50781,-9.76563 7.32422,0 19.89746,6.22559 -5.12695,-8.54492 -6.71386,-12.81738 -1.46485,-4.39453 -1.46485,-9.39942 0,-13.91601 9.64356,-23.55957 9.64355,-9.64355 24.04785,-9.64355 14.4043,0 24.16992,9.64355 9.8877,9.64356 9.8877,22.94922 0,10.86426 -8.42285,22.82715 10.2539,-4.88281 12.3291,-5.49316 3.2959,-0.97657 7.44629,-0.97657 12.20703,0 21.11816,9.64356 9.0332,9.52148 9.0332,23.68164 0,14.64844 -9.88769,24.6582 -9.76563,9.8877 -23.55957,9.8877 -7.69043,0 -15.86914,-3.66211 -8.05664,-3.78418 -14.03809,-10.00977 -4.27246,-4.5166 -10.62012,-15.25879 0.48829,19.40918 5.85938,30.76172 5.49316,11.23047 16.72363,18.67676 7.56836,5.00488 27.22168,8.78906 z" />
          <path
             inkscape:connector-curvature="0"
             d="M 219.06509,760.37072 H 115.54947 l 0.97656,4.15039 q 20.1416,4.27246 26.7334,8.42285 9.8877,6.22559 16.11328,18.43262 6.34766,12.20703 6.34766,25.75683 0,1.95313 -0.12207,5.61524 -7.44629,-15.13672 -18.18848,-22.09473 -10.62012,-6.95801 -21.72852,-6.95801 -14.16015,0 -24.04785,9.8877 -9.887692,9.88769 -9.887692,24.29199 0,14.16016 9.033202,23.80371 9.0332,9.76563 20.50781,9.76563 7.32422,0 19.89746,-6.22559 -5.12695,8.54492 -6.71386,12.81738 -1.46485,4.39453 -1.46485,9.39942 0,13.91601 9.64356,23.55957 9.64355,9.64355 24.04785,9.64355 14.4043,0 24.16992,-9.64355 9.8877,-9.64356 9.8877,-22.94922 0,-10.86426 -8.42285,-22.82715 10.2539,4.88281 12.3291,5.49316 3.2959,0.97657 7.44629,0.97657 12.20703,0 21.11816,-9.64356 9.0332,-9.52148 9.0332,-23.68164 0,-14.64844 -9.88769,-24.6582 -9.76563,-9.8877 -23.55957,-9.8877 -7.69043,0 -15.86914,3.66211 -8.05664,3.78418 -14.03809,10.00977 -4.27246,4.5166 -10.62012,15.25879 0.48829,-19.40918 5.85938,-30.76172 5.49316,-11.23047 16.72363,-18.67676 7.56836,-5.00488 27.22168,-8.78906 z"
             style="font-style:normal;font-weight:normal;font-size:250px;line-height:1.25;font-family:Arial;text-align:center;text-anchor:middle;fill:#000000;fill-opacity:1;stroke:none;stroke-width:1px;stroke-linecap:butt;stroke-linejoin:miter;stroke-opacity:1"
             id="path897" />
          <path
             inkscape:connector-curvature="0"
             id="path875"
             style="font-style:normal;font-weight:normal;font-size:250px;line-height:1.25;font-family:Arial;text-align:center;text-anchor:middle;fill:#000000;fill-opacity:1;stroke:none;stroke-width:1px;stroke-linecap:butt;stroke-linejoin:miter;stroke-opacity:1"
             d="M 499.06509,310.63928 H 395.54947 l 0.97656,-4.15039 q 20.1416,-4.27246 26.7334,-8.42285 9.8877,-6.22559 16.11328,-18.43262 6.34766,-12.20703 6.34766,-25.75683 0,-1.95313 -0.12207,-5.61524 -7.44629,15.13672 -18.18848,22.09473 -10.62012,6.95801 -21.72852,6.95801 -14.16015,0 -24.04785,-9.8877 -9.88769,-9.88769 -9.88769,-24.29199 0,-14.16016 9.0332,-23.80371 9.0332,-9.76563 20.50781,-9.76563 7.32422,0 19.89746,6.22559 -5.12695,-8.54492 -6.71386,-12.81738 -1.46485,-4.39453 -1.46485,-9.39942 0,-13.91601 9.64356,-23.55957 9.64355,-9.64355 24.04785,-9.64355 14.4043,0 24.16992,9.64355 9.8877,9.64356 9.8877,22.94922 0,10.86426 -8.42285,22.82715 10.2539,-4.88281 12.3291,-5.49316 3.2959,-0.97657 7.44629,-0.97657 12.20703,0 21.11816,9.64356 9.0332,9.52148 9.0332,23.68164 0,14.64844 -9.88769,24.6582 -9.76563,9.8877 -23.55957,9.8877 -7.69043,0 -15.86914,-3.66211 -8.05664,-3.78418 -14.03809,-10.00977 -4.27246,-4.5166 -10.62012,-15.25879 0.48829,19.40918 5.85938,30.76172 5.49316,11.23047 16.72363,18.67676 7.56836,5.00488 27.22168,8.78906 z" />
          <path
             inkscape:connector-curvature="0"
             d="M 499.06509,760.37072 H 395.54947 l 0.97656,4.15039 q 20.1416,4.27246 26.7334,8.42285 9.8877,6.22559 16.11328,18.43262 6.34766,12.20703 6.34766,25.75683 0,1.95313 -0.12207,5.61524 -7.44629,-15.13672 -18.18848,-22.09473 -10.62012,-6.95801 -21.72852,-6.95801 -14.16015,0 -24.04785,9.8877 -9.88769,9.88769 -9.88769,24.29199 0,14.16016 9.0332,23.80371 9.0332,9.76563 20.50781,9.76563 7.32422,0 19.89746,-6.22559 -5.12695,8.54492 -6.71386,12.81738 -1.46485,4.39453 -1.46485,9.39942 0,13.91601 9.64356,23.55957 9.64355,9.64355 24.04785,9.64355 14.4043,0 24.16992,-9.64355 9.8877,-9.64356 9.8877,-22.94922 0,-10.86426 -8.42285,-22.82715 10.2539,4.88281 12.3291,5.49316 3.2959,0.97657 7.44629,0.97657 12.20703,0 21.11816,-9.64356 9.0332,-9.52148 9.0332,-23.68164 0,-14.64844 -9.88769,-24.6582 -9.76563,-9.8877 -23.55957,-9.8877 -7.69043,0 -15.86914,3.66211 -8.05664,3.78418 -14.03809,10.00977 -4.27246,4.5166 -10.62012,15.25879 0.48829,-19.40918 5.85938,-30.76172 5.49316,-11.23047 16.72363,-18.67676 7.56836,-5.00488 27.22168,-8.78906 z"
             style="font-style:normal;font-weight:normal;font-size:250px;line-height:1.25;font-family:Arial;text-align:center;text-anchor:middle;fill:#000000;fill-opacity:1;stroke:none;stroke-width:1px;stroke-linecap:butt;stroke-linejoin:miter;stroke-opacity:1"
             id="path893" />
          <path
             inkscape:connector-curvature="0"
             id="path872"
             style="font-style:normal;font-weight:normal;font-size:250px;line-height:1.25;font-family:Arial;text-align:center;text-anchor:middle;fill:#000000;fill-opacity:1;stroke:none;stroke-width:1px;stroke-linecap:butt;stroke-linejoin:miter;stroke-opacity:1"
             d="M 359.06509,610.63928 H 255.54947 l 0.97656,-4.15039 q 20.1416,-4.27246 26.7334,-8.42285 9.8877,-6.22559 16.11328,-18.43262 6.34766,-12.20703 6.34766,-25.75683 0,-1.95313 -0.12207,-5.61524 -7.44629,15.13672 -18.18848,22.09473 -10.62012,6.95801 -21.72852,6.95801 -14.16015,0 -24.04785,-9.8877 -9.88769,-9.88769 -9.88769,-24.29199 0,-14.16016 9.0332,-23.80371 9.0332,-9.76563 20.50781,-9.76563 7.32422,0 19.89746,6.22559 -5.12695,-8.54492 -6.71386,-12.81738 -1.46485,-4.39453 -1.46485,-9.39942 0,-13.91601 9.64356,-23.55957 9.64355,-9.64355 24.04785,-9.64355 14.4043,0 24.16992,9.64355 9.8877,9.64356 9.8877,22.94922 0,10.86426 -8.42285,22.82715 10.2539,-4.88281 12.3291,-5.49316 3.2959,-0.97657 7.44629,-0.97657 12.20703,0 21.11816,9.64356 9.0332,9.52148 9.0332,23.68164 0,14.64844 -9.88769,24.6582 -9.76563,9.8877 -23.55957,9.8877 -7.69043,0 -15.86914,-3.66211 -8.05664,-3.78418 -14.03809,-10.00977 -4.27246,-4.5166 -10.62012,-15.25879 0.48829,19.40918 5.85938,30.76172 5.49316,11.23047 16.72363,18.67676 7.56836,5.00488 27.22168,8.78906 z" />
        </g>
      </g>
    </g>
  </g>
</svg>
