<svg version="1.0" viewBox="0 0 747 1000" xmlns="http://www.w3.org/2000/svg"><g fill="red"><path d="M74.2 89.35q10 2.2 16 9.1 5.8 6.9 5.8 17 0 16-11 24t-30 8.5q-6.6 0-14-1.3-7-1.3-14-3.9v-14q5.9 3.4 13 5.2 7 1.8 15 1.8 13 0 20-5.3t7-15q0-9.3-6.5-14-6.5-5.3-18-5.3h-12v-12h13q10 0 16-4.1 5.6-4.2 5.6-12 0-8.1-5.8-12-5.7-4.4-16-4.4-5.8 0-13 1.3-6.7 1.3-15 3.9v-13q8.1-2.2 15-3.4 7.1-1.1 13-1.1 16 0 26 7.4 9.4 7.3 9.4 20 0 8.7-5 15-5 6-14 8.3zM66.2 181.35l35 46q4.9 6 4.9 6.9l-40 52q-.84-.56-40-52 0-.98 7.8-11zM673.2 956.35q-10-2.2-16-9.1-5.8-6.9-5.8-17 0-16 11-24t30-8.5q6.6 0 14 1.3 7 1.3 14 3.9v14q-5.9-3.4-13-5.2-7-1.8-15-1.8-13 0-20 5.3t-7 15q0 9.3 6.5 14 6.5 5.3 18 5.3h12v12h-13q-10 0-16 4.1-5.6 4.2-5.6 12 0 8.1 5.8 12 5.7 4.4 16 4.4 5.8 0 13-1.3 6.7-1.3 15-3.9v13q-8.1 2.2-15 3.4-7.1 1.1-13 1.1-16 0-26-7.4-9.4-7.3-9.4-20 0-8.7 5-15 5-6 14-8.3zM681.2 864.35l-35-46q-4.9-6-4.9-6.9l40-52q.84.56 40 52 0 .98-7.8 11zM373.2 147.35q11 18 27 40 18 24 30 37-9 9.5-30 37-17 22-27 40-3.3-6.3-9-15-9.9-15-25-34-3.2-4.3-22-28 12-14 32-40 14-19 24-36zM373.2 898.35q11-18 27-40 18-24 30-37-9-9.5-30-37-17-22-27-40-3.3 6.3-9 15-9.9 15-25 34-3.2 4.3-22 28 12 14 32 40 14 19 24 36zM373.2 447.35q11 18 27 40 18 24 30 37-9 9.5-30 37-17 22-27 40-3.3-6.3-9-15-9.9-15-25-34-3.2-4.3-22-28 12-14 32-40 14-19 24-36z"/></g></svg>