<?xml version="1.0" encoding="UTF-8" standalone="no"?>
<!-- Created with Inkscape (http://www.inkscape.org/) -->

<svg
   xmlns:dc="http://purl.org/dc/elements/1.1/"
   xmlns:cc="http://creativecommons.org/ns#"
   xmlns:rdf="http://www.w3.org/1999/02/22-rdf-syntax-ns#"
   xmlns:svg="http://www.w3.org/2000/svg"
   xmlns="http://www.w3.org/2000/svg"
   xmlns:sodipodi="http://sodipodi.sourceforge.net/DTD/sodipodi-0.dtd"
   xmlns:inkscape="http://www.inkscape.org/namespaces/inkscape"
   width="747.34698"
   height="1046.2856"
   id="svg2"
   sodipodi:version="0.32"
   inkscape:version="0.92.4 (5da689c313, 2019-01-14)"
   version="1.0"
   sodipodi:docname="Cards-4-Diamond.svg"
   inkscape:output_extension="org.inkscape.output.svg.inkscape">
  <defs
     id="defs4">
    <inkscape:perspective
       sodipodi:type="inkscape:persp3d"
       inkscape:vp_x="0 : 526.18109 : 1"
       inkscape:vp_y="0 : 1000 : 0"
       inkscape:vp_z="744.09448 : 526.18109 : 1"
       inkscape:persp3d-origin="372.04724 : 350.78739 : 1"
       id="perspective10" />
    <inkscape:perspective
       id="perspective2390"
       inkscape:persp3d-origin="372.04724 : 350.78739 : 1"
       inkscape:vp_z="744.09448 : 526.18109 : 1"
       inkscape:vp_y="0 : 1000 : 0"
       inkscape:vp_x="0 : 526.18109 : 1"
       sodipodi:type="inkscape:persp3d" />
  </defs>
  <sodipodi:namedview
     id="base"
     pagecolor="#ffffff"
     bordercolor="#666666"
     borderopacity="1.0"
     gridtolerance="10000"
     guidetolerance="10"
     objecttolerance="10"
     inkscape:pageopacity="0.0"
     inkscape:pageshadow="2"
     inkscape:zoom="0.35"
     inkscape:cx="-1315.8294"
     inkscape:cy="298.90352"
     inkscape:document-units="px"
     inkscape:current-layer="g2775"
     showgrid="false"
     showguides="true"
     inkscape:guide-bbox="true"
     inkscape:window-width="3840"
     inkscape:window-height="2066"
     inkscape:window-x="-11"
     inkscape:window-y="-11"
     inkscape:window-maximized="1" />
  <metadata
     id="metadata7">
    <rdf:RDF>
      <cc:Work
         rdf:about="">
        <dc:format>image/svg+xml</dc:format>
        <dc:type
           rdf:resource="http://purl.org/dc/dcmitype/StillImage" />
      </cc:Work>
    </rdf:RDF>
  </metadata>
  <g
     inkscape:label="Layer 1"
     inkscape:groupmode="layer"
     id="layer1"
     transform="translate(2.2448993,-0.6479052)">
    <g
       id="g2775"
       transform="translate(-2.0407968,-11.714273)">
      <path
         inkscape:connector-curvature="0"
         id="path861"
         style="font-style:normal;font-variant:normal;font-weight:normal;font-stretch:normal;font-size:144px;line-height:1.25;font-family:'Arial Narrow';-inkscape-font-specification:'Arial Narrow';text-align:center;text-anchor:middle;fill:#ff0000;fill-opacity:1;stroke:none;stroke-width:1px;stroke-linecap:butt;stroke-linejoin:miter;stroke-opacity:1"
         d="M 72.70182,66.44249 36.842445,122.48155 H 72.70182 Z m -3.726562,-12.375 h 17.859375 v 68.41406 H 101.8112 v 11.8125 H 86.834633 v 24.75 H 72.70182 v -24.75 H 25.311195 v -13.71094 z" />
      <path
         inkscape:connector-curvature="0"
         id="path864"
         style="font-style:normal;font-variant:normal;font-weight:normal;font-stretch:normal;font-size:144px;line-height:1.25;font-family:'Arial Narrow';-inkscape-font-specification:'Arial Narrow';text-align:center;text-anchor:middle;fill:#ff0000;fill-opacity:1;stroke:none;stroke-width:1px;stroke-linecap:butt;stroke-linejoin:miter;stroke-opacity:1"
         d="m 66.23307,194.13779 35.36719,45.91406 q 4.85156,5.97656 4.85156,6.89062 l -40.21875,52.10157 q -0.84375,-0.5625 -40.359375,-52.10157 0,-0.98437 7.804688,-10.6875 z" />
      <path
         inkscape:connector-curvature="0"
         id="path858"
         style="font-style:normal;font-variant:normal;font-weight:normal;font-stretch:normal;font-size:144px;line-height:1.25;font-family:'Arial Narrow';-inkscape-font-specification:'Arial Narrow';text-align:center;text-anchor:middle;fill:#ff0000;fill-opacity:1;stroke:none;stroke-width:1px;stroke-linecap:butt;stroke-linejoin:miter;stroke-opacity:1"
         d="m 674.237,1004.5675 35.85937,-56.03906 H 674.237 Z m 3.72656,12.375 h -17.85937 v -68.41406 h -14.97657 v -11.8125 h 14.97657 v -24.75 H 674.237 v 24.75 h 47.39062 v 13.71094 z" />
      <path
         inkscape:connector-curvature="0"
         id="path855"
         style="font-style:normal;font-variant:normal;font-weight:normal;font-stretch:normal;font-size:144px;line-height:1.25;font-family:'Arial Narrow';-inkscape-font-specification:'Arial Narrow';text-align:center;text-anchor:middle;fill:#ff0000;fill-opacity:1;stroke:none;stroke-width:1px;stroke-linecap:butt;stroke-linejoin:miter;stroke-opacity:1"
         d="M 680.70575,876.87219 645.33856,830.95813 Q 640.487,824.98157 640.487,824.0675 l 40.21875,-52.10156 q 0.84375,0.5625 40.35937,52.10156 0,0.98438 -7.80468,10.6875 z" />
      <path
         inkscape:connector-curvature="0"
         id="path867"
         style="font-style:normal;font-weight:normal;font-size:250px;line-height:1.25;font-family:Arial;text-align:center;text-anchor:middle;fill:#ff0000;fill-opacity:1;stroke:none;stroke-width:1px;stroke-linecap:butt;stroke-linejoin:miter;stroke-opacity:1"
         d="m 233.22525,160.37073 q 10.86426,18.43261 26.7334,39.55078 18.31055,24.41406 29.54101,36.9873 -9.0332,9.52149 -29.54101,36.86524 -16.60156,22.21679 -26.61133,39.79492 -3.2959,-6.34766 -9.0332,-14.77051 -9.8877,-14.64844 -24.53614,-34.05762 -3.17382,-4.27246 -22.33886,-27.83203 12.3291,-14.03808 31.73828,-40.03906 14.4043,-19.28711 24.04785,-36.49902 z" />
      <path
         inkscape:connector-curvature="0"
         d="m 233.22525,910.63927 q 10.86426,-18.43261 26.7334,-39.55078 18.31055,-24.41406 29.54101,-36.9873 -9.0332,-9.52149 -29.54101,-36.86524 -16.60156,-22.21679 -26.61133,-39.79492 -3.2959,6.34766 -9.0332,14.77051 -9.8877,14.64844 -24.53614,34.05762 -3.17382,4.27246 -22.33886,27.83203 12.3291,14.03808 31.73828,40.03906 14.4043,19.28711 24.04785,36.49902 z"
         style="font-style:normal;font-weight:normal;font-size:250px;line-height:1.25;font-family:Arial;text-align:center;text-anchor:middle;fill:#ff0000;fill-opacity:1;stroke:none;stroke-width:1px;stroke-linecap:butt;stroke-linejoin:miter;stroke-opacity:1"
         id="path870" />
      <path
         d="m 513.22525,160.37073 q 10.86426,18.43261 26.7334,39.55078 18.31055,24.41406 29.54101,36.9873 -9.0332,9.52149 -29.54101,36.86524 -16.60156,22.21679 -26.61133,39.79492 -3.2959,-6.34766 -9.0332,-14.77051 -9.8877,-14.64844 -24.53614,-34.05762 -3.17382,-4.27246 -22.33886,-27.83203 12.3291,-14.03808 31.73828,-40.03906 14.4043,-19.28711 24.04785,-36.49902 z"
         style="font-style:normal;font-weight:normal;font-size:250px;line-height:1.25;font-family:Arial;text-align:center;text-anchor:middle;fill:#ff0000;fill-opacity:1;stroke:none;stroke-width:1px;stroke-linecap:butt;stroke-linejoin:miter;stroke-opacity:1"
         id="path898"
         inkscape:connector-curvature="0" />
      <path
         id="path900"
         style="font-style:normal;font-weight:normal;font-size:250px;line-height:1.25;font-family:Arial;text-align:center;text-anchor:middle;fill:#ff0000;fill-opacity:1;stroke:none;stroke-width:1px;stroke-linecap:butt;stroke-linejoin:miter;stroke-opacity:1"
         d="m 513.22525,910.63927 q 10.86426,-18.43261 26.7334,-39.55078 18.31055,-24.41406 29.54101,-36.9873 -9.0332,-9.52149 -29.54101,-36.86524 -16.60156,-22.21679 -26.61133,-39.79492 -3.2959,6.34766 -9.0332,14.77051 -9.8877,14.64844 -24.53614,34.05762 -3.17382,4.27246 -22.33886,27.83203 12.3291,14.03808 31.73828,40.03906 14.4043,19.28711 24.04785,36.49902 z"
         inkscape:connector-curvature="0" />
    </g>
  </g>
</svg>
