<svg version="1.0" viewBox="0 0 747 1000" xmlns="http://www.w3.org/2000/svg"><path d="M7.8 134.35h23v-80l-25 5.1v-13l25-5.1h14v93h23v12h-60zM127.2 50.35q-11 0-17 11-5.5 11-5.5 32 0 22 5.5 32 5.6 11 17 11 11 0 17-11 5.6-11 5.6-32 0-22-5.6-32-5.5-11-17-11zm0-11q18 0 27 14 9.4 14 9.4 40 0 27-9.4 40-9.3 14-27 14t-27-14q-9.3-14-9.3-40 0-27 9.3-40 9.4-14 27-14zM70.2 181.35q6.6 12 22 31 17 20 17 24 2.7 6 2.7 12v2.8q0 12-11 18-3.7 1.5-8.2 1.5-11 0-18-16h-3v.84q0 20 5.8 30h-15v-.42q6-11 6-31l-.21-.21h-2.7l-3.3 6.2q-6 9.4-15 9.4-13 0-18-15l-.63-5.1v-3.2q0-13 13-27 22-27 28-39l.21-.21zM739.2 911.35h-23v80l25-5.1v13l-25 5.1h-14v-93h-23v-12h60zM620.2 987.35q11 0 17-11 5.5-11 5.5-32 0-22-5.5-32-5.6-11-17-11-11 0-17 11-5.6 11-5.6 32 0 22 5.6 32 5.5 11 17 11zm0 11q-18 0-27-14-9.4-14-9.4-41t9.4-40q9.3-14 27-14t27 14q9.3 14 9.3 40 0 27-9.3 41-9.4 14-27 14zM677.2 864.35q-6.6-12-22-31-17-20-17-24-2.7-6-2.7-12v-2.8q0-12 11-18 3.7-1.5 8.2-1.5 11 0 18 16h3v-.84q0-20-5.8-30h15v.42q-6 11-6 31l.21.21h2.7l3.3-6.2q6-9.4 15-9.4 13 0 18 15l.63 5.1v3.2q0 13-13 27-22 27-28 39l-.21.21zM234.2 108.35q3.2 13 9.8 24 6.6 10 23 26 17 15 21 23t4.5 17q0 12-7.8 20t-19 7.8q-9.5 0-17-5.9-7.7-6-14-17 .12 18 4.6 29 4.6 10 15 17 10 6 27 7.1l.85 4.5h-97l.98-4.5q22 0 35-13 12-13 12-39-5.5 12-14 17-8.1 5.7-18 5.7-11 0-19-7.9-7.8-7.9-7.8-19 0-8.9 4-16 5.5-10 18-20t18-17q8.9-10 13-18 4.2-7.9 6.5-19zM234.2 938.35q3.2-13 9.8-24 6.6-10 23-26 17-15 21-23t4.5-17q0-12-7.8-20t-19-7.8q-9.5 0-17 5.9-7.7 6-14 17 .12-18 4.6-29 4.6-10 15-17 10-6 27-7.1l.85-4.5h-97l.98 4.5q22 0 35 13 12 13 12 39-5.5-12-14-17-8.1-5.7-18-5.7-11 0-19 7.9-7.8 7.9-7.8 19 0 8.9 4 16 5.5 10 18 20t18 17q8.9 10 13 18 4.2 7.9 6.5 19zM234.2 328.35q3.2 13 9.8 24 6.6 10 23 26 17 15 21 23t4.5 17q0 12-7.8 20t-19 7.8q-9.5 0-17-5.9-7.7-6-14-17 .12 18 4.6 29 4.6 10 15 17 10 6 27 7.1l.85 4.5h-97l.98-4.5q22 0 35-13 12-13 12-39-5.5 12-14 17-8.1 5.7-18 5.7-11 0-19-7.9-7.8-7.9-7.8-19 0-8.9 4-16 5.5-10 18-20t18-17q8.9-10 13-18 4.2-7.9 6.5-19zM234.2 718.35q3.2-13 9.8-24 6.6-10 23-26 17-15 21-23t4.5-17q0-12-7.8-20t-19-7.8q-9.5 0-17 5.9-7.7 6-14 17 .12-18 4.6-29 4.6-10 15-17 10-6 27-7.1l.85-4.5h-97l.98 4.5q22 0 35 13 12 13 12 39-5.5-12-14-17-8.1-5.7-18-5.7-11 0-19 7.9-7.8 7.9-7.8 19 0 8.9 4 16 5.5 10 18 20t18 17q8.9 10 13 18 4.2 7.9 6.5 19zM514.2 108.35q3.2 13 9.8 24 6.6 10 23 26 17 15 21 23t4.5 17q0 12-7.8 20t-19 7.8q-9.5 0-17-5.9-7.7-6-14-17 .12 18 4.6 29 4.6 10 15 17 10 6 27 7.1l.85 4.5h-97l.98-4.5q22 0 35-13 12-13 12-39-5.5 12-14 17-8.1 5.7-18 5.7-11 0-19-7.9-7.8-7.9-7.8-19 0-8.9 4-16 5.5-10 18-20t18-17q8.9-10 13-18 4.2-7.9 6.5-19zM514.2 938.35q3.2-13 9.8-24 6.6-10 23-26 17-15 21-23t4.5-17q0-12-7.8-20t-19-7.8q-9.5 0-17 5.9-7.7 6-14 17 .12-18 4.6-29 4.6-10 15-17 10-6 27-7.1l.85-4.5h-97l.98 4.5q22 0 35 13 12 13 12 39-5.5-12-14-17-8.1-5.7-18-5.7-11 0-19 7.9-7.8 7.9-7.8 19 0 8.9 4 16 5.5 10 18 20t18 17q8.9 10 13 18 4.2 7.9 6.5 19zM514.2 328.35q3.2 13 9.8 24 6.6 10 23 26 17 15 21 23t4.5 17q0 12-7.8 20t-19 7.8q-9.5 0-17-5.9-7.7-6-14-17 .12 18 4.6 29 4.6 10 15 17 10 6 27 7.1l.85 4.5h-97l.98-4.5q22 0 35-13 12-13 12-39-5.5 12-14 17-8.1 5.7-18 5.7-11 0-19-7.9-7.8-7.9-7.8-19 0-8.9 4-16 5.5-10 18-20t18-17q8.9-10 13-18 4.2-7.9 6.5-19zM514.2 718.35q3.2-13 9.8-24 6.6-10 23-26 17-15 21-23t4.5-17q0-12-7.8-20t-19-7.8q-9.5 0-17 5.9-7.7 6-14 17 .12-18 4.6-29 4.6-10 15-17 10-6 27-7.1l.85-4.5h-97l.98 4.5q22 0 35 13 12 13 12 39-5.5-12-14-17-8.1-5.7-18-5.7-11 0-19 7.9-7.8 7.9-7.8 19 0 8.9 4 16 5.5 10 18 20t18 17q8.9 10 13 18 4.2 7.9 6.5 19zM374.2 254.35q3.2 13 9.8 24 6.6 10 23 26 17 15 21 23t4.5 17q0 12-7.8 20t-19 7.8q-9.5 0-17-5.9-7.7-6-14-17 .12 18 4.6 29 4.6 10 15 17 10 6 27 7.1l.85 4.5h-97l.98-4.5q22 0 35-13 12-13 12-39-5.5 12-14 17-8.1 5.7-18 5.7-11 0-19-7.9-7.8-7.9-7.8-19 0-8.9 4-16 5.5-10 18-20t18-17q8.9-10 13-18 4.2-7.9 6.5-19zM374.2 804.35q3.2-13 9.8-24 6.6-10 23-26 17-15 21-23t4.5-17q0-12-7.8-20t-19-7.8q-9.5 0-17 5.9-7.7 6-14 17 .12-18 4.6-29 4.6-10 15-17 10-6 27-7.1l.85-4.5h-97l.98 4.5q22 0 35 13 12 13 12 39-5.5-12-14-17-8.1-5.7-18-5.7-11 0-19 7.9-7.8 7.9-7.8 19 0 8.9 4 16 5.5 10 18 20t18 17q8.9 10 13 18 4.2 7.9 6.5 19z"/></svg>