<?xml version="1.0" encoding="UTF-8" standalone="no"?>
<!-- Created with Inkscape (http://www.inkscape.org/) -->

<svg
   xmlns:dc="http://purl.org/dc/elements/1.1/"
   xmlns:cc="http://creativecommons.org/ns#"
   xmlns:rdf="http://www.w3.org/1999/02/22-rdf-syntax-ns#"
   xmlns:svg="http://www.w3.org/2000/svg"
   xmlns="http://www.w3.org/2000/svg"
   xmlns:xlink="http://www.w3.org/1999/xlink"
   xmlns:sodipodi="http://sodipodi.sourceforge.net/DTD/sodipodi-0.dtd"
   xmlns:inkscape="http://www.inkscape.org/namespaces/inkscape"
   width="747.34698"
   height="1046.2856"
   id="svg2"
   sodipodi:version="0.32"
   inkscape:version="0.92.4 (5da689c313, 2019-01-14)"
   version="1.0"
   sodipodi:docname="Cards-J-Heart.svg"
   inkscape:output_extension="org.inkscape.output.svg.inkscape">
  <defs
     id="defs4">
    <inkscape:perspective
       sodipodi:type="inkscape:persp3d"
       inkscape:vp_x="0 : 526.18109 : 1"
       inkscape:vp_y="0 : 1000 : 0"
       inkscape:vp_z="744.09448 : 526.18109 : 1"
       inkscape:persp3d-origin="372.04724 : 350.78739 : 1"
       id="perspective10" />
    <inkscape:perspective
       id="perspective2390"
       inkscape:persp3d-origin="372.04724 : 350.78739 : 1"
       inkscape:vp_z="744.09448 : 526.18109 : 1"
       inkscape:vp_y="0 : 1000 : 0"
       inkscape:vp_x="0 : 526.18109 : 1"
       sodipodi:type="inkscape:persp3d" />
  </defs>
  <sodipodi:namedview
     id="base"
     pagecolor="#ffffff"
     bordercolor="#666666"
     borderopacity="1.0"
     gridtolerance="10000"
     guidetolerance="10"
     objecttolerance="10"
     inkscape:pageopacity="0.0"
     inkscape:pageshadow="2"
     inkscape:zoom="0.49497475"
     inkscape:cx="-627.14486"
     inkscape:cy="432.02731"
     inkscape:document-units="px"
     inkscape:current-layer="layer1"
     showgrid="false"
     showguides="true"
     inkscape:guide-bbox="true"
     inkscape:window-width="3840"
     inkscape:window-height="2066"
     inkscape:window-x="-11"
     inkscape:window-y="-11"
     inkscape:window-maximized="1" />
  <metadata
     id="metadata7">
    <rdf:RDF>
      <cc:Work
         rdf:about="">
        <dc:format>image/svg+xml</dc:format>
        <dc:type
           rdf:resource="http://purl.org/dc/dcmitype/StillImage" />
      </cc:Work>
    </rdf:RDF>
  </metadata>
  <g
     inkscape:label="Layer 1"
     inkscape:groupmode="layer"
     id="layer1"
     transform="translate(2.2448993,-0.6479052)">
    <path
       inkscape:connector-curvature="0"
       id="path976"
       style="font-style:normal;font-variant:normal;font-weight:normal;font-stretch:normal;font-size:144px;line-height:1.25;font-family:'Arial Narrow';-inkscape-font-specification:'Arial Narrow';text-align:center;text-anchor:middle;fill:#ff0000;fill-opacity:1;stroke:none;stroke-width:1px;stroke-linecap:butt;stroke-linejoin:miter;stroke-opacity:1"
       d="m 47.104374,42.35321 h 14.203125 v 97.66406 q 0,18.98438 -7.242188,27.5625 -7.171875,8.57813 -23.132812,8.57813 h -5.414063 v -11.95313 h 4.429688 q 9.421875,0 13.289062,-5.27343 3.867188,-5.27344 3.867188,-18.91407 z" />
    <path
       inkscape:connector-curvature="0"
       id="path979"
       style="font-style:normal;font-variant:normal;font-weight:normal;font-stretch:normal;font-size:144px;line-height:1.25;font-family:'Arial Narrow';-inkscape-font-specification:'Arial Narrow';text-align:center;text-anchor:middle;fill:#ff0000;fill-opacity:1;stroke:none;stroke-width:1px;stroke-linecap:butt;stroke-linejoin:miter;stroke-opacity:1"
       d="m 29.772343,182.42352 q 14.273437,0 22.429687,16.52344 2.953125,6.53906 3.09375,9.98438 h 0.210938 q 2.460937,-11.39063 8.929687,-18.91407 7.59375,-7.59375 17.085938,-7.59375 14.695312,0 23.554687,15.75 2.25,5.83594 2.25,10.96875 0,17.57813 -14.625,33.53907 L 55.506718,287.32977 H 55.084843 L 15.569218,238.88446 Q 3.7567177,224.4704 3.7567177,209.14227 q 0,-14.83593 13.9921873,-23.55468 5.90625,-3.16407 12.023438,-3.16407 z" />
    <path
       inkscape:connector-curvature="0"
       id="path973"
       style="font-style:normal;font-variant:normal;font-weight:normal;font-stretch:normal;font-size:144px;line-height:1.25;font-family:'Arial Narrow';-inkscape-font-specification:'Arial Narrow';text-align:center;text-anchor:middle;fill:#ff0000;fill-opacity:1;stroke:none;stroke-width:1px;stroke-linecap:butt;stroke-linejoin:miter;stroke-opacity:1"
       d="m 695.75281,1005.2282 h -14.20313 v -97.66405 q 0,-18.98438 7.24219,-27.5625 7.17188,-8.57813 23.13281,-8.57813 h 5.41407 v 11.95313 h -4.42969 q -9.42188,0 -13.28906,5.27344 -3.86719,5.27343 -3.86719,18.91406 z" />
    <path
       inkscape:connector-curvature="0"
       id="path970"
       style="font-style:normal;font-variant:normal;font-weight:normal;font-stretch:normal;font-size:144px;line-height:1.25;font-family:'Arial Narrow';-inkscape-font-specification:'Arial Narrow';text-align:center;text-anchor:middle;fill:#ff0000;fill-opacity:1;stroke:none;stroke-width:1px;stroke-linecap:butt;stroke-linejoin:miter;stroke-opacity:1"
       d="m 713.08484,865.1579 q -14.27344,0 -22.42969,-16.52344 -2.95312,-6.53906 -3.09375,-9.98437 h -0.21094 q -2.46093,11.39062 -8.92968,18.91406 -7.59375,7.59375 -17.08594,7.59375 -14.69531,0 -23.55469,-15.75 -2.25,-5.83594 -2.25,-10.96875 0,-17.57813 14.625,-33.53906 l 37.19531,-44.64844 h 0.42188 l 39.51562,48.44531 q 11.8125,14.41406 11.8125,29.74219 0,14.83594 -13.99218,23.55469 -5.90625,3.16406 -12.02344,3.16406 z" />
    <path
       style="opacity:0.77520004;fill:none;fill-opacity:1;stroke:#000000;stroke-width:8.5;stroke-linecap:square;stroke-linejoin:miter;stroke-miterlimit:4;stroke-dasharray:none;stroke-opacity:1"
       d="M 117.14288,92.362167 H 625.71432 V 955.21928 H 117.14288 Z"
       id="rect3077" />
    <path
       sodipodi:nodetypes="ccscccc"
       id="path3918"
       d="M 309.89796,316.21927 L 438.82653,304.07641 C 448.85157,306.15365 439.57428,321.15705 448.22049,324.68528 C 538.64583,361.58486 576.77443,459.37246 620.39287,510.09943 L 122.46938,510.21927 C 146.21086,403.46884 219.14627,408.24124 309.89796,344.7907 L 309.89796,316.21927 z"
       style="fill:#ff0000;fill-opacity:1;fill-rule:nonzero;stroke:#ff0000;stroke-width:1;stroke-linecap:butt;stroke-linejoin:miter;marker:none;marker-start:none;marker-mid:none;marker-end:none;stroke-miterlimit:4;stroke-dasharray:none;stroke-dashoffset:0;stroke-opacity:1;visibility:visible;display:inline;overflow:visible;enable-background:accumulate" />
    <path
       inkscape:connector-curvature="0"
       id="path967"
       style="font-style:normal;font-weight:normal;font-size:250px;line-height:1.25;font-family:Arial;text-align:center;text-anchor:middle;fill:#ff0000;fill-opacity:1;stroke:none;stroke-width:1px;stroke-linecap:butt;stroke-linejoin:miter;stroke-opacity:1"
       d="m 205.26648,267.85468 q -3.78418,-14.4043 -10.86426,-26.97754 -6.95801,-12.69532 -27.09961,-39.30664 -14.77051,-19.53125 -18.18847,-24.78028 -5.61524,-8.54492 -8.17872,-15.625 -2.4414,-7.20215 -2.4414,-14.52637 0,-13.5498 9.0332,-22.70507 9.0332,-9.15528 22.33887,-9.15528 13.42773,0 23.31543,9.52149 7.44629,7.08008 12.08496,21.11816 4.02832,-13.79394 11.35254,-20.99609 10.13183,-9.76563 23.4375,-9.76563 13.18359,0 22.33887,9.15528 9.15527,9.0332 9.15527,21.60644 0,10.98633 -5.37109,22.94922 -5.3711,11.84082 -20.75196,31.12793 -20.01953,25.26855 -29.1748,41.50391 -7.20215,12.81738 -10.98633,26.85547 z" />
    <path
       inkscape:connector-curvature="0"
       d="m 536.98077,771.72672 q -3.78418,14.4043 -10.86426,26.97754 -6.95801,12.69532 -27.09961,39.30664 -14.77051,19.53125 -18.18847,24.78028 -5.61524,8.54492 -8.17872,15.625 -2.4414,7.20215 -2.4414,14.52637 0,13.5498 9.0332,22.70507 9.0332,9.15528 22.33887,9.15528 13.42773,0 23.31543,-9.52149 7.44629,-7.08008 12.08496,-21.11816 4.02832,13.79394 11.35254,20.99609 10.13183,9.76563 23.4375,9.76563 13.18359,0 22.33887,-9.15528 9.15527,-9.0332 9.15527,-21.60644 0,-10.98633 -5.37109,-22.94922 -5.3711,-11.84082 -20.75196,-31.12793 -20.01953,-25.26855 -29.1748,-41.50391 -7.20215,-12.81738 -10.98633,-26.85547 z"
       style="font-style:normal;font-weight:normal;font-size:250px;line-height:1.25;font-family:Arial;text-align:center;text-anchor:middle;fill:#ff0000;fill-opacity:1;stroke:none;stroke-width:1px;stroke-linecap:butt;stroke-linejoin:miter;stroke-opacity:1"
       id="path983" />
    <path
       inkscape:connector-curvature="0"
       style="display:inline;overflow:visible;visibility:visible;opacity:1;fill:#ddbdd0;fill-opacity:1;fill-rule:nonzero;stroke:#ddbdd0;stroke-width:1;stroke-linecap:butt;stroke-linejoin:miter;stroke-miterlimit:4;stroke-dasharray:none;stroke-dashoffset:0;stroke-opacity:1;marker:none;marker-start:none;marker-mid:none;marker-end:none;enable-background:accumulate"
       d="m 325.40167,223.00622 c -3.00753,9.27436 -4.65171,18.36153 -3.42248,26.24693 l -6.86077,21.8498 0.0584,2.84285 c -0.0445,0.33365 2.96779,3.57095 6.04854,3.90465 l -1.32381,14.20065 c -1.11164,0.76664 1.78559,1.03724 1.78559,2.29993 0,1.42087 -2.38602,2.03466 -2.38602,2.03466 1.77593,6.62785 -7.2331,13.38247 -0.78843,19.82714 4.1688,4.16879 41.29596,-0.065 41.29596,-0.065 47.99288,0 48.57143,-35 48.57143,-35 0,-40.40926 -2.5823,-66.014 -2.5823,-66.014 -2.48201,-0.0144 -18.08525,-2.82071 -34.9718,-1.10924 -18.54827,1.87988 -29.64383,4.19936 -45.42433,8.98162 z"
       id="path3867"
       sodipodi:nodetypes="ccccccccccccsc" />
    <path
       inkscape:connector-curvature="0"
       style="display:inline;overflow:visible;visibility:visible;opacity:1;fill:#000000;fill-opacity:1;fill-rule:nonzero;stroke:#000000;stroke-width:1;stroke-linecap:butt;stroke-linejoin:miter;stroke-miterlimit:4;stroke-dasharray:none;stroke-dashoffset:0;stroke-opacity:1;marker:none;marker-start:none;marker-mid:none;marker-end:none;enable-background:accumulate"
       d="m 293.68918,131.62964 23.79523,68.68627 c 104.19463,-13.73239 94.25455,-3.9311 127.79523,0 l 19.79522,-68.68627 c -43.06005,-15.41361 -99.13676,-19.54925 -171.38568,0 z"
       id="path3854"
       sodipodi:nodetypes="ccccc" />
    <path
       inkscape:connector-curvature="0"
       style="display:inline;overflow:visible;visibility:visible;opacity:1;fill:#c6c801;fill-opacity:1;fill-rule:nonzero;stroke:#000000;stroke-width:1;stroke-linecap:butt;stroke-linejoin:miter;stroke-miterlimit:4;stroke-dasharray:none;stroke-dashoffset:0;stroke-opacity:1;marker:none;marker-start:none;marker-mid:none;marker-end:none;enable-background:accumulate"
       d="m 377.98283,209.45395 9.02082,120.45622 63.6011,-9.30155 -9.29989,-97.98469 z"
       id="path3871"
       sodipodi:nodetypes="ccccc" />
    <path
       inkscape:connector-curvature="0"
       style="display:inline;overflow:visible;visibility:visible;opacity:1;fill:none;fill-opacity:0.70348834;fill-rule:nonzero;stroke:#000000;stroke-width:4;stroke-linecap:round;stroke-linejoin:round;stroke-miterlimit:4;stroke-dasharray:none;stroke-dashoffset:0;stroke-opacity:1;marker:none;marker-start:none;marker-mid:none;marker-end:none;enable-background:accumulate"
       d="m 328.77304,237.5561 c 8.08859,-1.16138 14.27507,0.3491 21.48614,6.17974"
       id="path3875"
       sodipodi:nodetypes="cc" />
    <path
       inkscape:connector-curvature="0"
       style="display:inline;overflow:visible;visibility:visible;opacity:1;fill:none;fill-opacity:0.70348834;fill-rule:nonzero;stroke:#000000;stroke-width:1;stroke-linecap:butt;stroke-linejoin:miter;stroke-miterlimit:4;stroke-dasharray:none;stroke-dashoffset:0;stroke-opacity:1;marker:none;marker-start:none;marker-mid:none;marker-end:none;enable-background:accumulate"
       d="m 384.45153,213.5407 10.08929,115.35714"
       id="path3902" />
    <use
       x="0"
       y="0"
       xlink:href="#path3902"
       id="use3904"
       width="747.34698"
       height="1046.2856"
       transform="translate(8.0000047,-1.0714284)" />
    <use
       x="0"
       y="0"
       xlink:href="#use3904"
       id="use3906"
       width="747.34698"
       height="1046.2856"
       transform="translate(8.0000047,-1.0714284)" />
    <use
       x="0"
       y="0"
       xlink:href="#use3906"
       id="use3908"
       transform="translate(8.0000047,-1.6428572)"
       width="747.34698"
       height="1046.2856" />
    <use
       x="0"
       y="0"
       xlink:href="#use3908"
       id="use3910"
       width="747.34698"
       height="1046.2856"
       transform="translate(8.0000047,-0.7142856)" />
    <use
       x="0"
       y="0"
       xlink:href="#use3910"
       id="use3912"
       transform="translate(8.0000047,-1.0714284)"
       width="747.34698"
       height="1046.2856" />
    <use
       x="0"
       y="0"
       xlink:href="#use3912"
       id="use3914"
       width="747.34698"
       height="1046.2856"
       transform="translate(8.0000047,-2)" />
    <path
       inkscape:connector-curvature="0"
       style="display:inline;overflow:visible;visibility:visible;opacity:1;fill:#ffffff;fill-opacity:1;fill-rule:nonzero;stroke:#000000;stroke-width:0.5;stroke-linecap:butt;stroke-linejoin:miter;stroke-miterlimit:4;stroke-dasharray:none;stroke-dashoffset:0;stroke-opacity:1;marker:none;marker-start:none;marker-mid:none;marker-end:none;enable-background:accumulate"
       d="m 334.32544,243.64262 c 4.21184,0.8881 4.63962,1.05126 8.1246,5.12634 -3.66828,1.53734 -5.01132,1.66092 -8.87234,1.3605 -7.82105,-1.30025 -5.56827,-7.36846 0.74774,-6.48684 z"
       id="path3877"
       sodipodi:nodetypes="cccc" />
    <path
       style="opacity:1;fill:#6c5353;fill-opacity:1;stroke:#000000;stroke-width:0.50000006;stroke-linecap:round;stroke-linejoin:round;stroke-miterlimit:4;stroke-dasharray:none;stroke-opacity:1"
       d="m 336.62386,246.76646 a 3.1192534,2.9081445 0 0 1 -3.11925,2.90815 3.1192534,2.9081445 0 0 1 -3.11926,-2.90815 3.1192534,2.9081445 0 0 1 3.11926,-2.90814 3.1192534,2.9081445 0 0 1 3.11925,2.90814 z"
       id="path3885" />
    <path
       style="opacity:1;fill:#000000;fill-opacity:1;stroke:#000000;stroke-width:0.5;stroke-linecap:round;stroke-linejoin:round;stroke-miterlimit:4;stroke-dasharray:none;stroke-opacity:1"
       d="m 334.07277,246.89273 a 0.75761443,0.69447988 0 0 1 -0.75761,0.69448 0.75761443,0.69447988 0 0 1 -0.75762,-0.69448 0.75761443,0.69447988 0 0 1 0.75762,-0.69448 0.75761443,0.69447988 0 0 1 0.75761,0.69448 z"
       id="path3887" />
    <path
       inkscape:connector-curvature="0"
       style="fill:none;fill-rule:evenodd;stroke:#000000;stroke-width:1.60000002;stroke-linecap:round;stroke-linejoin:miter;stroke-miterlimit:4;stroke-dasharray:none;stroke-opacity:1"
       d="m 334.72747,289.43472 c 0.1147,-0.11061 0.4181,0.74832 0.47972,0.85755 0.17537,0.31091 -0.35936,0.64875 -0.64768,0.76227 -0.61218,0.24103 -1.52779,-0.70067 -1.69871,-1.27155 -0.30784,-1.02814 0.52031,-2.0002 1.48758,-2.23186 1.56724,-0.37536 2.9966,0.88438 3.29095,2.3704 0.44305,2.23679 -1.35535,4.24781 -3.4927,4.58819 -1.11048,0.17685 -3.76655,-0.68053 -7.27265,-1.52981 -3.4485,-0.83532 -5.63456,-1.68595 -6.7735,-2.25796"
       id="path3895"
       sodipodi:nodetypes="csssssssc" />
    <path
       inkscape:connector-curvature="0"
       id="path3858"
       style="display:inline;overflow:visible;visibility:visible;opacity:1;fill:#ff0000;fill-opacity:1;fill-rule:nonzero;stroke:#ff0000;stroke-width:1;stroke-linecap:butt;stroke-linejoin:miter;stroke-miterlimit:4;stroke-dasharray:none;stroke-dashoffset:0;stroke-opacity:1;marker:none;marker-start:none;marker-mid:none;marker-end:none;enable-background:accumulate"
       d="m 441.27964,222.31591 4,-22 c -33.54068,-3.9311 -23.6006,-13.73239 -127.79523,0 l 8,22 c 65.30376,-10.19686 69.62764,-11.00217 115.79523,0 z"
       sodipodi:nodetypes="ccccc" />
    <use
       x="0"
       y="0"
       xlink:href="#path3918"
       id="use3954"
       transform="matrix(-1,0,0,-1,743.36733,1018.4066)"
       width="747.34698"
       height="1046.2856" />
    <path
       inkscape:connector-curvature="0"
       sodipodi:nodetypes="ccccccccccccsc"
       id="path851"
       d="m 417.96567,795.40039 c 3.00753,-9.27436 4.65171,-18.36153 3.42248,-26.24693 l 6.86077,-21.8498 -0.0584,-2.84285 c 0.0445,-0.33365 -2.96779,-3.57095 -6.04854,-3.90465 l 1.32381,-14.20065 c 1.11164,-0.76664 -1.78559,-1.03724 -1.78559,-2.29993 0,-1.42087 2.38602,-2.03466 2.38602,-2.03466 -1.77593,-6.62785 7.2331,-13.38247 0.78843,-19.82714 -4.1688,-4.16879 -41.29596,0.065 -41.29596,0.065 -47.99288,0 -48.57143,35 -48.57143,35 0,40.40926 2.5823,66.014 2.5823,66.014 2.48201,0.0144 18.08525,2.82071 34.9718,1.10924 18.54827,-1.87988 29.64383,-4.19936 45.42433,-8.98162 z"
       style="display:inline;overflow:visible;visibility:visible;opacity:1;fill:#ddbdd0;fill-opacity:1;fill-rule:nonzero;stroke:#ddbdd0;stroke-width:1;stroke-linecap:butt;stroke-linejoin:miter;stroke-miterlimit:4;stroke-dasharray:none;stroke-dashoffset:0;stroke-opacity:1;marker:none;marker-start:none;marker-mid:none;marker-end:none;enable-background:accumulate" />
    <path
       inkscape:connector-curvature="0"
       sodipodi:nodetypes="ccccc"
       id="path853"
       d="M 449.67816,886.77697 425.88293,818.0907 c -104.19463,13.73239 -94.25455,3.9311 -127.79523,0 l -19.79522,68.68627 c 43.06005,15.41361 99.13676,19.54925 171.38568,0 z"
       style="display:inline;overflow:visible;visibility:visible;opacity:1;fill:#000000;fill-opacity:1;fill-rule:nonzero;stroke:#000000;stroke-width:1;stroke-linecap:butt;stroke-linejoin:miter;stroke-miterlimit:4;stroke-dasharray:none;stroke-dashoffset:0;stroke-opacity:1;marker:none;marker-start:none;marker-mid:none;marker-end:none;enable-background:accumulate" />
    <path
       inkscape:connector-curvature="0"
       sodipodi:nodetypes="ccccc"
       id="path855"
       d="m 365.38451,808.95266 -9.02082,-120.45622 -63.6011,9.30155 9.29989,97.98469 z"
       style="display:inline;overflow:visible;visibility:visible;opacity:1;fill:#c6c801;fill-opacity:1;fill-rule:nonzero;stroke:#000000;stroke-width:1;stroke-linecap:butt;stroke-linejoin:miter;stroke-miterlimit:4;stroke-dasharray:none;stroke-dashoffset:0;stroke-opacity:1;marker:none;marker-start:none;marker-mid:none;marker-end:none;enable-background:accumulate" />
    <path
       inkscape:connector-curvature="0"
       sodipodi:nodetypes="cc"
       id="path857"
       d="m 414.5943,780.8505 c -8.08859,1.16138 -14.27507,-0.3491 -21.48614,-6.17974"
       style="display:inline;overflow:visible;visibility:visible;opacity:1;fill:none;fill-opacity:0.70348834;fill-rule:nonzero;stroke:#000000;stroke-width:4;stroke-linecap:round;stroke-linejoin:round;stroke-miterlimit:4;stroke-dasharray:none;stroke-dashoffset:0;stroke-opacity:1;marker:none;marker-start:none;marker-mid:none;marker-end:none;enable-background:accumulate" />
    <path
       inkscape:connector-curvature="0"
       id="path859"
       d="M 358.91581,804.86591 348.82652,689.50877"
       style="display:inline;overflow:visible;visibility:visible;opacity:1;fill:none;fill-opacity:0.70348834;fill-rule:nonzero;stroke:#000000;stroke-width:1;stroke-linecap:butt;stroke-linejoin:miter;stroke-miterlimit:4;stroke-dasharray:none;stroke-dashoffset:0;stroke-opacity:1;marker:none;marker-start:none;marker-mid:none;marker-end:none;enable-background:accumulate" />
    <use
       transform="rotate(180,367.68367,509.73901)"
       height="1046.2856"
       width="747.34698"
       id="use861"
       xlink:href="#path3902"
       y="0"
       x="0" />
    <use
       transform="rotate(180,367.68367,509.73901)"
       height="1046.2856"
       width="747.34698"
       id="use863"
       xlink:href="#use3904"
       y="0"
       x="0" />
    <use
       height="1046.2856"
       width="747.34698"
       transform="rotate(180,367.68367,510.02473)"
       id="use865"
       xlink:href="#use3906"
       y="0"
       x="0" />
    <use
       transform="rotate(180,367.68367,509.56044)"
       height="1046.2856"
       width="747.34698"
       id="use867"
       xlink:href="#use3908"
       y="0"
       x="0" />
    <use
       height="1046.2856"
       width="747.34698"
       transform="rotate(180,367.68367,509.73901)"
       id="use869"
       xlink:href="#use3910"
       y="0"
       x="0" />
    <use
       transform="rotate(180,367.68367,510.2033)"
       height="1046.2856"
       width="747.34698"
       id="use871"
       xlink:href="#use3912"
       y="0"
       x="0" />
    <path
       inkscape:connector-curvature="0"
       sodipodi:nodetypes="cccc"
       id="path873"
       d="m 409.0419,774.76398 c -4.21184,-0.8881 -4.63962,-1.05126 -8.1246,-5.12634 3.66828,-1.53734 5.01132,-1.66092 8.87234,-1.3605 7.82105,1.30025 5.56827,7.36846 -0.74774,6.48684 z"
       style="display:inline;overflow:visible;visibility:visible;opacity:1;fill:#ffffff;fill-opacity:1;fill-rule:nonzero;stroke:#000000;stroke-width:0.5;stroke-linecap:butt;stroke-linejoin:miter;stroke-miterlimit:4;stroke-dasharray:none;stroke-dashoffset:0;stroke-opacity:1;marker:none;marker-start:none;marker-mid:none;marker-end:none;enable-background:accumulate" />
    <path
       transform="scale(-1)"
       style="opacity:1;fill:#6c5353;fill-opacity:1;stroke:#000000;stroke-width:0.50000006;stroke-linecap:round;stroke-linejoin:round;stroke-miterlimit:4;stroke-dasharray:none;stroke-opacity:1"
       d="m -406.74345,-771.64014 a 3.1192534,2.9081445 0 0 1 -3.11925,2.90815 3.1192534,2.9081445 0 0 1 -3.11925,-2.90815 3.1192534,2.9081445 0 0 1 3.11925,-2.90814 3.1192534,2.9081445 0 0 1 3.11925,2.90814 z"
       id="path875" />
    <path
       transform="scale(-1)"
       style="opacity:1;fill:#000000;fill-opacity:1;stroke:#000000;stroke-width:0.5;stroke-linecap:round;stroke-linejoin:round;stroke-miterlimit:4;stroke-dasharray:none;stroke-opacity:1"
       d="m -409.29457,-771.51385 a 0.75761443,0.69447988 0 0 1 -0.75762,0.69447 0.75761443,0.69447988 0 0 1 -0.75761,-0.69447 0.75761443,0.69447988 0 0 1 0.75761,-0.69448 0.75761443,0.69447988 0 0 1 0.75762,0.69448 z"
       id="path877" />
    <path
       inkscape:connector-curvature="0"
       sodipodi:nodetypes="csssssssc"
       id="path879"
       d="m 408.63987,728.97189 c -0.1147,0.11061 -0.4181,-0.74832 -0.47972,-0.85755 -0.17537,-0.31091 0.35936,-0.64875 0.64768,-0.76227 0.61218,-0.24103 1.52779,0.70067 1.69871,1.27155 0.30784,1.02814 -0.52031,2.0002 -1.48758,2.23186 -1.56724,0.37536 -2.9966,-0.88438 -3.29095,-2.3704 -0.44305,-2.23679 1.35535,-4.24781 3.4927,-4.58819 1.11048,-0.17685 3.76655,0.68053 7.27265,1.52981 3.4485,0.83532 5.63456,1.68595 6.7735,2.25796"
       style="fill:none;fill-rule:evenodd;stroke:#000000;stroke-width:1.60000002;stroke-linecap:round;stroke-linejoin:miter;stroke-miterlimit:4;stroke-dasharray:none;stroke-opacity:1" />
    <path
       inkscape:connector-curvature="0"
       sodipodi:nodetypes="ccccc"
       d="m 302.0877,796.09069 -4,22 c 33.54068,3.9311 23.6006,13.73239 127.79523,0 l -8,-22 c -65.30376,10.19686 -69.62764,11.00217 -115.79523,0 z"
       style="display:inline;overflow:visible;visibility:visible;opacity:1;fill:#ff0000;fill-opacity:1;fill-rule:nonzero;stroke:#ff0000;stroke-width:1;stroke-linecap:butt;stroke-linejoin:miter;stroke-miterlimit:4;stroke-dasharray:none;stroke-dashoffset:0;stroke-opacity:1;marker:none;marker-start:none;marker-mid:none;marker-end:none;enable-background:accumulate"
       id="path881" />
    <path
       inkscape:connector-curvature="0"
       style="display:inline;overflow:visible;visibility:visible;opacity:1;fill:#c4c4c4;fill-opacity:1;fill-rule:nonzero;stroke:#000000;stroke-width:1;stroke-linecap:butt;stroke-linejoin:miter;stroke-miterlimit:4;stroke-dasharray:none;stroke-dashoffset:0;stroke-opacity:1;marker:none;marker-start:none;marker-mid:none;marker-end:none;enable-background:accumulate"
       d="m 594.39796,203.00498 -77.32085,-26.07704 v 135.7199 l 77.73554,-26.18816"
       id="path3980"
       sodipodi:nodetypes="cccc" />
    <path
       inkscape:connector-curvature="0"
       style="display:inline;overflow:visible;visibility:visible;opacity:1;fill:#808000;fill-opacity:1;fill-rule:nonzero;stroke:#000000;stroke-width:1;stroke-linecap:butt;stroke-linejoin:miter;stroke-miterlimit:4;stroke-dasharray:none;stroke-dashoffset:0;stroke-opacity:1;marker:none;marker-start:none;marker-mid:none;marker-end:none;enable-background:accumulate"
       d="m 593.24001,481.20752 c -2.0203,-6.06092 0,-279.81226 0,-279.81226 l 16.16245,-23.2335 h 12.12183 v 334.36049 z"
       id="path3978" />
    <path
       inkscape:connector-curvature="0"
       sodipodi:nodetypes="cccc"
       id="path3988"
       d="m 621.32653,178.36212 -14.64286,26.42858 v 292.32142 l 14.64286,14.82143"
       style="display:inline;overflow:visible;visibility:visible;opacity:1;fill:#ff0000;fill-opacity:1;fill-rule:nonzero;stroke:#ff0000;stroke-width:1;stroke-linecap:butt;stroke-linejoin:miter;stroke-miterlimit:4;stroke-dasharray:none;stroke-dashoffset:0;stroke-opacity:1;marker:none;marker-start:none;marker-mid:none;marker-end:none;enable-background:accumulate" />
    <path
       inkscape:connector-curvature="0"
       sodipodi:nodetypes="cccc"
       id="path885"
       d="m 148.20344,816.44523 77.32085,26.07704 v -135.7199 l -77.73554,26.18816"
       style="display:inline;overflow:visible;visibility:visible;opacity:1;fill:#c4c4c4;fill-opacity:1;fill-rule:nonzero;stroke:#000000;stroke-width:1;stroke-linecap:butt;stroke-linejoin:miter;stroke-miterlimit:4;stroke-dasharray:none;stroke-dashoffset:0;stroke-opacity:1;marker:none;marker-start:none;marker-mid:none;marker-end:none;enable-background:accumulate" />
    <path
       inkscape:connector-curvature="0"
       id="path887"
       d="m 149.36139,538.24268 c 2.0203,6.06092 0,279.81226 0,279.81226 l -16.16245,23.2335 h -12.12183 l 0,-334.36049 z"
       style="display:inline;overflow:visible;visibility:visible;opacity:1;fill:#808000;fill-opacity:1;fill-rule:nonzero;stroke:#000000;stroke-width:1;stroke-linecap:butt;stroke-linejoin:miter;stroke-miterlimit:4;stroke-dasharray:none;stroke-dashoffset:0;stroke-opacity:1;marker:none;marker-start:none;marker-mid:none;marker-end:none;enable-background:accumulate" />
    <path
       inkscape:connector-curvature="0"
       style="display:inline;overflow:visible;visibility:visible;opacity:1;fill:#ff0000;fill-opacity:1;fill-rule:nonzero;stroke:#ff0000;stroke-width:1;stroke-linecap:butt;stroke-linejoin:miter;stroke-miterlimit:4;stroke-dasharray:none;stroke-dashoffset:0;stroke-opacity:1;marker:none;marker-start:none;marker-mid:none;marker-end:none;enable-background:accumulate"
       d="m 121.27487,841.08809 14.64286,-26.42858 0,-292.32142 -14.64286,-14.82143"
       id="path889"
       sodipodi:nodetypes="cccc" />
  </g>
</svg>
