<svg version="1.0" viewBox="0 0 747 1000" xmlns="http://www.w3.org/2000/svg"><g fill="red"><path d="M5.8 134.35h23v-80l-25 5.1v-13l25-5.1h14v93h23v12h-60zM125.2 50.35q-11 0-17 11-5.5 11-5.5 32 0 22 5.5 32 5.6 11 17 11 11 0 17-11 5.6-11 5.6-32 0-22-5.6-32-5.5-11-17-11zm0-11q18 0 27 14 9.4 14 9.4 41t-9.4 40q-9.3 14-27 14-18 0-27-14-9.3-14-9.3-40 0-27 9.3-41 9.4-14 27-14zM69.2 181.35l35 46q4.9 6 4.9 6.9l-40 52q-.84-.56-40-52 0-.98 7.8-11zM741.2 911.35h-23v80l25-5.1v13l-25 5.1h-14v-93h-23v-12h60zM622.2 987.35q11 0 17-11 5.5-11 5.5-32 0-22-5.5-32-5.6-11-17-11-11 0-17 11-5.6 11-5.6 32 0 22 5.6 32 5.5 11 17 11zm0 11q-18 0-27-14-9.4-14-9.4-41t9.4-40q9.3-14 27-14 18 0 27 14 9.3 14 9.3 40 0 27-9.3 41-9.4 14-27 14zM678.2 864.35l-35-46q-4.9-6-4.9-6.9l40-52q.84.56 40 52 0 .98-7.8 11zM233.2 108.35q11 18 27 40 18 24 30 37-9 9.5-30 37-17 22-27 40-3.3-6.3-9-15-9.9-15-25-34-3.2-4.3-22-28 12-14 32-40 14-19 24-36zM233.2 938.35q11-18 27-40 18-24 30-37-9-9.5-30-37-17-22-27-40-3.3 6.3-9 15-9.9 15-25 34-3.2 4.3-22 28 12 14 32 40 14 19 24 36zM233.2 328.35q11 18 27 40 18 24 30 37-9 9.5-30 37-17 22-27 40-3.3-6.3-9-15-9.9-15-25-34-3.2-4.3-22-28 12-14 32-40 14-19 24-36zM233.2 718.35q11-18 27-40 18-24 30-37-9-9.5-30-37-17-22-27-40-3.3 6.3-9 15-9.9 15-25 34-3.2 4.3-22 28 12 14 32 40 14 19 24 36zM513.2 108.35q11 18 27 40 18 24 30 37-9 9.5-30 37-17 22-27 40-3.3-6.3-9-15-9.9-15-25-34-3.2-4.3-22-28 12-14 32-40 14-19 24-36zM513.2 938.35q11-18 27-40 18-24 30-37-9-9.5-30-37-17-22-27-40-3.3 6.3-9 15-9.9 15-25 34-3.2 4.3-22 28 12 14 32 40 14 19 24 36zM513.2 328.35q11 18 27 40 18 24 30 37-9 9.5-30 37-17 22-27 40-3.3-6.3-9-15-9.9-15-25-34-3.2-4.3-22-28 12-14 32-40 14-19 24-36zM513.2 718.35q11-18 27-40 18-24 30-37-9-9.5-30-37-17-22-27-40-3.3 6.3-9 15-9.9 15-25 34-3.2 4.3-22 28 12 14 32 40 14 19 24 36zM373.2 234.35q11 18 27 40 18 24 30 37-9 9.5-30 37-17 22-27 40-3.3-6.3-9-15-9.9-15-25-34-3.2-4.3-22-28 12-14 32-40 14-19 24-36zM373.2 824.35q11-18 27-40 18-24 30-37-9-9.5-30-37-17-22-27-40-3.3 6.3-9 15-9.9 15-25 34-3.2 4.3-22 28 12 14 32 40 14 19 24 36z"/></g></svg>