<?xml version="1.0" encoding="UTF-8" standalone="no"?>
<!-- Created with Inkscape (http://www.inkscape.org/) -->

<svg
   xmlns:dc="http://purl.org/dc/elements/1.1/"
   xmlns:cc="http://creativecommons.org/ns#"
   xmlns:rdf="http://www.w3.org/1999/02/22-rdf-syntax-ns#"
   xmlns:svg="http://www.w3.org/2000/svg"
   xmlns="http://www.w3.org/2000/svg"
   xmlns:sodipodi="http://sodipodi.sourceforge.net/DTD/sodipodi-0.dtd"
   xmlns:inkscape="http://www.inkscape.org/namespaces/inkscape"
   width="747.34698"
   height="1046.2856"
   id="svg2"
   sodipodi:version="0.32"
   inkscape:version="0.92.4 (5da689c313, 2019-01-14)"
   version="1.0"
   sodipodi:docname="Cards-A-Heart.svg"
   inkscape:output_extension="org.inkscape.output.svg.inkscape">
  <defs
     id="defs4">
    <inkscape:perspective
       sodipodi:type="inkscape:persp3d"
       inkscape:vp_x="0 : 526.18109 : 1"
       inkscape:vp_y="0 : 1000 : 0"
       inkscape:vp_z="744.09448 : 526.18109 : 1"
       inkscape:persp3d-origin="372.04724 : 350.78739 : 1"
       id="perspective10" />
    <inkscape:perspective
       id="perspective2390"
       inkscape:persp3d-origin="372.04724 : 350.78739 : 1"
       inkscape:vp_z="744.09448 : 526.18109 : 1"
       inkscape:vp_y="0 : 1000 : 0"
       inkscape:vp_x="0 : 526.18109 : 1"
       sodipodi:type="inkscape:persp3d" />
  </defs>
  <sodipodi:namedview
     id="base"
     pagecolor="#ffffff"
     bordercolor="#666666"
     borderopacity="1.0"
     gridtolerance="10000"
     guidetolerance="10"
     objecttolerance="10"
     inkscape:pageopacity="0.0"
     inkscape:pageshadow="2"
     inkscape:zoom="0.49497475"
     inkscape:cx="-720.90342"
     inkscape:cy="606.4673"
     inkscape:document-units="px"
     inkscape:current-layer="g2775"
     showgrid="false"
     showguides="true"
     inkscape:guide-bbox="true"
     inkscape:window-width="3840"
     inkscape:window-height="2066"
     inkscape:window-x="-11"
     inkscape:window-y="-11"
     inkscape:window-maximized="1" />
  <metadata
     id="metadata7">
    <rdf:RDF>
      <cc:Work
         rdf:about="">
        <dc:format>image/svg+xml</dc:format>
        <dc:type
           rdf:resource="http://purl.org/dc/dcmitype/StillImage" />
      </cc:Work>
    </rdf:RDF>
  </metadata>
  <g
     inkscape:label="Layer 1"
     inkscape:groupmode="layer"
     id="layer1"
     transform="translate(2.2448993,-0.6479052)">
    <g
       id="g2775"
       transform="translate(-2.0407968,-11.714273)">
      <path
         inkscape:connector-curvature="0"
         id="path854"
         style="font-style:normal;font-variant:normal;font-weight:normal;font-stretch:normal;font-size:144px;line-height:1.25;font-family:'Arial Narrow';-inkscape-font-specification:'Arial Narrow';text-align:center;text-anchor:middle;fill:#ff0000;fill-opacity:1;stroke:none;stroke-width:1px;stroke-linecap:butt;stroke-linejoin:miter;stroke-opacity:1"
         d="M 65.354156,68.059677 46.088531,120.30186 H 84.690094 Z M 57.338531,54.06749 H 73.440094 L 113.44791,159.04405 H 98.682281 l -9.5625,-26.92969 H 41.799469 l -9.5625,26.92969 H 17.260406 Z" />
      <path
         inkscape:connector-curvature="0"
         id="path857"
         style="font-style:normal;font-variant:normal;font-weight:normal;font-stretch:normal;font-size:144px;line-height:1.25;font-family:'Arial Narrow';-inkscape-font-specification:'Arial Narrow';text-align:center;text-anchor:middle;fill:#ff0000;fill-opacity:1;stroke:none;stroke-width:1px;stroke-linecap:butt;stroke-linejoin:miter;stroke-opacity:1"
         d="m 44.084633,194.13779 q 14.273437,0 22.429687,16.52343 2.953125,6.53907 3.09375,9.98438 h 0.210938 q 2.460937,-11.39063 8.929687,-18.91406 7.59375,-7.59375 17.085938,-7.59375 14.695317,0 23.554687,15.75 2.25,5.83593 2.25,10.96875 0,17.57812 -14.625,33.53906 L 69.819008,299.04404 H 69.397133 L 29.881508,250.59872 q -11.8125,-14.41406 -11.8125,-29.74218 0,-14.83594 13.992187,-23.55469 5.90625,-3.16406 12.023438,-3.16406 z" />
      <path
         inkscape:connector-curvature="0"
         id="path851"
         style="font-style:normal;font-variant:normal;font-weight:normal;font-stretch:normal;font-size:144px;line-height:1.25;font-family:'Arial Narrow';-inkscape-font-specification:'Arial Narrow';text-align:center;text-anchor:middle;fill:#ff0000;fill-opacity:1;stroke:none;stroke-width:1px;stroke-linecap:butt;stroke-linejoin:miter;stroke-opacity:1"
         d="m 681.58466,1002.9503 19.26562,-52.24217 h -38.60156 z m 8.01562,13.9922 H 673.49872 L 633.49091,911.96594 h 14.76562 l 9.5625,26.92969 h 47.32031 l 9.5625,-26.92969 h 14.97657 z" />
      <path
         inkscape:connector-curvature="0"
         id="path848"
         style="font-style:normal;font-variant:normal;font-weight:normal;font-stretch:normal;font-size:144px;line-height:1.25;font-family:'Arial Narrow';-inkscape-font-specification:'Arial Narrow';text-align:center;text-anchor:middle;fill:#ff0000;fill-opacity:1;stroke:none;stroke-width:1px;stroke-linecap:butt;stroke-linejoin:miter;stroke-opacity:1"
         d="m 702.85419,876.87219 q -14.27344,0 -22.42969,-16.52344 -2.95313,-6.53906 -3.09375,-9.98437 h -0.21094 q -2.46094,11.39062 -8.92969,18.91406 -7.59375,7.59375 -17.08593,7.59375 -14.69532,0 -23.55469,-15.75 -2.25,-5.83594 -2.25,-10.96875 0,-17.57812 14.625,-33.53906 l 37.19531,-44.64844 h 0.42188 l 39.51562,48.44531 q 11.8125,14.41407 11.8125,29.74219 0,14.83594 -13.99219,23.55469 -5.90625,3.16406 -12.02343,3.16406 z" />
      <path
         inkscape:connector-curvature="0"
         id="path860"
         style="font-style:normal;font-weight:normal;font-size:500px;line-height:1.25;font-family:Arial;text-align:center;text-anchor:middle;fill:#ff0000;fill-opacity:1;stroke:none;stroke-width:1px;stroke-linecap:butt;stroke-linejoin:miter;stroke-opacity:1"
         d="m 373.95767,691.63293 q -7.56836,-28.80859 -21.72851,-53.95507 -13.91602,-25.39063 -54.19922,-78.61328 -29.54102,-39.0625 -36.37696,-49.56055 -11.23046,-17.08985 -16.35742,-31.25 -4.88281,-14.4043 -4.88281,-29.05274 0,-27.09961 18.06641,-45.41015 18.0664,-18.31055 44.67773,-18.31055 26.85547,0 46.63086,19.04297 14.89258,14.16016 24.16992,42.23633 8.05664,-27.58789 22.70508,-41.99219 20.26367,-19.53125 46.875,-19.53125 26.36719,0 44.67773,18.31055 18.31055,18.0664 18.31055,43.21289 0,21.97265 -10.74219,45.89844 -10.74218,23.68164 -41.5039,62.25585 -40.03906,50.53711 -58.34961,83.00782 -14.4043,25.63476 -21.97266,53.71093 z" />
    </g>
  </g>
</svg>
