<?xml version="1.0" encoding="UTF-8" standalone="no"?>
<!-- Created with Inkscape (http://www.inkscape.org/) -->

<svg
   xmlns:dc="http://purl.org/dc/elements/1.1/"
   xmlns:cc="http://creativecommons.org/ns#"
   xmlns:rdf="http://www.w3.org/1999/02/22-rdf-syntax-ns#"
   xmlns:svg="http://www.w3.org/2000/svg"
   xmlns="http://www.w3.org/2000/svg"
   xmlns:sodipodi="http://sodipodi.sourceforge.net/DTD/sodipodi-0.dtd"
   xmlns:inkscape="http://www.inkscape.org/namespaces/inkscape"
   width="747.34698"
   height="1046.2856"
   id="svg2"
   sodipodi:version="0.32"
   inkscape:version="0.92.4 (5da689c313, 2019-01-14)"
   version="1.0"
   sodipodi:docname="Cards-8-Spade.svg"
   inkscape:output_extension="org.inkscape.output.svg.inkscape">
  <defs
     id="defs4">
    <inkscape:perspective
       sodipodi:type="inkscape:persp3d"
       inkscape:vp_x="0 : 526.18109 : 1"
       inkscape:vp_y="0 : 1000 : 0"
       inkscape:vp_z="744.09448 : 526.18109 : 1"
       inkscape:persp3d-origin="372.04724 : 350.78739 : 1"
       id="perspective10" />
    <inkscape:perspective
       id="perspective2390"
       inkscape:persp3d-origin="372.04724 : 350.78739 : 1"
       inkscape:vp_z="744.09448 : 526.18109 : 1"
       inkscape:vp_y="0 : 1000 : 0"
       inkscape:vp_x="0 : 526.18109 : 1"
       sodipodi:type="inkscape:persp3d" />
  </defs>
  <sodipodi:namedview
     id="base"
     pagecolor="#ffffff"
     bordercolor="#666666"
     borderopacity="1.0"
     gridtolerance="10000"
     guidetolerance="10"
     objecttolerance="10"
     inkscape:pageopacity="0.0"
     inkscape:pageshadow="2"
     inkscape:zoom="0.35"
     inkscape:cx="-874.08674"
     inkscape:cy="537.46409"
     inkscape:document-units="px"
     inkscape:current-layer="layer1"
     showgrid="false"
     showguides="true"
     inkscape:guide-bbox="true"
     inkscape:window-width="3840"
     inkscape:window-height="2066"
     inkscape:window-x="-11"
     inkscape:window-y="-11"
     inkscape:window-maximized="1" />
  <metadata
     id="metadata7">
    <rdf:RDF>
      <cc:Work
         rdf:about="">
        <dc:format>image/svg+xml</dc:format>
        <dc:type
           rdf:resource="http://purl.org/dc/dcmitype/StillImage" />
      </cc:Work>
    </rdf:RDF>
  </metadata>
  <g
     inkscape:label="Layer 1"
     inkscape:groupmode="layer"
     id="layer1"
     transform="translate(2.2448993,-0.6479052)">
    <path
       inkscape:connector-curvature="0"
       id="path913"
       style="font-style:normal;font-variant:normal;font-weight:normal;font-stretch:normal;font-size:144px;line-height:1.25;font-family:'Arial Narrow';-inkscape-font-specification:'Arial Narrow';text-align:center;text-anchor:middle;fill:#000000;fill-opacity:1;stroke:none;stroke-width:1px;stroke-linecap:butt;stroke-linejoin:miter;stroke-opacity:1"
       d="m 59.323124,97.47821 q -10.125,0 -15.960938,5.41406 -5.765625,5.41407 -5.765625,14.90625 0,9.49219 5.765625,14.90625 5.835938,5.41407 15.960938,5.41407 10.125,0 15.960937,-5.41407 5.835938,-5.48437 5.835938,-14.90625 0,-9.49218 -5.835938,-14.90625 -5.765625,-5.41406 -15.960937,-5.41406 z M 45.119999,91.431335 q -9.140625,-2.25 -14.273438,-8.507812 -5.0625,-6.257813 -5.0625,-15.257813 0,-12.585937 8.929688,-19.898437 9,-7.3125 24.609375,-7.3125 15.679687,0 24.609375,7.3125 8.929687,7.3125 8.929687,19.898437 0,9 -5.132812,15.257813 -5.0625,6.257812 -14.132813,8.507812 10.265625,2.390625 15.960938,9.351565 5.765625,6.96094 5.765625,17.01562 0,15.25782 -9.351563,23.41407 -9.28125,8.15625 -26.648437,8.15625 -17.367188,0 -26.71875,-8.15625 -9.28125,-8.15625 -9.28125,-23.41407 0,-10.05468 5.765625,-17.01562 5.765625,-6.96094 16.03125,-9.351565 z M 39.916874,69.001648 q 0,8.15625 5.0625,12.726562 5.132812,4.570313 14.34375,4.570313 9.140625,0 14.273437,-4.570313 5.203125,-4.570312 5.203125,-12.726562 0,-8.15625 -5.203125,-12.726563 -5.132812,-4.570312 -14.273437,-4.570312 -9.210938,0 -14.34375,4.570312 -5.0625,4.570313 -5.0625,12.726563 z" />
    <path
       inkscape:connector-curvature="0"
       id="path916"
       style="font-style:normal;font-variant:normal;font-weight:normal;font-stretch:normal;font-size:144px;line-height:1.25;font-family:'Arial Narrow';-inkscape-font-specification:'Arial Narrow';text-align:center;text-anchor:middle;fill:#000000;fill-opacity:1;stroke:none;stroke-width:1px;stroke-linecap:butt;stroke-linejoin:miter;stroke-opacity:1"
       d="m 63.647343,182.42352 q 6.609375,11.74219 21.796875,31.14844 16.664062,19.54688 17.085942,23.55469 2.74218,5.97656 2.74218,11.60156 v 2.8125 q 0,11.74219 -11.390622,18.49219 -3.726563,1.54687 -8.226563,1.54687 -10.828125,0 -17.507812,-15.53906 h -2.953125 v 0.84375 q 0,19.89844 5.835937,30.44531 H 55.912968 v -0.42187 q 5.976562,-10.61719 5.976562,-30.65625 l -0.210937,-0.21094 h -2.671875 l -3.304688,6.1875 q -5.976562,9.35156 -14.90625,9.35156 -13.148437,0 -18.492187,-14.69531 l -0.632813,-5.13281 v -3.23438 q 0,-12.86718 13.148438,-27.14062 22.148437,-27.14063 28.40625,-38.74219 l 0.210937,-0.21094 z" />
    <path
       inkscape:connector-curvature="0"
       id="path910"
       style="font-style:normal;font-variant:normal;font-weight:normal;font-stretch:normal;font-size:144px;line-height:1.25;font-family:'Arial Narrow';-inkscape-font-specification:'Arial Narrow';text-align:center;text-anchor:middle;fill:#000000;fill-opacity:1;stroke:none;stroke-width:1px;stroke-linecap:butt;stroke-linejoin:miter;stroke-opacity:1"
       d="m 683.53406,950.10321 q 10.125,0 15.96094,-5.41406 5.76562,-5.41406 5.76562,-14.90625 0,-9.49219 -5.76562,-14.90625 -5.83594,-5.41406 -15.96094,-5.41406 -10.125,0 -15.96094,5.41406 -5.83594,5.48437 -5.83594,14.90625 0,9.49219 5.83594,14.90625 5.76563,5.41406 15.96094,5.41406 z m 14.20312,6.04688 q 9.14063,2.25 14.27344,8.50781 5.0625,6.25781 5.0625,15.25781 0,12.58594 -8.92969,19.89844 -9,7.31245 -24.60937,7.31245 -15.67969,0 -24.60938,-7.31245 -8.92968,-7.3125 -8.92968,-19.89844 0,-9 5.13281,-15.25781 5.0625,-6.25781 14.13281,-8.50781 -10.26562,-2.39063 -15.96094,-9.35157 -5.76562,-6.96093 -5.76562,-17.01562 0,-15.25781 9.35156,-23.41406 9.28125,-8.15625 26.64844,-8.15625 17.36719,0 26.71875,8.15625 9.28125,8.15625 9.28125,23.41406 0,10.05469 -5.76563,17.01562 -5.76562,6.96094 -16.03125,9.35157 z m 5.20313,22.42968 q 0,-8.15625 -5.0625,-12.72656 -5.13281,-4.57031 -14.34375,-4.57031 -9.14063,0 -14.27344,4.57031 -5.20312,4.57031 -5.20312,12.72656 0,8.15625 5.20312,12.72657 5.13281,4.57031 14.27344,4.57031 9.21094,0 14.34375,-4.57031 5.0625,-4.57032 5.0625,-12.72657 z" />
    <path
       inkscape:connector-curvature="0"
       id="path907"
       style="font-style:normal;font-variant:normal;font-weight:normal;font-stretch:normal;font-size:144px;line-height:1.25;font-family:'Arial Narrow';-inkscape-font-specification:'Arial Narrow';text-align:center;text-anchor:middle;fill:#000000;fill-opacity:1;stroke:none;stroke-width:1px;stroke-linecap:butt;stroke-linejoin:miter;stroke-opacity:1"
       d="m 679.20984,865.1579 q -6.60938,-11.74219 -21.79688,-31.14844 -16.66406,-19.54687 -17.08593,-23.55469 -2.74219,-5.97656 -2.74219,-11.60156 v -2.8125 q 0,-11.74219 11.39062,-18.49219 3.72657,-1.54687 8.22657,-1.54687 10.82812,0 17.50781,15.53906 h 2.95312 v -0.84375 q 0,-19.89844 -5.83593,-30.44531 h 15.11718 v 0.42187 q -5.97656,10.61719 -5.97656,30.65625 l 0.21094,0.21094 h 2.67187 l 3.30469,-6.1875 q 5.97656,-9.35156 14.90625,-9.35156 13.14844,0 18.49219,14.69531 l 0.63281,5.13281 v 3.23438 q 0,12.86719 -13.14844,27.14062 -22.14843,27.14063 -28.40625,38.74219 l -0.21093,0.21094 z" />
    <path
       inkscape:connector-curvature="0"
       id="path901"
       style="font-style:normal;font-weight:normal;font-size:250px;line-height:1.25;font-family:Arial;text-align:center;text-anchor:middle;fill:#000000;fill-opacity:1;stroke:none;stroke-width:1px;stroke-linecap:butt;stroke-linejoin:miter;stroke-opacity:1"
       d="m 231.55066,148.65646 q 3.17383,13.1836 9.76562,23.55957 6.5918,10.37598 23.4375,25.75684 16.96778,15.25879 21.48438,23.4375 4.5166,8.17871 4.5166,16.60156 0,11.71875 -7.8125,19.53125 -7.8125,7.8125 -19.04297,7.8125 -9.52148,0 -17.33398,-5.85937 -7.69043,-5.98145 -13.67188,-17.33399 0.12207,17.94434 4.63867,28.56446 4.63868,10.49804 14.64844,16.60156 10.13184,5.98144 26.85547,7.08008 l 0.85449,4.5166 h -96.80175 l 0.97656,-4.5166 q 22.46094,0 34.79004,-13.06153 12.45117,-13.18359 11.96289,-39.18457 -5.49317,11.59668 -13.67188,17.45606 -8.05664,5.7373 -18.31054,5.7373 -10.98633,0 -18.9209,-7.93457 -7.8125,-7.93457 -7.8125,-19.04297 0,-8.91113 4.02832,-16.11328 5.49316,-10.00976 17.82226,-20.1416 12.3291,-10.13184 18.18848,-16.72363 8.91113,-10.13184 12.93945,-18.06641 4.15039,-7.93457 6.46973,-18.67676 z" />
    <path
       inkscape:connector-curvature="0"
       d="m 231.55066,898.92494 q 3.17383,-13.1836 9.76562,-23.55957 6.5918,-10.37598 23.4375,-25.75684 16.96778,-15.25879 21.48438,-23.4375 4.5166,-8.17871 4.5166,-16.60156 0,-11.71875 -7.8125,-19.53125 -7.8125,-7.8125 -19.04297,-7.8125 -9.52148,0 -17.33398,5.85937 -7.69043,5.98145 -13.67188,17.33399 0.12207,-17.94434 4.63867,-28.56446 4.63868,-10.49804 14.64844,-16.60156 10.13184,-5.98144 26.85547,-7.08008 l 0.85449,-4.5166 h -96.80175 l 0.97656,4.5166 q 22.46094,0 34.79004,13.06153 12.45117,13.18359 11.96289,39.18457 -5.49317,-11.59668 -13.67188,-17.45606 -8.05664,-5.7373 -18.31054,-5.7373 -10.98633,0 -18.9209,7.93457 -7.8125,7.93457 -7.8125,19.04297 0,8.91113 4.02832,16.11328 5.49316,10.00976 17.82226,20.1416 12.3291,10.13184 18.18848,16.72363 8.91113,10.13184 12.93945,18.06641 4.15039,7.93457 6.46973,18.67676 z"
       style="font-style:normal;font-weight:normal;font-size:250px;line-height:1.25;font-family:Arial;text-align:center;text-anchor:middle;fill:#000000;fill-opacity:1;stroke:none;stroke-width:1px;stroke-linecap:butt;stroke-linejoin:miter;stroke-opacity:1"
       id="path927" />
    <path
       inkscape:connector-curvature="0"
       d="m 231.55066,448.65646 q 3.17383,13.1836 9.76562,23.55957 6.5918,10.37598 23.4375,25.75684 16.96778,15.25879 21.48438,23.4375 4.5166,8.17871 4.5166,16.60156 0,11.71875 -7.8125,19.53125 -7.8125,7.8125 -19.04297,7.8125 -9.52148,0 -17.33398,-5.85937 -7.69043,-5.98145 -13.67188,-17.33399 0.12207,17.94434 4.63867,28.56446 4.63868,10.49804 14.64844,16.60156 10.13184,5.98144 26.85547,7.08008 l 0.85449,4.5166 h -96.80175 l 0.97656,-4.5166 q 22.46094,0 34.79004,-13.06153 12.45117,-13.18359 11.96289,-39.18457 -5.49317,11.59668 -13.67188,17.45606 -8.05664,5.7373 -18.31054,5.7373 -10.98633,0 -18.9209,-7.93457 -7.8125,-7.93457 -7.8125,-19.04297 0,-8.91113 4.02832,-16.11328 5.49316,-10.00976 17.82226,-20.1416 12.3291,-10.13184 18.18848,-16.72363 8.91113,-10.13184 12.93945,-18.06641 4.15039,-7.93457 6.46973,-18.67676 z"
       style="font-style:normal;font-weight:normal;font-size:250px;line-height:1.25;font-family:Arial;text-align:center;text-anchor:middle;fill:#000000;fill-opacity:1;stroke:none;stroke-width:1px;stroke-linecap:butt;stroke-linejoin:miter;stroke-opacity:1"
       id="path931" />
    <path
       inkscape:connector-curvature="0"
       id="path898"
       style="font-style:normal;font-weight:normal;font-size:250px;line-height:1.25;font-family:Arial;text-align:center;text-anchor:middle;fill:#000000;fill-opacity:1;stroke:none;stroke-width:1px;stroke-linecap:butt;stroke-linejoin:miter;stroke-opacity:1"
       d="m 511.55066,148.65646 q 3.17383,13.1836 9.76562,23.55957 6.5918,10.37598 23.4375,25.75684 16.96778,15.25879 21.48438,23.4375 4.5166,8.17871 4.5166,16.60156 0,11.71875 -7.8125,19.53125 -7.8125,7.8125 -19.04297,7.8125 -9.52148,0 -17.33398,-5.85937 -7.69043,-5.98145 -13.67188,-17.33399 0.12207,17.94434 4.63867,28.56446 4.63868,10.49804 14.64844,16.60156 10.13184,5.98144 26.85547,7.08008 l 0.85449,4.5166 h -96.80175 l 0.97656,-4.5166 q 22.46094,0 34.79004,-13.06153 12.45117,-13.18359 11.96289,-39.18457 -5.49317,11.59668 -13.67188,17.45606 -8.05664,5.7373 -18.31054,5.7373 -10.98633,0 -18.9209,-7.93457 -7.8125,-7.93457 -7.8125,-19.04297 0,-8.91113 4.02832,-16.11328 5.49316,-10.00976 17.82226,-20.1416 12.3291,-10.13184 18.18848,-16.72363 8.91113,-10.13184 12.93945,-18.06641 4.15039,-7.93457 6.46973,-18.67676 z" />
    <path
       inkscape:connector-curvature="0"
       d="m 511.55066,898.92494 q 3.17383,-13.1836 9.76562,-23.55957 6.5918,-10.37598 23.4375,-25.75684 16.96778,-15.25879 21.48438,-23.4375 4.5166,-8.17871 4.5166,-16.60156 0,-11.71875 -7.8125,-19.53125 -7.8125,-7.8125 -19.04297,-7.8125 -9.52148,0 -17.33398,5.85937 -7.69043,5.98145 -13.67188,17.33399 0.12207,-17.94434 4.63867,-28.56446 4.63868,-10.49804 14.64844,-16.60156 10.13184,-5.98144 26.85547,-7.08008 l 0.85449,-4.5166 h -96.80175 l 0.97656,4.5166 q 22.46094,0 34.79004,13.06153 12.45117,13.18359 11.96289,39.18457 -5.49317,-11.59668 -13.67188,-17.45606 -8.05664,-5.7373 -18.31054,-5.7373 -10.98633,0 -18.9209,7.93457 -7.8125,7.93457 -7.8125,19.04297 0,8.91113 4.02832,16.11328 5.49316,10.00976 17.82226,20.1416 12.3291,10.13184 18.18848,16.72363 8.91113,10.13184 12.93945,18.06641 4.15039,7.93457 6.46973,18.67676 z"
       style="font-style:normal;font-weight:normal;font-size:250px;line-height:1.25;font-family:Arial;text-align:center;text-anchor:middle;fill:#000000;fill-opacity:1;stroke:none;stroke-width:1px;stroke-linecap:butt;stroke-linejoin:miter;stroke-opacity:1"
       id="path923" />
    <path
       inkscape:connector-curvature="0"
       d="m 511.55066,448.65646 q 3.17383,13.1836 9.76562,23.55957 6.5918,10.37598 23.4375,25.75684 16.96778,15.25879 21.48438,23.4375 4.5166,8.17871 4.5166,16.60156 0,11.71875 -7.8125,19.53125 -7.8125,7.8125 -19.04297,7.8125 -9.52148,0 -17.33398,-5.85937 -7.69043,-5.98145 -13.67188,-17.33399 0.12207,17.94434 4.63867,28.56446 4.63868,10.49804 14.64844,16.60156 10.13184,5.98144 26.85547,7.08008 l 0.85449,4.5166 h -96.80175 l 0.97656,-4.5166 q 22.46094,0 34.79004,-13.06153 12.45117,-13.18359 11.96289,-39.18457 -5.49317,11.59668 -13.67188,17.45606 -8.05664,5.7373 -18.31054,5.7373 -10.98633,0 -18.9209,-7.93457 -7.8125,-7.93457 -7.8125,-19.04297 0,-8.91113 4.02832,-16.11328 5.49316,-10.00976 17.82226,-20.1416 12.3291,-10.13184 18.18848,-16.72363 8.91113,-10.13184 12.93945,-18.06641 4.15039,-7.93457 6.46973,-18.67676 z"
       style="font-style:normal;font-weight:normal;font-size:250px;line-height:1.25;font-family:Arial;text-align:center;text-anchor:middle;fill:#000000;fill-opacity:1;stroke:none;stroke-width:1px;stroke-linecap:butt;stroke-linejoin:miter;stroke-opacity:1"
       id="path919" />
    <path
       inkscape:connector-curvature="0"
       id="path904"
       style="font-style:normal;font-weight:normal;font-size:250px;line-height:1.25;font-family:Arial;text-align:center;text-anchor:middle;fill:#000000;fill-opacity:1;stroke:none;stroke-width:1px;stroke-linecap:butt;stroke-linejoin:miter;stroke-opacity:1"
       d="m 371.55066,308.65643 q 3.17383,13.1836 9.76562,23.55957 6.5918,10.37598 23.4375,25.75684 16.96778,15.25879 21.48438,23.4375 4.5166,8.17871 4.5166,16.60156 0,11.71875 -7.8125,19.53125 -7.8125,7.8125 -19.04297,7.8125 -9.52148,0 -17.33398,-5.85937 -7.69043,-5.98145 -13.67188,-17.33399 0.12207,17.94434 4.63867,28.56446 4.63868,10.49804 14.64844,16.60156 10.13184,5.98144 26.85547,7.08008 l 0.85449,4.5166 h -96.80175 l 0.97656,-4.5166 q 22.46094,0 34.79004,-13.06153 12.45117,-13.18359 11.96289,-39.18457 -5.49317,11.59668 -13.67188,17.45606 -8.05664,5.7373 -18.31054,5.7373 -10.98633,0 -18.9209,-7.93457 -7.8125,-7.93457 -7.8125,-19.04297 0,-8.91113 4.02832,-16.11328 5.49316,-10.00976 17.82226,-20.1416 12.3291,-10.13184 18.18848,-16.72363 8.91113,-10.13184 12.93945,-18.06641 4.15039,-7.93457 6.46973,-18.67676 z" />
    <path
       inkscape:connector-curvature="0"
       d="m 371.55066,778.92497 q 3.17383,-13.1836 9.76562,-23.55957 6.5918,-10.37598 23.4375,-25.75684 16.96778,-15.25879 21.48438,-23.4375 4.5166,-8.17871 4.5166,-16.60156 0,-11.71875 -7.8125,-19.53125 -7.8125,-7.8125 -19.04297,-7.8125 -9.52148,0 -17.33398,5.85937 -7.69043,5.98145 -13.67188,17.33399 0.12207,-17.94434 4.63867,-28.56446 4.63868,-10.49804 14.64844,-16.60156 10.13184,-5.98144 26.85547,-7.08008 l 0.85449,-4.5166 h -96.80175 l 0.97656,4.5166 q 22.46094,0 34.79004,13.06153 12.45117,13.18359 11.96289,39.18457 -5.49317,-11.59668 -13.67188,-17.45606 -8.05664,-5.7373 -18.31054,-5.7373 -10.98633,0 -18.9209,7.93457 -7.8125,7.93457 -7.8125,19.04297 0,8.91113 4.02832,16.11328 5.49316,10.00976 17.82226,20.1416 12.3291,10.13184 18.18848,16.72363 8.91113,10.13184 12.93945,18.06641 4.15039,7.93457 6.46973,18.67676 z"
       style="font-style:normal;font-weight:normal;font-size:250px;line-height:1.25;font-family:Arial;text-align:center;text-anchor:middle;fill:#000000;fill-opacity:1;stroke:none;stroke-width:1px;stroke-linecap:butt;stroke-linejoin:miter;stroke-opacity:1"
       id="path935" />
  </g>
</svg>
