<svg version="1.0" viewBox="0 0 747 1000" xmlns="http://www.w3.org/2000/svg"><g fill="red"><path d="M61.2 96.35q-10 0-16 5.4-5.8 5.4-5.8 15t5.8 15q5.8 5.4 16 5.4t16-5.4q5.8-5.5 5.8-15t-5.8-15q-5.8-5.4-16-5.4zm-14-6q-9.1-2.2-14-8.5-5.1-6.3-5.1-15 0-13 8.9-20 9-7.3 25-7.3t25 7.3q8.9 7.3 8.9 20 0 9-5.1 15-5.1 6.3-14 8.5 10 2.4 16 9.4 5.8 7 5.8 17 0 15-9.4 23-9.3 8.2-27 8.2-17 0-27-8.2-9.3-8.2-9.3-23 0-10 5.8-17t16-9.4zm-5.2-22q0 8.2 5.1 13 5.1 4.6 14 4.6 9.1 0 14-4.6 5.2-4.6 5.2-13t-5.2-13q-5.1-4.6-14-4.6-9.2 0-14 4.6-5.1 4.6-5.1 13zM66.2 181.35l35 46q4.9 6 4.9 6.9l-40 52q-.84-.56-40-52 0-.98 7.8-11zM685.2 949.35q10 0 16-5.4 5.8-5.4 5.8-15t-5.8-15q-5.8-5.4-16-5.4t-16 5.4q-5.8 5.5-5.8 15t5.8 15q5.8 5.4 16 5.4zm14 6q9.1 2.2 14 8.5 5.1 6.3 5.1 15 0 13-8.9 20-9 7.3-25 7.3t-25-7.3q-8.9-7.3-8.9-20 0-9 5.1-15 5.1-6.3 14-8.5-10-2.4-16-9.4-5.8-7-5.8-17 0-15 9.4-23 9.3-8.2 27-8.2t27 8.2q9.3 8.2 9.3 23 0 10-5.8 17t-16 9.4zm5.2 22q0-8.2-5.1-13-5.1-4.6-14-4.6-9.1 0-14 4.6-5.2 4.6-5.2 13t5.2 13q5.1 4.6 14 4.6 9.2 0 14-4.6 5.1-4.6 5.1-13zM681.2 864.35l-35-46q-4.9-6-4.9-6.9l40-52q.84.56 40 52 0 .98-7.8 11zM233.2 148.35q11 18 27 40 18 24 30 37-9 9.5-30 37-17 22-27 40-3.3-6.3-9-15-9.9-15-25-34-3.2-4.3-22-28 12-14 32-40 14-19 24-36zM233.2 898.35q11-18 27-40 18-24 30-37-9-9.5-30-37-17-22-27-40-3.3 6.3-9 15-9.9 15-25 34-3.2 4.3-22 28 12 14 32 40 14 19 24 36zM233.2 448.35q11 18 27 40 18 24 30 37-9 9.5-30 37-17 22-27 40-3.3-6.3-9-15-9.9-15-25-34-3.2-4.3-22-28 12-14 32-40 14-19 24-36zM513.2 148.35q11 18 27 40 18 24 30 37-9 9.5-30 37-17 22-27 40-3.3-6.3-9-15-9.9-15-25-34-3.2-4.3-22-28 12-14 32-40 14-19 24-36zM513.2 898.35q11-18 27-40 18-24 30-37-9-9.5-30-37-17-22-27-40-3.3 6.3-9 15-9.9 15-25 34-3.2 4.3-22 28 12 14 32 40 14 19 24 36zM513.2 448.35q11 18 27 40 18 24 30 37-9 9.5-30 37-17 22-27 40-3.3-6.3-9-15-9.9-15-25-34-3.2-4.3-22-28 12-14 32-40 14-19 24-36zM373.2 308.35q11 18 27 40 18 24 30 37-9 9.5-30 37-17 22-27 40-3.3-6.3-9-15-9.9-15-25-34-3.2-4.3-22-28 12-14 32-40 14-19 24-36zM373.2 778.35q11-18 27-40 18-24 30-37-9-9.5-30-37-17-22-27-40-3.3 6.3-9 15-9.9 15-25 34-3.2 4.3-22 28 12 14 32 40 14 19 24 36z"/></g></svg>